G04*
G04 #@! TF.GenerationSoftware,Altium Limited,Altium Designer,20.2.4 (192)*
G04*
G04 Layer_Color=8421504*
%FSLAX44Y44*%
%MOMM*%
G71*
G04*
G04 #@! TF.SameCoordinates,BA5F34B0-8EF9-400C-9F63-0181D384F855*
G04*
G04*
G04 #@! TF.FilePolarity,Positive*
G04*
G01*
G75*
%ADD15C,0.4000*%
%ADD16R,0.9000X0.5500*%
%ADD17R,1.0000X0.5000*%
%ADD18R,0.5500X0.9000*%
%ADD19R,0.8000X0.6000*%
%ADD20R,2.6500X1.4000*%
%ADD21R,0.6000X1.0000*%
%ADD22R,1.0500X1.4500*%
%ADD23R,1.0000X0.6000*%
%ADD24R,0.6000X0.8000*%
%ADD25C,1.0000*%
%ADD26R,1.2400X1.2900*%
%ADD27R,1.6500X1.6500*%
%ADD28O,0.2000X0.8000*%
%ADD29O,0.8000X0.2000*%
%ADD30R,0.6500X1.7000*%
%ADD31R,1.4000X2.6500*%
%ADD32R,2.1000X1.9000*%
%ADD33O,0.6000X1.5000*%
%ADD34R,4.4500X4.4500*%
G04:AMPARAMS|DCode=35|XSize=0.25mm|YSize=0.75mm|CornerRadius=0.125mm|HoleSize=0mm|Usage=FLASHONLY|Rotation=180.000|XOffset=0mm|YOffset=0mm|HoleType=Round|Shape=RoundedRectangle|*
%AMROUNDEDRECTD35*
21,1,0.2500,0.5000,0,0,180.0*
21,1,0.0000,0.7500,0,0,180.0*
1,1,0.2500,0.0000,0.2500*
1,1,0.2500,0.0000,0.2500*
1,1,0.2500,0.0000,-0.2500*
1,1,0.2500,0.0000,-0.2500*
%
%ADD35ROUNDEDRECTD35*%
G04:AMPARAMS|DCode=36|XSize=0.75mm|YSize=0.25mm|CornerRadius=0.125mm|HoleSize=0mm|Usage=FLASHONLY|Rotation=180.000|XOffset=0mm|YOffset=0mm|HoleType=Round|Shape=RoundedRectangle|*
%AMROUNDEDRECTD36*
21,1,0.7500,0.0000,0,0,180.0*
21,1,0.5000,0.2500,0,0,180.0*
1,1,0.2500,-0.2500,0.0000*
1,1,0.2500,0.2500,0.0000*
1,1,0.2500,0.2500,0.0000*
1,1,0.2500,-0.2500,0.0000*
%
%ADD36ROUNDEDRECTD36*%
%ADD37R,2.2000X2.0000*%
%ADD38R,0.6000X1.2000*%
%ADD39R,1.1500X1.4500*%
%ADD40R,0.4000X1.4000*%
%ADD41R,1.7500X1.9000*%
D15*
X501500Y529998D02*
D03*
X491500D02*
D03*
X481501D02*
D03*
X471501D02*
D03*
X461500D02*
D03*
X451500D02*
D03*
X441500D02*
D03*
X431501D02*
D03*
X421501D02*
D03*
X411500D02*
D03*
X401500D02*
D03*
X391500D02*
D03*
X381501D02*
D03*
X371501D02*
D03*
X491500Y539998D02*
D03*
X481501D02*
D03*
X471501D02*
D03*
X461500D02*
D03*
X451500D02*
D03*
X441500D02*
D03*
X431501D02*
D03*
X421501D02*
D03*
X411500D02*
D03*
X401500D02*
D03*
X391500D02*
D03*
X381501D02*
D03*
X371501D02*
D03*
X501500Y549998D02*
D03*
X491500D02*
D03*
X481501D02*
D03*
X471501D02*
D03*
X461500D02*
D03*
X451500D02*
D03*
X441500D02*
D03*
X431501D02*
D03*
X421501D02*
D03*
X411500D02*
D03*
X401500D02*
D03*
X391500D02*
D03*
X381501D02*
D03*
X371501D02*
D03*
X501500Y559998D02*
D03*
X491500D02*
D03*
X481501D02*
D03*
X471501D02*
D03*
X461500D02*
D03*
X451500D02*
D03*
X441500D02*
D03*
X431501D02*
D03*
X421501D02*
D03*
X411500D02*
D03*
X401500D02*
D03*
X391500D02*
D03*
X381501D02*
D03*
X371501D02*
D03*
X501500Y569998D02*
D03*
X491500D02*
D03*
X481501D02*
D03*
X471501D02*
D03*
X461500D02*
D03*
X451500D02*
D03*
X441500D02*
D03*
X431501D02*
D03*
X421501D02*
D03*
X411500D02*
D03*
X401500D02*
D03*
X391500D02*
D03*
X381501D02*
D03*
X371501D02*
D03*
X491500Y579998D02*
D03*
X481501D02*
D03*
X471501D02*
D03*
X461500D02*
D03*
X451500D02*
D03*
X441500D02*
D03*
X431501D02*
D03*
X421501D02*
D03*
X411500D02*
D03*
X401500D02*
D03*
X391500D02*
D03*
X381501D02*
D03*
X371501D02*
D03*
X501500Y589998D02*
D03*
X491500D02*
D03*
X481501D02*
D03*
X471501D02*
D03*
X461500D02*
D03*
X451500D02*
D03*
X441500D02*
D03*
X431501D02*
D03*
X421501D02*
D03*
X411500D02*
D03*
X401500D02*
D03*
X391500D02*
D03*
X381501D02*
D03*
X371501D02*
D03*
X491500Y599998D02*
D03*
X481501D02*
D03*
X471501D02*
D03*
X461500D02*
D03*
X451500D02*
D03*
X441500D02*
D03*
X431501D02*
D03*
X421501D02*
D03*
X411500D02*
D03*
X401500D02*
D03*
X391500D02*
D03*
X381501D02*
D03*
X371501D02*
D03*
X491500Y609998D02*
D03*
X481501D02*
D03*
X471501D02*
D03*
X461500D02*
D03*
X451500D02*
D03*
X441500D02*
D03*
X431501D02*
D03*
X421501D02*
D03*
X411500D02*
D03*
X401500D02*
D03*
X391500D02*
D03*
X381501D02*
D03*
X371501D02*
D03*
X501500Y619998D02*
D03*
X491500D02*
D03*
X481501D02*
D03*
X471501D02*
D03*
X461500D02*
D03*
X451500D02*
D03*
X441500D02*
D03*
X431501D02*
D03*
X421501D02*
D03*
X411500D02*
D03*
X401500D02*
D03*
X391500D02*
D03*
X381501D02*
D03*
X371501D02*
D03*
X501500Y629998D02*
D03*
X491500D02*
D03*
X481501D02*
D03*
X471501D02*
D03*
X461500D02*
D03*
X451500D02*
D03*
X441500D02*
D03*
X431501D02*
D03*
X421501D02*
D03*
X411500D02*
D03*
X381501D02*
D03*
X371501D02*
D03*
X501500Y639998D02*
D03*
X491500D02*
D03*
X481501D02*
D03*
X471501D02*
D03*
X461500D02*
D03*
X451500D02*
D03*
X441500D02*
D03*
X431501D02*
D03*
X421501D02*
D03*
X411500D02*
D03*
X381501D02*
D03*
X371501D02*
D03*
X501500Y649998D02*
D03*
X491500D02*
D03*
X481501D02*
D03*
X471501D02*
D03*
X461500D02*
D03*
X451500D02*
D03*
X441500D02*
D03*
X431501D02*
D03*
X401500D02*
D03*
X371501D02*
D03*
X501500Y659998D02*
D03*
X491500D02*
D03*
X481501D02*
D03*
X471501D02*
D03*
X461500D02*
D03*
X451500D02*
D03*
X441500D02*
D03*
X431501D02*
D03*
X421501D02*
D03*
X371501D02*
D03*
X501500Y579998D02*
D03*
X391500Y639998D02*
D03*
Y649998D02*
D03*
X501500Y539998D02*
D03*
Y599998D02*
D03*
Y609998D02*
D03*
X401500Y629998D02*
D03*
X391500D02*
D03*
X401500Y639998D02*
D03*
X421501Y649998D02*
D03*
X411500D02*
D03*
X381501D02*
D03*
X411500Y659998D02*
D03*
X401500D02*
D03*
X391500D02*
D03*
X381501D02*
D03*
D16*
X341340Y487748D02*
D03*
Y472748D02*
D03*
X91550Y218588D02*
D03*
Y203588D02*
D03*
X381980Y487748D02*
D03*
Y472748D02*
D03*
X315000Y487498D02*
D03*
Y472498D02*
D03*
X361660Y487748D02*
D03*
Y472748D02*
D03*
X336396Y840888D02*
D03*
Y825888D02*
D03*
X424410Y840888D02*
D03*
Y825888D02*
D03*
X248383Y840888D02*
D03*
Y825888D02*
D03*
X600437Y840888D02*
D03*
Y825888D02*
D03*
X688450Y840888D02*
D03*
Y825888D02*
D03*
X512423Y840888D02*
D03*
Y825888D02*
D03*
X160369Y840888D02*
D03*
Y825888D02*
D03*
X82500Y842498D02*
D03*
Y827498D02*
D03*
X248383Y912418D02*
D03*
Y927418D02*
D03*
X336396Y912418D02*
D03*
Y927418D02*
D03*
X688450Y912418D02*
D03*
Y927418D02*
D03*
X512423Y912418D02*
D03*
Y927418D02*
D03*
X160369Y912418D02*
D03*
Y927418D02*
D03*
X424410Y912418D02*
D03*
Y927418D02*
D03*
X600437Y912418D02*
D03*
Y927418D02*
D03*
X82500Y897498D02*
D03*
Y912498D02*
D03*
X404000Y487498D02*
D03*
Y472498D02*
D03*
X524620Y472948D02*
D03*
Y487948D02*
D03*
X504300Y487828D02*
D03*
Y472828D02*
D03*
X483980Y487828D02*
D03*
Y472828D02*
D03*
X529700Y574428D02*
D03*
Y589428D02*
D03*
X90280Y127148D02*
D03*
Y112148D02*
D03*
X199110Y91961D02*
D03*
Y76961D02*
D03*
X242290Y91961D02*
D03*
Y76961D02*
D03*
X110600Y112148D02*
D03*
Y127148D02*
D03*
X341740Y42058D02*
D03*
Y27058D02*
D03*
X220700Y91961D02*
D03*
Y76961D02*
D03*
X287130Y42058D02*
D03*
Y27058D02*
D03*
D17*
X205000Y739498D02*
D03*
Y729998D02*
D03*
Y720498D02*
D03*
X178000D02*
D03*
Y729998D02*
D03*
Y739498D02*
D03*
X205000Y496998D02*
D03*
Y487498D02*
D03*
Y477998D02*
D03*
X178000D02*
D03*
Y487498D02*
D03*
Y496998D02*
D03*
D18*
X238000Y238998D02*
D03*
X223000D02*
D03*
X223000Y222998D02*
D03*
X238000D02*
D03*
X224000Y326998D02*
D03*
X239000D02*
D03*
X224000Y341998D02*
D03*
X239000D02*
D03*
X516000Y63998D02*
D03*
X531000D02*
D03*
X647000Y109998D02*
D03*
X632000D02*
D03*
X647000Y172998D02*
D03*
X632000D02*
D03*
X718906Y72658D02*
D03*
X733906D02*
D03*
X718906Y93190D02*
D03*
X733906D02*
D03*
X718906Y113722D02*
D03*
X733906D02*
D03*
X718906Y134253D02*
D03*
X733906D02*
D03*
X719051Y154785D02*
D03*
X734050D02*
D03*
X734050Y195848D02*
D03*
X719050D02*
D03*
X544820Y749568D02*
D03*
X529821D02*
D03*
X529820Y769888D02*
D03*
X544820D02*
D03*
X711030Y703848D02*
D03*
X726030D02*
D03*
X711030Y683528D02*
D03*
X726030D02*
D03*
X711030Y724168D02*
D03*
X726030D02*
D03*
X544820Y727978D02*
D03*
X529821D02*
D03*
X544820Y665113D02*
D03*
X529821D02*
D03*
X544820Y644158D02*
D03*
X529821D02*
D03*
X544820Y686068D02*
D03*
X529821D02*
D03*
X544820Y707023D02*
D03*
X529821D02*
D03*
X647001Y130998D02*
D03*
X632001D02*
D03*
X647001Y67998D02*
D03*
X632001D02*
D03*
X531000Y84998D02*
D03*
X516000D02*
D03*
D19*
X358250Y26368D02*
D03*
Y42558D02*
D03*
X605900Y42748D02*
D03*
Y26558D02*
D03*
X527160D02*
D03*
Y42748D02*
D03*
X308720Y42558D02*
D03*
Y26368D02*
D03*
D20*
X571455Y430062D02*
D03*
Y403562D02*
D03*
X651500Y428248D02*
D03*
Y401748D02*
D03*
X736500Y428248D02*
D03*
Y401748D02*
D03*
D21*
X631900Y88998D02*
D03*
X647100D02*
D03*
X631900Y151998D02*
D03*
X647100D02*
D03*
X718950Y175817D02*
D03*
X734150D02*
D03*
X553850Y609868D02*
D03*
X569050D02*
D03*
X517020Y179338D02*
D03*
X532220D02*
D03*
X517260Y198388D02*
D03*
X532460D02*
D03*
X517260Y217438D02*
D03*
X532460D02*
D03*
X76350Y301258D02*
D03*
X91550D02*
D03*
X139790Y345708D02*
D03*
X124591D02*
D03*
X163960D02*
D03*
X179160D02*
D03*
X268060Y137108D02*
D03*
X252861D02*
D03*
X76400Y250998D02*
D03*
X91600D02*
D03*
X76400Y273498D02*
D03*
X91600D02*
D03*
D22*
X222000Y256998D02*
D03*
X240500D02*
D03*
X221250Y300998D02*
D03*
X239750D02*
D03*
X533270Y156478D02*
D03*
X551770D02*
D03*
D23*
X134050Y218688D02*
D03*
Y203488D02*
D03*
X155050Y218688D02*
D03*
Y203488D02*
D03*
X113050Y218688D02*
D03*
Y203488D02*
D03*
X630948Y727600D02*
D03*
Y712400D02*
D03*
X198230Y203488D02*
D03*
Y218688D02*
D03*
D24*
X723680Y972894D02*
D03*
X739870D02*
D03*
X195723D02*
D03*
X211913D02*
D03*
X547695D02*
D03*
X563885D02*
D03*
X635687D02*
D03*
X651878D02*
D03*
X459702D02*
D03*
X475892D02*
D03*
X283716D02*
D03*
X299906D02*
D03*
X371709D02*
D03*
X387899D02*
D03*
X107730D02*
D03*
X123920D02*
D03*
D25*
X50000Y899998D02*
D03*
X785000D02*
D03*
X50000Y99998D02*
D03*
D26*
X574150Y570678D02*
D03*
X548750D02*
D03*
X574150Y593178D02*
D03*
X548750D02*
D03*
D27*
X650033Y216698D02*
D03*
D28*
X642033Y231698D02*
D03*
X646033D02*
D03*
X650033D02*
D03*
X654033D02*
D03*
X658033D02*
D03*
Y201698D02*
D03*
X654033D02*
D03*
X650033D02*
D03*
X646033D02*
D03*
X642033D02*
D03*
D29*
X665033Y224698D02*
D03*
Y220698D02*
D03*
Y216698D02*
D03*
Y212698D02*
D03*
Y208698D02*
D03*
X635033D02*
D03*
Y212698D02*
D03*
Y216698D02*
D03*
Y220698D02*
D03*
Y224698D02*
D03*
D30*
X652490Y655648D02*
D03*
X665190D02*
D03*
X677890D02*
D03*
X690590D02*
D03*
X652490Y726648D02*
D03*
X665190D02*
D03*
X677890D02*
D03*
X690590D02*
D03*
D31*
X601053Y216698D02*
D03*
X574553D02*
D03*
D32*
X575146Y310148D02*
D03*
Y275648D02*
D03*
X651303Y310148D02*
D03*
Y275648D02*
D03*
X730230Y310768D02*
D03*
Y276268D02*
D03*
D33*
X175660Y105111D02*
D03*
X162960D02*
D03*
X150260D02*
D03*
X137560D02*
D03*
X175660Y51111D02*
D03*
X162960D02*
D03*
X150260D02*
D03*
X137560D02*
D03*
D34*
X156610Y284328D02*
D03*
D35*
X194110Y238578D02*
D03*
X189110D02*
D03*
X184110D02*
D03*
X179110D02*
D03*
X174110D02*
D03*
X169110D02*
D03*
X164110D02*
D03*
X159110D02*
D03*
X154110D02*
D03*
X149110D02*
D03*
X144110D02*
D03*
X139110D02*
D03*
X134110D02*
D03*
X129110D02*
D03*
X124110D02*
D03*
X119110D02*
D03*
Y330078D02*
D03*
X124110D02*
D03*
X129110D02*
D03*
X134110D02*
D03*
X139110D02*
D03*
X144110D02*
D03*
X149110D02*
D03*
X154110D02*
D03*
X159110D02*
D03*
X164110D02*
D03*
X169110D02*
D03*
X174110D02*
D03*
X179110D02*
D03*
X184110D02*
D03*
X189110D02*
D03*
X194110D02*
D03*
D36*
X110860Y246828D02*
D03*
Y251828D02*
D03*
Y256828D02*
D03*
Y261828D02*
D03*
Y266828D02*
D03*
Y271828D02*
D03*
Y276828D02*
D03*
Y281828D02*
D03*
Y286828D02*
D03*
Y291828D02*
D03*
Y296828D02*
D03*
Y301828D02*
D03*
Y306828D02*
D03*
Y311828D02*
D03*
Y316828D02*
D03*
Y321828D02*
D03*
X202360D02*
D03*
Y316828D02*
D03*
Y311828D02*
D03*
Y306828D02*
D03*
Y301828D02*
D03*
Y296828D02*
D03*
Y291828D02*
D03*
Y286828D02*
D03*
Y281828D02*
D03*
Y276828D02*
D03*
Y271828D02*
D03*
Y266828D02*
D03*
Y261828D02*
D03*
Y256828D02*
D03*
Y251828D02*
D03*
Y246828D02*
D03*
D37*
X241831Y193068D02*
D03*
X241831Y164968D02*
D03*
X281630D02*
D03*
Y193068D02*
D03*
D38*
X422000Y113998D02*
D03*
X431500D02*
D03*
X441000D02*
D03*
Y90998D02*
D03*
X431500D02*
D03*
X422000D02*
D03*
D39*
X458700Y37298D02*
D03*
X412300D02*
D03*
D40*
X448501Y42998D02*
D03*
X442001D02*
D03*
X422500D02*
D03*
X429001D02*
D03*
X435500D02*
D03*
D41*
X446750Y14998D02*
D03*
X424250D02*
D03*
M02*
