G04*
G04 #@! TF.GenerationSoftware,Altium Limited,Altium Designer,20.2.4 (192)*
G04*
G04 Layer_Physical_Order=3*
G04 Layer_Color=128*
%FSLAX44Y44*%
%MOMM*%
G71*
G04*
G04 #@! TF.SameCoordinates,57A61B9E-692D-485A-8C2B-B6ABB4EC4662*
G04*
G04*
G04 #@! TF.FilePolarity,Negative*
G04*
G01*
G75*
%ADD11C,0.2540*%
%ADD79C,1.6000*%
%ADD85C,1.0160*%
%ADD86C,4.0000*%
%ADD87O,1.2500X2.0500*%
%ADD88C,1.7000*%
%ADD89C,1.1000*%
%ADD90C,2.3000*%
%ADD91C,0.1500*%
G36*
X1757824Y947613D02*
X1757972Y947595D01*
X1758138Y947558D01*
X1758324Y947521D01*
X1758527Y947484D01*
X1758972Y947335D01*
X1759212Y947224D01*
X1759435Y947113D01*
X1759675Y946965D01*
X1759916Y946798D01*
X1760157Y946613D01*
X1760379Y946391D01*
X1760397Y946373D01*
X1760435Y946335D01*
X1760490Y946261D01*
X1760564Y946169D01*
X1760657Y946058D01*
X1760749Y945910D01*
X1760860Y945743D01*
X1760953Y945539D01*
X1761064Y945335D01*
X1761175Y945095D01*
X1761268Y944854D01*
X1761360Y944576D01*
X1761434Y944280D01*
X1761490Y943965D01*
X1761527Y943651D01*
X1761546Y943299D01*
Y943132D01*
X1761527Y943021D01*
X1761508Y942873D01*
X1761490Y942706D01*
X1761453Y942521D01*
X1761416Y942317D01*
X1761305Y941873D01*
X1761120Y941410D01*
X1761009Y941169D01*
X1760879Y940947D01*
X1760712Y940725D01*
X1760546Y940503D01*
X1760527Y940484D01*
X1760490Y940447D01*
X1760435Y940392D01*
X1760361Y940336D01*
X1760268Y940244D01*
X1760138Y940151D01*
X1760009Y940040D01*
X1759842Y939929D01*
X1759657Y939818D01*
X1759472Y939706D01*
X1759027Y939503D01*
X1758509Y939336D01*
X1758231Y939281D01*
X1757935Y939244D01*
X1757731Y940817D01*
X1757750D01*
X1757787Y940836D01*
X1757861Y940854D01*
X1757953Y940873D01*
X1758064Y940892D01*
X1758194Y940929D01*
X1758472Y941021D01*
X1758805Y941151D01*
X1759120Y941317D01*
X1759416Y941503D01*
X1759675Y941725D01*
X1759694Y941762D01*
X1759768Y941836D01*
X1759861Y941984D01*
X1759953Y942169D01*
X1760064Y942391D01*
X1760157Y942669D01*
X1760231Y942984D01*
X1760249Y943317D01*
Y943428D01*
X1760231Y943502D01*
X1760212Y943706D01*
X1760157Y943965D01*
X1760064Y944262D01*
X1759935Y944576D01*
X1759749Y944891D01*
X1759490Y945187D01*
X1759453Y945224D01*
X1759342Y945317D01*
X1759175Y945428D01*
X1758953Y945576D01*
X1758676Y945724D01*
X1758361Y945835D01*
X1757990Y945928D01*
X1757583Y945965D01*
X1757565D01*
X1757527D01*
X1757472D01*
X1757398Y945947D01*
X1757194Y945928D01*
X1756953Y945872D01*
X1756657Y945798D01*
X1756361Y945669D01*
X1756065Y945484D01*
X1755787Y945243D01*
X1755750Y945206D01*
X1755676Y945113D01*
X1755565Y944965D01*
X1755435Y944762D01*
X1755305Y944502D01*
X1755194Y944187D01*
X1755120Y943836D01*
X1755083Y943447D01*
Y943280D01*
X1755102Y943151D01*
X1755120Y942984D01*
X1755157Y942799D01*
X1755194Y942577D01*
X1755250Y942336D01*
X1753861Y942521D01*
Y942614D01*
X1753880Y942688D01*
Y942928D01*
X1753843Y943132D01*
X1753806Y943373D01*
X1753750Y943651D01*
X1753658Y943965D01*
X1753528Y944262D01*
X1753361Y944576D01*
Y944595D01*
X1753343Y944613D01*
X1753269Y944706D01*
X1753139Y944836D01*
X1752972Y944984D01*
X1752732Y945132D01*
X1752454Y945262D01*
X1752139Y945354D01*
X1751954Y945391D01*
X1751750D01*
X1751732D01*
X1751713D01*
X1751602D01*
X1751454Y945354D01*
X1751250Y945317D01*
X1751028Y945243D01*
X1750787Y945150D01*
X1750547Y945002D01*
X1750325Y944799D01*
X1750306Y944780D01*
X1750232Y944688D01*
X1750139Y944558D01*
X1750028Y944391D01*
X1749936Y944169D01*
X1749843Y943910D01*
X1749769Y943614D01*
X1749751Y943280D01*
Y943132D01*
X1749787Y942965D01*
X1749825Y942743D01*
X1749899Y942503D01*
X1749991Y942262D01*
X1750139Y942003D01*
X1750325Y941762D01*
X1750343Y941743D01*
X1750436Y941669D01*
X1750565Y941558D01*
X1750750Y941429D01*
X1750991Y941299D01*
X1751287Y941169D01*
X1751639Y941058D01*
X1752047Y940984D01*
X1751769Y939410D01*
X1751750D01*
X1751695Y939429D01*
X1751621Y939447D01*
X1751510Y939466D01*
X1751380Y939503D01*
X1751232Y939558D01*
X1750880Y939669D01*
X1750473Y939855D01*
X1750065Y940077D01*
X1749676Y940355D01*
X1749325Y940706D01*
X1749306Y940725D01*
X1749288Y940762D01*
X1749250Y940817D01*
X1749195Y940892D01*
X1749121Y940984D01*
X1749047Y941114D01*
X1748973Y941243D01*
X1748880Y941410D01*
X1748732Y941780D01*
X1748584Y942206D01*
X1748491Y942706D01*
X1748454Y942965D01*
Y943428D01*
X1748473Y943632D01*
X1748510Y943873D01*
X1748565Y944169D01*
X1748658Y944502D01*
X1748769Y944836D01*
X1748917Y945169D01*
Y945187D01*
X1748936Y945206D01*
X1748991Y945317D01*
X1749102Y945484D01*
X1749232Y945669D01*
X1749417Y945891D01*
X1749621Y946113D01*
X1749862Y946335D01*
X1750139Y946521D01*
X1750176Y946539D01*
X1750269Y946595D01*
X1750436Y946669D01*
X1750639Y946761D01*
X1750880Y946854D01*
X1751158Y946928D01*
X1751472Y946983D01*
X1751787Y947002D01*
X1751824D01*
X1751935D01*
X1752084Y946983D01*
X1752287Y946946D01*
X1752528Y946891D01*
X1752787Y946798D01*
X1753046Y946687D01*
X1753306Y946539D01*
X1753343Y946521D01*
X1753417Y946465D01*
X1753546Y946354D01*
X1753694Y946206D01*
X1753861Y946021D01*
X1754046Y945798D01*
X1754213Y945539D01*
X1754380Y945224D01*
Y945243D01*
X1754398Y945280D01*
X1754417Y945335D01*
X1754435Y945410D01*
X1754509Y945613D01*
X1754620Y945872D01*
X1754769Y946169D01*
X1754954Y946465D01*
X1755194Y946743D01*
X1755472Y947002D01*
X1755509Y947021D01*
X1755620Y947095D01*
X1755805Y947206D01*
X1756046Y947317D01*
X1756342Y947428D01*
X1756694Y947539D01*
X1757102Y947613D01*
X1757546Y947632D01*
X1757565D01*
X1757620D01*
X1757713D01*
X1757824Y947613D01*
D02*
G37*
D11*
X1422500Y692500D02*
Y874705D01*
Y692500D02*
X1465000Y650000D01*
X1594000Y951000D02*
X1630000Y915000D01*
X1335000Y805000D02*
X1340000D01*
X1334500Y933500D02*
X1352000Y951000D01*
X1334500Y896500D02*
Y933500D01*
X1530000Y480000D02*
X1535000Y485000D01*
X1507500Y480000D02*
X1530000D01*
X1395000Y876000D02*
X1426000D01*
X1395000Y802500D02*
Y876000D01*
X1350000Y300000D02*
X1385000D01*
X1475000Y390000D01*
X1395000Y805000D02*
Y810000D01*
Y710000D02*
Y876000D01*
X1590201Y876000D02*
X1640000Y825000D01*
X1426000Y876000D02*
X1590201Y876000D01*
X1720000Y677500D02*
Y825000D01*
X1705000Y840000D02*
X1720000Y825000D01*
X1640000Y672500D02*
Y825000D01*
X1630000Y915000D02*
X1645000Y900000D01*
X1705000Y840000D01*
X1352000Y951000D02*
X1594000D01*
X1334500Y805000D02*
Y896500D01*
X1340000Y805000D02*
X1395000D01*
X1720000Y560000D02*
Y677500D01*
X1707500Y547500D02*
X1720000Y560000D01*
X1652500Y547500D02*
X1707500D01*
X1640000Y560000D02*
X1652500Y547500D01*
X1640000Y560000D02*
Y672500D01*
X1545000Y650000D02*
X1550000Y645000D01*
X1465000Y650000D02*
X1545000D01*
X1487500Y407590D02*
Y442500D01*
Y407590D02*
X1490090Y405000D01*
X1561831D01*
X1475000Y390000D02*
Y430000D01*
X1330000D02*
X1475000D01*
X1310000Y410000D02*
X1330000Y430000D01*
X1310000Y270000D02*
Y410000D01*
Y270000D02*
X1320000D01*
X1350000Y300000D01*
X1472500Y480000D02*
X1507500D01*
X1470000Y477500D02*
X1472500Y480000D01*
X1470000Y450000D02*
Y477500D01*
Y450000D02*
X1472500Y447500D01*
X1482500D01*
X1487500Y442500D01*
X1561831Y405000D02*
X1565000Y408169D01*
Y437500D01*
X1567500Y440000D01*
X1535000Y485000D02*
X1538000Y488000D01*
X1561000D01*
X1567500Y440000D02*
X1615000D01*
X1627500Y452500D01*
Y490000D01*
X1620000Y497500D02*
X1627500Y490000D01*
X1569821Y497500D02*
X1620000D01*
X1561000Y488000D02*
X1569821Y497500D01*
X1425000Y565000D02*
X1545000D01*
X1410000Y580000D02*
X1425000Y565000D01*
X1395000Y595000D02*
X1410000Y580000D01*
X1395000Y595000D02*
Y710000D01*
X1550000Y570000D02*
Y645000D01*
X1545000Y565000D02*
X1550000Y570000D01*
D79*
X1323398Y1141730D02*
D03*
Y1161730D02*
D03*
X1411391Y1141730D02*
D03*
Y1161730D02*
D03*
X1235406Y1141730D02*
D03*
Y1161730D02*
D03*
X1059420Y1141730D02*
D03*
Y1161730D02*
D03*
X1147413Y1141730D02*
D03*
Y1161730D02*
D03*
X1587377Y1141730D02*
D03*
Y1161730D02*
D03*
X1675370Y1141730D02*
D03*
Y1161730D02*
D03*
X1499384Y1141730D02*
D03*
Y1161730D02*
D03*
X996950Y411800D02*
D03*
Y431800D02*
D03*
Y451800D02*
D03*
D85*
X943500Y1255000D02*
X1778500Y1255000D01*
X943500Y255000D02*
X1778500Y255000D01*
X1778500Y1255000D02*
X1778500Y255000D01*
X943500Y255000D02*
Y1255000D01*
D86*
X983500Y295000D02*
D03*
X1738500Y1215000D02*
D03*
X983500D02*
D03*
X1738500Y295000D02*
D03*
D87*
X1414750Y270000D02*
D03*
X1343250D02*
D03*
D88*
X1071728Y654708D02*
D03*
Y705508D02*
D03*
Y730908D02*
D03*
Y756308D02*
D03*
Y781708D02*
D03*
X1046328Y654708D02*
D03*
Y705508D02*
D03*
Y730908D02*
D03*
Y756308D02*
D03*
Y781708D02*
D03*
X1071728Y896567D02*
D03*
Y947367D02*
D03*
Y972767D02*
D03*
Y998167D02*
D03*
Y1023567D02*
D03*
X1046328Y896567D02*
D03*
Y947367D02*
D03*
Y972767D02*
D03*
Y998167D02*
D03*
Y1023567D02*
D03*
D89*
X1470001Y580000D02*
D03*
X1450001D02*
D03*
X1430001D02*
D03*
X1015752Y1152580D02*
D03*
X1631640Y470950D02*
D03*
X1619283Y472950D02*
D03*
X1599032Y466200D02*
D03*
X1588032D02*
D03*
Y477200D02*
D03*
X1599032D02*
D03*
X1568000Y470000D02*
D03*
X1370000Y910000D02*
D03*
X1590001Y940001D02*
D03*
X1410000Y890000D02*
D03*
X1330000Y900000D02*
D03*
X1492500Y685000D02*
D03*
X1537500D02*
D03*
X1572500D02*
D03*
X1617500D02*
D03*
X1702500D02*
D03*
X1657500D02*
D03*
X1380000Y900000D02*
D03*
X1370000D02*
D03*
X1400000Y910000D02*
D03*
X1415000Y922500D02*
D03*
X1395000D02*
D03*
X1760001Y1160001D02*
D03*
X1770001Y1140001D02*
D03*
X1760001Y1120001D02*
D03*
X1770001Y1100001D02*
D03*
X1760001Y1080001D02*
D03*
X1770001Y1060001D02*
D03*
X1760001Y1040001D02*
D03*
X1770001Y1020001D02*
D03*
X1760001Y1000001D02*
D03*
X1770001Y980001D02*
D03*
Y900001D02*
D03*
X1760001Y880001D02*
D03*
X1770001Y860001D02*
D03*
X1760001Y840001D02*
D03*
X1770001Y820000D02*
D03*
X1760001Y800000D02*
D03*
X1770001Y780000D02*
D03*
X1760001Y760000D02*
D03*
X1770001Y740000D02*
D03*
X1760001Y720000D02*
D03*
X1770001Y700000D02*
D03*
X1760001Y680000D02*
D03*
X1770001Y660000D02*
D03*
X1760001Y640000D02*
D03*
X1770001Y620000D02*
D03*
X1760001Y600000D02*
D03*
X1770001Y580000D02*
D03*
X1760001Y560000D02*
D03*
X1770001Y540000D02*
D03*
X1760001Y520000D02*
D03*
X1770001Y500000D02*
D03*
X1760001Y480000D02*
D03*
X1770001Y460000D02*
D03*
X1760001Y440000D02*
D03*
X1770001Y420000D02*
D03*
X1760001Y400000D02*
D03*
X1770001Y380000D02*
D03*
X1760001Y360000D02*
D03*
X1770001Y340000D02*
D03*
X1750001Y1140001D02*
D03*
X1740001Y1120001D02*
D03*
X1750001Y1100001D02*
D03*
X1740001Y1080001D02*
D03*
X1750001Y1060001D02*
D03*
X1740001Y1040001D02*
D03*
X1750001Y1020001D02*
D03*
X1740001Y1000001D02*
D03*
X1750001Y980001D02*
D03*
X1740001Y960001D02*
D03*
Y920001D02*
D03*
Y880001D02*
D03*
X1750001Y860001D02*
D03*
X1740001Y840001D02*
D03*
X1750001Y820000D02*
D03*
X1740001Y800000D02*
D03*
X1750001Y780000D02*
D03*
X1740001Y760000D02*
D03*
X1750001Y740000D02*
D03*
X1740001Y720000D02*
D03*
X1750001Y700000D02*
D03*
X1740001Y680000D02*
D03*
X1750001Y660000D02*
D03*
X1740001Y640000D02*
D03*
X1750001Y620000D02*
D03*
X1740001Y600000D02*
D03*
X1750001Y580000D02*
D03*
X1740001Y560000D02*
D03*
X1750001Y540000D02*
D03*
X1740001Y520000D02*
D03*
X1750001Y500000D02*
D03*
X1740001Y480000D02*
D03*
X1750001Y460000D02*
D03*
X1740001Y440000D02*
D03*
X1750001Y420000D02*
D03*
X1740001Y400000D02*
D03*
X1750001Y380000D02*
D03*
X1740001Y360000D02*
D03*
X1730001Y1140001D02*
D03*
X1720001Y1120001D02*
D03*
X1730001Y1100001D02*
D03*
X1720001Y1080001D02*
D03*
X1730001Y1060001D02*
D03*
X1720001Y1040001D02*
D03*
X1730001Y1020001D02*
D03*
X1720001Y1000001D02*
D03*
X1730001Y980001D02*
D03*
Y940001D02*
D03*
Y900001D02*
D03*
Y860001D02*
D03*
Y820000D02*
D03*
X1720001Y800000D02*
D03*
X1730001Y780000D02*
D03*
X1720001Y760000D02*
D03*
X1730001Y740000D02*
D03*
X1720001Y720000D02*
D03*
Y680000D02*
D03*
Y520000D02*
D03*
Y480000D02*
D03*
Y440000D02*
D03*
Y400000D02*
D03*
X1730001Y380000D02*
D03*
X1720001Y360000D02*
D03*
X1700001Y1160001D02*
D03*
X1710001Y1140001D02*
D03*
X1700001Y1120001D02*
D03*
X1710001Y1100001D02*
D03*
X1700001Y1080001D02*
D03*
X1710001Y1060001D02*
D03*
X1700001Y1040001D02*
D03*
X1710001Y1020001D02*
D03*
X1700001Y1000001D02*
D03*
Y960001D02*
D03*
Y920001D02*
D03*
Y880001D02*
D03*
Y840001D02*
D03*
X1710001Y780000D02*
D03*
X1700001Y760000D02*
D03*
X1710001Y740000D02*
D03*
X1700001Y720000D02*
D03*
X1710001Y700000D02*
D03*
X1700001Y440000D02*
D03*
X1710001Y420000D02*
D03*
X1700001Y400000D02*
D03*
X1710001Y380000D02*
D03*
X1700001Y360000D02*
D03*
X1710001Y340000D02*
D03*
X1680001Y1200001D02*
D03*
X1690001Y1140001D02*
D03*
X1680001Y1080001D02*
D03*
X1690001Y1060001D02*
D03*
X1680001Y1040001D02*
D03*
X1690001Y1020001D02*
D03*
Y980001D02*
D03*
X1680001Y960001D02*
D03*
X1690001Y940001D02*
D03*
X1680001Y920001D02*
D03*
X1690001Y900001D02*
D03*
X1680001Y880001D02*
D03*
X1690001Y860001D02*
D03*
X1680001Y840001D02*
D03*
X1690001Y820000D02*
D03*
Y780000D02*
D03*
X1680001Y760000D02*
D03*
X1690001Y740000D02*
D03*
X1680001Y720000D02*
D03*
X1690001Y700000D02*
D03*
Y460000D02*
D03*
Y420000D02*
D03*
X1680001Y400000D02*
D03*
X1690001Y380000D02*
D03*
Y340000D02*
D03*
X1680001Y280000D02*
D03*
X1660001Y1200001D02*
D03*
Y1160001D02*
D03*
Y1120001D02*
D03*
Y1080001D02*
D03*
X1670001Y1060001D02*
D03*
X1660001Y1040001D02*
D03*
Y1000001D02*
D03*
X1670001Y980001D02*
D03*
Y940001D02*
D03*
Y900001D02*
D03*
X1660001Y880001D02*
D03*
X1670001Y860001D02*
D03*
X1660001Y840001D02*
D03*
X1670001Y820000D02*
D03*
Y780000D02*
D03*
X1660001Y760000D02*
D03*
X1670001Y740000D02*
D03*
X1660001Y720000D02*
D03*
X1670001Y700000D02*
D03*
Y420000D02*
D03*
X1660001Y280000D02*
D03*
X1640001Y1200001D02*
D03*
X1650001Y1180001D02*
D03*
X1640001Y1120001D02*
D03*
X1650001Y1100001D02*
D03*
Y1060001D02*
D03*
Y1020001D02*
D03*
X1640001Y1000001D02*
D03*
X1650001Y900001D02*
D03*
X1640001Y880001D02*
D03*
X1650001Y860001D02*
D03*
X1640001Y840001D02*
D03*
X1650001Y820000D02*
D03*
Y780000D02*
D03*
X1640001Y760000D02*
D03*
X1650001Y740000D02*
D03*
X1640001Y720000D02*
D03*
X1650001Y700000D02*
D03*
X1640001Y680000D02*
D03*
X1650001Y460000D02*
D03*
X1640001Y440000D02*
D03*
X1650001Y420000D02*
D03*
X1640001Y400000D02*
D03*
Y360000D02*
D03*
X1650001Y340000D02*
D03*
X1640001Y320000D02*
D03*
Y280000D02*
D03*
X1630001Y1220001D02*
D03*
X1620001Y1200001D02*
D03*
Y1160001D02*
D03*
X1630001Y1140001D02*
D03*
X1620001Y1040001D02*
D03*
X1630001Y1020001D02*
D03*
X1620001Y1000001D02*
D03*
Y920001D02*
D03*
Y880001D02*
D03*
X1630001Y860001D02*
D03*
X1620001Y840001D02*
D03*
X1630001Y820000D02*
D03*
Y780000D02*
D03*
X1620001Y760000D02*
D03*
X1630001Y740000D02*
D03*
X1620001Y720000D02*
D03*
X1630001Y700000D02*
D03*
Y540000D02*
D03*
Y500000D02*
D03*
Y460000D02*
D03*
X1620001Y440000D02*
D03*
X1630001Y420000D02*
D03*
X1620001Y400000D02*
D03*
X1630001Y380000D02*
D03*
X1620001Y360000D02*
D03*
X1630001Y340000D02*
D03*
X1620001Y320000D02*
D03*
Y280000D02*
D03*
X1610001Y1220001D02*
D03*
X1600001Y1200001D02*
D03*
X1610001Y1180001D02*
D03*
Y1140001D02*
D03*
Y1100001D02*
D03*
X1600001Y1080001D02*
D03*
X1610001Y1060001D02*
D03*
X1600001Y1040001D02*
D03*
X1610001Y1020001D02*
D03*
X1600001Y880001D02*
D03*
X1610001Y860001D02*
D03*
X1600001Y840001D02*
D03*
X1610001Y820000D02*
D03*
Y780000D02*
D03*
X1600001Y760000D02*
D03*
X1610001Y740000D02*
D03*
X1600001Y720000D02*
D03*
X1610001Y700000D02*
D03*
Y420000D02*
D03*
Y380000D02*
D03*
Y340000D02*
D03*
X1600001Y280000D02*
D03*
X1580001Y1200001D02*
D03*
Y1080001D02*
D03*
X1590001Y1060001D02*
D03*
X1580001Y1040001D02*
D03*
X1590001Y1020001D02*
D03*
X1580001Y880001D02*
D03*
X1590001Y860001D02*
D03*
X1580001Y840001D02*
D03*
X1590001Y820000D02*
D03*
Y780000D02*
D03*
X1580001Y760000D02*
D03*
X1590001Y740000D02*
D03*
X1580001Y720000D02*
D03*
X1590001Y700000D02*
D03*
X1580001Y280000D02*
D03*
X1570001Y1220001D02*
D03*
X1560001Y1200001D02*
D03*
X1570001Y1180001D02*
D03*
X1560001Y1160001D02*
D03*
Y1120001D02*
D03*
X1570001Y1100001D02*
D03*
X1560001Y1080001D02*
D03*
X1570001Y1060001D02*
D03*
X1560001Y1040001D02*
D03*
X1570001Y1020001D02*
D03*
X1560001Y960001D02*
D03*
Y920001D02*
D03*
Y880001D02*
D03*
X1570001Y860001D02*
D03*
X1560001Y840001D02*
D03*
X1570001Y820000D02*
D03*
Y780000D02*
D03*
X1560001Y760000D02*
D03*
X1570001Y740000D02*
D03*
X1560001Y720000D02*
D03*
X1570001Y700000D02*
D03*
X1560001Y680000D02*
D03*
Y520000D02*
D03*
Y320000D02*
D03*
Y280000D02*
D03*
X1550001Y1140001D02*
D03*
Y900001D02*
D03*
Y860001D02*
D03*
X1540001Y840001D02*
D03*
X1550001Y820000D02*
D03*
Y780000D02*
D03*
X1540001Y760000D02*
D03*
X1550001Y740000D02*
D03*
X1540001Y720000D02*
D03*
X1550001Y700000D02*
D03*
Y380000D02*
D03*
Y340000D02*
D03*
X1540001Y320000D02*
D03*
X1530001Y1220001D02*
D03*
X1520001Y1200001D02*
D03*
X1530001Y1180001D02*
D03*
X1520001Y1160001D02*
D03*
Y1120001D02*
D03*
Y1080001D02*
D03*
Y1040001D02*
D03*
Y1000001D02*
D03*
Y880001D02*
D03*
X1530001Y820000D02*
D03*
Y780000D02*
D03*
X1520001Y760000D02*
D03*
X1530001Y740000D02*
D03*
X1520001Y720000D02*
D03*
X1530001Y700000D02*
D03*
Y380000D02*
D03*
Y340000D02*
D03*
X1520001Y320000D02*
D03*
X1530001Y300000D02*
D03*
X1520001Y280000D02*
D03*
X1500001Y1200001D02*
D03*
Y1080001D02*
D03*
X1510001Y1060001D02*
D03*
X1500001Y1040001D02*
D03*
X1510001Y1020001D02*
D03*
Y900001D02*
D03*
Y780000D02*
D03*
X1500001Y760000D02*
D03*
X1510001Y740000D02*
D03*
X1500001Y720000D02*
D03*
X1510001Y700000D02*
D03*
Y380000D02*
D03*
Y340000D02*
D03*
X1500001Y320000D02*
D03*
X1510001Y300000D02*
D03*
X1500001Y280000D02*
D03*
X1480001Y1200001D02*
D03*
Y1160001D02*
D03*
Y1120001D02*
D03*
Y1080001D02*
D03*
X1490001Y1060001D02*
D03*
X1480001Y1040001D02*
D03*
Y880001D02*
D03*
X1490001Y780000D02*
D03*
X1480001Y760000D02*
D03*
X1490001Y740000D02*
D03*
Y700000D02*
D03*
X1480001Y680000D02*
D03*
Y520000D02*
D03*
X1490001Y380000D02*
D03*
Y340000D02*
D03*
Y300000D02*
D03*
X1470001Y1180001D02*
D03*
Y1100001D02*
D03*
Y1060001D02*
D03*
X1460001Y1040001D02*
D03*
X1470001Y860001D02*
D03*
Y700000D02*
D03*
X1460001Y680000D02*
D03*
X1470001Y660000D02*
D03*
X1460001Y640000D02*
D03*
X1470001Y620000D02*
D03*
X1460001Y600000D02*
D03*
X1470001Y540000D02*
D03*
X1460001Y520000D02*
D03*
X1470001Y500000D02*
D03*
X1460001Y280000D02*
D03*
X1450001Y1220001D02*
D03*
X1440001Y1200001D02*
D03*
Y1160001D02*
D03*
X1450001Y1140001D02*
D03*
X1440001Y1040001D02*
D03*
X1450001Y1020001D02*
D03*
X1440001Y680000D02*
D03*
X1450001Y660000D02*
D03*
X1440001Y640000D02*
D03*
X1450001Y620000D02*
D03*
X1440001Y600000D02*
D03*
X1450001Y540000D02*
D03*
X1440001Y520000D02*
D03*
X1450001Y500000D02*
D03*
X1440001Y480000D02*
D03*
Y440000D02*
D03*
Y320000D02*
D03*
Y280000D02*
D03*
X1430001Y1220001D02*
D03*
X1420001Y1200001D02*
D03*
X1430001Y1180001D02*
D03*
Y1140001D02*
D03*
Y1100001D02*
D03*
X1420001Y1080001D02*
D03*
Y1040001D02*
D03*
X1430001Y1020001D02*
D03*
X1420001Y1000001D02*
D03*
X1430001Y980001D02*
D03*
Y940001D02*
D03*
X1420001Y840001D02*
D03*
Y680000D02*
D03*
X1430001Y660000D02*
D03*
X1420001Y640000D02*
D03*
X1430001Y620000D02*
D03*
X1420001Y600000D02*
D03*
X1430001Y540000D02*
D03*
X1420001Y520000D02*
D03*
X1430001Y500000D02*
D03*
X1420001Y480000D02*
D03*
X1430001Y460000D02*
D03*
X1420001Y440000D02*
D03*
X1430001Y340000D02*
D03*
X1420001Y320000D02*
D03*
X1430001Y300000D02*
D03*
X1400001Y1200001D02*
D03*
Y1080001D02*
D03*
X1410001Y1020001D02*
D03*
X1400001Y1000001D02*
D03*
X1410001Y980001D02*
D03*
Y940001D02*
D03*
X1400001Y680000D02*
D03*
X1410001Y660000D02*
D03*
X1400001Y640000D02*
D03*
X1410001Y620000D02*
D03*
X1400001Y600000D02*
D03*
X1410001Y540000D02*
D03*
X1400001Y520000D02*
D03*
X1410001Y500000D02*
D03*
X1400001Y480000D02*
D03*
X1410001Y460000D02*
D03*
X1400001Y440000D02*
D03*
X1410001Y340000D02*
D03*
X1400001Y320000D02*
D03*
X1390001Y1220001D02*
D03*
X1380001Y1200001D02*
D03*
X1390001Y1180001D02*
D03*
X1380001Y1160001D02*
D03*
Y1120001D02*
D03*
X1390001Y1100001D02*
D03*
X1380001Y1080001D02*
D03*
X1390001Y1060001D02*
D03*
X1380001Y1040001D02*
D03*
X1390001Y1020001D02*
D03*
X1380001Y1000001D02*
D03*
X1390001Y980001D02*
D03*
X1380001Y680000D02*
D03*
X1390001Y660000D02*
D03*
X1380001Y640000D02*
D03*
X1390001Y620000D02*
D03*
X1380001Y600000D02*
D03*
X1390001Y580000D02*
D03*
Y540000D02*
D03*
Y500000D02*
D03*
Y460000D02*
D03*
X1360001Y1200001D02*
D03*
X1370001Y1140001D02*
D03*
X1360001Y1040001D02*
D03*
X1370001Y660000D02*
D03*
Y620000D02*
D03*
X1360001Y600000D02*
D03*
X1370001Y580000D02*
D03*
X1360001Y520000D02*
D03*
Y480000D02*
D03*
Y440000D02*
D03*
X1350001Y1220001D02*
D03*
X1340001Y1200001D02*
D03*
X1350001Y1180001D02*
D03*
X1340001Y1160001D02*
D03*
Y1120001D02*
D03*
Y1080001D02*
D03*
Y680000D02*
D03*
X1350001Y660000D02*
D03*
Y620000D02*
D03*
X1340001Y600000D02*
D03*
X1350001Y580000D02*
D03*
X1340001Y520000D02*
D03*
X1350001Y500000D02*
D03*
X1340001Y480000D02*
D03*
X1350001Y460000D02*
D03*
X1340001Y440000D02*
D03*
X1320001Y1200001D02*
D03*
Y1080001D02*
D03*
X1330001Y1060001D02*
D03*
Y620000D02*
D03*
X1320001Y600000D02*
D03*
X1330001Y580000D02*
D03*
X1320001Y520000D02*
D03*
X1330001Y500000D02*
D03*
X1320001Y480000D02*
D03*
X1330001Y460000D02*
D03*
X1320001Y440000D02*
D03*
X1300001Y1200001D02*
D03*
Y1160001D02*
D03*
Y1120001D02*
D03*
Y1080001D02*
D03*
X1310001Y1060001D02*
D03*
X1300001Y1000001D02*
D03*
Y920001D02*
D03*
Y800000D02*
D03*
Y600000D02*
D03*
X1310001Y580000D02*
D03*
X1300001Y520000D02*
D03*
X1310001Y500000D02*
D03*
X1300001Y480000D02*
D03*
X1310001Y460000D02*
D03*
X1300001Y440000D02*
D03*
X1310001Y420000D02*
D03*
X1300001Y400000D02*
D03*
Y360000D02*
D03*
Y320000D02*
D03*
X1290001Y1180001D02*
D03*
Y1100001D02*
D03*
Y1060001D02*
D03*
X1280001Y1000001D02*
D03*
Y960001D02*
D03*
X1290001Y940001D02*
D03*
Y900001D02*
D03*
X1280001Y880001D02*
D03*
Y800000D02*
D03*
X1290001Y780000D02*
D03*
X1280001Y600000D02*
D03*
X1290001Y580000D02*
D03*
X1280001Y520000D02*
D03*
X1290001Y500000D02*
D03*
X1280001Y480000D02*
D03*
X1290001Y460000D02*
D03*
X1280001Y440000D02*
D03*
X1290001Y420000D02*
D03*
X1280001Y400000D02*
D03*
X1290001Y380000D02*
D03*
X1280001Y360000D02*
D03*
X1290001Y340000D02*
D03*
X1270001Y1220001D02*
D03*
X1260001Y1200001D02*
D03*
Y1160001D02*
D03*
Y1120001D02*
D03*
Y1080001D02*
D03*
Y1040001D02*
D03*
X1270001Y780000D02*
D03*
X1260001Y600000D02*
D03*
X1270001Y580000D02*
D03*
X1260001Y520000D02*
D03*
X1270001Y500000D02*
D03*
X1260001Y480000D02*
D03*
X1270001Y460000D02*
D03*
X1260001Y440000D02*
D03*
X1270001Y420000D02*
D03*
X1260001Y400000D02*
D03*
X1270001Y380000D02*
D03*
X1260001Y360000D02*
D03*
X1270001Y340000D02*
D03*
X1240001Y1200001D02*
D03*
X1250001Y1140001D02*
D03*
X1240001Y1080001D02*
D03*
X1250001Y1060001D02*
D03*
X1240001Y1040001D02*
D03*
Y1000001D02*
D03*
X1250001Y980001D02*
D03*
Y940001D02*
D03*
Y900001D02*
D03*
Y860001D02*
D03*
X1240001Y840001D02*
D03*
X1250001Y780000D02*
D03*
Y700000D02*
D03*
X1240001Y600000D02*
D03*
X1250001Y580000D02*
D03*
X1240001Y520000D02*
D03*
X1250001Y500000D02*
D03*
X1240001Y480000D02*
D03*
X1250001Y460000D02*
D03*
X1240001Y400000D02*
D03*
X1250001Y380000D02*
D03*
X1240001Y360000D02*
D03*
X1250001Y340000D02*
D03*
X1220001Y1200001D02*
D03*
Y1160001D02*
D03*
Y1120001D02*
D03*
Y1080001D02*
D03*
X1230001Y1060001D02*
D03*
X1220001Y1000001D02*
D03*
Y960001D02*
D03*
Y920001D02*
D03*
X1230001Y820000D02*
D03*
X1220001Y760000D02*
D03*
Y720000D02*
D03*
Y680000D02*
D03*
Y600000D02*
D03*
X1230001Y580000D02*
D03*
X1220001Y520000D02*
D03*
X1230001Y500000D02*
D03*
X1220001Y400000D02*
D03*
X1230001Y380000D02*
D03*
X1220001Y360000D02*
D03*
X1230001Y340000D02*
D03*
X1220001Y280000D02*
D03*
X1210001Y1220001D02*
D03*
X1200001Y1200001D02*
D03*
X1210001Y1180001D02*
D03*
X1200001Y1120001D02*
D03*
X1210001Y1100001D02*
D03*
Y1060001D02*
D03*
X1200001Y1040001D02*
D03*
X1210001Y980001D02*
D03*
Y940001D02*
D03*
Y900001D02*
D03*
X1200001Y880001D02*
D03*
Y840001D02*
D03*
X1210001Y820000D02*
D03*
X1200001Y760000D02*
D03*
Y720000D02*
D03*
Y600000D02*
D03*
X1210001Y580000D02*
D03*
X1200001Y520000D02*
D03*
X1210001Y500000D02*
D03*
Y380000D02*
D03*
X1200001Y360000D02*
D03*
X1210001Y340000D02*
D03*
X1200001Y280000D02*
D03*
X1180001Y1200001D02*
D03*
Y1160001D02*
D03*
X1190001Y1140001D02*
D03*
X1180001Y1000001D02*
D03*
Y960001D02*
D03*
X1190001Y900001D02*
D03*
Y860001D02*
D03*
X1180001Y840001D02*
D03*
X1190001Y820000D02*
D03*
X1180001Y760000D02*
D03*
Y720000D02*
D03*
Y400000D02*
D03*
X1190001Y380000D02*
D03*
X1180001Y280000D02*
D03*
X1170001Y1220001D02*
D03*
X1160001Y1200001D02*
D03*
X1170001Y1180001D02*
D03*
Y1140001D02*
D03*
Y1100001D02*
D03*
X1160001Y1080001D02*
D03*
X1170001Y1060001D02*
D03*
Y1020001D02*
D03*
Y980001D02*
D03*
Y940001D02*
D03*
X1160001Y920001D02*
D03*
Y880001D02*
D03*
X1170001Y860001D02*
D03*
X1160001Y840001D02*
D03*
X1170001Y820000D02*
D03*
X1160001Y720000D02*
D03*
Y440000D02*
D03*
Y400000D02*
D03*
X1170001Y380000D02*
D03*
X1160001Y280000D02*
D03*
X1140001Y1200001D02*
D03*
Y1080001D02*
D03*
Y960001D02*
D03*
Y920001D02*
D03*
X1150001Y860001D02*
D03*
X1140001Y840001D02*
D03*
X1150001Y820000D02*
D03*
X1140001Y800000D02*
D03*
Y760000D02*
D03*
Y680000D02*
D03*
Y440000D02*
D03*
X1150001Y420000D02*
D03*
X1140001Y400000D02*
D03*
X1150001Y380000D02*
D03*
X1140001Y280000D02*
D03*
X1130001Y1220001D02*
D03*
X1120001Y1200001D02*
D03*
X1130001Y1180001D02*
D03*
X1120001Y1160001D02*
D03*
Y1120001D02*
D03*
X1130001Y1100001D02*
D03*
X1120001Y960001D02*
D03*
Y920001D02*
D03*
X1130001Y900001D02*
D03*
Y860001D02*
D03*
X1120001Y840001D02*
D03*
X1130001Y820000D02*
D03*
X1120001Y720000D02*
D03*
Y280000D02*
D03*
X1110001Y1140001D02*
D03*
X1100001Y1040001D02*
D03*
Y960001D02*
D03*
Y880001D02*
D03*
X1110001Y860001D02*
D03*
X1100001Y840001D02*
D03*
X1110001Y820000D02*
D03*
X1100001Y640000D02*
D03*
Y280000D02*
D03*
X1090001Y1220001D02*
D03*
X1080001Y1200001D02*
D03*
X1090001Y1180001D02*
D03*
X1080001Y1160001D02*
D03*
Y1120001D02*
D03*
Y1080001D02*
D03*
Y1040001D02*
D03*
X1090001Y1020001D02*
D03*
Y900001D02*
D03*
X1080001Y880001D02*
D03*
X1090001Y860001D02*
D03*
X1080001Y840001D02*
D03*
X1090001Y820000D02*
D03*
Y780000D02*
D03*
Y660000D02*
D03*
X1080001Y640000D02*
D03*
Y280000D02*
D03*
X1060001Y1200001D02*
D03*
Y1080001D02*
D03*
Y1040001D02*
D03*
Y880001D02*
D03*
X1070001Y860001D02*
D03*
X1060001Y840001D02*
D03*
X1070001Y820000D02*
D03*
X1060001Y800000D02*
D03*
Y640000D02*
D03*
X1070001Y620000D02*
D03*
Y540000D02*
D03*
X1060001Y440000D02*
D03*
X1070001Y420000D02*
D03*
X1060001Y400000D02*
D03*
X1070001Y340000D02*
D03*
X1060001Y320000D02*
D03*
X1070001Y300000D02*
D03*
X1060001Y280000D02*
D03*
X1040001Y1160001D02*
D03*
Y1120001D02*
D03*
X1050001Y1060001D02*
D03*
X1040001Y1040001D02*
D03*
Y960001D02*
D03*
Y880001D02*
D03*
X1050001Y860001D02*
D03*
X1040001Y840001D02*
D03*
X1050001Y820000D02*
D03*
X1040001Y800000D02*
D03*
Y640000D02*
D03*
X1050001Y620000D02*
D03*
X1040001Y600000D02*
D03*
Y440000D02*
D03*
X1050001Y420000D02*
D03*
X1040001Y400000D02*
D03*
X1050001Y340000D02*
D03*
X1040001Y320000D02*
D03*
X1050001Y300000D02*
D03*
X1040001Y280000D02*
D03*
X1030001Y1180001D02*
D03*
Y1060001D02*
D03*
X1020001Y1040001D02*
D03*
Y960001D02*
D03*
X1030001Y940001D02*
D03*
X1020001Y920001D02*
D03*
X1030001Y900001D02*
D03*
X1020001Y880001D02*
D03*
X1030001Y860001D02*
D03*
X1020001Y840001D02*
D03*
X1030001Y820000D02*
D03*
X1020001Y800000D02*
D03*
Y760000D02*
D03*
Y720000D02*
D03*
Y680000D02*
D03*
X1030001Y660000D02*
D03*
X1020001Y640000D02*
D03*
X1030001Y620000D02*
D03*
X1020001Y600000D02*
D03*
X1030001Y580000D02*
D03*
Y540000D02*
D03*
X1020001Y480000D02*
D03*
Y440000D02*
D03*
X1030001Y420000D02*
D03*
Y340000D02*
D03*
X1000001Y1120001D02*
D03*
Y1080001D02*
D03*
Y1040001D02*
D03*
X1010001Y1020001D02*
D03*
X1000001Y1000001D02*
D03*
X1010001Y940001D02*
D03*
X1000001Y920001D02*
D03*
X1010001Y900001D02*
D03*
X1000001Y880001D02*
D03*
X1010001Y860001D02*
D03*
X1000001Y840001D02*
D03*
X1010001Y820000D02*
D03*
X1000001Y800000D02*
D03*
X1010001Y780000D02*
D03*
X1000001Y760000D02*
D03*
X1010001Y700000D02*
D03*
X1000001Y680000D02*
D03*
X1010001Y660000D02*
D03*
X1000001Y640000D02*
D03*
X1010001Y620000D02*
D03*
X1000001Y600000D02*
D03*
X1010001Y580000D02*
D03*
X1000001Y560000D02*
D03*
X1010001Y540000D02*
D03*
X1000001Y520000D02*
D03*
X1010001Y420000D02*
D03*
Y380000D02*
D03*
X990001Y1140001D02*
D03*
X980001Y1120001D02*
D03*
X990001Y1100001D02*
D03*
X980001Y1080001D02*
D03*
X990001Y1060001D02*
D03*
X980001Y1040001D02*
D03*
X990001Y1020001D02*
D03*
X980001Y960001D02*
D03*
X990001Y940001D02*
D03*
X980001Y920001D02*
D03*
X990001Y900001D02*
D03*
X980001Y880001D02*
D03*
X990001Y860001D02*
D03*
X980001Y840001D02*
D03*
X990001Y820000D02*
D03*
X980001Y800000D02*
D03*
X990001Y780000D02*
D03*
X980001Y760000D02*
D03*
Y720000D02*
D03*
X990001Y700000D02*
D03*
X980001Y680000D02*
D03*
X990001Y660000D02*
D03*
X980001Y640000D02*
D03*
X990001Y620000D02*
D03*
Y580000D02*
D03*
Y540000D02*
D03*
Y500000D02*
D03*
X980001Y400000D02*
D03*
X960001Y1160001D02*
D03*
X970001Y1140001D02*
D03*
X960001Y1120001D02*
D03*
X970001Y1100001D02*
D03*
X960001Y1080001D02*
D03*
X970001Y1060001D02*
D03*
X960001Y1040001D02*
D03*
X970001Y1020001D02*
D03*
X960001Y1000001D02*
D03*
Y960001D02*
D03*
X970001Y940001D02*
D03*
X960001Y920001D02*
D03*
X970001Y900001D02*
D03*
X960001Y880001D02*
D03*
X970001Y860001D02*
D03*
X960001Y840001D02*
D03*
X970001Y820000D02*
D03*
X960001Y800000D02*
D03*
X970001Y780000D02*
D03*
X960001Y760000D02*
D03*
Y720000D02*
D03*
X970001Y700000D02*
D03*
X960001Y680000D02*
D03*
X970001Y660000D02*
D03*
X960001Y640000D02*
D03*
X970001Y620000D02*
D03*
X960001Y600000D02*
D03*
X970001Y580000D02*
D03*
X960001Y560000D02*
D03*
X970001Y540000D02*
D03*
X960001Y520000D02*
D03*
X970001Y500000D02*
D03*
X960001Y480000D02*
D03*
X970001Y460000D02*
D03*
X960001Y440000D02*
D03*
X970001Y420000D02*
D03*
X960001Y400000D02*
D03*
X970001Y380000D02*
D03*
X960001Y360000D02*
D03*
X1048644Y1081610D02*
D03*
X1257250Y666250D02*
D03*
X1402500Y755000D02*
D03*
X1402500Y762500D02*
D03*
X1387500Y755000D02*
D03*
X1362500Y757500D02*
D03*
X1410710Y779719D02*
D03*
X1400000Y790000D02*
D03*
X1410000D02*
D03*
X1420000Y780000D02*
D03*
X1430000Y760000D02*
D03*
X1370000Y800000D02*
D03*
X1380000D02*
D03*
X1390000Y810000D02*
D03*
X1435000Y770000D02*
D03*
X1445000D02*
D03*
X1530000Y1070000D02*
D03*
X1545000D02*
D03*
X1117500Y1080000D02*
D03*
X1090000Y1167500D02*
D03*
X1340000Y900000D02*
D03*
X1330000Y890000D02*
D03*
Y880000D02*
D03*
X1460000Y865000D02*
D03*
X1452500Y855000D02*
D03*
X1375000Y985000D02*
D03*
X1450000Y870000D02*
D03*
X1320000Y890000D02*
D03*
X1305000Y925000D02*
D03*
X1290000Y985000D02*
D03*
X1731755Y389255D02*
D03*
X1732500Y712500D02*
D03*
X1400000Y890000D02*
D03*
X1360000Y850000D02*
D03*
X1390000Y830000D02*
D03*
X1300000Y886750D02*
D03*
X1342500Y645000D02*
D03*
X1480000Y727500D02*
D03*
X1598000Y407000D02*
D03*
Y428000D02*
D03*
X1686000Y451000D02*
D03*
Y431000D02*
D03*
X1044000Y569000D02*
D03*
X1152000Y459000D02*
D03*
X1450000Y780000D02*
D03*
X1299715Y827785D02*
D03*
X1300000Y821000D02*
D03*
X1360000Y890000D02*
D03*
X1320000Y760000D02*
D03*
X1360000Y800000D02*
D03*
X1305000Y785000D02*
D03*
X1360000Y870000D02*
D03*
X1360000Y830000D02*
D03*
X1370000Y840000D02*
D03*
Y830000D02*
D03*
X1380000D02*
D03*
X1350000Y820000D02*
D03*
X1365000Y930000D02*
D03*
X1495000Y1005000D02*
D03*
X1135000Y515000D02*
D03*
Y537500D02*
D03*
X1087500Y522500D02*
D03*
Y535000D02*
D03*
Y547500D02*
D03*
X1100000Y522500D02*
D03*
Y535000D02*
D03*
Y547500D02*
D03*
Y557500D02*
D03*
X1300000Y893250D02*
D03*
Y856750D02*
D03*
Y863250D02*
D03*
Y838500D02*
D03*
Y845000D02*
D03*
X1460000Y808250D02*
D03*
Y801750D02*
D03*
X972500Y755000D02*
D03*
Y740000D02*
D03*
X975000Y1000000D02*
D03*
Y982500D02*
D03*
X1141730Y485140D02*
D03*
X1045613Y556886D02*
D03*
X1057000Y484000D02*
D03*
X1094000Y626000D02*
D03*
X1095000Y614000D02*
D03*
X1066000Y572000D02*
D03*
X1073000Y564500D02*
D03*
X1350000Y790000D02*
D03*
X1136000Y556580D02*
D03*
X1365000Y685000D02*
D03*
X1460000Y1005000D02*
D03*
X1450000Y920000D02*
D03*
X1457500Y982500D02*
D03*
X1462500Y940000D02*
D03*
X1472500Y887500D02*
D03*
X1430000Y850500D02*
D03*
X1400000Y800000D02*
D03*
X1410000Y910000D02*
D03*
X1420000D02*
D03*
X1410000Y900000D02*
D03*
X1440000Y890000D02*
D03*
X1340000Y810000D02*
D03*
X1350000Y900000D02*
D03*
X1330000Y870000D02*
D03*
X1305000Y875000D02*
D03*
X1390000Y900000D02*
D03*
X1420000Y880000D02*
D03*
X1150000Y305000D02*
D03*
Y320000D02*
D03*
X1555000Y356000D02*
D03*
X1380000Y810000D02*
D03*
X1320000Y820000D02*
D03*
X1095000Y505000D02*
D03*
X1085000D02*
D03*
X1375000Y386000D02*
D03*
X1330000Y790000D02*
D03*
X1400000Y810000D02*
D03*
X1350000Y890000D02*
D03*
X1330000Y850000D02*
D03*
X1440000Y820000D02*
D03*
X1430000Y790000D02*
D03*
X1420000Y810000D02*
D03*
X1400000Y880000D02*
D03*
Y860000D02*
D03*
Y840000D02*
D03*
X1380000Y870000D02*
D03*
X1390000Y860000D02*
D03*
X1360000Y810000D02*
D03*
X1350000Y840000D02*
D03*
Y860000D02*
D03*
X1593532Y471700D02*
D03*
D90*
X1323398Y1100730D02*
D03*
Y1182730D02*
D03*
X1411391Y1100730D02*
D03*
Y1182730D02*
D03*
X1235406Y1100730D02*
D03*
Y1182730D02*
D03*
X1059420Y1100730D02*
D03*
Y1182730D02*
D03*
X1147413Y1100730D02*
D03*
Y1182730D02*
D03*
X1587377Y1100730D02*
D03*
Y1182730D02*
D03*
X1675370Y1100730D02*
D03*
Y1182730D02*
D03*
X1499384Y1100730D02*
D03*
Y1182730D02*
D03*
X996950Y390800D02*
D03*
Y472800D02*
D03*
D91*
X1385575Y804560D02*
G03*
X1385613Y804598I0J38D01*
G01*
X1393750Y805000D02*
G03*
X1395000Y806250I0J1250D01*
G01*
X1384294Y804560D02*
X1385575D01*
X1387000Y805000D02*
X1393750D01*
M02*
