G04*
G04 #@! TF.GenerationSoftware,Altium Limited,Altium Designer,20.2.4 (192)*
G04*
G04 Layer_Color=16711935*
%FSLAX44Y44*%
%MOMM*%
G71*
G04*
G04 #@! TF.SameCoordinates,5C77CFF5-D3CA-48E4-97E0-CB8EAA972895*
G04*
G04*
G04 #@! TF.FilePolarity,Positive*
G04*
G01*
G75*
%ADD11C,0.2540*%
%ADD76C,1.0000*%
%ADD92C,3.0000*%
G36*
X421050Y27498D02*
X449950D01*
X450500Y28048D01*
Y35998D01*
X446500D01*
X447001Y35498D01*
Y32998D01*
X421050D01*
Y27498D01*
D02*
G37*
D11*
X467750Y32498D02*
G03*
X460250Y24998I0J-7500D01*
G01*
X482750D02*
G03*
X475250Y32498I-7500J0D01*
G01*
X411051Y24999D02*
G03*
X403551Y32499I-7500J0D01*
G01*
X396051D02*
G03*
X388551Y24999I0J-7500D01*
G01*
X58070Y899998D02*
G03*
X58070Y899998I-8069J0D01*
G01*
X793070D02*
G03*
X793070Y899998I-8069J0D01*
G01*
X58070Y99998D02*
G03*
X58070Y99998I-8069J0D01*
G01*
X460250Y4998D02*
Y24998D01*
X467750Y32498D02*
X475250D01*
X482750Y4998D02*
Y24998D01*
X411051Y4999D02*
Y24999D01*
X396051Y32499D02*
X403551D01*
X388551Y4999D02*
Y24999D01*
D76*
X807500Y712498D02*
X817500D01*
X807500Y654998D02*
Y712498D01*
Y654998D02*
X817500D01*
Y712498D01*
D92*
X72016Y959998D02*
G03*
X72016Y959998I-32016J0D01*
G01*
X827016D02*
G03*
X827016Y959998I-32016J0D01*
G01*
Y39998D02*
G03*
X827016Y39998I-32016J0D01*
G01*
X72016D02*
G03*
X72016Y39998I-32016J0D01*
G01*
M02*
