G04*
G04 #@! TF.GenerationSoftware,Altium Limited,Altium Designer,20.2.4 (192)*
G04*
G04 Layer_Physical_Order=4*
G04 Layer_Color=16711680*
%FSLAX44Y44*%
%MOMM*%
G71*
G04*
G04 #@! TF.SameCoordinates,EE6B0DA7-E418-445D-8F24-CDE1CA5E80B9*
G04*
G04*
G04 #@! TF.FilePolarity,Positive*
G04*
G01*
G75*
%ADD10C,0.2500*%
%ADD12C,0.6000*%
%ADD14C,0.2000*%
%ADD50R,1.0000X0.5000*%
%ADD51R,0.5500X0.9000*%
%ADD54R,0.6000X1.0000*%
%ADD55R,1.0500X1.4500*%
%ADD56R,1.0000X0.6000*%
%ADD58C,1.0000*%
%ADD72C,0.5000*%
%ADD73C,0.3000*%
%ADD75C,0.3810*%
%ADD78C,3.2000*%
%ADD79C,1.6000*%
%ADD80O,1.0500X1.8500*%
%ADD81R,1.5000X1.5000*%
%ADD82C,1.5000*%
%ADD83C,0.5000*%
%ADD84C,0.6000*%
%ADD85C,2.0000*%
%ADD86R,0.6000X0.6400*%
%ADD87R,0.6400X0.6000*%
%ADD88R,1.4500X1.0500*%
G36*
X758156Y993841D02*
X755235Y990511D01*
X751593Y985060D01*
X748693Y979180D01*
X746585Y972971D01*
X745306Y966541D01*
X744877Y959998D01*
X745306Y953456D01*
X746585Y947026D01*
X748693Y940817D01*
X751593Y934937D01*
X755235Y929485D01*
X759558Y924556D01*
X764488Y920233D01*
X769939Y916591D01*
X775819Y913691D01*
X779605Y912406D01*
X779647Y911136D01*
X778778Y910776D01*
X776200Y908799D01*
X774222Y906221D01*
X772979Y903219D01*
X772555Y899998D01*
X772979Y896777D01*
X774222Y893776D01*
X776200Y891198D01*
X778778Y889220D01*
X781779Y887977D01*
X785000Y887553D01*
X788222Y887977D01*
X791223Y889220D01*
X793801Y891198D01*
X795779Y893776D01*
X797022Y896777D01*
X797446Y899998D01*
X797022Y903219D01*
X795779Y906221D01*
X793895Y908675D01*
X794131Y909676D01*
X794225Y909926D01*
X795000Y909875D01*
X801543Y910304D01*
X807973Y911583D01*
X814182Y913691D01*
X820062Y916591D01*
X825513Y920233D01*
X828844Y923154D01*
X830000Y922629D01*
Y77367D01*
X828844Y76843D01*
X825513Y79763D01*
X820062Y83406D01*
X814182Y86306D01*
X807973Y88413D01*
X801543Y89692D01*
X795000Y90121D01*
X788458Y89692D01*
X782028Y88413D01*
X775819Y86306D01*
X769939Y83406D01*
X764488Y79763D01*
X759558Y75441D01*
X755235Y70511D01*
X751593Y65060D01*
X748693Y59180D01*
X746585Y52971D01*
X745306Y46541D01*
X744877Y39998D01*
X745306Y33456D01*
X746585Y27025D01*
X748693Y20817D01*
X751593Y14937D01*
X755235Y9485D01*
X758156Y6155D01*
X757632Y4998D01*
X487104D01*
Y24998D01*
X487122D01*
X486717Y28071D01*
X485532Y30934D01*
X483645Y33393D01*
X481186Y35279D01*
X478323Y36465D01*
X475250Y36870D01*
Y36852D01*
X467750D01*
Y36870D01*
X464678Y36465D01*
X461815Y35279D01*
X459356Y33393D01*
X457469Y30934D01*
X456283Y28071D01*
X455879Y24998D01*
X455897D01*
Y4998D01*
X415405D01*
X415404Y4999D01*
Y24999D01*
X415422D01*
X415018Y28071D01*
X413832Y30935D01*
X411945Y33393D01*
X409486Y35280D01*
X406623Y36466D01*
X403551Y36871D01*
Y36853D01*
X396051D01*
Y36871D01*
X392978Y36466D01*
X390115Y35280D01*
X387656Y33393D01*
X385770Y30935D01*
X384584Y28071D01*
X384179Y24999D01*
X384197D01*
Y4999D01*
X384196Y4998D01*
X77369D01*
X76845Y6155D01*
X79766Y9485D01*
X83408Y14937D01*
X86308Y20817D01*
X88415Y27025D01*
X89695Y33456D01*
X90123Y39998D01*
X89695Y46541D01*
X88415Y52971D01*
X86308Y59180D01*
X83408Y65060D01*
X79766Y70511D01*
X75443Y75441D01*
X70513Y79763D01*
X65062Y83406D01*
X59182Y86306D01*
X55396Y87591D01*
X55354Y88860D01*
X56223Y89220D01*
X58801Y91198D01*
X60778Y93776D01*
X62022Y96777D01*
X62446Y99998D01*
X62022Y103219D01*
X60778Y106221D01*
X58801Y108799D01*
X56223Y110776D01*
X53222Y112020D01*
X50000Y112444D01*
X46779Y112020D01*
X43778Y110776D01*
X41200Y108799D01*
X39222Y106221D01*
X37979Y103219D01*
X37555Y99998D01*
X37979Y96777D01*
X39222Y93776D01*
X41105Y91322D01*
X40870Y90320D01*
X40776Y90070D01*
X40000Y90121D01*
X33458Y89692D01*
X27028Y88413D01*
X20819Y86306D01*
X14939Y83406D01*
X9488Y79763D01*
X6157Y76843D01*
X5000Y77367D01*
Y922629D01*
X6157Y923154D01*
X9488Y920233D01*
X14939Y916591D01*
X20819Y913691D01*
X27028Y911583D01*
X33458Y910304D01*
X40000Y909875D01*
X40776Y909926D01*
X40870Y909676D01*
X41105Y908675D01*
X39222Y906221D01*
X37979Y903219D01*
X37555Y899998D01*
X37979Y896777D01*
X39222Y893776D01*
X41200Y891198D01*
X43778Y889220D01*
X46779Y887977D01*
X50000Y887553D01*
X53222Y887977D01*
X56223Y889220D01*
X58801Y891198D01*
X60778Y893776D01*
X62022Y896777D01*
X62446Y899998D01*
X62022Y903219D01*
X60778Y906221D01*
X58801Y908799D01*
X56223Y910776D01*
X55354Y911136D01*
X55396Y912406D01*
X59182Y913691D01*
X65062Y916591D01*
X70513Y920233D01*
X75443Y924556D01*
X79766Y929485D01*
X83408Y934937D01*
X86308Y940817D01*
X88415Y947026D01*
X89695Y953456D01*
X90123Y959998D01*
X89695Y966541D01*
X88415Y972971D01*
X86308Y979180D01*
X83408Y985060D01*
X79766Y990511D01*
X76845Y993841D01*
X77369Y994998D01*
X757632D01*
X758156Y993841D01*
D02*
G37*
%LPC*%
G36*
X555885Y940841D02*
X552491Y940394D01*
X549328Y939084D01*
X546613Y937000D01*
X544529Y934284D01*
X543219Y931122D01*
X542772Y927728D01*
X543219Y924335D01*
X544529Y921172D01*
X546613Y918457D01*
X549191Y916478D01*
X549474Y915285D01*
X549497Y915113D01*
X548367Y914246D01*
X546678Y912044D01*
X545616Y909480D01*
X545421Y907998D01*
X555885D01*
X566348D01*
X566153Y909480D01*
X565091Y912044D01*
X563402Y914246D01*
X562272Y915113D01*
X562295Y915285D01*
X562578Y916478D01*
X565156Y918457D01*
X567240Y921172D01*
X568550Y924335D01*
X568997Y927728D01*
X568550Y931122D01*
X567240Y934284D01*
X565156Y937000D01*
X562441Y939084D01*
X559278Y940394D01*
X555885Y940841D01*
D02*
G37*
G36*
X467892D02*
X464498Y940394D01*
X461336Y939084D01*
X458620Y937000D01*
X456536Y934284D01*
X455226Y931122D01*
X454780Y927728D01*
X455226Y924335D01*
X456536Y921172D01*
X458620Y918457D01*
X461198Y916478D01*
X461482Y915284D01*
X461504Y915113D01*
X460375Y914246D01*
X458685Y912044D01*
X457623Y909480D01*
X457428Y907998D01*
X467892D01*
X478356D01*
X478161Y909480D01*
X477099Y912044D01*
X475409Y914246D01*
X474279Y915113D01*
X474302Y915284D01*
X474585Y916478D01*
X477164Y918457D01*
X479247Y921172D01*
X480557Y924335D01*
X481004Y927728D01*
X480557Y931122D01*
X479247Y934284D01*
X477164Y937000D01*
X474448Y939084D01*
X471286Y940394D01*
X467892Y940841D01*
D02*
G37*
G36*
X115920D02*
X112527Y940394D01*
X109364Y939084D01*
X106649Y937000D01*
X104565Y934284D01*
X103255Y931122D01*
X102808Y927728D01*
X103255Y924335D01*
X104565Y921172D01*
X106649Y918457D01*
X109227Y916478D01*
X109510Y915284D01*
X109533Y915113D01*
X108403Y914246D01*
X106714Y912044D01*
X105652Y909480D01*
X105457Y907998D01*
X115920D01*
X126384D01*
X126189Y909480D01*
X125127Y912044D01*
X123438Y914246D01*
X122308Y915113D01*
X122330Y915284D01*
X122614Y916478D01*
X125192Y918457D01*
X127276Y921172D01*
X128586Y924335D01*
X129033Y927728D01*
X128586Y931122D01*
X127276Y934284D01*
X125192Y937000D01*
X122477Y939084D01*
X119314Y940394D01*
X115920Y940841D01*
D02*
G37*
G36*
X731870D02*
X728477Y940394D01*
X725314Y939084D01*
X722599Y937000D01*
X720515Y934284D01*
X719205Y931122D01*
X718758Y927728D01*
X719205Y924335D01*
X720515Y921172D01*
X722599Y918457D01*
X725177Y916478D01*
X725460Y915285D01*
X725483Y915113D01*
X724353Y914246D01*
X722664Y912044D01*
X721602Y909480D01*
X721407Y907998D01*
X731870D01*
X742334D01*
X742139Y909480D01*
X741077Y912044D01*
X739388Y914246D01*
X738258Y915113D01*
X738280Y915285D01*
X738564Y916478D01*
X741142Y918457D01*
X743226Y921172D01*
X744536Y924335D01*
X744983Y927728D01*
X744536Y931122D01*
X743226Y934284D01*
X741142Y937000D01*
X738426Y939084D01*
X735264Y940394D01*
X731870Y940841D01*
D02*
G37*
G36*
X379899D02*
X376505Y940394D01*
X373343Y939084D01*
X370627Y937000D01*
X368544Y934284D01*
X367234Y931122D01*
X366787Y927728D01*
X367234Y924335D01*
X368544Y921172D01*
X370627Y918457D01*
X373205Y916478D01*
X373489Y915285D01*
X373512Y915113D01*
X372382Y914246D01*
X370692Y912044D01*
X369630Y909480D01*
X369435Y907998D01*
X379899D01*
X390363D01*
X390168Y909480D01*
X389106Y912044D01*
X387416Y914246D01*
X386286Y915113D01*
X386309Y915285D01*
X386592Y916478D01*
X389171Y918457D01*
X391254Y921172D01*
X392564Y924335D01*
X393011Y927728D01*
X392564Y931122D01*
X391254Y934284D01*
X389171Y937000D01*
X386455Y939084D01*
X383293Y940394D01*
X379899Y940841D01*
D02*
G37*
G36*
X643877D02*
X640484Y940394D01*
X637321Y939084D01*
X634606Y937000D01*
X632522Y934284D01*
X631212Y931122D01*
X630765Y927728D01*
X631212Y924335D01*
X632522Y921172D01*
X634606Y918457D01*
X637184Y916478D01*
X637467Y915284D01*
X637490Y915113D01*
X636360Y914246D01*
X634671Y912044D01*
X633609Y909480D01*
X633414Y907998D01*
X643877D01*
X654341D01*
X654146Y909480D01*
X653084Y912044D01*
X651395Y914246D01*
X650265Y915113D01*
X650287Y915284D01*
X650571Y916478D01*
X653149Y918457D01*
X655233Y921172D01*
X656543Y924335D01*
X656990Y927728D01*
X656543Y931122D01*
X655233Y934284D01*
X653149Y937000D01*
X650434Y939084D01*
X647271Y940394D01*
X643877Y940841D01*
D02*
G37*
G36*
X291906D02*
X288512Y940394D01*
X285350Y939084D01*
X282634Y937000D01*
X280551Y934284D01*
X279241Y931122D01*
X278794Y927728D01*
X279241Y924335D01*
X280551Y921172D01*
X282634Y918457D01*
X285213Y916478D01*
X285496Y915284D01*
X285519Y915113D01*
X284389Y914246D01*
X282700Y912044D01*
X281637Y909480D01*
X281442Y907998D01*
X291906D01*
X302370D01*
X302175Y909480D01*
X301113Y912044D01*
X299423Y914246D01*
X298293Y915113D01*
X298316Y915284D01*
X298600Y916478D01*
X301178Y918457D01*
X303262Y921172D01*
X304571Y924335D01*
X305018Y927728D01*
X304571Y931122D01*
X303262Y934284D01*
X301178Y937000D01*
X298462Y939084D01*
X295300Y940394D01*
X291906Y940841D01*
D02*
G37*
G36*
X203913D02*
X200520Y940394D01*
X197357Y939084D01*
X194642Y937000D01*
X192558Y934284D01*
X191248Y931122D01*
X190801Y927728D01*
X191248Y924335D01*
X192558Y921172D01*
X194642Y918457D01*
X197220Y916478D01*
X197503Y915285D01*
X197526Y915113D01*
X196396Y914246D01*
X194707Y912044D01*
X193645Y909480D01*
X193449Y907998D01*
X203913D01*
X214377D01*
X214182Y909480D01*
X213120Y912044D01*
X211430Y914246D01*
X210301Y915113D01*
X210323Y915285D01*
X210607Y916478D01*
X213185Y918457D01*
X215269Y921172D01*
X216579Y924335D01*
X217025Y927728D01*
X216579Y931122D01*
X215269Y934284D01*
X213185Y937000D01*
X210469Y939084D01*
X207307Y940394D01*
X203913Y940841D01*
D02*
G37*
G36*
X742334Y905458D02*
X731870D01*
X721407D01*
X721602Y903977D01*
X722664Y901413D01*
X724353Y899211D01*
X726313Y897707D01*
X726355Y896721D01*
X726244Y896276D01*
X724025Y894574D01*
X722262Y892276D01*
X721153Y889600D01*
X720775Y886728D01*
X721153Y883857D01*
X722262Y881181D01*
X724025Y878883D01*
X725827Y877500D01*
X725906Y877315D01*
Y876141D01*
X725827Y875956D01*
X724025Y874574D01*
X722262Y872276D01*
X721153Y869600D01*
X720775Y866728D01*
X721153Y863857D01*
X722262Y861181D01*
X724025Y858883D01*
X724923Y858194D01*
X724799Y856688D01*
X722599Y855000D01*
X720515Y852284D01*
X719205Y849122D01*
X718758Y845728D01*
X719205Y842335D01*
X720515Y839172D01*
X722599Y836457D01*
X725314Y834373D01*
X728477Y833063D01*
X731870Y832616D01*
X735264Y833063D01*
X738426Y834373D01*
X741142Y836457D01*
X743226Y839172D01*
X744536Y842335D01*
X744983Y845728D01*
X744536Y849122D01*
X743226Y852284D01*
X741142Y855000D01*
X738942Y856688D01*
X738817Y858194D01*
X739716Y858883D01*
X741479Y861181D01*
X742587Y863857D01*
X742965Y866728D01*
X742587Y869600D01*
X741479Y872276D01*
X739716Y874574D01*
X737914Y875956D01*
X737835Y876141D01*
Y877315D01*
X737914Y877500D01*
X739716Y878883D01*
X741479Y881181D01*
X742587Y883857D01*
X742965Y886728D01*
X742587Y889600D01*
X741479Y892276D01*
X739716Y894574D01*
X737497Y896276D01*
X737386Y896721D01*
X737428Y897707D01*
X739388Y899211D01*
X741077Y901413D01*
X742139Y903977D01*
X742334Y905458D01*
D02*
G37*
G36*
X654341D02*
X643877D01*
X633414D01*
X633609Y903977D01*
X634671Y901413D01*
X636360Y899211D01*
X638320Y897707D01*
X638362Y896721D01*
X638251Y896276D01*
X636032Y894574D01*
X634269Y892276D01*
X633161Y889600D01*
X632783Y886728D01*
X633161Y883857D01*
X634269Y881181D01*
X636032Y878883D01*
X637834Y877500D01*
X637913Y877315D01*
Y876141D01*
X637834Y875956D01*
X636032Y874574D01*
X634269Y872276D01*
X633161Y869600D01*
X632783Y866728D01*
X633161Y863857D01*
X634269Y861181D01*
X636032Y858883D01*
X636931Y858194D01*
X636806Y856688D01*
X634606Y855000D01*
X632522Y852284D01*
X631212Y849122D01*
X630765Y845728D01*
X631212Y842335D01*
X632522Y839172D01*
X634606Y836457D01*
X637321Y834373D01*
X640484Y833063D01*
X643877Y832616D01*
X647271Y833063D01*
X650434Y834373D01*
X653149Y836457D01*
X655233Y839172D01*
X656543Y842335D01*
X656990Y845728D01*
X656543Y849122D01*
X655233Y852284D01*
X653149Y855000D01*
X650949Y856688D01*
X650825Y858194D01*
X651723Y858883D01*
X653486Y861181D01*
X654594Y863857D01*
X654972Y866728D01*
X654594Y869600D01*
X653486Y872276D01*
X651723Y874574D01*
X649921Y875956D01*
X649842Y876141D01*
Y877315D01*
X649921Y877500D01*
X651723Y878883D01*
X653486Y881181D01*
X654594Y883857D01*
X654972Y886728D01*
X654594Y889600D01*
X653486Y892276D01*
X651723Y894574D01*
X649504Y896276D01*
X649393Y896721D01*
X649435Y897707D01*
X651395Y899211D01*
X653084Y901413D01*
X654146Y903977D01*
X654341Y905458D01*
D02*
G37*
G36*
X566348D02*
X555885D01*
X545421D01*
X545616Y903977D01*
X546678Y901413D01*
X548367Y899211D01*
X550327Y897707D01*
X550369Y896721D01*
X550258Y896276D01*
X548039Y894574D01*
X546276Y892276D01*
X545168Y889600D01*
X544790Y886728D01*
X545168Y883857D01*
X546276Y881181D01*
X548039Y878883D01*
X549841Y877500D01*
X549920Y877315D01*
Y876141D01*
X549841Y875956D01*
X548039Y874574D01*
X546276Y872276D01*
X545168Y869600D01*
X544790Y866728D01*
X545168Y863857D01*
X546276Y861181D01*
X548039Y858883D01*
X548938Y858194D01*
X548813Y856688D01*
X546613Y855000D01*
X544529Y852284D01*
X543219Y849122D01*
X542772Y845728D01*
X543219Y842335D01*
X544529Y839172D01*
X546613Y836457D01*
X549328Y834373D01*
X552491Y833063D01*
X555885Y832616D01*
X559278Y833063D01*
X562441Y834373D01*
X565156Y836457D01*
X567240Y839172D01*
X568550Y842335D01*
X568997Y845728D01*
X568550Y849122D01*
X567240Y852284D01*
X565156Y855000D01*
X562956Y856688D01*
X562832Y858194D01*
X563730Y858883D01*
X565493Y861181D01*
X566601Y863857D01*
X566979Y866728D01*
X566601Y869600D01*
X565493Y872276D01*
X563730Y874574D01*
X561928Y875956D01*
X561849Y876141D01*
Y877315D01*
X561928Y877500D01*
X563730Y878883D01*
X565493Y881181D01*
X566601Y883857D01*
X566979Y886728D01*
X566601Y889600D01*
X565493Y892276D01*
X563730Y894574D01*
X561511Y896276D01*
X561400Y896721D01*
X561442Y897707D01*
X563402Y899211D01*
X565091Y901413D01*
X566153Y903977D01*
X566348Y905458D01*
D02*
G37*
G36*
X478355D02*
X467892D01*
X457428D01*
X457623Y903977D01*
X458685Y901413D01*
X460375Y899211D01*
X462334Y897707D01*
X462376Y896721D01*
X462265Y896276D01*
X460047Y894574D01*
X458283Y892276D01*
X457175Y889600D01*
X456797Y886728D01*
X457175Y883857D01*
X458283Y881181D01*
X460047Y878883D01*
X461849Y877500D01*
X461927Y877315D01*
Y876141D01*
X461849Y875956D01*
X460047Y874574D01*
X458283Y872276D01*
X457175Y869600D01*
X456797Y866728D01*
X457175Y863857D01*
X458283Y861181D01*
X460047Y858883D01*
X460945Y858194D01*
X460820Y856688D01*
X458620Y855000D01*
X456536Y852284D01*
X455226Y849122D01*
X454780Y845728D01*
X455226Y842335D01*
X456536Y839172D01*
X458620Y836457D01*
X461336Y834373D01*
X464498Y833063D01*
X467892Y832616D01*
X471286Y833063D01*
X474448Y834373D01*
X477164Y836457D01*
X479247Y839172D01*
X480557Y842335D01*
X481004Y845728D01*
X480557Y849122D01*
X479247Y852284D01*
X477164Y855000D01*
X474963Y856688D01*
X474839Y858194D01*
X475737Y858883D01*
X477500Y861181D01*
X478609Y863857D01*
X478987Y866728D01*
X478609Y869600D01*
X477500Y872276D01*
X475737Y874574D01*
X473935Y875956D01*
X473856Y876141D01*
Y877315D01*
X473935Y877500D01*
X475737Y878883D01*
X477500Y881181D01*
X478609Y883857D01*
X478987Y886728D01*
X478609Y889600D01*
X477500Y892276D01*
X475737Y894574D01*
X473519Y896276D01*
X473407Y896721D01*
X473449Y897707D01*
X475409Y899211D01*
X477099Y901413D01*
X478161Y903977D01*
X478355Y905458D01*
D02*
G37*
G36*
X390363D02*
X379899D01*
X369435D01*
X369630Y903977D01*
X370692Y901413D01*
X372382Y899211D01*
X374342Y897707D01*
X374383Y896721D01*
X374272Y896276D01*
X372054Y894574D01*
X370290Y892276D01*
X369182Y889600D01*
X368804Y886728D01*
X369182Y883857D01*
X370290Y881181D01*
X372054Y878883D01*
X373856Y877500D01*
X373935Y877315D01*
Y876141D01*
X373856Y875956D01*
X372054Y874574D01*
X370290Y872276D01*
X369182Y869600D01*
X368804Y866728D01*
X369182Y863857D01*
X370290Y861181D01*
X372054Y858883D01*
X372952Y858194D01*
X372828Y856688D01*
X370627Y855000D01*
X368544Y852284D01*
X367234Y849122D01*
X366787Y845728D01*
X367234Y842335D01*
X368544Y839172D01*
X370627Y836457D01*
X373343Y834373D01*
X376505Y833063D01*
X379899Y832616D01*
X383293Y833063D01*
X386455Y834373D01*
X389171Y836457D01*
X391254Y839172D01*
X392564Y842335D01*
X393011Y845728D01*
X392564Y849122D01*
X391254Y852284D01*
X389171Y855000D01*
X386970Y856688D01*
X386846Y858194D01*
X387744Y858883D01*
X389507Y861181D01*
X390616Y863857D01*
X390994Y866728D01*
X390616Y869600D01*
X389507Y872276D01*
X387744Y874574D01*
X385942Y875956D01*
X385863Y876141D01*
Y877315D01*
X385942Y877500D01*
X387744Y878883D01*
X389507Y881181D01*
X390616Y883857D01*
X390994Y886728D01*
X390616Y889600D01*
X389507Y892276D01*
X387744Y894574D01*
X385526Y896276D01*
X385415Y896721D01*
X385456Y897707D01*
X387416Y899211D01*
X389106Y901413D01*
X390168Y903977D01*
X390363Y905458D01*
D02*
G37*
G36*
X302370D02*
X291906D01*
X281442D01*
X281637Y903977D01*
X282700Y901413D01*
X284389Y899211D01*
X286349Y897707D01*
X286390Y896721D01*
X286279Y896276D01*
X284061Y894574D01*
X282298Y892276D01*
X281189Y889600D01*
X280811Y886728D01*
X281189Y883857D01*
X282298Y881181D01*
X284061Y878883D01*
X285863Y877500D01*
X285942Y877315D01*
Y876141D01*
X285863Y875956D01*
X284061Y874574D01*
X282298Y872276D01*
X281189Y869600D01*
X280811Y866728D01*
X281189Y863857D01*
X282298Y861181D01*
X284061Y858883D01*
X284959Y858194D01*
X284835Y856688D01*
X282634Y855000D01*
X280551Y852284D01*
X279241Y849122D01*
X278794Y845728D01*
X279241Y842335D01*
X280551Y839172D01*
X282634Y836457D01*
X285350Y834373D01*
X288512Y833063D01*
X291906Y832616D01*
X295300Y833063D01*
X298462Y834373D01*
X301178Y836457D01*
X303262Y839172D01*
X304571Y842335D01*
X305018Y845728D01*
X304571Y849122D01*
X303262Y852284D01*
X301178Y855000D01*
X298978Y856688D01*
X298853Y858194D01*
X299751Y858883D01*
X301515Y861181D01*
X302623Y863857D01*
X303001Y866728D01*
X302623Y869600D01*
X301515Y872276D01*
X299751Y874574D01*
X297949Y875956D01*
X297871Y876141D01*
Y877315D01*
X297949Y877500D01*
X299751Y878883D01*
X301515Y881181D01*
X302623Y883857D01*
X303001Y886728D01*
X302623Y889600D01*
X301515Y892276D01*
X299751Y894574D01*
X297533Y896276D01*
X297422Y896721D01*
X297463Y897707D01*
X299423Y899211D01*
X301113Y901413D01*
X302175Y903977D01*
X302370Y905458D01*
D02*
G37*
G36*
X214377D02*
X203913D01*
X193449D01*
X193645Y903977D01*
X194707Y901413D01*
X196396Y899211D01*
X198356Y897707D01*
X198398Y896721D01*
X198286Y896276D01*
X196068Y894574D01*
X194305Y892276D01*
X193196Y889600D01*
X192818Y886728D01*
X193196Y883857D01*
X194305Y881181D01*
X196068Y878883D01*
X197870Y877500D01*
X197949Y877315D01*
Y876141D01*
X197870Y875956D01*
X196068Y874574D01*
X194305Y872276D01*
X193196Y869600D01*
X192818Y866728D01*
X193196Y863857D01*
X194305Y861181D01*
X196068Y858883D01*
X196966Y858194D01*
X196842Y856688D01*
X194642Y855000D01*
X192558Y852284D01*
X191248Y849122D01*
X190801Y845728D01*
X191248Y842335D01*
X192558Y839172D01*
X194642Y836457D01*
X197357Y834373D01*
X200520Y833063D01*
X203913Y832616D01*
X207307Y833063D01*
X210469Y834373D01*
X213185Y836457D01*
X215269Y839172D01*
X216579Y842335D01*
X217025Y845728D01*
X216579Y849122D01*
X215269Y852284D01*
X213185Y855000D01*
X210985Y856688D01*
X210860Y858194D01*
X211759Y858883D01*
X213522Y861181D01*
X214630Y863857D01*
X215008Y866728D01*
X214630Y869600D01*
X213522Y872276D01*
X211759Y874574D01*
X209957Y875956D01*
X209878Y876141D01*
Y877315D01*
X209957Y877500D01*
X211759Y878883D01*
X213522Y881181D01*
X214630Y883857D01*
X215008Y886728D01*
X214630Y889600D01*
X213522Y892276D01*
X211759Y894574D01*
X209540Y896276D01*
X209429Y896721D01*
X209471Y897707D01*
X211430Y899211D01*
X213120Y901413D01*
X214182Y903977D01*
X214377Y905458D01*
D02*
G37*
G36*
X126384D02*
X115920D01*
X105457D01*
X105652Y903977D01*
X106714Y901413D01*
X108403Y899211D01*
X110363Y897707D01*
X110405Y896721D01*
X110294Y896276D01*
X108075Y894574D01*
X106312Y892276D01*
X105204Y889600D01*
X104825Y886728D01*
X105204Y883857D01*
X106312Y881181D01*
X108075Y878883D01*
X109877Y877500D01*
X109956Y877315D01*
Y876141D01*
X109877Y875956D01*
X108075Y874574D01*
X106312Y872276D01*
X105204Y869600D01*
X104825Y866728D01*
X105204Y863857D01*
X106312Y861181D01*
X108075Y858883D01*
X108973Y858194D01*
X108849Y856688D01*
X106649Y855000D01*
X104565Y852284D01*
X103255Y849122D01*
X102808Y845728D01*
X103255Y842335D01*
X104565Y839172D01*
X106649Y836457D01*
X109364Y834373D01*
X112527Y833063D01*
X115920Y832616D01*
X119314Y833063D01*
X122477Y834373D01*
X125192Y836457D01*
X127276Y839172D01*
X128586Y842335D01*
X129033Y845728D01*
X128586Y849122D01*
X127276Y852284D01*
X125192Y855000D01*
X122992Y856688D01*
X122867Y858194D01*
X123766Y858883D01*
X125529Y861181D01*
X126637Y863857D01*
X127015Y866728D01*
X126637Y869600D01*
X125529Y872276D01*
X123766Y874574D01*
X121964Y875956D01*
X121885Y876141D01*
Y877315D01*
X121964Y877500D01*
X123766Y878883D01*
X125529Y881181D01*
X126637Y883857D01*
X127015Y886728D01*
X126637Y889600D01*
X125529Y892276D01*
X123766Y894574D01*
X121547Y896276D01*
X121436Y896721D01*
X121478Y897707D01*
X123438Y899211D01*
X125127Y901413D01*
X126189Y903977D01*
X126384Y905458D01*
D02*
G37*
G36*
X146500Y918106D02*
X144354Y917679D01*
X142535Y916464D01*
X141320Y914644D01*
X140893Y912498D01*
X141320Y910352D01*
X142422Y908702D01*
Y822498D01*
X142422Y822498D01*
X142732Y820938D01*
X143617Y819614D01*
X152885Y810347D01*
X152358Y809077D01*
X116690D01*
X109223Y816543D01*
Y822812D01*
X110326Y824462D01*
X110753Y826608D01*
X110326Y828754D01*
X109110Y830574D01*
X107291Y831789D01*
X105145Y832216D01*
X102999Y831789D01*
X101180Y830574D01*
X99964Y828754D01*
X99537Y826608D01*
X99964Y824462D01*
X101067Y822812D01*
Y814854D01*
X101067Y814854D01*
X101377Y813293D01*
X102261Y811970D01*
X108981Y805250D01*
X108495Y804077D01*
X86120D01*
X76331Y813866D01*
Y893783D01*
X77434Y895433D01*
X77860Y897579D01*
X77434Y899725D01*
X76218Y901544D01*
X74399Y902759D01*
X72253Y903186D01*
X70107Y902759D01*
X68287Y901544D01*
X67072Y899725D01*
X66645Y897579D01*
X67072Y895433D01*
X68174Y893783D01*
Y812176D01*
X68174Y812176D01*
X68485Y810615D01*
X69369Y809292D01*
X81547Y797114D01*
X81547Y797114D01*
X82870Y796230D01*
X84431Y795920D01*
X84431Y795920D01*
X204811D01*
X348616Y652115D01*
X348617Y652114D01*
X355733Y644998D01*
X355315Y643620D01*
X354354Y643429D01*
X352535Y642214D01*
X351956Y641347D01*
X347521D01*
X347520Y641347D01*
X347520Y641347D01*
X332336D01*
X290217Y683465D01*
X290217Y683465D01*
X261967Y711715D01*
X261967Y711715D01*
X199093Y774590D01*
X197770Y775474D01*
X197250Y775577D01*
Y787455D01*
X185750D01*
Y772455D01*
X187506D01*
X187733Y771317D01*
X188617Y769994D01*
Y768878D01*
X187733Y767555D01*
X187506Y766417D01*
X185750D01*
Y751417D01*
X197250D01*
Y756817D01*
X198424Y757303D01*
X252990Y702738D01*
X252990Y702737D01*
X281239Y674488D01*
X281239Y674487D01*
X325882Y629845D01*
X325882Y629845D01*
X327206Y628960D01*
X328766Y628650D01*
X328766Y628650D01*
X345640D01*
X345640Y628650D01*
X351956D01*
X352535Y627783D01*
X354354Y626567D01*
X356500Y626141D01*
X358646Y626567D01*
X360466Y627783D01*
X360904Y628439D01*
X362168Y628563D01*
X368617Y622114D01*
X368617Y622114D01*
X369940Y621230D01*
X371501Y620920D01*
X382704D01*
X384355Y619817D01*
X386500Y619391D01*
X388646Y619817D01*
X390466Y621033D01*
X391421Y622462D01*
X392691Y622077D01*
Y619388D01*
X398299D01*
X398890Y619271D01*
X404540D01*
X406500Y618881D01*
X408842Y619346D01*
X410826Y620672D01*
X411166Y621181D01*
X412436D01*
X412535Y621033D01*
X414354Y619817D01*
X416500Y619391D01*
X418646Y619817D01*
X419235Y620211D01*
X419338Y620057D01*
X419338Y620057D01*
X420559Y618835D01*
X420559Y618835D01*
X420810Y618668D01*
X421320Y617144D01*
X420893Y614998D01*
X421320Y612852D01*
X422535Y611033D01*
X424354Y609817D01*
X426500Y609391D01*
X428646Y609817D01*
X430466Y611033D01*
X431681Y612852D01*
X432108Y614998D01*
X431776Y616670D01*
X432561Y617940D01*
X435910D01*
X436205Y617998D01*
X436796Y617998D01*
X437091Y617940D01*
X449772D01*
X449899Y617869D01*
X450620Y617024D01*
X450728Y616734D01*
X450383Y614998D01*
X450849Y612657D01*
X452175Y610673D01*
X454159Y609346D01*
X456500Y608881D01*
X458842Y609346D01*
X459190Y609580D01*
X460460Y608901D01*
Y607048D01*
X466200D01*
X471940D01*
Y610498D01*
X472400D01*
Y622498D01*
X471940D01*
Y624828D01*
X466200D01*
X460460D01*
Y622616D01*
X458000D01*
X455659Y622150D01*
X455555Y622081D01*
X455131Y622154D01*
X454447Y622516D01*
X454234Y622725D01*
X454170Y622879D01*
X454111Y623175D01*
X453943Y623425D01*
X453828Y623704D01*
X453730Y623851D01*
X453502Y624998D01*
X453734Y626168D01*
Y626469D01*
X453793Y626764D01*
X453734Y627060D01*
Y627361D01*
X453619Y627640D01*
X453560Y627935D01*
X453393Y628186D01*
X453278Y628464D01*
X453064Y628677D01*
X452897Y628927D01*
X447240Y634584D01*
Y643158D01*
X426740D01*
Y634648D01*
X420340Y629048D01*
X418646Y630179D01*
X416500Y630606D01*
X414354Y630179D01*
X412535Y628964D01*
X412436Y628815D01*
X411166D01*
X410826Y629324D01*
X410436Y629714D01*
X408451Y631040D01*
X406110Y631506D01*
X404630D01*
Y633718D01*
X398890D01*
Y636258D01*
X404630D01*
Y640528D01*
X401656D01*
X400977Y641798D01*
X401681Y642852D01*
X402108Y644998D01*
X401681Y647144D01*
X400466Y648964D01*
X398646Y650179D01*
X396501Y650606D01*
X396040Y650514D01*
X391172Y655382D01*
X389849Y656266D01*
X388288Y656577D01*
X388288Y656577D01*
X388190D01*
X380579Y664188D01*
Y679998D01*
X380268Y681559D01*
X379384Y682882D01*
X379384Y682882D01*
X239384Y822882D01*
X238061Y823766D01*
X236500Y824077D01*
X236500Y824077D01*
X180690D01*
X179568Y825198D01*
X179181Y827144D01*
X177966Y828964D01*
X176146Y830179D01*
X174000Y830606D01*
X171854Y830179D01*
X170035Y828964D01*
X168820Y827144D01*
X168393Y824998D01*
X168820Y822852D01*
X170035Y821033D01*
X171854Y819817D01*
X173801Y819430D01*
X175384Y817847D01*
X174858Y816577D01*
X158190D01*
X150579Y824188D01*
Y908702D01*
X151681Y910352D01*
X152108Y912498D01*
X151681Y914644D01*
X150466Y916464D01*
X148646Y917679D01*
X146500Y918106D01*
D02*
G37*
G36*
X182250Y787455D02*
X170750D01*
Y775784D01*
X168787D01*
X168787Y775784D01*
X167227Y775474D01*
X165904Y774590D01*
X165903Y774590D01*
X153458Y762144D01*
X137955D01*
X137863Y762330D01*
X137459Y763414D01*
X138458Y765824D01*
X138819Y768565D01*
X138458Y771306D01*
X137400Y773861D01*
X135717Y776054D01*
X133523Y777737D01*
X130969Y778795D01*
X128228Y779156D01*
X125487Y778795D01*
X122933Y777737D01*
X120739Y776054D01*
X119056Y773861D01*
X117998Y771306D01*
X117938Y770848D01*
X117409Y770742D01*
X116086Y769858D01*
X114970D01*
X113647Y770742D01*
X113118Y770848D01*
X113058Y771306D01*
X112000Y773861D01*
X110317Y776054D01*
X108123Y777737D01*
X105569Y778795D01*
X102828Y779156D01*
X100087Y778795D01*
X97533Y777737D01*
X95339Y776054D01*
X93656Y773861D01*
X93300Y772999D01*
X85500D01*
X83587Y772619D01*
X81964Y771535D01*
X68320Y757890D01*
X67235Y756268D01*
X66855Y754354D01*
Y745498D01*
X63856D01*
Y734498D01*
Y724998D01*
Y715498D01*
X79856D01*
Y715997D01*
X92470D01*
X92598Y715024D01*
X93656Y712470D01*
X95339Y710277D01*
X97533Y708594D01*
X100087Y707535D01*
X102828Y707175D01*
X105569Y707535D01*
X107945Y708520D01*
X108474Y708407D01*
X109355Y707938D01*
X109490Y707259D01*
X110374Y705936D01*
X116736Y699575D01*
X116736Y699575D01*
X118059Y698690D01*
X118221Y698658D01*
X118460Y698373D01*
X118879Y697232D01*
X117998Y695106D01*
X117751Y693225D01*
X117057Y692762D01*
X117057Y692762D01*
X115528Y691233D01*
X113999Y692762D01*
X113305Y693225D01*
X113058Y695106D01*
X112000Y697661D01*
X110317Y699854D01*
X108123Y701537D01*
X105569Y702595D01*
X102828Y702956D01*
X100087Y702595D01*
X97533Y701537D01*
X95339Y699854D01*
X93656Y697661D01*
X93534Y697366D01*
X78060D01*
X52856Y722571D01*
Y726498D01*
X52396D01*
Y729228D01*
X44856D01*
X37316D01*
Y726498D01*
X36856D01*
Y715498D01*
X45783D01*
X72453Y688829D01*
X74075Y687745D01*
X75989Y687364D01*
X93534D01*
X93656Y687070D01*
X95339Y684877D01*
X97533Y683194D01*
X100087Y682135D01*
X102828Y681775D01*
X105569Y682135D01*
X107910Y683105D01*
X109180Y682591D01*
Y680829D01*
X109180Y680829D01*
X109490Y679269D01*
X110374Y677945D01*
X114205Y674115D01*
X114205Y674115D01*
X115528Y673230D01*
X117089Y672920D01*
X118056D01*
X118803Y671650D01*
X117998Y669706D01*
X117638Y666965D01*
X117998Y664224D01*
X119056Y661670D01*
X120739Y659477D01*
X122933Y657794D01*
X125487Y656736D01*
X128228Y656375D01*
X130969Y656736D01*
X133523Y657794D01*
X135717Y659477D01*
X137400Y661670D01*
X138458Y664224D01*
X138819Y666965D01*
X138458Y669706D01*
X137653Y671650D01*
X138400Y672920D01*
X146391D01*
X151882Y667429D01*
Y656768D01*
X151882Y656768D01*
X152192Y655208D01*
X153077Y653885D01*
X168908Y638054D01*
X170231Y637169D01*
X170750Y637066D01*
Y625188D01*
X182250D01*
Y640188D01*
X180495D01*
X180268Y641326D01*
X179432Y642578D01*
X179407Y643207D01*
X179432Y643836D01*
X180268Y645088D01*
X180495Y646226D01*
X182250D01*
Y661226D01*
X170750D01*
Y655826D01*
X169577Y655340D01*
X164579Y660338D01*
Y670998D01*
X164268Y672559D01*
X163384Y673882D01*
X163384Y673882D01*
X152844Y684422D01*
X151521Y685306D01*
X149960Y685617D01*
X149960Y685617D01*
X137720D01*
X137159Y686756D01*
X137400Y687070D01*
X138458Y689624D01*
X138819Y692365D01*
X138458Y695106D01*
X137628Y697110D01*
X138340Y698380D01*
X140931D01*
X159181Y680130D01*
X159181Y680130D01*
X160504Y679246D01*
X162065Y678935D01*
X162065Y678935D01*
X163039D01*
X163039Y678935D01*
X170750D01*
Y667264D01*
X182250D01*
Y682264D01*
X180495D01*
X180268Y683403D01*
X179432Y684654D01*
X179407Y685284D01*
X179432Y685913D01*
X180268Y687164D01*
X180495Y688303D01*
X182250D01*
Y703303D01*
X170750D01*
Y691632D01*
X165635D01*
X147384Y709882D01*
X146061Y710766D01*
X144501Y711077D01*
X144500Y711077D01*
X137766D01*
X137205Y712216D01*
X137400Y712470D01*
X138458Y715024D01*
X138819Y717765D01*
X138458Y720506D01*
X137517Y722777D01*
X138073Y724047D01*
X153264D01*
X155105Y722206D01*
X156428Y721322D01*
X157989Y721011D01*
X157989Y721011D01*
X170750D01*
Y709341D01*
X182250D01*
Y724341D01*
X180495D01*
X180268Y725479D01*
X179432Y726730D01*
X179407Y727360D01*
X179432Y727989D01*
X180268Y729240D01*
X180495Y730379D01*
X182250D01*
Y745379D01*
X170750D01*
Y733708D01*
X161558D01*
X159717Y735549D01*
X158394Y736433D01*
X156833Y736744D01*
X156833Y736744D01*
X137955D01*
X137863Y736930D01*
X137459Y738014D01*
X138458Y740424D01*
X138819Y743165D01*
X138458Y745906D01*
X137517Y748177D01*
X138073Y749447D01*
X157027D01*
X157027Y749447D01*
X158588Y749757D01*
X159911Y750641D01*
X169577Y760307D01*
X170750Y759821D01*
Y751417D01*
X182250D01*
Y766417D01*
X180495D01*
X180268Y767555D01*
X179432Y768807D01*
X179407Y769436D01*
X179432Y770065D01*
X180268Y771317D01*
X180495Y772455D01*
X182250D01*
Y787455D01*
D02*
G37*
G36*
X551500Y775606D02*
X549355Y775179D01*
X547535Y773964D01*
X546320Y772144D01*
X545893Y769998D01*
X546320Y767852D01*
X547535Y766033D01*
X549355Y764817D01*
X551500Y764391D01*
X553646Y764817D01*
X555466Y766033D01*
X556681Y767852D01*
X557108Y769998D01*
X556681Y772144D01*
X555466Y773964D01*
X553646Y775179D01*
X551500Y775606D01*
D02*
G37*
G36*
X516500Y755606D02*
X514354Y755179D01*
X512704Y754077D01*
X497672D01*
X497672Y754077D01*
X496111Y753766D01*
X494788Y752882D01*
X494788Y752882D01*
X493617Y751711D01*
X492733Y750387D01*
X492422Y748827D01*
X492422Y748827D01*
Y686688D01*
X488617Y682882D01*
X488616Y682882D01*
X466301Y660566D01*
X464354Y660179D01*
X462535Y658964D01*
X461320Y657144D01*
X460893Y654998D01*
X461320Y652852D01*
X462535Y651033D01*
X463133Y650633D01*
Y649363D01*
X462535Y648964D01*
X461320Y647144D01*
X460893Y644998D01*
X461320Y642852D01*
X462535Y641033D01*
X463133Y640633D01*
Y639363D01*
X462535Y638964D01*
X461320Y637144D01*
X460893Y634998D01*
X461308Y632908D01*
X461326Y632684D01*
X460667Y631638D01*
X460460D01*
Y627368D01*
X466200D01*
X471940D01*
Y630920D01*
X479811D01*
X483617Y627114D01*
X484940Y626230D01*
X486500Y625920D01*
X486501Y625920D01*
X507671D01*
X507672Y625920D01*
X509232Y626230D01*
X510555Y627114D01*
X518054Y634613D01*
X520000Y635000D01*
X521819Y636216D01*
X523035Y638035D01*
X523462Y640181D01*
X523035Y642327D01*
X521819Y644146D01*
X520000Y645362D01*
X517854Y645789D01*
X515708Y645362D01*
X513889Y644146D01*
X512673Y642327D01*
X512286Y640380D01*
X505982Y634077D01*
X488190D01*
X484384Y637882D01*
X483061Y638766D01*
X481500Y639077D01*
X481500Y639077D01*
X471143D01*
X470656Y639996D01*
X471125Y640665D01*
X501500D01*
X503159Y640995D01*
X504565Y641934D01*
X522065Y659434D01*
X523004Y660840D01*
X523334Y662498D01*
Y681584D01*
X524181Y682852D01*
X524608Y684998D01*
X524181Y687144D01*
X522966Y688964D01*
X521146Y690179D01*
X519358Y690535D01*
X518798Y691451D01*
X518704Y691842D01*
X518768Y691937D01*
X519078Y693498D01*
Y714615D01*
X520181Y716265D01*
X520608Y718411D01*
X520181Y720557D01*
X518965Y722376D01*
X517146Y723592D01*
X515000Y724019D01*
X512854Y723592D01*
X511035Y722376D01*
X509819Y720557D01*
X509392Y718411D01*
X509819Y716265D01*
X510922Y714615D01*
Y695187D01*
X501849Y686114D01*
X500579Y686640D01*
Y745920D01*
X512704D01*
X514354Y744817D01*
X516500Y744391D01*
X518646Y744817D01*
X520466Y746033D01*
X521681Y747852D01*
X522108Y749998D01*
X521681Y752144D01*
X520466Y753964D01*
X518646Y755179D01*
X516500Y755606D01*
D02*
G37*
G36*
X52396Y745038D02*
X46126D01*
Y741268D01*
X52396D01*
Y745038D01*
D02*
G37*
G36*
X43586D02*
X37316D01*
Y741268D01*
X43586D01*
Y745038D01*
D02*
G37*
G36*
X431500Y735606D02*
X429354Y735179D01*
X427704Y734077D01*
X350297D01*
X348646Y735179D01*
X346500Y735606D01*
X344355Y735179D01*
X342535Y733964D01*
X341320Y732144D01*
X340893Y729998D01*
X341320Y727852D01*
X342535Y726033D01*
X344355Y724817D01*
X346500Y724391D01*
X348646Y724817D01*
X350297Y725920D01*
X427704D01*
X429354Y724817D01*
X431500Y724391D01*
X433646Y724817D01*
X435466Y726033D01*
X436681Y727852D01*
X437108Y729998D01*
X436681Y732144D01*
X435466Y733964D01*
X433646Y735179D01*
X431500Y735606D01*
D02*
G37*
G36*
X52396Y738728D02*
X44856D01*
X37316D01*
Y734958D01*
Y731768D01*
X44856D01*
X52396D01*
Y734958D01*
Y738728D01*
D02*
G37*
G36*
X615000Y736117D02*
X612659Y735652D01*
X610674Y734326D01*
X609348Y732341D01*
X608882Y730000D01*
X609348Y727659D01*
X610674Y725674D01*
X612659Y724348D01*
X615000Y723882D01*
X617341Y724348D01*
X619326Y725674D01*
X620652Y727659D01*
X621118Y730000D01*
X620652Y732341D01*
X619326Y734326D01*
X617341Y735652D01*
X615000Y736117D01*
D02*
G37*
G36*
X734000Y730606D02*
X731854Y730179D01*
X730035Y728964D01*
X728820Y727144D01*
X728393Y724998D01*
X728820Y722852D01*
X730035Y721033D01*
X731854Y719817D01*
X734000Y719391D01*
X736146Y719817D01*
X737966Y721033D01*
X739181Y722852D01*
X739608Y724998D01*
X739181Y727144D01*
X737966Y728964D01*
X736146Y730179D01*
X734000Y730606D01*
D02*
G37*
G36*
Y710606D02*
X731854Y710179D01*
X730035Y708964D01*
X728820Y707144D01*
X728393Y704998D01*
X728820Y702852D01*
X730035Y701033D01*
X731854Y699817D01*
X734000Y699391D01*
X736146Y699817D01*
X737966Y701033D01*
X739181Y702852D01*
X739608Y704998D01*
X739181Y707144D01*
X737966Y708964D01*
X736146Y710179D01*
X734000Y710606D01*
D02*
G37*
G36*
Y690606D02*
X731854Y690179D01*
X730035Y688964D01*
X728820Y687144D01*
X728393Y684998D01*
X728820Y682852D01*
X730035Y681033D01*
X731854Y679817D01*
X734000Y679391D01*
X736146Y679817D01*
X737966Y681033D01*
X739181Y682852D01*
X739608Y684998D01*
X739181Y687144D01*
X737966Y688964D01*
X736146Y690179D01*
X734000Y690606D01*
D02*
G37*
G36*
X102828Y677556D02*
X100087Y677195D01*
X97533Y676137D01*
X95339Y674454D01*
X93656Y672261D01*
X92598Y669706D01*
X92238Y666965D01*
X92598Y664224D01*
X93656Y661670D01*
X95339Y659477D01*
X97533Y657794D01*
X100087Y656736D01*
X102828Y656375D01*
X105569Y656736D01*
X108123Y657794D01*
X110317Y659477D01*
X112000Y661670D01*
X113058Y664224D01*
X113419Y666965D01*
X113058Y669706D01*
X112000Y672261D01*
X110317Y674454D01*
X108123Y676137D01*
X105569Y677195D01*
X102828Y677556D01*
D02*
G37*
G36*
X446780Y661198D02*
X438260D01*
Y654678D01*
X446780D01*
Y661198D01*
D02*
G37*
G36*
X435720D02*
X427200D01*
Y654678D01*
X435720D01*
Y661198D01*
D02*
G37*
G36*
X817500Y720567D02*
X807500D01*
X805412Y720292D01*
X803466Y719486D01*
X801795Y718204D01*
X800512Y716533D01*
X799706Y714587D01*
X799431Y712498D01*
Y654998D01*
X799706Y652910D01*
X800512Y650964D01*
X801795Y649293D01*
X803466Y648010D01*
X805412Y647204D01*
X807500Y646929D01*
X817500D01*
X819589Y647204D01*
X821535Y648010D01*
X823206Y649293D01*
X824488Y650964D01*
X825294Y652910D01*
X825569Y654998D01*
Y712498D01*
X825294Y714587D01*
X824488Y716533D01*
X823206Y718204D01*
X821535Y719486D01*
X819589Y720292D01*
X817500Y720567D01*
D02*
G37*
G36*
X446780Y652138D02*
X438260D01*
Y645618D01*
X446780D01*
Y652138D01*
D02*
G37*
G36*
X435720D02*
X427200D01*
Y645618D01*
X435720D01*
Y652138D01*
D02*
G37*
G36*
X138268Y651605D02*
X129498D01*
Y642835D01*
X138268D01*
Y651605D01*
D02*
G37*
G36*
X104098Y651525D02*
Y642835D01*
X112788D01*
X112610Y644186D01*
X111598Y646629D01*
X109989Y648726D01*
X107891Y650335D01*
X105449Y651347D01*
X104098Y651525D01*
D02*
G37*
G36*
X101558D02*
X100207Y651347D01*
X97765Y650335D01*
X95667Y648726D01*
X94058Y646629D01*
X93047Y644186D01*
X92869Y642835D01*
X101558D01*
Y651525D01*
D02*
G37*
G36*
X126958Y651605D02*
X118188D01*
Y642835D01*
X126958D01*
Y651605D01*
D02*
G37*
G36*
X101558Y640295D02*
X92869D01*
X93047Y638944D01*
X94058Y636502D01*
X95667Y634405D01*
X97765Y632795D01*
X100207Y631784D01*
X101558Y631606D01*
Y640295D01*
D02*
G37*
G36*
X112788D02*
X104098D01*
Y631606D01*
X105449Y631784D01*
X107891Y632795D01*
X109989Y634405D01*
X111598Y636502D01*
X112610Y638944D01*
X112788Y640295D01*
D02*
G37*
G36*
X138268D02*
X129498D01*
Y631525D01*
X138268D01*
Y640295D01*
D02*
G37*
G36*
X126958D02*
X118188D01*
Y631525D01*
X126958D01*
Y640295D01*
D02*
G37*
G36*
X601500Y820606D02*
X599355Y820179D01*
X597535Y818964D01*
X596320Y817144D01*
X595893Y814998D01*
X596320Y812852D01*
X597422Y811202D01*
Y623617D01*
X586652Y612847D01*
X585466Y612964D01*
X584712Y613467D01*
X584551Y615102D01*
X589384Y619935D01*
X590268Y621259D01*
X590579Y622819D01*
X590579Y622820D01*
Y811202D01*
X591681Y812852D01*
X592108Y814998D01*
X591681Y817144D01*
X590466Y818964D01*
X588646Y820179D01*
X586500Y820606D01*
X584354Y820179D01*
X582535Y818964D01*
X581320Y817144D01*
X580893Y814998D01*
X581320Y812852D01*
X582422Y811202D01*
Y624509D01*
X571991Y614077D01*
X520296D01*
X518646Y615179D01*
X516500Y615606D01*
X514354Y615179D01*
X512535Y613964D01*
X511320Y612144D01*
X510893Y609998D01*
X511320Y607852D01*
X512478Y606119D01*
X512521Y605966D01*
X512257Y604691D01*
X512010Y604603D01*
X511146Y605179D01*
X509000Y605606D01*
X506854Y605179D01*
X505035Y603964D01*
X505004Y603917D01*
X503801Y604090D01*
X503670Y604207D01*
Y609718D01*
X491670D01*
Y609258D01*
X489340D01*
Y603518D01*
Y597778D01*
X489835D01*
X490641Y596797D01*
X490383Y595498D01*
X490433Y595248D01*
X490383Y594998D01*
X490830Y592748D01*
X490823Y592617D01*
X490109Y591478D01*
X489340D01*
Y585738D01*
X488070D01*
Y584468D01*
X482531D01*
X482530Y580318D01*
X482070Y579238D01*
X482070Y578919D01*
Y573629D01*
X481953Y573038D01*
Y568992D01*
X480849Y567339D01*
X480383Y564998D01*
X480849Y562657D01*
X481953Y561004D01*
Y556528D01*
X482070Y555937D01*
Y550648D01*
X482070Y550328D01*
X482530Y549249D01*
X482531Y549058D01*
Y545098D01*
X488070D01*
Y543828D01*
X489340D01*
Y538088D01*
X489938D01*
X490745Y536818D01*
X490383Y534998D01*
X490769Y533058D01*
X490018Y531788D01*
X489340D01*
Y526048D01*
X486800D01*
Y531788D01*
X485115D01*
X484384Y532882D01*
X474384Y542882D01*
X474151Y543038D01*
X473740Y543388D01*
Y547658D01*
X458660D01*
Y544077D01*
X450690D01*
X450579Y544188D01*
Y551202D01*
X451681Y552852D01*
X452108Y554998D01*
X451681Y557144D01*
X450466Y558964D01*
X448646Y560179D01*
X446500Y560606D01*
X444354Y560179D01*
X442535Y558964D01*
X441320Y557144D01*
X440893Y554998D01*
X441320Y552852D01*
X442422Y551202D01*
Y548826D01*
X441152Y548147D01*
X441085Y548192D01*
X440965Y548216D01*
X440466Y548964D01*
X438646Y550179D01*
X436500Y550606D01*
X434355Y550179D01*
X433747Y549773D01*
X432570Y550515D01*
X432570Y550956D01*
Y554268D01*
X421090D01*
Y551257D01*
X421090Y550074D01*
X420166Y549164D01*
X418647Y550179D01*
X416501Y550606D01*
X414355Y550179D01*
X412704Y549077D01*
X396534D01*
X392728Y552882D01*
X391405Y553766D01*
X389845Y554077D01*
X389370Y555171D01*
Y555937D01*
X389488Y556528D01*
Y559334D01*
X390826Y560673D01*
X392152Y562657D01*
X392618Y564998D01*
X392152Y567339D01*
X390826Y569324D01*
X389488Y570662D01*
Y574308D01*
X389370Y574899D01*
Y580189D01*
X389370Y580508D01*
X388910Y581588D01*
X388910Y581778D01*
Y585738D01*
X383370D01*
Y588278D01*
X388910D01*
Y588898D01*
X393150D01*
Y585738D01*
X398890D01*
X404630D01*
Y588881D01*
X406500D01*
X408842Y589346D01*
X410826Y590673D01*
X412152Y592657D01*
X412618Y594998D01*
X412152Y597339D01*
X410826Y599324D01*
X408842Y600650D01*
X406500Y601116D01*
X396600D01*
X395507Y600898D01*
X388910D01*
Y603309D01*
X388960Y604558D01*
X390180Y604558D01*
X395230D01*
Y610098D01*
X396500D01*
D01*
X395230D01*
Y615638D01*
X388960D01*
Y610508D01*
X388910Y609258D01*
X387690Y609258D01*
X384640D01*
Y603518D01*
X382100D01*
Y609258D01*
X379770D01*
Y609718D01*
X367770D01*
Y604109D01*
X367653Y603518D01*
Y597728D01*
X368119Y595387D01*
X368378Y594998D01*
X368119Y594609D01*
X367840Y593208D01*
X367770D01*
Y592859D01*
X367653Y592268D01*
Y587008D01*
X367770Y586417D01*
Y581128D01*
X367770Y580808D01*
X368230Y579729D01*
X368231Y579538D01*
Y575578D01*
X373770D01*
Y574308D01*
X375040D01*
Y568568D01*
X377253D01*
Y568128D01*
X377719Y565787D01*
X378246Y564998D01*
X377719Y564209D01*
X377424Y562728D01*
X377370D01*
Y562459D01*
X377332Y562268D01*
X375040D01*
Y556528D01*
X373770D01*
Y555258D01*
X368231D01*
Y553923D01*
X367440Y553766D01*
X366117Y552882D01*
X363617Y550382D01*
X362733Y549059D01*
X362422Y547498D01*
X362422Y547498D01*
Y507498D01*
X362422Y507498D01*
X362733Y505938D01*
X363617Y504614D01*
X366117Y502114D01*
X367440Y501230D01*
X369000Y500920D01*
X369001Y500920D01*
X372515D01*
X373068Y500347D01*
X372528Y499077D01*
X321400D01*
X303294Y517183D01*
X296219Y524257D01*
Y545623D01*
X295909Y547183D01*
X295025Y548507D01*
X295025Y548507D01*
X292365Y551166D01*
X291042Y552050D01*
X289482Y552360D01*
X289481Y552360D01*
X273561D01*
X272000Y552050D01*
X270677Y551166D01*
X270677Y551166D01*
X268017Y548507D01*
X267133Y547183D01*
X266823Y545623D01*
X266823Y545622D01*
Y520552D01*
X262819D01*
Y546405D01*
X262509Y547966D01*
X261625Y549289D01*
X261625Y549289D01*
X258965Y551949D01*
X257642Y552833D01*
X256082Y553143D01*
X256082Y553143D01*
X240161D01*
X238600Y552833D01*
X237277Y551949D01*
X237277Y551949D01*
X234617Y549289D01*
X233733Y547966D01*
X233423Y546405D01*
X233423Y546405D01*
Y520552D01*
X229419D01*
Y546405D01*
X229109Y547966D01*
X228225Y549289D01*
X228225Y549289D01*
X225565Y551949D01*
X224242Y552833D01*
X222682Y553143D01*
X222682Y553143D01*
X206761D01*
X205200Y552833D01*
X203877Y551949D01*
X203877Y551949D01*
X201217Y549289D01*
X200333Y547966D01*
X200023Y546405D01*
X200023Y546405D01*
Y534715D01*
X199041Y533909D01*
X199022Y533913D01*
X199022Y533913D01*
X194750D01*
Y545583D01*
X183251D01*
Y530583D01*
X185006D01*
X185233Y529445D01*
X186117Y528122D01*
X186187Y528051D01*
Y526781D01*
X186117Y526711D01*
X185233Y525387D01*
X185065Y524545D01*
X183251D01*
Y509545D01*
X194750D01*
Y520920D01*
X204810D01*
X204810Y520920D01*
X206371Y521230D01*
X207694Y522114D01*
X211525Y525945D01*
X212409Y527268D01*
X212719Y528829D01*
X212719Y528829D01*
Y540446D01*
X216723D01*
Y514594D01*
X216723Y514594D01*
X217033Y513033D01*
X217917Y511710D01*
X220577Y509050D01*
X220577Y509050D01*
X221900Y508166D01*
X223461Y507856D01*
X239382D01*
X239382Y507856D01*
X240942Y508166D01*
X242265Y509050D01*
X244925Y511710D01*
X244925Y511710D01*
X245809Y513033D01*
X246119Y514594D01*
Y540446D01*
X250123D01*
Y514594D01*
X250123Y514594D01*
X250433Y513033D01*
X251317Y511710D01*
X253977Y509050D01*
X253977Y509050D01*
X255300Y508166D01*
X256861Y507856D01*
X272781D01*
X272782Y507856D01*
X274342Y508166D01*
X275665Y509050D01*
X278325Y511710D01*
X278325Y511710D01*
X279209Y513033D01*
X279519Y514594D01*
Y539664D01*
X283523D01*
Y520687D01*
X283523Y520687D01*
X283833Y519126D01*
X284717Y517803D01*
X294470Y508050D01*
X311346Y491174D01*
X311251Y490208D01*
X311001Y489723D01*
X308461Y487183D01*
X307577Y485860D01*
X307266Y484299D01*
X306429Y483439D01*
X303827D01*
X303460Y483807D01*
X303460Y483807D01*
X296625Y490642D01*
X295301Y491526D01*
X293741Y491836D01*
X293741Y491836D01*
X194750D01*
Y503507D01*
X183251D01*
Y488507D01*
X185006D01*
X185233Y487369D01*
X186117Y486046D01*
X186399Y485763D01*
Y484493D01*
X186117Y484211D01*
X185233Y482887D01*
X185149Y482469D01*
X183251D01*
Y467469D01*
X194750D01*
Y478420D01*
X290891D01*
X297373Y471937D01*
X298696Y471053D01*
X300257Y470743D01*
X300257Y470743D01*
X312054D01*
X312054Y470743D01*
X313614Y471053D01*
X314937Y471937D01*
X317616Y474616D01*
X318886Y474090D01*
Y469207D01*
X318886Y469207D01*
X319048Y468396D01*
X318367Y467306D01*
X318133Y467126D01*
X299550D01*
X299550Y467126D01*
X297989Y466815D01*
X296666Y465931D01*
X296666Y465931D01*
X280495Y449760D01*
X274057D01*
X273668Y450342D01*
X273668Y450342D01*
X270301Y453710D01*
X268977Y454594D01*
X267417Y454904D01*
X267416Y454904D01*
X257992D01*
X256431Y454594D01*
X255108Y453710D01*
X255108Y453709D01*
X251869Y450471D01*
X251147Y450311D01*
X251021D01*
X250299Y450471D01*
X247061Y453710D01*
X245737Y454594D01*
X244177Y454904D01*
X244177Y454904D01*
X234751D01*
X233191Y454594D01*
X231868Y453710D01*
X231868Y453709D01*
X228629Y450471D01*
X227907Y450311D01*
X227781D01*
X227059Y450471D01*
X223820Y453710D01*
X222497Y454594D01*
X220937Y454904D01*
X220937Y454904D01*
X211512D01*
X209951Y454594D01*
X208628Y453710D01*
X208628Y453709D01*
X205260Y450342D01*
X204872Y449760D01*
X194750D01*
Y461431D01*
X183251D01*
Y446431D01*
X185006D01*
X185233Y445293D01*
X186117Y443970D01*
Y442854D01*
X185233Y441531D01*
X185006Y440393D01*
X183251D01*
Y425393D01*
X194750D01*
Y437063D01*
X208853D01*
X208853Y437063D01*
X210414Y437374D01*
X211737Y438258D01*
X214416Y440937D01*
X215686Y440411D01*
Y419497D01*
X215686Y419497D01*
X215996Y417936D01*
X216880Y416613D01*
X220248Y413245D01*
X220248Y413245D01*
X221571Y412361D01*
X223132Y412051D01*
X232556D01*
X232557Y412051D01*
X234117Y412361D01*
X235441Y413245D01*
X238679Y416484D01*
X239401Y416645D01*
X239527D01*
X240249Y416484D01*
X243488Y413245D01*
X243488Y413245D01*
X244811Y412361D01*
X246371Y412051D01*
X255797D01*
X255797Y412051D01*
X257357Y412361D01*
X258680Y413245D01*
X262048Y416613D01*
X262048Y416613D01*
X262932Y417936D01*
X263242Y419497D01*
Y440411D01*
X264512Y440937D01*
X267191Y438258D01*
X268514Y437374D01*
X270075Y437063D01*
X270075Y437063D01*
X284064D01*
X284065Y437063D01*
X285625Y437374D01*
X286948Y438258D01*
X303119Y454429D01*
X467509D01*
X467510Y454429D01*
X469070Y454739D01*
X470393Y455624D01*
X477209Y462439D01*
X478587Y462021D01*
X478820Y460852D01*
X480035Y459033D01*
X481854Y457817D01*
X484000Y457391D01*
X486146Y457817D01*
X487966Y459033D01*
X489181Y460852D01*
X489608Y462998D01*
X489181Y465144D01*
X487966Y466964D01*
X486146Y468179D01*
X484977Y468412D01*
X484560Y469790D01*
X501884Y487114D01*
X501884Y487114D01*
X502768Y488438D01*
X503079Y489998D01*
Y509705D01*
X503646Y509817D01*
X505466Y511033D01*
X506681Y512852D01*
X507108Y514998D01*
X506681Y517144D01*
X505466Y518964D01*
X503670Y520163D01*
Y525457D01*
X503788Y526048D01*
Y533828D01*
X503555Y534998D01*
X503788Y536168D01*
Y543828D01*
X503670Y544419D01*
Y549709D01*
X503671Y550028D01*
X503210Y551108D01*
X503210Y551298D01*
Y555258D01*
X497670D01*
Y556528D01*
X496400D01*
Y562268D01*
X494188D01*
Y563428D01*
X493876Y564998D01*
X494188Y566568D01*
Y567298D01*
X496400D01*
Y573038D01*
X497670D01*
Y574308D01*
X503210D01*
X503210Y578459D01*
X503671Y579538D01*
X503670Y579858D01*
Y585147D01*
X503788Y585738D01*
Y594328D01*
X503605Y595248D01*
X503703Y595741D01*
X504946Y596069D01*
X505015Y596064D01*
X505035Y596033D01*
X506854Y594817D01*
X509000Y594391D01*
X511146Y594817D01*
X512797Y595920D01*
X579571D01*
X579571Y595920D01*
X581132Y596230D01*
X582455Y597114D01*
X604384Y619043D01*
X604384Y619043D01*
X605268Y620367D01*
X605579Y621927D01*
X605579Y621927D01*
Y811202D01*
X606681Y812852D01*
X607108Y814998D01*
X606681Y817144D01*
X605466Y818964D01*
X603646Y820179D01*
X601500Y820606D01*
D02*
G37*
G36*
X404040Y615638D02*
X397770D01*
Y611368D01*
X404040D01*
Y615638D01*
D02*
G37*
G36*
X486800Y609258D02*
X482531D01*
Y604788D01*
X486800D01*
Y609258D01*
D02*
G37*
G36*
X404040Y608828D02*
X397770D01*
Y604558D01*
X404040D01*
Y608828D01*
D02*
G37*
G36*
X442730Y608778D02*
X438260D01*
Y604508D01*
X442730D01*
Y608778D01*
D02*
G37*
G36*
X435720D02*
X431250D01*
Y604508D01*
X435720D01*
Y608778D01*
D02*
G37*
G36*
X416500Y610606D02*
X414354Y610179D01*
X412535Y608964D01*
X411320Y607144D01*
X410893Y604998D01*
X411320Y602852D01*
X412535Y601033D01*
X414354Y599817D01*
X416500Y599391D01*
X418646Y599817D01*
X420466Y601033D01*
X421681Y602852D01*
X422108Y604998D01*
X421681Y607144D01*
X420466Y608964D01*
X418646Y610179D01*
X416500Y610606D01*
D02*
G37*
G36*
X471940Y604508D02*
X466200D01*
X460460D01*
Y602296D01*
X457680D01*
X455339Y601830D01*
X453355Y600504D01*
X452282Y599431D01*
X451784Y599265D01*
X451139D01*
X450703Y599407D01*
X448842Y600650D01*
X446500Y601116D01*
X444159Y600650D01*
X444000Y600544D01*
X442730Y601223D01*
Y601968D01*
X436990D01*
X431250D01*
Y599638D01*
X430790D01*
Y587638D01*
X436399D01*
X436990Y587521D01*
X440383D01*
Y584998D01*
X440849Y582657D01*
X442175Y580672D01*
X444159Y579346D01*
X446500Y578881D01*
X448842Y579346D01*
X450826Y580672D01*
X452152Y582657D01*
X452618Y584998D01*
Y589029D01*
X453738Y589628D01*
X454159Y589346D01*
X456500Y588881D01*
X458842Y589346D01*
X459190Y589580D01*
X460460Y588901D01*
Y586728D01*
X466200D01*
X471940D01*
Y590178D01*
X472400D01*
Y602178D01*
X471940D01*
Y604508D01*
D02*
G37*
G36*
X486800Y602248D02*
X482531D01*
Y597778D01*
X486800D01*
Y602248D01*
D02*
G37*
G36*
X197250Y745379D02*
X185750D01*
Y730379D01*
X187506D01*
X187733Y729240D01*
X188617Y727917D01*
Y726802D01*
X187733Y725479D01*
X187506Y724341D01*
X185750D01*
Y709341D01*
X197250D01*
Y719575D01*
X198520Y720101D01*
X275937Y642685D01*
X275937Y642685D01*
X277584Y641038D01*
X277584Y641037D01*
X278914Y639708D01*
X278914Y639708D01*
X280237Y638824D01*
X281798Y638513D01*
X281798Y638513D01*
X285527D01*
X288144Y635896D01*
Y632167D01*
X288144Y632167D01*
X288454Y630606D01*
X289338Y629283D01*
X299790Y618832D01*
X299790Y618832D01*
X299790Y618832D01*
X301437Y617185D01*
X301437Y617185D01*
X318777Y599845D01*
X320100Y598960D01*
X321661Y598650D01*
X321661Y598650D01*
X345640D01*
X345640Y598650D01*
X351956D01*
X352535Y597783D01*
X354354Y596567D01*
X354589Y596521D01*
Y595226D01*
X354354Y595179D01*
X352535Y593964D01*
X351956Y593097D01*
X347521D01*
X347520Y593097D01*
X347520Y593097D01*
X313318D01*
X270333Y636081D01*
X270333Y636081D01*
X268686Y637729D01*
X268686Y637729D01*
X261051Y645364D01*
Y649092D01*
X261051Y649093D01*
X260740Y650653D01*
X259856Y651976D01*
X252190Y659642D01*
X250867Y660526D01*
X249307Y660837D01*
X249307Y660837D01*
X245578D01*
X245125Y661290D01*
X245125Y661290D01*
X215977Y690437D01*
X214654Y691321D01*
X213093Y691632D01*
X213093Y691632D01*
X197250D01*
Y703303D01*
X185750D01*
Y688303D01*
X187506D01*
X187733Y687164D01*
X188617Y685841D01*
Y684726D01*
X187733Y683403D01*
X187506Y682264D01*
X185750D01*
Y667264D01*
X197250D01*
Y678935D01*
X209524D01*
X236147Y652312D01*
X236147Y652312D01*
X237794Y650664D01*
X237794Y650664D01*
X239124Y649334D01*
X239124Y649334D01*
X240447Y648450D01*
X242008Y648140D01*
X242008Y648140D01*
X245737D01*
X248354Y645523D01*
Y641794D01*
X248354Y641794D01*
X248664Y640233D01*
X249548Y638910D01*
X259708Y628751D01*
X259708Y628751D01*
X259708Y628750D01*
X261355Y627103D01*
X261355Y627103D01*
X306864Y581595D01*
X308187Y580710D01*
X309748Y580400D01*
X309748Y580400D01*
X345640D01*
X345640Y580400D01*
X351956D01*
X352535Y579533D01*
X353333Y579000D01*
Y577473D01*
X352250Y576749D01*
X351575Y575739D01*
X347449D01*
X347449Y575739D01*
X347449Y575739D01*
X300958D01*
X283350Y593348D01*
X283350Y593348D01*
X281703Y594995D01*
X281702Y594995D01*
X280373Y596325D01*
X279050Y597209D01*
X277489Y597519D01*
X277489Y597519D01*
X272253D01*
X271753Y597838D01*
X271462Y598129D01*
X271143Y598630D01*
Y603865D01*
X270833Y605426D01*
X269949Y606749D01*
X269949Y606749D01*
X268306Y608392D01*
X268306Y608392D01*
X266659Y610039D01*
X228337Y648361D01*
X227013Y649245D01*
X225453Y649556D01*
X225453Y649556D01*
X197250D01*
Y661226D01*
X185750D01*
Y646226D01*
X187506D01*
X187733Y645088D01*
X188617Y643765D01*
Y642650D01*
X187733Y641327D01*
X187506Y640188D01*
X185750D01*
Y625188D01*
X197250D01*
Y636859D01*
X221883D01*
X257681Y601061D01*
X257681Y601061D01*
X257696Y601046D01*
X257257Y600389D01*
X256946Y598828D01*
X256946Y598828D01*
Y595067D01*
X256946Y595067D01*
X257257Y593506D01*
X258141Y592183D01*
X265807Y584517D01*
X267130Y583633D01*
X268690Y583323D01*
X268690Y583323D01*
X272451D01*
X272451Y583323D01*
X274012Y583633D01*
X274670Y584072D01*
X294505Y564237D01*
X294505Y564237D01*
X295828Y563353D01*
X297388Y563043D01*
X297389Y563043D01*
X345568D01*
X345569Y563043D01*
X351861D01*
X352535Y562033D01*
X354354Y560817D01*
X356500Y560391D01*
X358646Y560817D01*
X360466Y562033D01*
X361681Y563852D01*
X362108Y565998D01*
X361681Y568144D01*
X360705Y569605D01*
X361396Y570638D01*
X361823Y572784D01*
X361396Y574930D01*
X360180Y576749D01*
X359383Y577282D01*
Y578809D01*
X360466Y579533D01*
X361681Y581352D01*
X362108Y583498D01*
X361681Y585644D01*
X360944Y586748D01*
X361681Y587852D01*
X362108Y589998D01*
X361681Y592144D01*
X360466Y593964D01*
X358646Y595179D01*
X358412Y595226D01*
Y596521D01*
X358646Y596567D01*
X360466Y597783D01*
X361681Y599602D01*
X362108Y601748D01*
X361681Y603894D01*
X360944Y604998D01*
X361681Y606102D01*
X362108Y608248D01*
X361681Y610394D01*
X360466Y612214D01*
X358646Y613429D01*
X356500Y613856D01*
X354354Y613429D01*
X352535Y612214D01*
X351956Y611347D01*
X347521D01*
X347520Y611347D01*
X347520Y611347D01*
X325231D01*
X310415Y626163D01*
X310415Y626163D01*
X308768Y627810D01*
X308767Y627810D01*
X300841Y635737D01*
Y639466D01*
X300841Y639466D01*
X300530Y641027D01*
X299646Y642350D01*
X291980Y650015D01*
X290657Y650900D01*
X289097Y651210D01*
X289096Y651210D01*
X285368D01*
X284915Y651663D01*
X284915Y651663D01*
X204064Y732514D01*
X202741Y733398D01*
X201180Y733708D01*
X201180Y733708D01*
X197250D01*
Y745379D01*
D02*
G37*
G36*
X486800Y591478D02*
X482531D01*
Y587008D01*
X486800D01*
Y591478D01*
D02*
G37*
G36*
X416500Y590606D02*
X414354Y590179D01*
X412535Y588964D01*
X411320Y587144D01*
X410893Y584998D01*
X411320Y582852D01*
X412535Y581033D01*
X414354Y579817D01*
X416500Y579391D01*
X418646Y579817D01*
X420466Y581033D01*
X421681Y582852D01*
X422108Y584998D01*
X421681Y587144D01*
X420466Y588964D01*
X418646Y590179D01*
X416500Y590606D01*
D02*
G37*
G36*
X404630Y583198D02*
X398890D01*
X393150D01*
Y580868D01*
X392691D01*
Y568868D01*
X398299D01*
X398890Y568751D01*
X406370D01*
X408712Y569216D01*
X410696Y570542D01*
X410826Y570672D01*
X412152Y572657D01*
X412618Y574998D01*
X412152Y577339D01*
X410826Y579324D01*
X408842Y580650D01*
X406500Y581116D01*
X405847Y580986D01*
X404630D01*
Y583198D01*
D02*
G37*
G36*
X372500Y573038D02*
X368231D01*
Y568568D01*
X372500D01*
Y573038D01*
D02*
G37*
G36*
X503210Y571768D02*
X498940D01*
Y567298D01*
X503210D01*
Y571768D01*
D02*
G37*
G36*
X471940Y584188D02*
X466200D01*
X460460D01*
Y581976D01*
X457360D01*
X455019Y581510D01*
X453035Y580184D01*
X452175Y579324D01*
X450849Y577339D01*
X450383Y574998D01*
X450849Y572657D01*
X452175Y570672D01*
X452233Y570633D01*
Y569637D01*
X452092Y569200D01*
X450849Y567339D01*
X450383Y564998D01*
X450849Y562657D01*
X452175Y560673D01*
X453045Y559803D01*
X455029Y558476D01*
X457370Y558011D01*
X466200D01*
X466791Y558128D01*
X474200D01*
Y570128D01*
X472400D01*
Y581858D01*
X471940D01*
Y584188D01*
D02*
G37*
G36*
X503210Y562268D02*
X498940D01*
Y557798D01*
X503210D01*
Y562268D01*
D02*
G37*
G36*
X372500D02*
X368231D01*
Y557798D01*
X372500D01*
Y562268D01*
D02*
G37*
G36*
X137860Y557322D02*
X137860Y557322D01*
X129143D01*
X129143Y557322D01*
X127583Y557011D01*
X126260Y556127D01*
X122538Y552406D01*
X121654Y551082D01*
X121344Y549522D01*
X121344Y549522D01*
Y545695D01*
X120438Y545515D01*
X119115Y544631D01*
X119114Y544630D01*
X119037Y544553D01*
X119037Y544553D01*
X110374Y535890D01*
X110122Y535513D01*
X108869Y535306D01*
X108123Y535878D01*
X105569Y536936D01*
X102828Y537297D01*
X100087Y536936D01*
X97533Y535878D01*
X95339Y534195D01*
X93656Y532002D01*
X92827Y529999D01*
X79500D01*
X77587Y529619D01*
X75964Y528535D01*
X66303Y518873D01*
X65219Y517251D01*
X64838Y515337D01*
Y502498D01*
X61839D01*
Y491498D01*
Y481998D01*
Y472498D01*
X69951D01*
X70434Y472402D01*
X92914D01*
X93656Y470611D01*
X95339Y468418D01*
X97533Y466735D01*
X100087Y465677D01*
X102828Y465316D01*
X105569Y465677D01*
X108123Y466735D01*
X110317Y468418D01*
X112000Y470611D01*
X113058Y473166D01*
X113118Y473624D01*
X113647Y473730D01*
X114970Y474614D01*
X116086D01*
X117409Y473730D01*
X117938Y473624D01*
X117998Y473166D01*
X119056Y470611D01*
X119617Y469881D01*
X119410Y468628D01*
X119115Y468430D01*
X110374Y459690D01*
X110122Y459313D01*
X108869Y459106D01*
X108123Y459678D01*
X105569Y460736D01*
X102828Y461097D01*
X100087Y460736D01*
X97533Y459678D01*
X95339Y457995D01*
X93656Y455802D01*
X93534Y455508D01*
X74902D01*
X50839Y479571D01*
Y483498D01*
X50379D01*
Y486228D01*
X42839D01*
X35299D01*
Y483498D01*
X34839D01*
Y472498D01*
X43767D01*
X69295Y446970D01*
X70917Y445886D01*
X72831Y445506D01*
X93534D01*
X93656Y445211D01*
X95339Y443018D01*
X97533Y441335D01*
X100087Y440277D01*
X102828Y439916D01*
X105569Y440277D01*
X108123Y441335D01*
X110317Y443018D01*
X112000Y445211D01*
X113058Y447766D01*
X113118Y448224D01*
X113647Y448330D01*
X114970Y449214D01*
X116086D01*
X117409Y448330D01*
X117938Y448224D01*
X117998Y447766D01*
X119056Y445211D01*
X120739Y443018D01*
X122933Y441335D01*
X125487Y440277D01*
X128228Y439916D01*
X130969Y440277D01*
X133523Y441335D01*
X135717Y443018D01*
X137400Y445211D01*
X138458Y447766D01*
X138819Y450507D01*
X138638Y451876D01*
X139841Y452469D01*
X149323Y442988D01*
Y414956D01*
X149323Y414956D01*
X149634Y413395D01*
X150518Y412072D01*
X154921Y407669D01*
X154921Y407669D01*
X166408Y396182D01*
X167731Y395298D01*
X168251Y395194D01*
Y383317D01*
X179750D01*
Y398317D01*
X177995D01*
X177768Y399455D01*
X176884Y400778D01*
Y401894D01*
X177768Y403217D01*
X177995Y404355D01*
X179750D01*
Y419355D01*
X168251D01*
Y413954D01*
X167077Y413468D01*
X163899Y416647D01*
X163899Y416647D01*
X162020Y418526D01*
Y440850D01*
X163290Y441376D01*
X163736Y440930D01*
X163736Y440930D01*
X166408Y438258D01*
X166408Y438258D01*
X167731Y437374D01*
X168251Y437271D01*
Y425393D01*
X179750D01*
Y440393D01*
X177995D01*
X177768Y441531D01*
X176884Y442854D01*
Y443970D01*
X177768Y445293D01*
X177995Y446431D01*
X179750D01*
Y461431D01*
X170279D01*
X169793Y462604D01*
X170806Y463617D01*
X171690Y464940D01*
X172000Y466501D01*
X172765Y467469D01*
X179750D01*
Y482469D01*
X177995D01*
X177768Y483607D01*
X176884Y484930D01*
Y486046D01*
X177768Y487369D01*
X177995Y488507D01*
X179750D01*
Y503507D01*
X169436D01*
Y509545D01*
X179750D01*
Y524545D01*
X177995D01*
X177768Y525683D01*
X176884Y527006D01*
Y528122D01*
X177768Y529445D01*
X177995Y530583D01*
X179750D01*
Y545583D01*
X168900D01*
Y548202D01*
X168900Y548202D01*
X168590Y549763D01*
X167706Y551086D01*
X163984Y554808D01*
X162661Y555692D01*
X161100Y556002D01*
X161100Y556002D01*
X152383D01*
X152383Y556002D01*
X150823Y555692D01*
X149500Y554808D01*
X146418Y551726D01*
X144830Y551861D01*
X144828Y551863D01*
X144466Y552406D01*
X140744Y556127D01*
X139421Y557011D01*
X139162Y557063D01*
X137860Y557322D01*
D02*
G37*
G36*
X433030Y571138D02*
X420630D01*
Y571116D01*
X416500D01*
X414159Y570650D01*
X412175Y569324D01*
X410849Y567339D01*
X410383Y564998D01*
X410849Y562657D01*
X412175Y560673D01*
X414159Y559346D01*
X416500Y558881D01*
X421090D01*
Y556808D01*
X432570D01*
Y558881D01*
X436500D01*
X438842Y559346D01*
X440826Y560673D01*
X442152Y562657D01*
X442618Y564998D01*
X442152Y567339D01*
X440826Y569324D01*
X438842Y570650D01*
X436500Y571116D01*
X433030D01*
Y571138D01*
D02*
G37*
G36*
X473740Y554468D02*
X467470D01*
Y550198D01*
X473740D01*
Y554468D01*
D02*
G37*
G36*
X464930D02*
X458660D01*
Y550198D01*
X464930D01*
Y554468D01*
D02*
G37*
G36*
X486800Y542558D02*
X482531D01*
Y538088D01*
X486800D01*
Y542558D01*
D02*
G37*
G36*
X50379Y502038D02*
X44109D01*
Y498268D01*
X50379D01*
Y502038D01*
D02*
G37*
G36*
X41569D02*
X35299D01*
Y498268D01*
X41569D01*
Y502038D01*
D02*
G37*
G36*
X50379Y495728D02*
X42839D01*
X35299D01*
Y491958D01*
Y488768D01*
X42839D01*
X50379D01*
Y491958D01*
Y495728D01*
D02*
G37*
G36*
X516501Y558856D02*
X514355Y558429D01*
X512535Y557214D01*
X511320Y555394D01*
X510893Y553248D01*
X511320Y551102D01*
X512057Y549998D01*
X511320Y548894D01*
X510893Y546748D01*
X511320Y544602D01*
X512535Y542783D01*
X514355Y541567D01*
X516501Y541141D01*
X518647Y541567D01*
X518802Y541671D01*
X519922Y541073D01*
Y470608D01*
X510553Y461239D01*
X509383Y461865D01*
X509608Y462998D01*
X509181Y465144D01*
X507966Y466964D01*
X506146Y468179D01*
X504000Y468606D01*
X501854Y468179D01*
X500035Y466964D01*
X498820Y465144D01*
X498393Y462998D01*
X498820Y460852D01*
X500035Y459033D01*
X501854Y457817D01*
X504000Y457391D01*
X505134Y457616D01*
X505760Y456446D01*
X500495Y451181D01*
X317184D01*
X317184Y451181D01*
X315623Y450870D01*
X314300Y449986D01*
X314300Y449986D01*
X271998Y407684D01*
X194750D01*
Y419355D01*
X183251D01*
Y404355D01*
X185006D01*
X185233Y403217D01*
X186117Y401894D01*
Y400778D01*
X185233Y399455D01*
X185006Y398317D01*
X183251D01*
Y383317D01*
X194750D01*
Y394987D01*
X275568D01*
X275568Y394987D01*
X277129Y395298D01*
X278452Y396182D01*
X320754Y438484D01*
X504064D01*
X504065Y438484D01*
X505625Y438795D01*
X506949Y439679D01*
X531424Y464154D01*
X531424Y464155D01*
X532308Y465478D01*
X532619Y467038D01*
X532619Y467038D01*
Y547609D01*
X532308Y549170D01*
X531424Y550493D01*
X531424Y550493D01*
X526765Y555152D01*
X525442Y556036D01*
X523881Y556347D01*
X523881Y556347D01*
X521045D01*
X520466Y557214D01*
X518647Y558429D01*
X516501Y558856D01*
D02*
G37*
G36*
X128228Y435697D02*
X125487Y435336D01*
X122933Y434278D01*
X120739Y432595D01*
X119056Y430402D01*
X117998Y427848D01*
X117638Y425107D01*
X117998Y422366D01*
X119056Y419811D01*
X120739Y417618D01*
X122933Y415935D01*
X125487Y414877D01*
X128228Y414516D01*
X130969Y414877D01*
X133523Y415935D01*
X135717Y417618D01*
X137400Y419811D01*
X138458Y422366D01*
X138819Y425107D01*
X138458Y427848D01*
X137400Y430402D01*
X135717Y432595D01*
X133523Y434278D01*
X130969Y435336D01*
X128228Y435697D01*
D02*
G37*
G36*
X102828D02*
X100087Y435336D01*
X97533Y434278D01*
X95339Y432595D01*
X93656Y430402D01*
X92598Y427848D01*
X92238Y425107D01*
X92598Y422366D01*
X93656Y419811D01*
X95339Y417618D01*
X97533Y415935D01*
X100087Y414877D01*
X102828Y414516D01*
X105569Y414877D01*
X108123Y415935D01*
X110317Y417618D01*
X112000Y419811D01*
X113058Y422366D01*
X113419Y425107D01*
X113058Y427848D01*
X112000Y430402D01*
X110317Y432595D01*
X108123Y434278D01*
X105569Y435336D01*
X102828Y435697D01*
D02*
G37*
G36*
X138268Y409747D02*
X129498D01*
Y400977D01*
X138268D01*
Y409747D01*
D02*
G37*
G36*
X104098Y409666D02*
Y400977D01*
X112788D01*
X112610Y402328D01*
X111598Y404770D01*
X109989Y406867D01*
X107891Y408477D01*
X105449Y409488D01*
X104098Y409666D01*
D02*
G37*
G36*
X101558D02*
X100207Y409488D01*
X97765Y408477D01*
X95667Y406867D01*
X94058Y404770D01*
X93047Y402328D01*
X92869Y400977D01*
X101558D01*
Y409666D01*
D02*
G37*
G36*
X126958Y409747D02*
X118188D01*
Y400977D01*
X126958D01*
Y409747D01*
D02*
G37*
G36*
X761500Y410606D02*
X759354Y410179D01*
X757535Y408964D01*
X756320Y407144D01*
X755893Y404998D01*
X756320Y402852D01*
X757535Y401033D01*
X759354Y399817D01*
X761500Y399391D01*
X763646Y399817D01*
X765466Y401033D01*
X766681Y402852D01*
X767108Y404998D01*
X766681Y407144D01*
X765466Y408964D01*
X763646Y410179D01*
X761500Y410606D01*
D02*
G37*
G36*
X676500D02*
X674354Y410179D01*
X672535Y408964D01*
X671320Y407144D01*
X670893Y404998D01*
X671320Y402852D01*
X672535Y401033D01*
X674354Y399817D01*
X676500Y399391D01*
X678646Y399817D01*
X680466Y401033D01*
X681681Y402852D01*
X682108Y404998D01*
X681681Y407144D01*
X680466Y408964D01*
X678646Y410179D01*
X676500Y410606D01*
D02*
G37*
G36*
X626500D02*
X624355Y410179D01*
X622535Y408964D01*
X621320Y407144D01*
X620893Y404998D01*
X621320Y402852D01*
X622535Y401033D01*
X624355Y399817D01*
X626500Y399391D01*
X628646Y399817D01*
X630466Y401033D01*
X631681Y402852D01*
X632108Y404998D01*
X631681Y407144D01*
X630466Y408964D01*
X628646Y410179D01*
X626500Y410606D01*
D02*
G37*
G36*
X101558Y398437D02*
X92869D01*
X93047Y397086D01*
X94058Y394643D01*
X95667Y392546D01*
X97765Y390937D01*
X100207Y389925D01*
X101558Y389747D01*
Y398437D01*
D02*
G37*
G36*
X112788D02*
X104098D01*
Y389747D01*
X105449Y389925D01*
X107891Y390937D01*
X109989Y392546D01*
X111598Y394643D01*
X112610Y397086D01*
X112788Y398437D01*
D02*
G37*
G36*
X138268D02*
X129498D01*
Y389667D01*
X138268D01*
Y398437D01*
D02*
G37*
G36*
X126958D02*
X118188D01*
Y389667D01*
X126958D01*
Y398437D01*
D02*
G37*
G36*
X313750Y416856D02*
X311604Y416429D01*
X309785Y415214D01*
X308570Y413394D01*
X308143Y411248D01*
X308570Y409102D01*
X309785Y407283D01*
X311604Y406067D01*
X313101Y405770D01*
X331936Y386934D01*
X333342Y385995D01*
X335000Y385665D01*
X395586D01*
X396855Y384817D01*
X399000Y384391D01*
X401146Y384817D01*
X402966Y386033D01*
X404181Y387852D01*
X404608Y389998D01*
X404181Y392144D01*
X402966Y393964D01*
X401146Y395179D01*
X399000Y395606D01*
X396855Y395179D01*
X395586Y394332D01*
X336795D01*
X319229Y411898D01*
X318931Y413394D01*
X317716Y415214D01*
X315896Y416429D01*
X313750Y416856D01*
D02*
G37*
G36*
X421500Y435606D02*
X419354Y435179D01*
X417535Y433964D01*
X416320Y432144D01*
X415893Y429998D01*
X416320Y427852D01*
X417422Y426202D01*
Y381077D01*
X44501D01*
X44500Y381077D01*
X42940Y380766D01*
X41617Y379882D01*
X30361Y368627D01*
X29477Y367304D01*
X29167Y365743D01*
X29167Y365743D01*
Y189960D01*
X29167Y189935D01*
X29167Y189933D01*
X29167Y189931D01*
Y185754D01*
X29167Y185754D01*
X29477Y184193D01*
X30361Y182870D01*
X38617Y174615D01*
X38617Y174615D01*
X39940Y173730D01*
X41501Y173420D01*
X41501Y173420D01*
X42944D01*
X43842Y171251D01*
X45605Y168953D01*
X47407Y167570D01*
X47486Y167385D01*
Y166211D01*
X47407Y166026D01*
X45605Y164644D01*
X43842Y162346D01*
X42734Y159670D01*
X42355Y156798D01*
X42734Y153927D01*
X43842Y151251D01*
X45605Y148953D01*
X46503Y148264D01*
X46379Y146758D01*
X44179Y145070D01*
X42095Y142354D01*
X40785Y139192D01*
X40338Y135798D01*
X40785Y132405D01*
X42095Y129242D01*
X44179Y126527D01*
X46894Y124443D01*
X50057Y123133D01*
X53450Y122686D01*
X56844Y123133D01*
X60006Y124443D01*
X62722Y126527D01*
X64806Y129242D01*
X66116Y132405D01*
X66563Y135798D01*
X66116Y139192D01*
X64806Y142354D01*
X62722Y145070D01*
X60522Y146758D01*
X60397Y148264D01*
X61296Y148953D01*
X63059Y151251D01*
X64167Y153927D01*
X64545Y156798D01*
X64167Y159670D01*
X63059Y162346D01*
X61296Y164644D01*
X59494Y166026D01*
X59415Y166211D01*
Y167385D01*
X59494Y167570D01*
X61296Y168953D01*
X63059Y171251D01*
X64167Y173927D01*
X64545Y176798D01*
X64167Y179670D01*
X63059Y182346D01*
X61296Y184644D01*
X59494Y186026D01*
X59415Y186211D01*
Y187385D01*
X59494Y187570D01*
X61296Y188953D01*
X63059Y191251D01*
X64167Y193927D01*
X64545Y196798D01*
X64167Y199670D01*
X63059Y202346D01*
X61296Y204644D01*
X60397Y205333D01*
X60522Y206838D01*
X62722Y208527D01*
X64806Y211242D01*
X66116Y214405D01*
X66563Y217798D01*
X66116Y221192D01*
X64806Y224354D01*
X62722Y227070D01*
X60006Y229154D01*
X56844Y230464D01*
X53450Y230910D01*
X50057Y230464D01*
X46894Y229154D01*
X44179Y227070D01*
X42095Y224354D01*
X40785Y221192D01*
X40338Y217798D01*
X40785Y214405D01*
X42095Y211242D01*
X44179Y208527D01*
X46379Y206838D01*
X46503Y205333D01*
X45605Y204644D01*
X43842Y202346D01*
X42734Y199670D01*
X42355Y196798D01*
X42734Y193927D01*
X43842Y191251D01*
X45605Y188953D01*
X47407Y187570D01*
X47486Y187385D01*
Y186211D01*
X47407Y186026D01*
X45605Y184644D01*
X44005Y182558D01*
X43138Y182329D01*
X42454Y182313D01*
X37324Y187443D01*
Y189927D01*
X37324Y189952D01*
X37323Y189954D01*
X37324Y189956D01*
Y364054D01*
X46190Y372920D01*
X141635D01*
X142121Y371747D01*
X139436Y369062D01*
X138497Y367657D01*
X138167Y365998D01*
Y338793D01*
X121851Y322477D01*
X120354Y322179D01*
X118535Y320964D01*
X117320Y319144D01*
X116893Y316998D01*
X117320Y314852D01*
X118535Y313033D01*
X120354Y311817D01*
X122500Y311391D01*
X122994Y311489D01*
X124074Y310409D01*
X123893Y309498D01*
X123168Y308616D01*
X102727D01*
X100386Y308150D01*
X98402Y306824D01*
X97788Y306211D01*
X96462Y304226D01*
X95996Y301885D01*
X96462Y299544D01*
X97788Y297559D01*
X99773Y296233D01*
X102114Y295767D01*
X104455Y296233D01*
X104676Y296381D01*
X107383D01*
Y228998D01*
X107849Y226657D01*
X109175Y224673D01*
X111159Y223346D01*
X113500Y222881D01*
X115842Y223346D01*
X117826Y224673D01*
X119152Y226657D01*
X119618Y228998D01*
Y296381D01*
X144000D01*
X146341Y296846D01*
X148326Y298173D01*
X158326Y308172D01*
X158326Y308173D01*
X160187Y310033D01*
X161360Y309548D01*
Y307268D01*
X166901D01*
X172440D01*
Y311381D01*
X175983D01*
Y303998D01*
X176100Y303407D01*
Y292589D01*
X175983Y291998D01*
Y279998D01*
X176100Y279407D01*
Y269998D01*
Y261589D01*
X175983Y260998D01*
Y248998D01*
X176100Y248407D01*
Y240998D01*
X188100D01*
Y248407D01*
X188218Y248998D01*
Y254316D01*
X189109Y254709D01*
X189488Y254791D01*
X191500Y254391D01*
X193113Y254711D01*
X194383Y253898D01*
Y234942D01*
X193905Y234464D01*
X192579Y232479D01*
X192113Y230138D01*
X192579Y227797D01*
X193905Y225813D01*
X195889Y224486D01*
X198230Y224021D01*
X200571Y224486D01*
X202556Y225813D01*
X204826Y228083D01*
X206152Y230067D01*
X206618Y232408D01*
Y295881D01*
X518500D01*
X520841Y296346D01*
X522826Y297673D01*
X550826Y325673D01*
X552152Y327657D01*
X552618Y329998D01*
X552152Y332339D01*
X550826Y334324D01*
X548842Y335650D01*
X546500Y336116D01*
X544159Y335650D01*
X542175Y334324D01*
X515966Y308116D01*
X243882D01*
X243497Y309386D01*
X244466Y310033D01*
X245681Y311852D01*
X246108Y313998D01*
X245681Y316144D01*
X244466Y317964D01*
X242646Y319179D01*
X240500Y319606D01*
X238354Y319179D01*
X236535Y317964D01*
X235320Y316144D01*
X234893Y313998D01*
X235320Y311852D01*
X236535Y310033D01*
X237504Y309386D01*
X237118Y308116D01*
X194614D01*
X194406Y308324D01*
X192421Y309650D01*
X190080Y310116D01*
X188218D01*
Y313984D01*
X187752Y316325D01*
X186426Y318309D01*
X182911Y321824D01*
X180927Y323150D01*
X178586Y323616D01*
X159000D01*
X156659Y323150D01*
X154675Y321824D01*
X149675Y316824D01*
X149675Y316824D01*
X141467Y308616D01*
X136542D01*
X136016Y309886D01*
X154565Y328434D01*
X155504Y329840D01*
X155834Y331498D01*
Y355584D01*
X156681Y356852D01*
X157108Y358998D01*
X156681Y361144D01*
X155466Y362964D01*
X153646Y364179D01*
X152283Y364450D01*
Y365745D01*
X152646Y365817D01*
X154466Y367033D01*
X155681Y368852D01*
X156108Y370998D01*
X155921Y371938D01*
X156727Y372920D01*
X420329D01*
X420329Y372920D01*
X421890Y373230D01*
X423213Y374114D01*
X424384Y375286D01*
X424384Y375286D01*
X425268Y376609D01*
X425579Y378170D01*
X425579Y378170D01*
Y426202D01*
X426681Y427852D01*
X427108Y429998D01*
X426681Y432144D01*
X425466Y433964D01*
X423646Y435179D01*
X421500Y435606D01*
D02*
G37*
G36*
X761500Y385606D02*
X759354Y385179D01*
X757535Y383964D01*
X756320Y382144D01*
X755893Y379998D01*
X756320Y377852D01*
X757535Y376033D01*
X759354Y374817D01*
X761500Y374391D01*
X763646Y374817D01*
X765466Y376033D01*
X766681Y377852D01*
X767108Y379998D01*
X766681Y382144D01*
X765466Y383964D01*
X763646Y385179D01*
X761500Y385606D01*
D02*
G37*
G36*
X736500D02*
X734354Y385179D01*
X732535Y383964D01*
X731320Y382144D01*
X730893Y379998D01*
X731320Y377852D01*
X732535Y376033D01*
X734354Y374817D01*
X736500Y374391D01*
X738646Y374817D01*
X740466Y376033D01*
X741681Y377852D01*
X742108Y379998D01*
X741681Y382144D01*
X740466Y383964D01*
X738646Y385179D01*
X736500Y385606D01*
D02*
G37*
G36*
X711500D02*
X709354Y385179D01*
X707535Y383964D01*
X706320Y382144D01*
X705893Y379998D01*
X706320Y377852D01*
X707535Y376033D01*
X709354Y374817D01*
X711500Y374391D01*
X713646Y374817D01*
X715466Y376033D01*
X716681Y377852D01*
X717108Y379998D01*
X716681Y382144D01*
X715466Y383964D01*
X713646Y385179D01*
X711500Y385606D01*
D02*
G37*
G36*
X676500D02*
X674354Y385179D01*
X672535Y383964D01*
X671320Y382144D01*
X670893Y379998D01*
X671320Y377852D01*
X672535Y376033D01*
X674354Y374817D01*
X676500Y374391D01*
X678646Y374817D01*
X680466Y376033D01*
X681681Y377852D01*
X682108Y379998D01*
X681681Y382144D01*
X680466Y383964D01*
X678646Y385179D01*
X676500Y385606D01*
D02*
G37*
G36*
X651500D02*
X649354Y385179D01*
X647535Y383964D01*
X646320Y382144D01*
X645893Y379998D01*
X646320Y377852D01*
X647535Y376033D01*
X649354Y374817D01*
X651500Y374391D01*
X653646Y374817D01*
X655466Y376033D01*
X656681Y377852D01*
X657108Y379998D01*
X656681Y382144D01*
X655466Y383964D01*
X653646Y385179D01*
X651500Y385606D01*
D02*
G37*
G36*
X626500D02*
X624355Y385179D01*
X622535Y383964D01*
X621320Y382144D01*
X620893Y379998D01*
X621320Y377852D01*
X622535Y376033D01*
X624355Y374817D01*
X626500Y374391D01*
X628646Y374817D01*
X630466Y376033D01*
X631681Y377852D01*
X632108Y379998D01*
X631681Y382144D01*
X630466Y383964D01*
X628646Y385179D01*
X626500Y385606D01*
D02*
G37*
G36*
X596500D02*
X594354Y385179D01*
X592535Y383964D01*
X591320Y382144D01*
X590893Y379998D01*
X591320Y377852D01*
X592535Y376033D01*
X594354Y374817D01*
X596500Y374391D01*
X598646Y374817D01*
X600466Y376033D01*
X601681Y377852D01*
X602108Y379998D01*
X601681Y382144D01*
X600466Y383964D01*
X598646Y385179D01*
X596500Y385606D01*
D02*
G37*
G36*
X571500D02*
X569354Y385179D01*
X567535Y383964D01*
X566320Y382144D01*
X565893Y379998D01*
X566320Y377852D01*
X567535Y376033D01*
X569354Y374817D01*
X571500Y374391D01*
X573646Y374817D01*
X575466Y376033D01*
X576681Y377852D01*
X577108Y379998D01*
X576681Y382144D01*
X575466Y383964D01*
X573646Y385179D01*
X571500Y385606D01*
D02*
G37*
G36*
X546500D02*
X544354Y385179D01*
X542535Y383964D01*
X541320Y382144D01*
X540893Y379998D01*
X541320Y377852D01*
X542535Y376033D01*
X544354Y374817D01*
X546500Y374391D01*
X548646Y374817D01*
X550466Y376033D01*
X551681Y377852D01*
X552108Y379998D01*
X551681Y382144D01*
X550466Y383964D01*
X548646Y385179D01*
X546500Y385606D01*
D02*
G37*
G36*
X761500Y360606D02*
X759354Y360179D01*
X757535Y358964D01*
X756320Y357144D01*
X755893Y354998D01*
X756320Y352852D01*
X757535Y351033D01*
X759354Y349817D01*
X761500Y349391D01*
X763646Y349817D01*
X765466Y351033D01*
X766681Y352852D01*
X767108Y354998D01*
X766681Y357144D01*
X765466Y358964D01*
X763646Y360179D01*
X761500Y360606D01*
D02*
G37*
G36*
X736500D02*
X734354Y360179D01*
X732535Y358964D01*
X731320Y357144D01*
X730893Y354998D01*
X731320Y352852D01*
X732535Y351033D01*
X734354Y349817D01*
X736500Y349391D01*
X738646Y349817D01*
X740466Y351033D01*
X741681Y352852D01*
X742108Y354998D01*
X741681Y357144D01*
X740466Y358964D01*
X738646Y360179D01*
X736500Y360606D01*
D02*
G37*
G36*
X711500D02*
X709354Y360179D01*
X707535Y358964D01*
X706320Y357144D01*
X705893Y354998D01*
X706320Y352852D01*
X707535Y351033D01*
X709354Y349817D01*
X711500Y349391D01*
X713646Y349817D01*
X715466Y351033D01*
X716681Y352852D01*
X717108Y354998D01*
X716681Y357144D01*
X715466Y358964D01*
X713646Y360179D01*
X711500Y360606D01*
D02*
G37*
G36*
X676500D02*
X674354Y360179D01*
X672535Y358964D01*
X671320Y357144D01*
X670893Y354998D01*
X671320Y352852D01*
X672535Y351033D01*
X674354Y349817D01*
X676500Y349391D01*
X678646Y349817D01*
X680466Y351033D01*
X681681Y352852D01*
X682108Y354998D01*
X681681Y357144D01*
X680466Y358964D01*
X678646Y360179D01*
X676500Y360606D01*
D02*
G37*
G36*
X651500D02*
X649354Y360179D01*
X647535Y358964D01*
X646320Y357144D01*
X645893Y354998D01*
X646320Y352852D01*
X647535Y351033D01*
X649354Y349817D01*
X651500Y349391D01*
X653646Y349817D01*
X655466Y351033D01*
X656681Y352852D01*
X657108Y354998D01*
X656681Y357144D01*
X655466Y358964D01*
X653646Y360179D01*
X651500Y360606D01*
D02*
G37*
G36*
X626500D02*
X624355Y360179D01*
X622535Y358964D01*
X621320Y357144D01*
X620893Y354998D01*
X621320Y352852D01*
X622535Y351033D01*
X624355Y349817D01*
X626500Y349391D01*
X628646Y349817D01*
X630466Y351033D01*
X631681Y352852D01*
X632108Y354998D01*
X631681Y357144D01*
X630466Y358964D01*
X628646Y360179D01*
X626500Y360606D01*
D02*
G37*
G36*
X596500D02*
X594354Y360179D01*
X592535Y358964D01*
X591320Y357144D01*
X590893Y354998D01*
X591320Y352852D01*
X592535Y351033D01*
X594354Y349817D01*
X596500Y349391D01*
X598646Y349817D01*
X600466Y351033D01*
X601681Y352852D01*
X602108Y354998D01*
X601681Y357144D01*
X600466Y358964D01*
X598646Y360179D01*
X596500Y360606D01*
D02*
G37*
G36*
X571500D02*
X569354Y360179D01*
X567535Y358964D01*
X566320Y357144D01*
X565893Y354998D01*
X566320Y352852D01*
X567535Y351033D01*
X569354Y349817D01*
X571500Y349391D01*
X573646Y349817D01*
X575466Y351033D01*
X576681Y352852D01*
X577108Y354998D01*
X576681Y357144D01*
X575466Y358964D01*
X573646Y360179D01*
X571500Y360606D01*
D02*
G37*
G36*
X546500D02*
X544354Y360179D01*
X542535Y358964D01*
X541320Y357144D01*
X540893Y354998D01*
X541320Y352852D01*
X542535Y351033D01*
X544354Y349817D01*
X546500Y349391D01*
X548646Y349817D01*
X550466Y351033D01*
X551681Y352852D01*
X552108Y354998D01*
X551681Y357144D01*
X550466Y358964D01*
X548646Y360179D01*
X546500Y360606D01*
D02*
G37*
G36*
X173251Y351064D02*
X171105Y350638D01*
X169286Y349422D01*
X168071Y347603D01*
X167644Y345457D01*
X168071Y343311D01*
X169286Y341491D01*
X171105Y340276D01*
X173251Y339849D01*
X175397Y340276D01*
X177217Y341491D01*
X178432Y343311D01*
X178859Y345457D01*
X178432Y347603D01*
X177217Y349422D01*
X175397Y350638D01*
X173251Y351064D01*
D02*
G37*
G36*
X114000Y350606D02*
X111854Y350179D01*
X110035Y348964D01*
X108820Y347144D01*
X108393Y344998D01*
X108820Y342852D01*
X110035Y341033D01*
X111854Y339817D01*
X114000Y339391D01*
X116146Y339817D01*
X117966Y341033D01*
X119181Y342852D01*
X119608Y344998D01*
X119181Y347144D01*
X117966Y348964D01*
X116146Y350179D01*
X114000Y350606D01*
D02*
G37*
G36*
X246500Y348106D02*
X244354Y347679D01*
X242535Y346464D01*
X241320Y344644D01*
X240893Y342498D01*
X241320Y340352D01*
X242535Y338533D01*
X244354Y337317D01*
X246500Y336891D01*
X248646Y337317D01*
X250466Y338533D01*
X251681Y340352D01*
X252108Y342498D01*
X251681Y344644D01*
X250466Y346464D01*
X248646Y347679D01*
X246500Y348106D01*
D02*
G37*
G36*
X761500Y335606D02*
X759354Y335179D01*
X757535Y333964D01*
X756320Y332144D01*
X755893Y329998D01*
X756320Y327852D01*
X757535Y326033D01*
X759354Y324817D01*
X761500Y324391D01*
X763646Y324817D01*
X765466Y326033D01*
X766681Y327852D01*
X767108Y329998D01*
X766681Y332144D01*
X765466Y333964D01*
X763646Y335179D01*
X761500Y335606D01*
D02*
G37*
G36*
X736500D02*
X734354Y335179D01*
X732535Y333964D01*
X731320Y332144D01*
X730893Y329998D01*
X731320Y327852D01*
X732535Y326033D01*
X734354Y324817D01*
X736500Y324391D01*
X738646Y324817D01*
X740466Y326033D01*
X741681Y327852D01*
X742108Y329998D01*
X741681Y332144D01*
X740466Y333964D01*
X738646Y335179D01*
X736500Y335606D01*
D02*
G37*
G36*
X711500D02*
X709354Y335179D01*
X707535Y333964D01*
X706320Y332144D01*
X705893Y329998D01*
X706320Y327852D01*
X707535Y326033D01*
X709354Y324817D01*
X711500Y324391D01*
X713646Y324817D01*
X715466Y326033D01*
X716681Y327852D01*
X717108Y329998D01*
X716681Y332144D01*
X715466Y333964D01*
X713646Y335179D01*
X711500Y335606D01*
D02*
G37*
G36*
X676500D02*
X674354Y335179D01*
X672535Y333964D01*
X671320Y332144D01*
X670893Y329998D01*
X671320Y327852D01*
X672535Y326033D01*
X674354Y324817D01*
X676500Y324391D01*
X678646Y324817D01*
X680466Y326033D01*
X681681Y327852D01*
X682108Y329998D01*
X681681Y332144D01*
X680466Y333964D01*
X678646Y335179D01*
X676500Y335606D01*
D02*
G37*
G36*
X651500D02*
X649354Y335179D01*
X647535Y333964D01*
X646320Y332144D01*
X645893Y329998D01*
X646320Y327852D01*
X647535Y326033D01*
X649354Y324817D01*
X651500Y324391D01*
X653646Y324817D01*
X655466Y326033D01*
X656681Y327852D01*
X657108Y329998D01*
X656681Y332144D01*
X655466Y333964D01*
X653646Y335179D01*
X651500Y335606D01*
D02*
G37*
G36*
X626500D02*
X624355Y335179D01*
X622535Y333964D01*
X621320Y332144D01*
X620893Y329998D01*
X621320Y327852D01*
X622535Y326033D01*
X624355Y324817D01*
X626500Y324391D01*
X628646Y324817D01*
X630466Y326033D01*
X631681Y327852D01*
X632108Y329998D01*
X631681Y332144D01*
X630466Y333964D01*
X628646Y335179D01*
X626500Y335606D01*
D02*
G37*
G36*
X571500D02*
X569354Y335179D01*
X567535Y333964D01*
X566320Y332144D01*
X565893Y329998D01*
X566320Y327852D01*
X567535Y326033D01*
X569354Y324817D01*
X571500Y324391D01*
X573646Y324817D01*
X575466Y326033D01*
X576681Y327852D01*
X577108Y329998D01*
X576681Y332144D01*
X575466Y333964D01*
X573646Y335179D01*
X571500Y335606D01*
D02*
G37*
G36*
X676500Y310606D02*
X674354Y310179D01*
X672535Y308964D01*
X671320Y307144D01*
X670893Y304998D01*
X671320Y302852D01*
X672535Y301033D01*
X674354Y299817D01*
X676500Y299391D01*
X678646Y299817D01*
X680466Y301033D01*
X681681Y302852D01*
X682108Y304998D01*
X681681Y307144D01*
X680466Y308964D01*
X678646Y310179D01*
X676500Y310606D01*
D02*
G37*
G36*
X626500D02*
X624355Y310179D01*
X622535Y308964D01*
X621320Y307144D01*
X620893Y304998D01*
X621320Y302852D01*
X622535Y301033D01*
X624355Y299817D01*
X626500Y299391D01*
X628646Y299817D01*
X630466Y301033D01*
X631681Y302852D01*
X632108Y304998D01*
X631681Y307144D01*
X630466Y308964D01*
X628646Y310179D01*
X626500Y310606D01*
D02*
G37*
G36*
X172440Y304728D02*
X166901D01*
X161360D01*
Y298458D01*
Y293268D01*
X166901D01*
X172440D01*
Y298458D01*
Y304728D01*
D02*
G37*
G36*
Y290728D02*
X166901D01*
X161360D01*
Y284458D01*
Y279268D01*
X166901D01*
X172440D01*
Y284458D01*
Y290728D01*
D02*
G37*
G36*
X100500Y282436D02*
X98354Y282009D01*
X96535Y280793D01*
X95320Y278974D01*
X94893Y276828D01*
X95320Y274682D01*
X96535Y272863D01*
X98354Y271647D01*
X100500Y271220D01*
X102646Y271647D01*
X104466Y272863D01*
X105681Y274682D01*
X106108Y276828D01*
X105681Y278974D01*
X104466Y280793D01*
X102646Y282009D01*
X100500Y282436D01*
D02*
G37*
G36*
X172440Y276728D02*
X166901D01*
X161360D01*
Y270458D01*
Y264268D01*
X166901D01*
X172440D01*
Y270458D01*
Y276728D01*
D02*
G37*
G36*
X100500Y268606D02*
X98354Y268179D01*
X96535Y266964D01*
X95320Y265144D01*
X94893Y262998D01*
X95320Y260852D01*
X96535Y259033D01*
X98354Y257817D01*
X100500Y257391D01*
X102646Y257817D01*
X104466Y259033D01*
X105681Y260852D01*
X106108Y262998D01*
X105681Y265144D01*
X104466Y266964D01*
X102646Y268179D01*
X100500Y268606D01*
D02*
G37*
G36*
X151500Y255606D02*
X149354Y255179D01*
X147535Y253964D01*
X147135Y253365D01*
X145865D01*
X145466Y253964D01*
X143646Y255179D01*
X141500Y255606D01*
X139354Y255179D01*
X137535Y253964D01*
X136320Y252144D01*
X135893Y249998D01*
X136320Y247852D01*
X137167Y246584D01*
Y74999D01*
X137497Y73340D01*
X138436Y71934D01*
X153437Y56934D01*
X153437Y56934D01*
X162437Y47934D01*
X162437Y47934D01*
X163437Y46934D01*
X164842Y45995D01*
X166501Y45665D01*
X203086D01*
X204354Y44817D01*
X206500Y44391D01*
X208646Y44817D01*
X210466Y46033D01*
X211681Y47852D01*
X212108Y49998D01*
X211681Y52144D01*
X210466Y53964D01*
X208646Y55179D01*
X206500Y55606D01*
X204354Y55179D01*
X203086Y54331D01*
X168296D01*
X159565Y63062D01*
X159565Y63062D01*
X145834Y76793D01*
Y244922D01*
X146500Y245307D01*
X147167Y244922D01*
Y79998D01*
X147497Y78340D01*
X148436Y76934D01*
X163436Y61934D01*
X164842Y60995D01*
X166500Y60665D01*
X203086D01*
X204354Y59817D01*
X206500Y59391D01*
X208646Y59817D01*
X210466Y61033D01*
X211681Y62852D01*
X212108Y64998D01*
X211681Y67144D01*
X210466Y68964D01*
X208646Y70179D01*
X206500Y70606D01*
X204354Y70179D01*
X203086Y69331D01*
X168295D01*
X155834Y81793D01*
Y223486D01*
X156954Y224085D01*
X157354Y223817D01*
X159500Y223391D01*
X161646Y223817D01*
X163466Y225033D01*
X164681Y226852D01*
X165108Y228998D01*
X164681Y231144D01*
X163466Y232964D01*
X161646Y234179D01*
X159500Y234606D01*
X157354Y234179D01*
X156954Y233911D01*
X155834Y234510D01*
Y246584D01*
X156681Y247852D01*
X157108Y249998D01*
X156681Y252144D01*
X155466Y253964D01*
X153646Y255179D01*
X151500Y255606D01*
D02*
G37*
G36*
X172440Y261728D02*
X166901D01*
X161360D01*
Y255458D01*
Y250268D01*
X166901D01*
X172440D01*
Y255458D01*
Y261728D01*
D02*
G37*
G36*
X251500Y261224D02*
X249354Y260797D01*
X247535Y259581D01*
X246320Y257762D01*
X245893Y255616D01*
X246320Y253470D01*
X247535Y251651D01*
X249354Y250435D01*
X251500Y250008D01*
X253646Y250435D01*
X255466Y251651D01*
X256681Y253470D01*
X257108Y255616D01*
X256681Y257762D01*
X255466Y259581D01*
X253646Y260797D01*
X251500Y261224D01*
D02*
G37*
G36*
X172440Y247728D02*
X168171D01*
Y241458D01*
X172440D01*
Y247728D01*
D02*
G37*
G36*
X165630D02*
X161360D01*
Y241458D01*
X165630D01*
Y247728D01*
D02*
G37*
G36*
X596500Y335606D02*
X594354Y335179D01*
X592535Y333964D01*
X591320Y332144D01*
X590893Y329998D01*
X591320Y327852D01*
X591912Y326965D01*
Y296998D01*
X592262Y295243D01*
X593256Y293754D01*
X658912Y228098D01*
Y218998D01*
Y209317D01*
X651256Y201660D01*
X650262Y200172D01*
X649912Y198416D01*
Y176031D01*
X649320Y175144D01*
X648893Y172998D01*
X649320Y170852D01*
X649912Y169965D01*
Y155031D01*
X649320Y154144D01*
X648893Y151998D01*
X649320Y149852D01*
X650535Y148033D01*
X652354Y146817D01*
X654500Y146391D01*
X656646Y146817D01*
X658466Y148033D01*
X659681Y149852D01*
X660108Y151998D01*
X659681Y154144D01*
X659089Y155031D01*
Y169965D01*
X659681Y170852D01*
X660108Y172998D01*
X659681Y175144D01*
X659089Y176031D01*
Y186121D01*
X660070Y186926D01*
X660250Y186891D01*
X662396Y187317D01*
X664216Y188533D01*
X665431Y190352D01*
X665858Y192498D01*
X665431Y194644D01*
X664216Y196464D01*
X662396Y197679D01*
X661929Y197772D01*
X661560Y198987D01*
X666745Y204172D01*
X667739Y205660D01*
X668089Y207416D01*
Y213360D01*
X672751D01*
X673638Y212768D01*
X675784Y212341D01*
X677930Y212768D01*
X679749Y213983D01*
X680965Y215802D01*
X681392Y217948D01*
X680965Y220094D01*
X679749Y221914D01*
X677930Y223129D01*
X675784Y223556D01*
X673638Y223129D01*
X672751Y222537D01*
X668089D01*
Y229136D01*
X669354Y229817D01*
X671500Y229391D01*
X673646Y229817D01*
X675466Y231033D01*
X676681Y232852D01*
X677108Y234998D01*
X676681Y237144D01*
X675466Y238964D01*
X673646Y240179D01*
X671500Y240606D01*
X669354Y240179D01*
X667535Y238964D01*
X666320Y237144D01*
X666041Y235743D01*
X664663Y235325D01*
X601089Y298899D01*
Y326965D01*
X601681Y327852D01*
X602108Y329998D01*
X601681Y332144D01*
X600466Y333964D01*
X598646Y335179D01*
X596500Y335606D01*
D02*
G37*
G36*
X761500Y310606D02*
X759354Y310179D01*
X757535Y308964D01*
X756320Y307144D01*
X755893Y304998D01*
X756320Y302852D01*
X756912Y301965D01*
Y220536D01*
X691173D01*
X690286Y221129D01*
X688140Y221556D01*
X685994Y221129D01*
X684175Y219914D01*
X682960Y218094D01*
X682533Y215948D01*
X682960Y213802D01*
X684175Y211983D01*
X685994Y210767D01*
X688140Y210340D01*
X690286Y210767D01*
X691173Y211360D01*
X756912D01*
Y202899D01*
X754600Y200586D01*
X745534D01*
X744646Y201179D01*
X742500Y201606D01*
X740355Y201179D01*
X738535Y199964D01*
X737320Y198144D01*
X736893Y195998D01*
X737320Y193852D01*
X737912Y192965D01*
Y179031D01*
X737320Y178144D01*
X736893Y175998D01*
X737320Y173852D01*
X738535Y172033D01*
X740355Y170817D01*
X742500Y170391D01*
X744646Y170817D01*
X746466Y172033D01*
X747681Y173852D01*
X748108Y175998D01*
X747681Y178144D01*
X747089Y179031D01*
Y191410D01*
X756500D01*
X758256Y191759D01*
X759745Y192754D01*
X764745Y197754D01*
X765739Y199242D01*
X766089Y200998D01*
Y215998D01*
Y301965D01*
X766681Y302852D01*
X767108Y304998D01*
X766681Y307144D01*
X765466Y308964D01*
X763646Y310179D01*
X761500Y310606D01*
D02*
G37*
G36*
X127500Y230606D02*
X125354Y230179D01*
X123535Y228964D01*
X122320Y227144D01*
X121893Y224998D01*
X122320Y222852D01*
X123535Y221033D01*
X125354Y219817D01*
X127500Y219391D01*
X129646Y219817D01*
X131466Y221033D01*
X132681Y222852D01*
X133108Y224998D01*
X132681Y227144D01*
X131466Y228964D01*
X129646Y230179D01*
X127500Y230606D01*
D02*
G37*
G36*
X624500Y220606D02*
X622354Y220179D01*
X620535Y218964D01*
X619320Y217144D01*
X619091Y215996D01*
X618261Y214754D01*
X617912Y212998D01*
Y211326D01*
X616931Y210520D01*
X616500Y210606D01*
X614354Y210179D01*
X612535Y208964D01*
X611320Y207144D01*
X610893Y204998D01*
X611320Y202852D01*
X612535Y201033D01*
X614354Y199817D01*
X616500Y199391D01*
X616931Y199476D01*
X617912Y198670D01*
Y187621D01*
X616737Y187185D01*
X616642Y187203D01*
X615466Y188964D01*
X613646Y190179D01*
X611500Y190606D01*
X609354Y190179D01*
X607535Y188964D01*
X606320Y187144D01*
X605893Y184998D01*
X606320Y182852D01*
X607535Y181033D01*
X609354Y179817D01*
X611500Y179391D01*
X613646Y179817D01*
X615466Y181033D01*
X616642Y182794D01*
X616737Y182811D01*
X617912Y182375D01*
Y167621D01*
X616737Y167185D01*
X616642Y167203D01*
X615466Y168964D01*
X613646Y170179D01*
X611500Y170606D01*
X609354Y170179D01*
X607535Y168964D01*
X606320Y167144D01*
X605893Y164998D01*
X606320Y162852D01*
X607535Y161033D01*
X609354Y159817D01*
X611500Y159391D01*
X613646Y159817D01*
X615466Y161033D01*
X616642Y162794D01*
X616737Y162811D01*
X617912Y162375D01*
Y111899D01*
X612434Y106420D01*
X611500Y106606D01*
X609354Y106179D01*
X607535Y104964D01*
X606320Y103144D01*
X605893Y100998D01*
X606320Y98852D01*
X607535Y97033D01*
X609354Y95817D01*
X611500Y95391D01*
X613646Y95817D01*
X614971Y96703D01*
X615256Y96759D01*
X616745Y97754D01*
X625745Y106754D01*
X626739Y108243D01*
X627089Y109998D01*
Y210113D01*
X628466Y211033D01*
X629681Y212852D01*
X630108Y214998D01*
X629681Y217144D01*
X628466Y218964D01*
X626646Y220179D01*
X624500Y220606D01*
D02*
G37*
G36*
X551500D02*
X549355Y220179D01*
X547535Y218964D01*
X546320Y217144D01*
X545893Y214998D01*
X546320Y212852D01*
X547535Y211033D01*
X549355Y209817D01*
X551500Y209391D01*
X553646Y209817D01*
X555466Y211033D01*
X556681Y212852D01*
X557108Y214998D01*
X556681Y217144D01*
X555466Y218964D01*
X553646Y220179D01*
X551500Y220606D01*
D02*
G37*
G36*
X676500Y210606D02*
X674354Y210179D01*
X672535Y208964D01*
X671320Y207144D01*
X670893Y204998D01*
X671320Y202852D01*
X672535Y201033D01*
X674354Y199817D01*
X676500Y199391D01*
X678646Y199817D01*
X680466Y201033D01*
X681681Y202852D01*
X682108Y204998D01*
X681681Y207144D01*
X680466Y208964D01*
X678646Y210179D01*
X676500Y210606D01*
D02*
G37*
G36*
X551500Y200606D02*
X549355Y200179D01*
X547535Y198964D01*
X546320Y197144D01*
X545893Y194998D01*
X546320Y192852D01*
X547535Y191033D01*
X549355Y189817D01*
X551500Y189391D01*
X553646Y189817D01*
X555466Y191033D01*
X556681Y192852D01*
X557108Y194998D01*
X556681Y197144D01*
X555466Y198964D01*
X553646Y200179D01*
X551500Y200606D01*
D02*
G37*
G36*
X221500Y198606D02*
X219354Y198179D01*
X217535Y196964D01*
X216320Y195144D01*
X215893Y192998D01*
X216320Y190852D01*
X217535Y189033D01*
X219354Y187817D01*
X221500Y187391D01*
X223646Y187817D01*
X225466Y189033D01*
X226681Y190852D01*
X227108Y192998D01*
X226681Y195144D01*
X225466Y196964D01*
X223646Y198179D01*
X221500Y198606D01*
D02*
G37*
G36*
X591500Y190606D02*
X589354Y190179D01*
X587535Y188964D01*
X586320Y187144D01*
X585893Y184998D01*
X586320Y182852D01*
X587535Y181033D01*
X589354Y179817D01*
X591500Y179391D01*
X593646Y179817D01*
X595466Y181033D01*
X596681Y182852D01*
X597108Y184998D01*
X596681Y187144D01*
X595466Y188964D01*
X593646Y190179D01*
X591500Y190606D01*
D02*
G37*
G36*
X571500D02*
X569354Y190179D01*
X567535Y188964D01*
X566320Y187144D01*
X565893Y184998D01*
X566320Y182852D01*
X567535Y181033D01*
X569354Y179817D01*
X571500Y179391D01*
X573646Y179817D01*
X575466Y181033D01*
X576681Y182852D01*
X577108Y184998D01*
X576681Y187144D01*
X575466Y188964D01*
X573646Y190179D01*
X571500Y190606D01*
D02*
G37*
G36*
X551500Y180606D02*
X549355Y180179D01*
X547535Y178964D01*
X546320Y177144D01*
X545893Y174998D01*
X546320Y172852D01*
X547535Y171033D01*
X549355Y169817D01*
X551500Y169391D01*
X553646Y169817D01*
X555466Y171033D01*
X556681Y172852D01*
X557108Y174998D01*
X556681Y177144D01*
X555466Y178964D01*
X553646Y180179D01*
X551500Y180606D01*
D02*
G37*
G36*
X591500Y170606D02*
X589354Y170179D01*
X587535Y168964D01*
X586320Y167144D01*
X585893Y164998D01*
X586320Y162852D01*
X587535Y161033D01*
X589354Y159817D01*
X591500Y159391D01*
X593646Y159817D01*
X595466Y161033D01*
X596681Y162852D01*
X597108Y164998D01*
X596681Y167144D01*
X595466Y168964D01*
X593646Y170179D01*
X591500Y170606D01*
D02*
G37*
G36*
X571500D02*
X569354Y170179D01*
X567535Y168964D01*
X566320Y167144D01*
X565893Y164998D01*
X566320Y162852D01*
X567535Y161033D01*
X569354Y159817D01*
X571500Y159391D01*
X573646Y159817D01*
X575466Y161033D01*
X576681Y162852D01*
X577108Y164998D01*
X576681Y167144D01*
X575466Y168964D01*
X573646Y170179D01*
X571500Y170606D01*
D02*
G37*
G36*
X416500D02*
X414354Y170179D01*
X412535Y168964D01*
X411320Y167144D01*
X410893Y164998D01*
X411320Y162852D01*
X412535Y161033D01*
X414354Y159817D01*
X416500Y159391D01*
X418646Y159817D01*
X420466Y161033D01*
X421681Y162852D01*
X422108Y164998D01*
X421681Y167144D01*
X420466Y168964D01*
X418646Y170179D01*
X416500Y170606D01*
D02*
G37*
G36*
X396501D02*
X394355Y170179D01*
X392535Y168964D01*
X391320Y167144D01*
X390893Y164998D01*
X391320Y162852D01*
X392535Y161033D01*
X394355Y159817D01*
X396501Y159391D01*
X398646Y159817D01*
X400466Y161033D01*
X401681Y162852D01*
X402108Y164998D01*
X401681Y167144D01*
X400466Y168964D01*
X398646Y170179D01*
X396501Y170606D01*
D02*
G37*
G36*
X222500D02*
X220354Y170179D01*
X218535Y168964D01*
X217320Y167144D01*
X216893Y164998D01*
X217320Y162852D01*
X218535Y161033D01*
X220354Y159817D01*
X222500Y159391D01*
X224646Y159817D01*
X226466Y161033D01*
X227681Y162852D01*
X228108Y164998D01*
X227681Y167144D01*
X226466Y168964D01*
X224646Y170179D01*
X222500Y170606D01*
D02*
G37*
G36*
X506500Y165606D02*
X504354Y165179D01*
X502535Y163964D01*
X501320Y162144D01*
X500893Y159998D01*
X501320Y157852D01*
X502535Y156033D01*
X504354Y154817D01*
X506500Y154391D01*
X508646Y154817D01*
X510466Y156033D01*
X511681Y157852D01*
X512108Y159998D01*
X511681Y162144D01*
X510466Y163964D01*
X508646Y165179D01*
X506500Y165606D01*
D02*
G37*
G36*
X486500D02*
X484355Y165179D01*
X482535Y163964D01*
X481320Y162144D01*
X480893Y159998D01*
X481320Y157852D01*
X482535Y156033D01*
X484355Y154817D01*
X486500Y154391D01*
X488646Y154817D01*
X490466Y156033D01*
X491681Y157852D01*
X492108Y159998D01*
X491681Y162144D01*
X490466Y163964D01*
X488646Y165179D01*
X486500Y165606D01*
D02*
G37*
G36*
X466500D02*
X464354Y165179D01*
X462535Y163964D01*
X461320Y162144D01*
X460893Y159998D01*
X461320Y157852D01*
X462535Y156033D01*
X464354Y154817D01*
X466500Y154391D01*
X468646Y154817D01*
X470466Y156033D01*
X471681Y157852D01*
X472108Y159998D01*
X471681Y162144D01*
X470466Y163964D01*
X468646Y165179D01*
X466500Y165606D01*
D02*
G37*
G36*
X449000D02*
X446855Y165179D01*
X445035Y163964D01*
X443820Y162144D01*
X443393Y159998D01*
X443820Y157852D01*
X445035Y156033D01*
X446855Y154817D01*
X449000Y154391D01*
X451146Y154817D01*
X452966Y156033D01*
X454181Y157852D01*
X454608Y159998D01*
X454181Y162144D01*
X452966Y163964D01*
X451146Y165179D01*
X449000Y165606D01*
D02*
G37*
G36*
X416500Y150606D02*
X414354Y150179D01*
X412535Y148964D01*
X411320Y147144D01*
X410893Y144998D01*
X411320Y142852D01*
X412535Y141033D01*
X414354Y139817D01*
X416500Y139391D01*
X418646Y139817D01*
X420466Y141033D01*
X421681Y142852D01*
X422108Y144998D01*
X421681Y147144D01*
X420466Y148964D01*
X418646Y150179D01*
X416500Y150606D01*
D02*
G37*
G36*
X396501D02*
X394355Y150179D01*
X392535Y148964D01*
X391320Y147144D01*
X390893Y144998D01*
X391320Y142852D01*
X392535Y141033D01*
X394355Y139817D01*
X396501Y139391D01*
X398646Y139817D01*
X400466Y141033D01*
X401681Y142852D01*
X402108Y144998D01*
X401681Y147144D01*
X400466Y148964D01*
X398646Y150179D01*
X396501Y150606D01*
D02*
G37*
G36*
X376500D02*
X374354Y150179D01*
X372535Y148964D01*
X371320Y147144D01*
X370893Y144998D01*
X371320Y142852D01*
X372535Y141033D01*
X374354Y139817D01*
X376500Y139391D01*
X378646Y139817D01*
X380466Y141033D01*
X381681Y142852D01*
X382108Y144998D01*
X381681Y147144D01*
X380466Y148964D01*
X378646Y150179D01*
X376500Y150606D01*
D02*
G37*
G36*
X524001Y145606D02*
X521855Y145179D01*
X520035Y143964D01*
X518820Y142144D01*
X518393Y139998D01*
X518820Y137852D01*
X520035Y136033D01*
X521855Y134817D01*
X524001Y134391D01*
X526146Y134817D01*
X527966Y136033D01*
X529181Y137852D01*
X529608Y139998D01*
X529181Y142144D01*
X527966Y143964D01*
X526146Y145179D01*
X524001Y145606D01*
D02*
G37*
G36*
X506500D02*
X504354Y145179D01*
X502535Y143964D01*
X501320Y142144D01*
X500893Y139998D01*
X501320Y137852D01*
X502535Y136033D01*
X504354Y134817D01*
X506500Y134391D01*
X508646Y134817D01*
X510466Y136033D01*
X511681Y137852D01*
X512108Y139998D01*
X511681Y142144D01*
X510466Y143964D01*
X508646Y145179D01*
X506500Y145606D01*
D02*
G37*
G36*
X486500D02*
X484355Y145179D01*
X482535Y143964D01*
X481320Y142144D01*
X480893Y139998D01*
X481320Y137852D01*
X482535Y136033D01*
X484355Y134817D01*
X486500Y134391D01*
X488646Y134817D01*
X490466Y136033D01*
X491681Y137852D01*
X492108Y139998D01*
X491681Y142144D01*
X490466Y143964D01*
X488646Y145179D01*
X486500Y145606D01*
D02*
G37*
G36*
X466500D02*
X464354Y145179D01*
X462535Y143964D01*
X461320Y142144D01*
X460893Y139998D01*
X461320Y137852D01*
X462535Y136033D01*
X464354Y134817D01*
X466500Y134391D01*
X468646Y134817D01*
X470466Y136033D01*
X471681Y137852D01*
X472108Y139998D01*
X471681Y142144D01*
X470466Y143964D01*
X468646Y145179D01*
X466500Y145606D01*
D02*
G37*
G36*
X449000D02*
X446855Y145179D01*
X445035Y143964D01*
X443820Y142144D01*
X443393Y139998D01*
X443820Y137852D01*
X445035Y136033D01*
X446855Y134817D01*
X449000Y134391D01*
X451146Y134817D01*
X452966Y136033D01*
X454181Y137852D01*
X454608Y139998D01*
X454181Y142144D01*
X452966Y143964D01*
X451146Y145179D01*
X449000Y145606D01*
D02*
G37*
G36*
X789000Y463106D02*
X786854Y462679D01*
X785035Y461464D01*
X783820Y459644D01*
X783393Y457498D01*
X783820Y455352D01*
X784549Y454260D01*
Y138392D01*
X784290Y138218D01*
X783074Y136399D01*
X782648Y134253D01*
X783074Y132107D01*
X784290Y130288D01*
X786109Y129072D01*
X788255Y128645D01*
X790401Y129072D01*
X792221Y130288D01*
X793436Y132107D01*
X793863Y134253D01*
X793436Y136399D01*
X792706Y137492D01*
Y453360D01*
X792966Y453533D01*
X794181Y455352D01*
X794608Y457498D01*
X794181Y459644D01*
X792966Y461464D01*
X791146Y462679D01*
X789000Y463106D01*
D02*
G37*
G36*
X396501Y130606D02*
X394355Y130179D01*
X392535Y128964D01*
X391320Y127144D01*
X390893Y124998D01*
X391320Y122852D01*
X392535Y121033D01*
X394355Y119817D01*
X396501Y119391D01*
X398646Y119817D01*
X400466Y121033D01*
X401681Y122852D01*
X402108Y124998D01*
X401681Y127144D01*
X400466Y128964D01*
X398646Y130179D01*
X396501Y130606D01*
D02*
G37*
G36*
X376500D02*
X374354Y130179D01*
X372535Y128964D01*
X371320Y127144D01*
X370893Y124998D01*
X371320Y122852D01*
X372535Y121033D01*
X374354Y119817D01*
X376500Y119391D01*
X378646Y119817D01*
X380466Y121033D01*
X381681Y122852D01*
X382108Y124998D01*
X381681Y127144D01*
X380466Y128964D01*
X378646Y130179D01*
X376500Y130606D01*
D02*
G37*
G36*
X711500Y129606D02*
X709354Y129179D01*
X707535Y127964D01*
X706320Y126144D01*
X705893Y123998D01*
X706320Y121852D01*
X707535Y120033D01*
X709354Y118817D01*
X711500Y118391D01*
X713646Y118817D01*
X715466Y120033D01*
X716681Y121852D01*
X717108Y123998D01*
X716681Y126144D01*
X715466Y127964D01*
X713646Y129179D01*
X711500Y129606D01*
D02*
G37*
G36*
X506500Y125606D02*
X504354Y125179D01*
X502535Y123964D01*
X501320Y122144D01*
X500893Y119998D01*
X501320Y117852D01*
X502535Y116033D01*
X504354Y114817D01*
X506500Y114391D01*
X508646Y114817D01*
X510466Y116033D01*
X511681Y117852D01*
X512108Y119998D01*
X511681Y122144D01*
X510466Y123964D01*
X508646Y125179D01*
X506500Y125606D01*
D02*
G37*
G36*
X486500D02*
X484355Y125179D01*
X482535Y123964D01*
X481320Y122144D01*
X480893Y119998D01*
X481320Y117852D01*
X482535Y116033D01*
X484355Y114817D01*
X486500Y114391D01*
X488646Y114817D01*
X490466Y116033D01*
X491681Y117852D01*
X492108Y119998D01*
X491681Y122144D01*
X490466Y123964D01*
X488646Y125179D01*
X486500Y125606D01*
D02*
G37*
G36*
X466500D02*
X464354Y125179D01*
X462535Y123964D01*
X461320Y122144D01*
X460893Y119998D01*
X461320Y117852D01*
X462535Y116033D01*
X464354Y114817D01*
X466500Y114391D01*
X468646Y114817D01*
X470466Y116033D01*
X471681Y117852D01*
X472108Y119998D01*
X471681Y122144D01*
X470466Y123964D01*
X468646Y125179D01*
X466500Y125606D01*
D02*
G37*
G36*
X76500Y118106D02*
X74354Y117679D01*
X72535Y116464D01*
X71320Y114644D01*
X70893Y112498D01*
X71320Y110352D01*
X72535Y108533D01*
X74354Y107317D01*
X76500Y106891D01*
X78646Y107317D01*
X80466Y108533D01*
X81681Y110352D01*
X82108Y112498D01*
X81681Y114644D01*
X80466Y116464D01*
X78646Y117679D01*
X76500Y118106D01*
D02*
G37*
G36*
X396501Y110606D02*
X394355Y110179D01*
X392535Y108964D01*
X391320Y107144D01*
X390893Y104998D01*
X391320Y102852D01*
X392535Y101033D01*
X394355Y99817D01*
X396501Y99391D01*
X398646Y99817D01*
X400466Y101033D01*
X401681Y102852D01*
X402108Y104998D01*
X401681Y107144D01*
X400466Y108964D01*
X398646Y110179D01*
X396501Y110606D01*
D02*
G37*
G36*
X376500D02*
X374354Y110179D01*
X372535Y108964D01*
X371320Y107144D01*
X370893Y104998D01*
X371320Y102852D01*
X372535Y101033D01*
X374354Y99817D01*
X376500Y99391D01*
X378646Y99817D01*
X380466Y101033D01*
X381681Y102852D01*
X382108Y104998D01*
X381681Y107144D01*
X380466Y108964D01*
X378646Y110179D01*
X376500Y110606D01*
D02*
G37*
G36*
X654500Y104606D02*
X652354Y104179D01*
X650535Y102964D01*
X649320Y101144D01*
X648893Y98998D01*
X649320Y96852D01*
X650535Y95033D01*
X652354Y93817D01*
X654500Y93391D01*
X656646Y93817D01*
X658466Y95033D01*
X659681Y96852D01*
X660108Y98998D01*
X659681Y101144D01*
X658466Y102964D01*
X656646Y104179D01*
X654500Y104606D01*
D02*
G37*
G36*
X396501Y90606D02*
X394355Y90179D01*
X392535Y88964D01*
X391320Y87144D01*
X390893Y84998D01*
X391320Y82852D01*
X392535Y81033D01*
X394355Y79817D01*
X396501Y79391D01*
X398646Y79817D01*
X400466Y81033D01*
X401681Y82852D01*
X402108Y84998D01*
X401681Y87144D01*
X400466Y88964D01*
X398646Y90179D01*
X396501Y90606D01*
D02*
G37*
G36*
X376500D02*
X374354Y90179D01*
X372535Y88964D01*
X371320Y87144D01*
X370893Y84998D01*
X371320Y82852D01*
X372535Y81033D01*
X374354Y79817D01*
X376500Y79391D01*
X378646Y79817D01*
X380466Y81033D01*
X381681Y82852D01*
X382108Y84998D01*
X381681Y87144D01*
X380466Y88964D01*
X378646Y90179D01*
X376500Y90606D01*
D02*
G37*
G36*
X254000Y83106D02*
X251854Y82679D01*
X250035Y81464D01*
X248820Y79644D01*
X248393Y77498D01*
X248820Y75352D01*
X250035Y73533D01*
X251854Y72317D01*
X254000Y71891D01*
X256146Y72317D01*
X257966Y73533D01*
X259181Y75352D01*
X259608Y77498D01*
X259181Y79644D01*
X257966Y81464D01*
X256146Y82679D01*
X254000Y83106D01*
D02*
G37*
G36*
X231500D02*
X229354Y82679D01*
X227535Y81464D01*
X226320Y79644D01*
X225893Y77498D01*
X226320Y75352D01*
X227535Y73533D01*
X229354Y72317D01*
X231500Y71891D01*
X233646Y72317D01*
X235466Y73533D01*
X236681Y75352D01*
X237108Y77498D01*
X236681Y79644D01*
X235466Y81464D01*
X233646Y82679D01*
X231500Y83106D01*
D02*
G37*
G36*
X209000D02*
X206854Y82679D01*
X205035Y81464D01*
X203820Y79644D01*
X203393Y77498D01*
X203820Y75352D01*
X205035Y73533D01*
X206854Y72317D01*
X209000Y71891D01*
X211146Y72317D01*
X212966Y73533D01*
X214181Y75352D01*
X214608Y77498D01*
X214181Y79644D01*
X212966Y81464D01*
X211146Y82679D01*
X209000Y83106D01*
D02*
G37*
G36*
X538251Y79856D02*
X536105Y79429D01*
X534285Y78214D01*
X533070Y76394D01*
X532643Y74248D01*
X533070Y72102D01*
X534285Y70283D01*
X536105Y69068D01*
X538251Y68641D01*
X540396Y69068D01*
X542216Y70283D01*
X543431Y72102D01*
X543858Y74248D01*
X543431Y76394D01*
X542216Y78214D01*
X540396Y79429D01*
X538251Y79856D01*
D02*
G37*
G36*
X416500Y70606D02*
X414354Y70179D01*
X412535Y68964D01*
X411320Y67144D01*
X410893Y64998D01*
X411320Y62852D01*
X412535Y61033D01*
X414354Y59817D01*
X416500Y59391D01*
X418646Y59817D01*
X420466Y61033D01*
X421681Y62852D01*
X422108Y64998D01*
X421681Y67144D01*
X420466Y68964D01*
X418646Y70179D01*
X416500Y70606D01*
D02*
G37*
G36*
X396501D02*
X394355Y70179D01*
X392535Y68964D01*
X391320Y67144D01*
X390893Y64998D01*
X391320Y62852D01*
X392535Y61033D01*
X394355Y59817D01*
X396501Y59391D01*
X398646Y59817D01*
X400466Y61033D01*
X401681Y62852D01*
X402108Y64998D01*
X401681Y67144D01*
X400466Y68964D01*
X398646Y70179D01*
X396501Y70606D01*
D02*
G37*
G36*
X376500D02*
X374354Y70179D01*
X372535Y68964D01*
X371320Y67144D01*
X370893Y64998D01*
X371320Y62852D01*
X372535Y61033D01*
X374354Y59817D01*
X376500Y59391D01*
X378646Y59817D01*
X380466Y61033D01*
X381681Y62852D01*
X382108Y64998D01*
X381681Y67144D01*
X380466Y68964D01*
X378646Y70179D01*
X376500Y70606D01*
D02*
G37*
G36*
X396501Y50606D02*
X394355Y50179D01*
X392535Y48964D01*
X391320Y47144D01*
X390893Y44998D01*
X391320Y42852D01*
X392535Y41033D01*
X394355Y39817D01*
X396501Y39391D01*
X398646Y39817D01*
X400466Y41033D01*
X401681Y42852D01*
X402108Y44998D01*
X401681Y47144D01*
X400466Y48964D01*
X398646Y50179D01*
X396501Y50606D01*
D02*
G37*
G36*
X376500D02*
X374354Y50179D01*
X372535Y48964D01*
X371320Y47144D01*
X370893Y44998D01*
X371320Y42852D01*
X372535Y41033D01*
X374354Y39817D01*
X376500Y39391D01*
X378646Y39817D01*
X380466Y41033D01*
X381681Y42852D01*
X382108Y44998D01*
X381681Y47144D01*
X380466Y48964D01*
X378646Y50179D01*
X376500Y50606D01*
D02*
G37*
G36*
X323438Y47708D02*
X321292Y47281D01*
X319472Y46066D01*
X318257Y44246D01*
X317830Y42100D01*
X318257Y39954D01*
X319472Y38135D01*
X321292Y36920D01*
X323438Y36493D01*
X325583Y36920D01*
X327403Y38135D01*
X328618Y39954D01*
X329045Y42100D01*
X328618Y44246D01*
X327403Y46066D01*
X325583Y47281D01*
X323438Y47708D01*
D02*
G37*
G36*
X269440Y47666D02*
X267295Y47239D01*
X265475Y46024D01*
X264260Y44204D01*
X263833Y42058D01*
X264260Y39912D01*
X265475Y38093D01*
X267295Y36877D01*
X269440Y36451D01*
X271586Y36877D01*
X273406Y38093D01*
X274621Y39912D01*
X275048Y42058D01*
X274621Y44204D01*
X273406Y46024D01*
X271586Y47239D01*
X269440Y47666D01*
D02*
G37*
G36*
X176500Y40606D02*
X174354Y40179D01*
X172535Y38964D01*
X171320Y37144D01*
X170893Y34998D01*
X171320Y32852D01*
X172535Y31033D01*
X174354Y29817D01*
X176500Y29391D01*
X178646Y29817D01*
X180466Y31033D01*
X181681Y32852D01*
X182108Y34998D01*
X181681Y37144D01*
X180466Y38964D01*
X178646Y40179D01*
X176500Y40606D01*
D02*
G37*
G36*
X446500Y39057D02*
X445330Y38824D01*
X444338Y38161D01*
X443675Y37169D01*
X443453Y36057D01*
X421050D01*
X419880Y35824D01*
X418888Y35161D01*
X418224Y34169D01*
X417992Y32998D01*
Y27498D01*
X418224Y26328D01*
X418888Y25335D01*
X419880Y24672D01*
X421050Y24439D01*
X449950D01*
X449950Y24439D01*
X451121Y24672D01*
X452113Y25335D01*
X452113Y25336D01*
X452663Y25885D01*
X453326Y26878D01*
X453559Y28048D01*
X453559Y28048D01*
Y35998D01*
X453326Y37169D01*
X452663Y38161D01*
X451671Y38824D01*
X450500Y39057D01*
X446501D01*
X446500Y39057D01*
D02*
G37*
%LPD*%
G36*
X450734Y626764D02*
X450383Y624998D01*
X450849Y622657D01*
X451285Y622004D01*
X450279Y620998D01*
X437091D01*
X436500Y621116D01*
X435910Y620998D01*
X422722D01*
X421501Y622220D01*
X421500Y625998D01*
X429500Y632998D01*
X444500D01*
X450734Y626764D01*
D02*
G37*
G36*
X513504Y684438D02*
X513820Y682852D01*
X514667Y681584D01*
Y664293D01*
X499706Y649332D01*
X480205D01*
X479820Y650602D01*
X480466Y651033D01*
X481681Y652852D01*
X482068Y654799D01*
X512179Y684909D01*
X513504Y684438D01*
D02*
G37*
G36*
X814833Y707702D02*
X817907D01*
Y706128D01*
X814833D01*
Y700554D01*
X813389D01*
X805094Y706424D01*
Y707702D01*
X813389D01*
Y709442D01*
X814833D01*
Y707702D01*
D02*
G37*
%LPC*%
G36*
X813389Y706128D02*
X807649D01*
X813389Y702091D01*
Y706128D01*
D02*
G37*
%LPD*%
G36*
X391961Y542114D02*
X393284Y541230D01*
X394845Y540920D01*
X394845Y540920D01*
X412704D01*
X413133Y540633D01*
Y539363D01*
X412535Y538964D01*
X411320Y537144D01*
X410893Y534998D01*
Y530248D01*
X407500D01*
Y509748D01*
X421460D01*
Y508668D01*
X429000D01*
Y507398D01*
X430270D01*
Y501858D01*
X440230D01*
Y507398D01*
X442770D01*
Y501858D01*
X449040D01*
Y502531D01*
X450214Y503017D01*
X452884Y500347D01*
X452358Y499077D01*
X379824D01*
X379439Y500347D01*
X380466Y501033D01*
X381681Y502852D01*
X382108Y504998D01*
X381681Y507144D01*
X380466Y508964D01*
X378646Y510179D01*
X376500Y510606D01*
X374354Y510179D01*
X372704Y509077D01*
X370690D01*
X370579Y509188D01*
Y519848D01*
X379770D01*
Y520308D01*
X382100D01*
Y526048D01*
Y532725D01*
X381924Y533058D01*
X382343Y535163D01*
X382013Y536818D01*
X382100Y536943D01*
Y543828D01*
X384640D01*
Y538088D01*
X388910D01*
Y543505D01*
X390084Y543991D01*
X391961Y542114D01*
D02*
G37*
%LPC*%
G36*
X398520Y529788D02*
Y521268D01*
X405040D01*
Y529788D01*
X398520D01*
D02*
G37*
G36*
X405040Y518728D02*
X398520D01*
Y510208D01*
X405040D01*
Y518728D01*
D02*
G37*
G36*
X388910Y531788D02*
X384640D01*
Y526048D01*
Y520308D01*
X388910Y520308D01*
X389460Y519266D01*
Y510208D01*
X395980D01*
Y519998D01*
Y529788D01*
X390180D01*
X389460Y529788D01*
X388910Y530830D01*
Y531788D01*
D02*
G37*
G36*
X427730Y506128D02*
X421460D01*
Y501858D01*
X427730D01*
Y506128D01*
D02*
G37*
%LPD*%
D10*
X519000Y662498D02*
Y679998D01*
Y684998D01*
X501500Y644998D02*
X519000Y662498D01*
X335000Y389998D02*
X399000D01*
X313750Y411248D02*
X335000Y389998D01*
X150081Y370579D02*
X150500Y370998D01*
X142500Y365998D02*
X147081Y370579D01*
X150081D01*
X129500Y309498D02*
X151500Y331498D01*
Y358998D01*
X142500Y336998D02*
Y365998D01*
X122500Y316998D02*
X142500Y336998D01*
X151500Y79998D02*
X166500Y64998D01*
X206500D01*
X466500Y644998D02*
X501500D01*
X166501Y49998D02*
X206500D01*
X165501Y50998D02*
X166501Y49998D01*
X156501Y59998D02*
X165501Y50998D01*
X151500Y79998D02*
Y249998D01*
X141500Y74999D02*
X156501Y59998D01*
X141500Y74999D02*
Y249998D01*
D12*
X518500Y301998D02*
X546500Y329998D01*
X200500Y301998D02*
X518500D01*
X456500Y614998D02*
X458000Y616498D01*
X456500Y594998D02*
X457680Y596178D01*
X456500Y574998D02*
X457360Y575858D01*
X456501Y564998D02*
X457370Y564128D01*
X456500Y549998D02*
Y554998D01*
X457570Y548928D02*
X466200D01*
X456500Y549998D02*
X457570Y548928D01*
X486500Y594998D02*
X488070Y596568D01*
X486750Y595248D02*
X488070Y593928D01*
X486500Y595498D02*
X486750Y595248D01*
X416500Y554998D02*
X436500D01*
X457360Y575858D02*
X466200D01*
X182100Y303998D02*
X190080D01*
X192500Y301998D02*
X200500D01*
X182100Y305998D02*
Y313984D01*
Y303998D02*
Y305998D01*
X398890Y574868D02*
X406370D01*
X406500Y574998D01*
X182100Y248998D02*
Y260998D01*
Y279998D02*
Y291998D01*
X198230Y230138D02*
X200500Y232408D01*
Y301998D01*
X102114Y301885D02*
X102727Y302498D01*
X114500D01*
X144000D01*
X113500Y228998D02*
Y301498D01*
X114500Y302498D01*
X154000Y312498D02*
X159000Y317498D01*
X154000Y312498D02*
Y312498D01*
X159000Y317498D02*
X178586D01*
X144000Y302498D02*
X154000Y312498D01*
X178586Y317498D02*
X182100Y313984D01*
X190080Y303998D02*
X192500Y301578D01*
X496500Y595498D02*
X497671Y594328D01*
X488070Y585738D02*
Y593928D01*
X497671Y585738D02*
Y594328D01*
X373770Y526048D02*
Y532709D01*
X376225Y535163D01*
X373770Y567728D02*
X376500Y564998D01*
X373770Y562268D02*
X376500Y564998D01*
X383371Y561868D02*
X386500Y564998D01*
X383371Y556528D02*
Y561868D01*
Y568128D02*
Y574308D01*
Y568128D02*
X386500Y564998D01*
X383370Y526048D02*
Y531868D01*
X386500Y534998D01*
X373770Y536415D02*
X375370Y534815D01*
X383370Y538128D02*
X386500Y534998D01*
X373770Y536415D02*
Y543828D01*
X383370Y538128D02*
Y543828D01*
X373770Y556528D02*
Y562268D01*
Y567728D02*
Y574308D01*
X456501Y584998D02*
X456960Y585458D01*
X466200D01*
X457680Y596178D02*
X466200D01*
X456501Y604998D02*
X457280Y605778D01*
X466200D01*
X458000Y616498D02*
X466200D01*
X456501Y624998D02*
X457600Y626098D01*
X466200D01*
X457370Y564128D02*
X466200D01*
X442860Y593638D02*
X444000Y592498D01*
X446500Y584998D02*
Y594998D01*
X436990Y593638D02*
X442860D01*
X436990Y603238D02*
X444740D01*
X446500Y604998D01*
X436500Y603728D02*
X436990Y603238D01*
X436500Y603728D02*
Y614998D01*
X405970Y584468D02*
X406500Y584998D01*
X398890Y584468D02*
X405970D01*
X398890Y625388D02*
X406110D01*
X406500Y624998D01*
X398890Y634988D02*
X398900Y634998D01*
X406500D01*
X373770Y597728D02*
X376500Y594998D01*
X373770Y597728D02*
Y603518D01*
Y592268D02*
X376500Y594998D01*
X373770Y587008D02*
Y592268D01*
X496500Y534998D02*
X497671Y536168D01*
Y543828D01*
X496500Y534998D02*
X497671Y533828D01*
Y526048D02*
Y533828D01*
X486500Y534998D02*
X488070Y533428D01*
Y526048D02*
Y533428D01*
X486500Y534998D02*
X488070Y536568D01*
Y543828D01*
X496500Y594998D02*
X497671Y596168D01*
Y603518D01*
X488070Y596568D02*
Y603518D01*
X496500Y564998D02*
X497670Y563828D01*
Y556528D02*
Y563828D01*
X496500Y564998D02*
X497670Y566168D01*
Y573038D01*
X486500Y564998D02*
X488070Y563428D01*
Y556528D02*
Y563428D01*
X486500Y564998D02*
X488070Y566568D01*
Y573038D01*
X416500Y564998D02*
X436500D01*
X396501Y610098D02*
X401400D01*
X406500Y604998D01*
X396501Y594898D02*
X396600Y594998D01*
X406500D01*
D14*
X507672Y629998D02*
X517854Y640181D01*
X486500Y629998D02*
X507672D01*
X481500Y634998D02*
X486500Y629998D01*
X476500Y654998D02*
X515000Y693498D01*
Y718411D01*
X601500Y621927D02*
Y814998D01*
X579571Y599998D02*
X601500Y621927D01*
X509000Y599998D02*
X579571D01*
X573680Y609999D02*
X586500Y622819D01*
X516501Y609999D02*
X573680D01*
X516500Y609998D02*
X516501Y609999D01*
X586500Y622819D02*
Y814998D01*
X72253Y812176D02*
Y897579D01*
Y812176D02*
X84431Y799998D01*
X206500D01*
X466500Y634998D02*
X481500D01*
X105145Y814854D02*
Y826608D01*
X115000Y804998D02*
X207500D01*
X105145Y814854D02*
X115000Y804998D01*
X453000Y513499D02*
X459001Y507499D01*
X453000Y513499D02*
Y530948D01*
X449000Y509998D02*
Y529998D01*
X439000Y539998D02*
X449000Y529998D01*
Y509998D02*
X459000Y499998D01*
X369000Y504998D02*
X376500D01*
X366500Y507498D02*
Y547498D01*
Y507498D02*
X369000Y504998D01*
X366500Y547498D02*
X369000Y549998D01*
X389845D01*
X394845Y544998D02*
X416501D01*
X389845Y549998D02*
X394845Y544998D01*
X292141Y522568D02*
Y545623D01*
X289482Y548282D02*
X292141Y545623D01*
X256082Y549065D02*
X258741Y546405D01*
X240161Y549065D02*
X256082D01*
X273561Y548282D02*
X289482D01*
X270901Y545623D02*
X273561Y548282D01*
X462580Y494998D02*
X465938Y498356D01*
X300410Y514299D02*
X319710Y494998D01*
X462580D01*
X270901Y516474D02*
Y545623D01*
X258741Y516474D02*
Y546405D01*
X292141Y522568D02*
X300410Y514299D01*
X258741Y516474D02*
X270901D01*
X222682Y549065D02*
X225341Y546405D01*
X237501D02*
X240161Y549065D01*
X206761D02*
X222682D01*
X204101Y530710D02*
Y546405D01*
X206761Y549065D01*
X189000Y538083D02*
X189000Y538083D01*
X190172Y529834D02*
X199022D01*
X189000Y531006D02*
Y538083D01*
X237501Y516474D02*
Y546405D01*
X225341Y516474D02*
Y546405D01*
Y516474D02*
X237501D01*
X202929Y529538D02*
X204101Y530710D01*
X199022Y529834D02*
X199318Y529538D01*
X189000Y531006D02*
X190172Y529834D01*
X200600Y529538D02*
X202929D01*
X199318D02*
X200600D01*
X275441Y543742D02*
X287601D01*
Y520687D02*
Y543742D01*
X254201Y514594D02*
Y544525D01*
X275441Y514594D02*
Y543742D01*
X256861Y511934D02*
X272782D01*
X464460Y490458D02*
X470478Y496475D01*
X317830Y490458D02*
X464460D01*
X287601Y520687D02*
X297354Y510934D01*
X272782Y511934D02*
X275441Y514594D01*
X297354Y510934D02*
X317830Y490458D01*
X242041Y544525D02*
X254201D01*
X208641D02*
X220801D01*
X208641Y528829D02*
Y544525D01*
X204810Y524998D02*
X208641Y528829D01*
X200600Y524998D02*
X204810D01*
X190172D02*
X200600D01*
X189000Y517045D02*
Y523827D01*
X190172Y524998D01*
X254201Y514594D02*
X256861Y511934D01*
X242041Y514594D02*
Y544525D01*
X239382Y511934D02*
X242041Y514594D01*
X223461Y511934D02*
X239382D01*
X220801Y514594D02*
Y544525D01*
Y514594D02*
X223461Y511934D01*
X473911Y521597D02*
X476500Y524187D01*
X457671Y528669D02*
X459230Y530228D01*
Y532268D01*
X456500Y534998D02*
X459230Y532268D01*
X473911Y520517D02*
Y521597D01*
X462211Y520709D02*
Y526788D01*
X463770Y528348D02*
Y532268D01*
X467785Y520222D02*
X476960Y511047D01*
X467211Y524717D02*
X467785Y524143D01*
X476500Y524187D02*
Y524998D01*
X467785Y520222D02*
Y524143D01*
X437075Y544424D02*
X439524D01*
X453000Y530948D01*
X457671Y518828D02*
Y528669D01*
X462211Y526788D02*
X463770Y528348D01*
Y532268D02*
X466500Y534998D01*
X457671Y518828D02*
X465938Y510561D01*
X470478Y496475D02*
Y512442D01*
X462211Y520709D02*
X470478Y512442D01*
X473911Y520517D02*
X481500Y512927D01*
X476960Y489379D02*
Y511047D01*
X465938Y498356D02*
Y510561D01*
X481500Y487498D02*
Y512927D01*
X458770Y479361D02*
X466943D01*
X476960Y489379D01*
X458826Y474821D02*
X468823D01*
X481500Y487498D01*
X432084Y482418D02*
X439164D01*
X415924Y476298D02*
Y482418D01*
X432084Y476298D02*
Y482418D01*
X456496Y474821D02*
X458826D01*
X408844Y482418D02*
X415924D01*
X455324Y473649D02*
X456496Y474821D01*
X455324Y469207D02*
Y473649D01*
X429425Y473638D02*
X432084Y476298D01*
X439164Y469207D02*
Y482418D01*
X441824Y466547D02*
X452665D01*
X455324Y469207D01*
X439164D02*
X441824Y466547D01*
X415924Y476298D02*
X418584Y473638D01*
X429425D01*
X392685Y469207D02*
Y482418D01*
X408844Y469207D02*
Y482418D01*
X395344Y466547D02*
X406185D01*
X408844Y469207D01*
X392685D02*
X395344Y466547D01*
X385605Y482418D02*
X392685D01*
X362365Y469207D02*
Y482418D01*
X339125D02*
X346205D01*
X362365D02*
X369445D01*
X315885D02*
X322965D01*
X315885Y478652D02*
Y482418D01*
X312054Y474821D02*
X315885Y478652D01*
X190172Y482498D02*
X292580D01*
X300257Y474821D01*
X189000Y481327D02*
X190172Y482498D01*
X189000Y474969D02*
Y481327D01*
X300257Y474821D02*
X300576D01*
X312054D01*
X385605Y469207D02*
Y482418D01*
X382945Y466547D02*
X385605Y469207D01*
X369445D02*
Y482418D01*
Y469207D02*
X372104Y466547D01*
X359705D02*
X362365Y469207D01*
X372104Y466547D02*
X382945D01*
X348864D02*
X359705D01*
X346205Y469207D02*
Y482418D01*
Y469207D02*
X348864Y466547D01*
X322965Y469207D02*
Y482418D01*
X339125Y469207D02*
Y482418D01*
X325624Y466547D02*
X336465D01*
X339125Y469207D01*
X322965D02*
X325624Y466547D01*
X430204Y486958D02*
X441045D01*
X406964D02*
X417805D01*
X420464Y484299D01*
X394565Y486958D02*
X397225Y484299D01*
X404304D02*
X406964Y486958D01*
X383724D02*
X394565D01*
X458770Y479361D02*
X458826Y479416D01*
X441045Y486958D02*
X443704Y484299D01*
Y471087D02*
Y484299D01*
X454615Y479361D02*
X458770D01*
X450784Y475530D02*
X454615Y479361D01*
X443704Y471087D02*
X450784D01*
Y475530D01*
X427544Y484299D02*
X430204Y486958D01*
X427544Y478178D02*
Y484299D01*
X420464Y478178D02*
Y484299D01*
X404304Y471087D02*
Y484299D01*
X420464Y478178D02*
X427544D01*
X397225Y471087D02*
Y484299D01*
Y471087D02*
X404304D01*
X337244Y486958D02*
X348085D01*
X350745Y484299D01*
X324845Y486958D02*
X327505Y484299D01*
X334585D02*
X337244Y486958D01*
X371325D02*
X373984Y484299D01*
X381064D02*
X383724Y486958D01*
X360484D02*
X371325D01*
X357825Y484299D02*
X360484Y486958D01*
X189000Y488930D02*
Y496007D01*
Y488930D02*
X190172Y487758D01*
X189000Y496007D02*
X189000Y496007D01*
X314004Y486958D02*
X324845D01*
X311345Y484299D02*
X314004Y486958D01*
X190172Y487758D02*
X293741D01*
X373984Y471087D02*
Y484299D01*
X381064Y471087D02*
Y484299D01*
X350745Y471087D02*
Y484299D01*
X357825Y471087D02*
Y484299D01*
X350745Y471087D02*
X357825D01*
X373984D02*
X381064D01*
X327505D02*
X334585D01*
X327505D02*
Y484299D01*
X334585Y471087D02*
Y484299D01*
X293741Y487758D02*
X300576Y480923D01*
X311345Y480533D02*
Y484299D01*
X302138Y479361D02*
X310173D01*
X311345Y480533D01*
X300576Y480923D02*
X302138Y479361D01*
X486500Y504998D02*
Y515404D01*
X481500Y520404D02*
Y529998D01*
Y520404D02*
X486500Y515404D01*
X471501Y539998D02*
X481500Y529998D01*
X449000Y539998D02*
X471501D01*
X446500Y542498D02*
Y554998D01*
Y542498D02*
X449000Y539998D01*
X436500Y544998D02*
X437075Y544424D01*
X431501Y539998D02*
X439000D01*
X426500Y544998D02*
X431501Y539998D01*
X113258Y453269D02*
Y456806D01*
X117798Y454926D02*
X123879Y461007D01*
X141750Y462748D02*
X157941Y446557D01*
X153401Y414956D02*
Y444677D01*
X118970Y452098D02*
X126637D01*
X121998Y465547D02*
X138952D01*
X137072Y461007D02*
X138540Y459538D01*
X117798Y453269D02*
X118970Y452098D01*
X113258Y456806D02*
X121998Y465547D01*
X157941Y416836D02*
Y446557D01*
X138952Y465547D02*
X141750Y462748D01*
X123879Y461007D02*
X137072D01*
X138540Y459538D02*
X153401Y444677D01*
X112086Y452098D02*
X113258Y453269D01*
X126637Y452098D02*
X128228Y450507D01*
X117798Y453269D02*
Y454926D01*
X157941Y416836D02*
X161015Y413763D01*
X153401Y414956D02*
X157805Y410553D01*
X130290Y490947D02*
X145773D01*
X155500Y481219D01*
Y479099D02*
Y481219D01*
Y479099D02*
X156672Y477928D01*
X160256D01*
X167922Y470262D01*
Y466501D02*
Y470262D01*
X159966Y458545D02*
X167922Y466501D01*
X159966Y456888D02*
Y458545D01*
Y456888D02*
X168183Y448671D01*
Y448671D02*
X169830Y447024D01*
X125750Y486407D02*
X143893D01*
X150961Y479339D01*
Y477219D02*
Y479339D01*
Y477219D02*
X154791Y473388D01*
X158376D01*
X158376D02*
X163382Y468382D01*
X155426Y460425D02*
X163382Y468382D01*
X155426Y455008D02*
Y460425D01*
Y455008D02*
X164972Y445461D01*
X164972D01*
X166620Y443814D01*
X121998Y490947D02*
X130290D01*
X123879Y486407D02*
X125750D01*
X164649Y483218D02*
X171750D01*
X160818Y487049D02*
X164649Y483218D01*
X160818Y487049D02*
Y517346D01*
X153738D02*
X160818D01*
X153738Y503726D02*
Y517346D01*
X149907Y499895D02*
X153738Y503726D01*
X144489Y499895D02*
X149907D01*
X132577Y511807D02*
X144489Y499895D01*
X123879Y511807D02*
X132577D01*
X122457Y510384D02*
X123879Y511807D01*
X166530Y487758D02*
X171750D01*
X165358Y488930D02*
X166530Y487758D01*
X165358Y488930D02*
Y519226D01*
X162698Y521886D02*
X165358Y519226D01*
X151857Y521886D02*
X162698D01*
X149198Y519226D02*
X151857Y521886D01*
X149198Y505606D02*
Y519226D01*
X148026Y504435D02*
X149198Y505606D01*
X146370Y504435D02*
X148026D01*
X134458Y516347D02*
X146370Y504435D01*
X122457Y516347D02*
X134458D01*
X164113Y525294D02*
X169627D01*
X160282Y529125D02*
X164113Y525294D01*
X160282Y529125D02*
Y546322D01*
X159220Y547384D02*
X160282Y546322D01*
X154264Y547384D02*
X159220D01*
X153202Y546322D02*
X154264Y547384D01*
X153202Y534427D02*
Y546322D01*
X149480Y530705D02*
X153202Y534427D01*
X140763Y530705D02*
X149480D01*
X137042Y534427D02*
X140763Y530705D01*
X137042Y534427D02*
Y547641D01*
X135980Y548703D02*
X137042Y547641D01*
X131024Y548703D02*
X135980D01*
X129962Y547641D02*
X131024Y548703D01*
X129962Y541038D02*
Y547641D01*
X126131Y537207D02*
X129962Y541038D01*
X123879Y537207D02*
X126131D01*
X121920Y535248D02*
X123879Y537207D01*
X165993Y529834D02*
X169627D01*
X164822Y531006D02*
X165993Y529834D01*
X164822Y531006D02*
Y548202D01*
X161100Y551924D02*
X164822Y548202D01*
X152383Y551924D02*
X161100D01*
X148662Y548202D02*
X152383Y551924D01*
X148662Y536307D02*
Y548202D01*
X147600Y535245D02*
X148662Y536307D01*
X142644Y535245D02*
X147600D01*
X141582Y536307D02*
X142644Y535245D01*
X141582Y536307D02*
Y549522D01*
X137860Y553243D02*
X141582Y549522D01*
X129143Y553243D02*
X137860D01*
X125422Y549522D02*
X129143Y553243D01*
X125422Y542918D02*
Y549522D01*
X124250Y541747D02*
X125422Y542918D01*
X121998Y541747D02*
X124250D01*
X121920Y541669D02*
X121998Y541747D01*
X117798Y531126D02*
X121920Y535248D01*
X113258Y533006D02*
X121920Y541669D01*
X169830Y447024D02*
X171172Y445682D01*
X166620Y443814D02*
X169292Y441142D01*
X171172Y445682D02*
X172829D01*
X161015Y413763D02*
X171172Y403606D01*
X157805Y410553D02*
X169292Y399066D01*
X113258Y482206D02*
X121998Y490947D01*
X117798Y480326D02*
X123879Y486407D01*
X117798Y505726D02*
X122457Y510384D01*
X121998Y516347D02*
X122457D01*
X113258Y507606D02*
X121998Y516347D01*
X169627Y525294D02*
X172829D01*
X169627Y529834D02*
X172829D01*
X171750Y483218D02*
X172829D01*
X171750Y487758D02*
X172829D01*
X270075Y441142D02*
X280076D01*
X266244Y444973D02*
X270075Y441142D01*
X266244Y444973D02*
Y445578D01*
X265536Y446286D02*
X266244Y445578D01*
X259872Y446286D02*
X265536D01*
X259164Y445578D02*
X259872Y446286D01*
X259164Y419497D02*
Y445578D01*
X255797Y416129D02*
X259164Y419497D01*
X246371Y416129D02*
X255797D01*
X243004Y419497D02*
X246371Y416129D01*
X243004Y419497D02*
Y445578D01*
X242296Y446286D02*
X243004Y445578D01*
X236632Y446286D02*
X242296D01*
X235924Y445578D02*
X236632Y446286D01*
X235924Y419497D02*
Y445578D01*
X232557Y416129D02*
X235924Y419497D01*
X223132Y416129D02*
X232557D01*
X219764Y419497D02*
X223132Y416129D01*
X219764Y419497D02*
Y445578D01*
X219056Y446286D02*
X219764Y445578D01*
X213392Y446286D02*
X219056D01*
X212684Y445578D02*
X213392Y446286D01*
X212684Y444973D02*
Y445578D01*
X208853Y441142D02*
X212684Y444973D01*
X204643Y441142D02*
X208853D01*
X271956Y445682D02*
X280076D01*
X270784Y446853D02*
X271956Y445682D01*
X270784Y446853D02*
Y447458D01*
X267417Y450826D02*
X270784Y447458D01*
X257992Y450826D02*
X267417D01*
X254624Y447458D02*
X257992Y450826D01*
X254624Y421377D02*
Y447458D01*
X253916Y420669D02*
X254624Y421377D01*
X248252Y420669D02*
X253916D01*
X247544Y421377D02*
X248252Y420669D01*
X247544Y421377D02*
Y447458D01*
X244177Y450826D02*
X247544Y447458D01*
X234751Y450826D02*
X244177D01*
X231384Y447458D02*
X234751Y450826D01*
X231384Y421377D02*
Y447458D01*
X230676Y420669D02*
X231384Y421377D01*
X225012Y420669D02*
X230676D01*
X224304Y421377D02*
X225012Y420669D01*
X224304Y421377D02*
Y447458D01*
X220937Y450826D02*
X224304Y447458D01*
X211512Y450826D02*
X220937D01*
X208144Y447458D02*
X211512Y450826D01*
X208144Y446853D02*
Y447458D01*
X206973Y445682D02*
X208144Y446853D01*
X204643Y445682D02*
X206973D01*
X204250Y399066D02*
X269969D01*
X204250Y403606D02*
X269969D01*
X255873Y705621D02*
X284123Y677371D01*
X259084Y708831D02*
X287334Y680582D01*
X284123Y677371D02*
X328766Y632728D01*
X194329Y767166D02*
X255873Y705621D01*
X287334Y680582D02*
X330647Y637268D01*
X196209Y771706D02*
X259084Y708831D01*
X302673Y621716D02*
X304321Y620069D01*
X302673Y621716D02*
X302673D01*
X292222Y632167D02*
X302673Y621716D01*
X292222Y632167D02*
Y637585D01*
X292222Y637585D01*
X287216Y642592D02*
X292222Y637585D01*
X287216Y642591D02*
X287216Y642592D01*
X281798Y642591D02*
X287216D01*
X280468Y643921D02*
X281798Y642591D01*
X280468Y643921D02*
Y643921D01*
X278821Y645569D02*
X280468Y643921D01*
X305884Y624926D02*
X307531Y623279D01*
X296762Y634048D02*
X305884Y624926D01*
X296762Y634048D02*
Y635705D01*
X296762Y635705D01*
Y639466D01*
X289097Y647132D02*
X296762Y639466D01*
X285336Y647132D02*
X289097D01*
X285335Y647131D02*
X285336Y647132D01*
X283678Y647131D02*
X285335D01*
X283678Y647132D02*
X283678Y647131D01*
X282031Y648779D02*
X283678Y647132D01*
X262592Y631634D02*
X264239Y629987D01*
X262592Y631634D02*
X262592D01*
X252432Y641794D02*
X262592Y631634D01*
X252432Y641794D02*
Y647212D01*
X252432Y647212D01*
X247426Y652218D02*
X252432Y647212D01*
X247426Y652218D02*
X247426Y652218D01*
X242008Y652218D02*
X247426D01*
X240678Y653548D02*
X242008Y652218D01*
X240678Y653548D02*
Y653548D01*
X239031Y655195D02*
X240678Y653548D01*
X265802Y634845D02*
X267449Y633197D01*
X256972Y643675D02*
X265802Y634845D01*
X256972Y643675D02*
Y645331D01*
X256972Y645332D01*
Y649093D01*
X249307Y656758D02*
X256972Y649093D01*
X245546Y656758D02*
X249307D01*
X245545Y656758D02*
X245546Y656758D01*
X243888Y656758D02*
X245545D01*
X243888Y656758D02*
X243888Y656758D01*
X242241Y658406D02*
X243888Y656758D01*
X304321Y620069D02*
X321661Y602728D01*
X199300Y725090D02*
X278821Y645569D01*
X307531Y623279D02*
X323542Y607268D01*
X201180Y729630D02*
X282031Y648779D01*
X211213Y683014D02*
X239031Y655195D01*
X213093Y687553D02*
X242241Y658406D01*
X264239Y629987D02*
X309748Y584478D01*
X267449Y633197D02*
X311628Y589018D01*
X225453Y645477D02*
X263775Y607155D01*
X223572Y640937D02*
X260565Y603945D01*
X263775Y607155D02*
X265422Y605508D01*
X267065Y603865D01*
Y598447D02*
Y603865D01*
X265565Y596947D02*
X267065Y598447D01*
X265565Y596947D02*
X270571Y591941D01*
X272071Y593441D01*
X277489D01*
X278819Y592111D01*
Y592111D02*
X280466Y590464D01*
X260565Y603945D02*
X262212Y602298D01*
Y602298D02*
Y602298D01*
Y602298D02*
X262525Y601985D01*
Y600328D02*
Y601985D01*
X261025Y598828D02*
X262525Y600328D01*
X261025Y595067D02*
Y598828D01*
Y595067D02*
X268690Y587401D01*
X272451D01*
X273951Y588901D01*
X275608D01*
X275609Y588901D01*
X275609D01*
X277256Y587254D01*
X280466Y590464D02*
X299269Y571661D01*
X277256Y587254D02*
X297388Y567121D01*
X190172Y441142D02*
X204643D01*
X190172Y445682D02*
X204643D01*
X280076Y441142D02*
X284065D01*
X280076Y445682D02*
X282184D01*
X269969Y399066D02*
X275568D01*
X190172D02*
X204250D01*
X269969Y403606D02*
X273687D01*
X190172D02*
X204250D01*
X501500Y514187D02*
Y514998D01*
X499000Y511687D02*
X501500Y514187D01*
X499000Y489998D02*
Y511687D01*
X467510Y458507D02*
X499000Y489998D01*
X301430Y458507D02*
X467510D01*
X284065Y441142D02*
X301430Y458507D01*
X189000Y439970D02*
X190172Y441142D01*
X189000Y432893D02*
Y439970D01*
X491500Y514187D02*
Y514998D01*
Y514187D02*
X494460Y511227D01*
Y491879D02*
Y511227D01*
X465629Y463047D02*
X494460Y491879D01*
X299550Y463047D02*
X465629D01*
X189000Y453931D02*
X189000Y453931D01*
X282184Y445682D02*
X299550Y463047D01*
X189000Y446853D02*
Y453931D01*
Y446853D02*
X190172Y445682D01*
X174000Y824998D02*
X179000Y819998D01*
X236500D01*
X156500Y812498D02*
X236500D01*
X146500Y822498D02*
Y912498D01*
Y822498D02*
X156500Y812498D01*
X236500D02*
X371501Y677498D01*
X236500Y819998D02*
X376500Y679998D01*
Y662498D02*
Y679998D01*
X371501Y659998D02*
Y677498D01*
X207500Y804998D02*
X356500Y655998D01*
Y655998D02*
Y655998D01*
Y655998D02*
X368501Y643998D01*
X395788Y644998D02*
X396501D01*
X388288Y652498D02*
X395788Y644998D01*
X386501Y652498D02*
X388288D01*
X376500Y662498D02*
X386501Y652498D01*
X377500Y643998D02*
X386500Y634998D01*
X368501Y643998D02*
X377500D01*
X371501Y624998D02*
X386500D01*
X364000Y632498D02*
X371501Y624998D01*
X364000Y632498D02*
Y642498D01*
X351500Y654998D02*
X364000Y642498D01*
X351500Y654998D02*
Y654998D01*
X206500Y799998D02*
X351500Y654998D01*
X346500Y729998D02*
X431500D01*
X371501Y659998D02*
X386500Y644998D01*
X788255Y134253D02*
X788628Y134626D01*
Y457126D01*
X789000Y457498D01*
X354235Y632322D02*
X355926D01*
X353829Y632728D02*
X354235Y632322D01*
X355926D02*
X356500Y631748D01*
X345640Y632728D02*
X353829D01*
X355926Y637674D02*
X356500Y638248D01*
X347520Y637268D02*
X347520Y637268D01*
X354235Y637674D02*
X355926D01*
X347520Y637268D02*
X353829D01*
X354235Y637674D01*
X319065Y442562D02*
X504065D01*
X317184Y447103D02*
X502184D01*
X524001Y468919D01*
X504065Y442562D02*
X528540Y467038D01*
X275568Y399066D02*
X319065Y442562D01*
X273687Y403606D02*
X317184Y447103D01*
X355689Y565998D02*
X356500D01*
X355403Y572784D02*
X356215D01*
X347449Y571661D02*
X354280D01*
X355403Y572784D01*
X354566Y567121D02*
X355689Y565998D01*
X345569Y567121D02*
X354566D01*
X345569Y567121D02*
X345569Y567121D01*
X299269Y571661D02*
X347449D01*
X347449Y571661D01*
X113258Y680829D02*
Y687735D01*
X117089Y676998D02*
X148080D01*
X111115Y689878D02*
X113258Y687735D01*
X119941Y689878D02*
X125741D01*
X128228Y692365D01*
X113258Y680829D02*
X117089Y676998D01*
X117798Y682710D02*
X118970Y681538D01*
X117798Y687735D02*
X119941Y689878D01*
X105316D02*
X111115D01*
X118970Y681538D02*
X149960D01*
X102828Y692365D02*
X105316Y689878D01*
X117798Y682710D02*
Y687735D01*
X149960Y681538D02*
X160500Y670998D01*
X148080Y676998D02*
X155960Y669118D01*
Y656768D02*
Y669118D01*
X160500Y658649D02*
Y670998D01*
X155960Y656768D02*
X171791Y640937D01*
X160500Y658649D02*
X173672Y645477D01*
X175329Y640937D02*
X176500Y639766D01*
Y632688D02*
X176500Y632688D01*
X176500Y646649D02*
Y653726D01*
X175329Y645477D02*
X176500Y646649D01*
Y632688D02*
Y639766D01*
X173672Y645477D02*
X175329D01*
X171791Y640937D02*
X175329D01*
X117798Y529469D02*
X118970Y528298D01*
X174000Y538083D02*
X174000Y538083D01*
X118970Y528298D02*
X126637D01*
X117798Y529469D02*
Y531126D01*
X172829Y525294D02*
X174000Y524123D01*
Y517045D02*
Y524123D01*
X113258Y529469D02*
Y533006D01*
X112086Y528298D02*
X113258Y529469D01*
X104419Y528298D02*
X112086D01*
X102828Y526707D02*
X104419Y528298D01*
X126637D02*
X128228Y526707D01*
X172829Y529834D02*
X174000Y531006D01*
Y538083D01*
X102828Y501307D02*
X104419Y502897D01*
X174000Y496007D02*
X174000Y496007D01*
X126637Y502897D02*
X128228Y501307D01*
X118970Y502897D02*
X126637D01*
X117798Y504069D02*
X118970Y502897D01*
X104419D02*
X112086D01*
X172829Y487758D02*
X174000Y488930D01*
Y496007D01*
X112086Y502897D02*
X113258Y504069D01*
Y507606D01*
X117798Y504069D02*
Y505726D01*
X172829Y483218D02*
X174000Y482047D01*
Y474969D02*
Y482047D01*
X126637Y477497D02*
X128228Y475907D01*
X117798Y478669D02*
Y480326D01*
X113258Y478669D02*
Y482206D01*
X102828Y475907D02*
X104419Y477497D01*
X112086D01*
X117798Y478669D02*
X118970Y477497D01*
X112086D02*
X113258Y478669D01*
X118970Y477497D02*
X126637D01*
X174000Y453931D02*
X174000Y453931D01*
X174000Y446853D02*
Y453931D01*
X172829Y445682D02*
X174000Y446853D01*
X169292Y441142D02*
X172829D01*
X174000Y439970D01*
Y432893D02*
Y439970D01*
X104419Y452098D02*
X112086D01*
X102828Y450507D02*
X104419Y452098D01*
X174000Y404777D02*
Y411855D01*
X174000Y411855D01*
X169292Y399066D02*
X172829D01*
X174000Y397894D01*
X171172Y403606D02*
X172829D01*
X174000Y404777D01*
Y390817D02*
Y397894D01*
X345640Y632728D02*
X345640Y632728D01*
X330647Y637268D02*
X347520D01*
X191500Y758917D02*
X191500Y758917D01*
X191500Y758917D02*
Y765994D01*
X328766Y632728D02*
X345640D01*
X191500Y772877D02*
X192672Y771706D01*
X196209D01*
X191500Y765994D02*
X192672Y767166D01*
X194329D01*
X191500Y772877D02*
Y779955D01*
X355926Y602322D02*
X356500Y601748D01*
X353829Y602728D02*
X354235Y602322D01*
X355926D01*
X345640Y602728D02*
X345640Y602728D01*
X353829D01*
X355926Y607674D02*
X356500Y608248D01*
X354235Y607674D02*
X355926D01*
X353829Y607268D02*
X354235Y607674D01*
X347520Y607268D02*
X347520Y607268D01*
X353829D01*
X323542Y607268D02*
X347520D01*
X191500Y716841D02*
X191500Y716841D01*
X191500Y730801D02*
Y737879D01*
X192672Y729630D02*
X201180D01*
X191500Y716841D02*
Y723918D01*
X192672Y725090D01*
X199300D01*
X321661Y602728D02*
X345640D01*
X191500Y730801D02*
X192672Y729630D01*
X354235Y584072D02*
X355926D01*
X356500Y583498D01*
X353829Y584478D02*
X354235Y584072D01*
X345640Y584478D02*
X353829D01*
X345640Y584478D02*
X345640Y584478D01*
X355926Y589424D02*
X356500Y589998D01*
X354235Y589424D02*
X355926D01*
X353829Y589018D02*
X354235Y589424D01*
X347520Y589018D02*
X347520Y589018D01*
X353829D01*
X311628Y589018D02*
X347520D01*
X191500Y681842D02*
X192672Y683014D01*
X211213D01*
X309748Y584478D02*
X345640D01*
X191500Y688725D02*
Y695803D01*
Y674764D02*
X191500Y674764D01*
X191500Y688725D02*
X192672Y687553D01*
X213093D01*
X191500Y674764D02*
Y681842D01*
X297388Y567121D02*
X345569D01*
X192672Y645477D02*
X225453D01*
X192672Y640937D02*
X223572D01*
X191500Y646649D02*
X192672Y645477D01*
X191500Y646649D02*
Y653726D01*
Y639766D02*
X192672Y640937D01*
X191500Y632688D02*
X191500Y632688D01*
X191500Y632688D02*
Y639766D01*
X117986Y753525D02*
X157027D01*
X113258Y758253D02*
X117986Y753525D01*
X118970Y766974D02*
X126637D01*
X128228Y768565D01*
X117798Y760134D02*
Y765803D01*
X119866Y758065D02*
X155147D01*
X113258Y758253D02*
Y765803D01*
X117798D02*
X118970Y766974D01*
X117798Y760134D02*
X119866Y758065D01*
X112086Y766974D02*
X113258Y765803D01*
X102828Y768565D02*
X104419Y766974D01*
X112086D01*
X168787Y771706D02*
X175329D01*
X157027Y753525D02*
X170668Y767166D01*
X175329D01*
X155147Y758065D02*
X168787Y771706D01*
X175329D02*
X176500Y772877D01*
Y779955D01*
X175329Y767166D02*
X176500Y765994D01*
Y758917D02*
Y765994D01*
Y758917D02*
X176500Y758917D01*
X125741Y740678D02*
X128228Y743165D01*
X105316Y740678D02*
X111442D01*
X113258Y731956D02*
X117089Y728125D01*
X111442Y740678D02*
X113258Y738862D01*
Y731956D02*
Y738862D01*
X117089Y728125D02*
X154953D01*
X117798Y733837D02*
X118970Y732665D01*
X117798Y733837D02*
Y738862D01*
X119614Y740678D02*
X125741D01*
X117798Y738862D02*
X119614Y740678D01*
X102828Y743165D02*
X105316Y740678D01*
X118970Y732665D02*
X156833D01*
X157989Y725090D02*
X175329D01*
X154953Y728125D02*
X157989Y725090D01*
X159869Y729630D02*
X175329D01*
X156833Y732665D02*
X159869Y729630D01*
X175329Y725090D02*
X176500Y723918D01*
Y716841D02*
Y723918D01*
X175329Y729630D02*
X176500Y730801D01*
Y716841D02*
X176500Y716841D01*
X176500Y730801D02*
Y737879D01*
X117798Y710701D02*
Y715003D01*
X104419Y716174D02*
X112086D01*
X119620Y702458D02*
X142620D01*
X144501Y706998D02*
X163945Y687553D01*
X142620Y702458D02*
X162065Y683014D01*
X113258Y708820D02*
X119620Y702458D01*
X117798Y710701D02*
X121500Y706998D01*
X112086Y716174D02*
X113258Y715003D01*
Y708820D02*
Y715003D01*
X121500Y706998D02*
X144501D01*
X126637Y716174D02*
X128228Y717765D01*
X117798Y715003D02*
X118970Y716174D01*
X126637D01*
X163039Y683014D02*
X175329D01*
X162065Y683014D02*
X163039D01*
X163945Y687553D02*
X164919D01*
X175329Y687553D02*
X176500Y688725D01*
X164919Y687553D02*
X175329D01*
X164919Y687553D02*
X164919Y687553D01*
X163039Y683014D02*
X163039Y683014D01*
X175329D02*
X176500Y681842D01*
Y688725D02*
Y695803D01*
Y674764D02*
X176500Y674764D01*
X176500Y674764D02*
Y681842D01*
X189000Y404777D02*
X190172Y403606D01*
X189000Y390817D02*
Y397894D01*
X190172Y399066D01*
X518766Y552674D02*
X519172Y552268D01*
X517075Y552674D02*
X518766D01*
X519172Y552268D02*
X523881D01*
X516501Y553248D02*
X517075Y552674D01*
X523881Y552268D02*
X528540Y547609D01*
Y467038D02*
Y547609D01*
X519172Y547728D02*
X522001D01*
X518766Y547322D02*
X519172Y547728D01*
X517075Y547322D02*
X518766D01*
X516501Y546748D02*
X517075Y547322D01*
X522001Y547728D02*
X524001Y545728D01*
Y468919D02*
Y545728D01*
X189000Y404777D02*
Y411855D01*
X189000Y411855D01*
X44500Y376998D02*
X420329D01*
X33245Y365743D02*
X44500Y376998D01*
X420329D02*
X421500Y378170D01*
Y429998D01*
X33245Y189956D02*
Y365743D01*
X52750Y177498D02*
X53450Y176798D01*
X41501Y177498D02*
X52750D01*
X33245Y185754D02*
Y189931D01*
Y185754D02*
X41501Y177498D01*
X33245Y189931D02*
X33245Y189956D01*
X497672Y749998D02*
X516500D01*
X496500Y748827D02*
X497672Y749998D01*
X496500Y684998D02*
Y748827D01*
X466500Y654998D02*
X491500Y679998D01*
X496500Y684998D01*
D50*
X42839Y496998D02*
D03*
Y487498D02*
D03*
Y477998D02*
D03*
X69839D02*
D03*
Y487498D02*
D03*
Y496998D02*
D03*
X44856Y739998D02*
D03*
Y730498D02*
D03*
Y720998D02*
D03*
X71856D02*
D03*
Y730498D02*
D03*
Y739998D02*
D03*
D51*
X176500Y758917D02*
D03*
X191500D02*
D03*
X191500Y779955D02*
D03*
X176500D02*
D03*
X191500Y716841D02*
D03*
X176500D02*
D03*
X176500Y737879D02*
D03*
X191500D02*
D03*
X174000Y517045D02*
D03*
X189000D02*
D03*
X189000Y538083D02*
D03*
X174000D02*
D03*
X189000Y496007D02*
D03*
X174000D02*
D03*
X174000Y474969D02*
D03*
X189000D02*
D03*
X189000Y453931D02*
D03*
X174000D02*
D03*
X174000Y432893D02*
D03*
X189000D02*
D03*
X189000Y411855D02*
D03*
X174000D02*
D03*
X174000Y390817D02*
D03*
X189000D02*
D03*
X191500Y674764D02*
D03*
X176500D02*
D03*
X176500Y695803D02*
D03*
X191500D02*
D03*
X191500Y632688D02*
D03*
X176500D02*
D03*
X176500Y653726D02*
D03*
X191500D02*
D03*
D54*
X166900Y305998D02*
D03*
X182100D02*
D03*
X166900Y291998D02*
D03*
X182100D02*
D03*
X166900Y277998D02*
D03*
X182100D02*
D03*
Y248998D02*
D03*
X166900D02*
D03*
Y262998D02*
D03*
X182100D02*
D03*
D55*
X415750Y519998D02*
D03*
X397250D02*
D03*
D56*
X441500Y507398D02*
D03*
Y522598D02*
D03*
X429000Y507398D02*
D03*
Y522598D02*
D03*
X396501Y594898D02*
D03*
Y610098D02*
D03*
X466200Y564128D02*
D03*
Y548928D02*
D03*
D58*
X50000Y899998D02*
D03*
X785000D02*
D03*
X50000Y99998D02*
D03*
D72*
X419000Y502498D02*
Y504798D01*
X421600Y507398D01*
X431500D01*
X397250Y519998D02*
X398572Y521319D01*
Y532069D01*
X401500Y534998D01*
X406500D01*
X415750Y519998D02*
X416500Y520748D01*
Y534998D01*
X444000Y499998D02*
Y507398D01*
X436500Y534998D02*
X436501D01*
X441500Y523098D02*
Y529998D01*
X436501Y534998D02*
X441500Y529998D01*
X442000Y522598D02*
X444000D01*
X441500Y523098D02*
X442000Y522598D01*
X429500D02*
X431500D01*
X429000Y523098D02*
X429500Y522598D01*
X429000Y523098D02*
Y532498D01*
X426500Y534998D02*
X429000Y532498D01*
X182100Y260998D02*
Y262998D01*
Y260998D02*
X182600Y260498D01*
X191000D01*
X191500Y259998D01*
X182100Y277998D02*
Y279998D01*
X182600Y280498D01*
X189501D01*
X191500Y282498D01*
X29000Y499999D02*
X32001Y496998D01*
X42839D01*
X31500Y487498D02*
X42839D01*
X29000Y484998D02*
X31500Y487498D01*
X36500Y739998D02*
X44856D01*
X31500Y744998D02*
X36500Y739998D01*
X34501Y730498D02*
X44856D01*
X31500Y727498D02*
X34501Y730498D01*
X383370Y591868D02*
X386500Y594998D01*
X383370Y587008D02*
Y591868D01*
Y598128D02*
X386500Y594998D01*
X383370Y598128D02*
Y603518D01*
D73*
X688140Y215948D02*
X761450D01*
X761500Y215998D01*
X664550Y217948D02*
X675784D01*
X663501Y218998D02*
X664550Y217948D01*
X654500Y172998D02*
Y198416D01*
X663501Y207416D02*
Y218998D01*
X654500Y198416D02*
X663501Y207416D01*
X622500Y109998D02*
Y212998D01*
X624500Y214998D01*
X663501Y218998D02*
Y229998D01*
X596500Y296998D02*
X663501Y229998D01*
X596500Y296998D02*
Y329998D01*
X761500Y215998D02*
Y304998D01*
Y200998D02*
Y215998D01*
X654500Y151998D02*
Y172998D01*
X756500Y195998D02*
X761500Y200998D01*
X742500Y195998D02*
X756500D01*
X742500Y175998D02*
Y195998D01*
X611500Y100998D02*
X613500D01*
X622500Y109998D01*
D75*
X42839Y477998D02*
X45339D01*
X72831Y450507D01*
X102828D01*
X69839Y477998D02*
X70434Y477403D01*
X101331D01*
X102828Y475907D01*
X69839Y487498D02*
X89020D01*
X102828Y501307D01*
X101120Y524998D02*
X102828Y526707D01*
X79500Y524998D02*
X101120D01*
X69839Y496998D02*
Y515337D01*
X79500Y524998D01*
X44856Y720998D02*
X47356D01*
X75989Y692365D01*
X102828D01*
X71856Y730498D02*
X90161D01*
X102828Y743165D01*
X102261Y767998D02*
X102828Y768565D01*
X85500Y767998D02*
X102261D01*
X71856Y739998D02*
Y754354D01*
X85500Y767998D01*
X99800Y717765D02*
X102828D01*
X71856Y720998D02*
X96567D01*
X99800Y717765D01*
D78*
X40000Y39998D02*
D03*
X795000Y959998D02*
D03*
X40000D02*
D03*
X795000Y39998D02*
D03*
D79*
X379899Y866728D02*
D03*
Y886728D02*
D03*
Y906728D02*
D03*
X467892Y866728D02*
D03*
Y886728D02*
D03*
Y906728D02*
D03*
X291906Y866728D02*
D03*
Y886728D02*
D03*
Y906728D02*
D03*
X115920Y866728D02*
D03*
Y886728D02*
D03*
Y906728D02*
D03*
X203913Y866728D02*
D03*
Y886728D02*
D03*
Y906728D02*
D03*
X643877Y866728D02*
D03*
Y886728D02*
D03*
Y906728D02*
D03*
X731870Y866728D02*
D03*
Y886728D02*
D03*
Y906728D02*
D03*
X555885Y866728D02*
D03*
Y886728D02*
D03*
Y906728D02*
D03*
X53450Y156798D02*
D03*
Y176798D02*
D03*
Y196798D02*
D03*
D80*
X471250Y14998D02*
D03*
X399751D02*
D03*
D81*
X128228Y399707D02*
D03*
Y641565D02*
D03*
D82*
Y425107D02*
D03*
Y450507D02*
D03*
Y475907D02*
D03*
Y501307D02*
D03*
Y526707D02*
D03*
X102828Y399707D02*
D03*
Y425107D02*
D03*
Y450507D02*
D03*
Y475907D02*
D03*
Y501307D02*
D03*
Y526707D02*
D03*
X128228Y666965D02*
D03*
Y692365D02*
D03*
Y717765D02*
D03*
Y743165D02*
D03*
Y768565D02*
D03*
X102828Y641565D02*
D03*
Y666965D02*
D03*
Y692365D02*
D03*
Y717765D02*
D03*
Y743165D02*
D03*
Y768565D02*
D03*
D83*
X517854Y640181D02*
D03*
X515000Y718411D02*
D03*
X471500Y667498D02*
D03*
X581500Y608998D02*
D03*
X72253Y897579D02*
D03*
X323438Y42100D02*
D03*
X269440Y42058D02*
D03*
X688140Y215948D02*
D03*
X675784Y217948D02*
D03*
X655533Y211198D02*
D03*
X644533D02*
D03*
Y222198D02*
D03*
X655533D02*
D03*
X624500Y214998D02*
D03*
X426500Y654998D02*
D03*
X466500Y634998D02*
D03*
X596500Y354998D02*
D03*
X386500Y644998D02*
D03*
X524001Y139998D02*
D03*
X449000Y159998D02*
D03*
Y139998D02*
D03*
X549001Y429998D02*
D03*
X594000D02*
D03*
X629000D02*
D03*
X674000D02*
D03*
X759000D02*
D03*
X714000D02*
D03*
X416500Y624998D02*
D03*
X426500Y614998D02*
D03*
X416500Y604998D02*
D03*
Y584998D02*
D03*
X436500Y644998D02*
D03*
X426500D02*
D03*
X456500Y654998D02*
D03*
X451500Y667498D02*
D03*
X105145Y826608D02*
D03*
X313750Y411248D02*
D03*
X456500Y614998D02*
D03*
Y594998D02*
D03*
Y574998D02*
D03*
X456501Y564998D02*
D03*
X459000Y499998D02*
D03*
X459001Y507499D02*
D03*
X444000Y499998D02*
D03*
X419000Y502498D02*
D03*
X467211Y524717D02*
D03*
X456500Y534998D02*
D03*
X466500D02*
D03*
X476500Y524998D02*
D03*
X486500Y504998D02*
D03*
X426500Y544998D02*
D03*
X436500D02*
D03*
X446500Y554998D02*
D03*
X491500Y514998D02*
D03*
X501500D02*
D03*
X436500Y534998D02*
D03*
X426500D02*
D03*
X586500Y814998D02*
D03*
X601500D02*
D03*
X174000Y824998D02*
D03*
X146500Y912498D02*
D03*
X396501Y644998D02*
D03*
X386500Y634998D02*
D03*
Y624998D02*
D03*
X516500Y609998D02*
D03*
X509000Y599998D02*
D03*
X431500Y729998D02*
D03*
X506500Y614998D02*
D03*
X376500Y634998D02*
D03*
X346500Y729998D02*
D03*
X788255Y134253D02*
D03*
X789000Y457498D02*
D03*
X456500Y634998D02*
D03*
X416500Y594998D02*
D03*
X446500Y574998D02*
D03*
X676500Y204998D02*
D03*
X660250Y192498D02*
D03*
X356500Y631748D02*
D03*
X399000Y389998D02*
D03*
X414000Y469821D02*
D03*
X536501Y472498D02*
D03*
X504000Y462998D02*
D03*
X484000D02*
D03*
X654500Y151998D02*
D03*
Y172998D02*
D03*
X742500Y195998D02*
D03*
Y175998D02*
D03*
X100500Y313998D02*
D03*
X208500Y203998D02*
D03*
X506500Y524998D02*
D03*
X356215Y572784D02*
D03*
X356500Y565998D02*
D03*
X173251Y345457D02*
D03*
X114000Y344998D02*
D03*
X246500Y342498D02*
D03*
X426501Y624998D02*
D03*
X416501Y634998D02*
D03*
X376500Y504998D02*
D03*
X416501Y544998D02*
D03*
X361500Y529998D02*
D03*
X416501Y614998D02*
D03*
X416500Y574998D02*
D03*
X426500Y584998D02*
D03*
Y574998D02*
D03*
X436500D02*
D03*
X406500D02*
D03*
Y564998D02*
D03*
X421500Y674998D02*
D03*
X734000Y684998D02*
D03*
Y704998D02*
D03*
Y724998D02*
D03*
X551500Y769998D02*
D03*
Y749998D02*
D03*
X191500Y259998D02*
D03*
Y282498D02*
D03*
X144000Y267498D02*
D03*
Y279998D02*
D03*
Y292498D02*
D03*
X156500Y267498D02*
D03*
Y279998D02*
D03*
Y292498D02*
D03*
Y302498D02*
D03*
X538251Y74248D02*
D03*
X654500Y98998D02*
D03*
X711500Y123998D02*
D03*
X356500Y638248D02*
D03*
Y601748D02*
D03*
Y608248D02*
D03*
Y583498D02*
D03*
Y589998D02*
D03*
X516501Y553248D02*
D03*
Y546748D02*
D03*
X29000Y499999D02*
D03*
Y484998D02*
D03*
X31500Y744998D02*
D03*
Y727498D02*
D03*
X221500Y192998D02*
D03*
X222500Y164998D02*
D03*
X198230Y230138D02*
D03*
X159500Y228998D02*
D03*
X127500Y224998D02*
D03*
X251500Y255616D02*
D03*
X240500Y313998D02*
D03*
X100500Y262998D02*
D03*
Y276828D02*
D03*
X102114Y301885D02*
D03*
X113500Y228998D02*
D03*
X150500Y370998D02*
D03*
X151500Y358998D02*
D03*
X122500Y316998D02*
D03*
X129500Y309498D02*
D03*
X406500Y534998D02*
D03*
X416500D02*
D03*
X76500Y112498D02*
D03*
X254000Y77498D02*
D03*
X231500D02*
D03*
X209000D02*
D03*
X176500Y34998D02*
D03*
X192500Y301578D02*
D03*
X626500Y304998D02*
D03*
X421500Y429998D02*
D03*
X546500Y354998D02*
D03*
X516500Y749998D02*
D03*
X506500Y664998D02*
D03*
X519000Y684998D02*
D03*
X486500Y595498D02*
D03*
X496500D02*
D03*
X456500Y544998D02*
D03*
X466500Y654998D02*
D03*
X476500D02*
D03*
X466500Y644998D02*
D03*
X496500Y634998D02*
D03*
X396501Y554998D02*
D03*
X406500Y644998D02*
D03*
X386500Y614998D02*
D03*
X361500Y619998D02*
D03*
X376225Y535163D02*
D03*
X446500Y644998D02*
D03*
X476500Y624998D02*
D03*
X206500Y49998D02*
D03*
Y64998D02*
D03*
X396501Y144998D02*
D03*
X376500Y64998D02*
D03*
X611500Y100998D02*
D03*
X436500Y554998D02*
D03*
X551500Y194998D02*
D03*
X626500Y404998D02*
D03*
X676500D02*
D03*
Y304998D02*
D03*
X376500Y564998D02*
D03*
X151500Y249998D02*
D03*
X141500D02*
D03*
X431500Y130998D02*
D03*
X671500Y234998D02*
D03*
X616500Y204998D02*
D03*
X551500Y214998D02*
D03*
Y174998D02*
D03*
X571500Y164998D02*
D03*
Y184998D02*
D03*
X591500Y164998D02*
D03*
Y184998D02*
D03*
X611500D02*
D03*
Y164998D02*
D03*
X466500Y159998D02*
D03*
X486500D02*
D03*
X506500D02*
D03*
Y139998D02*
D03*
X486500D02*
D03*
X466500D02*
D03*
X506500Y119998D02*
D03*
X486500D02*
D03*
X466500D02*
D03*
X396501Y44998D02*
D03*
X416500Y164998D02*
D03*
X376500Y44998D02*
D03*
X396501Y64998D02*
D03*
X376500Y104998D02*
D03*
X416500Y64998D02*
D03*
X396501Y84998D02*
D03*
Y124998D02*
D03*
Y104998D02*
D03*
X376500Y124998D02*
D03*
Y144998D02*
D03*
X416500D02*
D03*
X396501Y164998D02*
D03*
X376500Y84998D02*
D03*
X386500Y534998D02*
D03*
X456500Y554998D02*
D03*
X406500Y634998D02*
D03*
X386500Y564998D02*
D03*
Y594998D02*
D03*
X376500D02*
D03*
X486500Y564998D02*
D03*
X496500D02*
D03*
X486500Y534998D02*
D03*
X496500D02*
D03*
X436500Y624998D02*
D03*
X446500D02*
D03*
X476500Y554998D02*
D03*
X456501Y624998D02*
D03*
Y604998D02*
D03*
Y584998D02*
D03*
X436500Y614998D02*
D03*
X446500Y604998D02*
D03*
Y594998D02*
D03*
Y584998D02*
D03*
X416500Y554998D02*
D03*
X436500Y564998D02*
D03*
X416500D02*
D03*
X406500Y584998D02*
D03*
Y594998D02*
D03*
Y604998D02*
D03*
Y624998D02*
D03*
X761500Y379998D02*
D03*
Y354998D02*
D03*
X736500D02*
D03*
Y329998D02*
D03*
X761500Y404998D02*
D03*
Y329998D02*
D03*
Y304998D02*
D03*
X711500Y354998D02*
D03*
X736500Y379998D02*
D03*
X711500Y329998D02*
D03*
Y379998D02*
D03*
X626500D02*
D03*
X651500Y354998D02*
D03*
X676500Y329998D02*
D03*
Y379998D02*
D03*
X626500Y329998D02*
D03*
X651500D02*
D03*
X676500Y354998D02*
D03*
X626500D02*
D03*
X651500Y379998D02*
D03*
X571500Y354998D02*
D03*
X596500Y329998D02*
D03*
X571500D02*
D03*
X546500D02*
D03*
X571500Y379998D02*
D03*
X596500D02*
D03*
X546500D02*
D03*
X650033Y216698D02*
D03*
D84*
X615000Y730000D02*
D03*
D85*
X379899Y845728D02*
D03*
Y927728D02*
D03*
X467892Y845728D02*
D03*
Y927728D02*
D03*
X291906Y845728D02*
D03*
Y927728D02*
D03*
X115920Y845728D02*
D03*
Y927728D02*
D03*
X203913Y845728D02*
D03*
Y927728D02*
D03*
X643877Y845728D02*
D03*
Y927728D02*
D03*
X731870Y845728D02*
D03*
Y927728D02*
D03*
X555885Y845728D02*
D03*
Y927728D02*
D03*
X53450Y135798D02*
D03*
Y217798D02*
D03*
D86*
X373770Y574308D02*
D03*
X383371D02*
D03*
X383370Y587008D02*
D03*
X373770D02*
D03*
X383370Y603518D02*
D03*
X373770D02*
D03*
X383370Y526048D02*
D03*
X373770D02*
D03*
X383370Y543828D02*
D03*
X373770D02*
D03*
X373770Y556528D02*
D03*
X383371D02*
D03*
X488070Y603518D02*
D03*
X497671D02*
D03*
X497670Y556528D02*
D03*
X488070D02*
D03*
X497670Y573038D02*
D03*
X488070D02*
D03*
X488070Y543828D02*
D03*
X497671D02*
D03*
X488070Y526048D02*
D03*
X497671D02*
D03*
X488070Y585738D02*
D03*
X497671D02*
D03*
D87*
X426830Y555538D02*
D03*
Y565138D02*
D03*
X436990Y603238D02*
D03*
Y593638D02*
D03*
X398890Y584468D02*
D03*
Y574868D02*
D03*
Y634988D02*
D03*
Y625388D02*
D03*
X466200Y626098D02*
D03*
Y616498D02*
D03*
Y605778D02*
D03*
Y596178D02*
D03*
Y585458D02*
D03*
Y575858D02*
D03*
D88*
X436990Y653408D02*
D03*
Y634908D02*
D03*
M02*
