G04*
G04 #@! TF.GenerationSoftware,Altium Limited,Altium Designer,20.2.4 (192)*
G04*
G04 Layer_Color=128*
%FSLAX44Y44*%
%MOMM*%
G71*
G04*
G04 #@! TF.SameCoordinates,BA5F34B0-8EF9-400C-9F63-0181D384F855*
G04*
G04*
G04 #@! TF.FilePolarity,Positive*
G04*
G01*
G75*
%ADD17R,1.0000X0.5000*%
%ADD18R,0.5500X0.9000*%
%ADD21R,0.6000X1.0000*%
%ADD22R,1.0500X1.4500*%
%ADD23R,1.0000X0.6000*%
%ADD25C,1.0000*%
%ADD86R,0.6000X0.6400*%
%ADD87R,0.6400X0.6000*%
%ADD88R,1.4500X1.0500*%
D17*
X42839Y496998D02*
D03*
Y487498D02*
D03*
Y477998D02*
D03*
X69839D02*
D03*
Y487498D02*
D03*
Y496998D02*
D03*
X44856Y739998D02*
D03*
Y730498D02*
D03*
Y720998D02*
D03*
X71856D02*
D03*
Y730498D02*
D03*
Y739998D02*
D03*
D18*
X176500Y758917D02*
D03*
X191500D02*
D03*
X191500Y779955D02*
D03*
X176500D02*
D03*
X191500Y716841D02*
D03*
X176500D02*
D03*
X176500Y737879D02*
D03*
X191500D02*
D03*
X174000Y517045D02*
D03*
X189000D02*
D03*
X189000Y538083D02*
D03*
X174000D02*
D03*
X189000Y496007D02*
D03*
X174000D02*
D03*
X174000Y474969D02*
D03*
X189000D02*
D03*
X189000Y453931D02*
D03*
X174000D02*
D03*
X174000Y432893D02*
D03*
X189000D02*
D03*
X189000Y411855D02*
D03*
X174000D02*
D03*
X174000Y390817D02*
D03*
X189000D02*
D03*
X191500Y674764D02*
D03*
X176500D02*
D03*
X176500Y695803D02*
D03*
X191500D02*
D03*
X191500Y632688D02*
D03*
X176500D02*
D03*
X176500Y653726D02*
D03*
X191500D02*
D03*
D21*
X166900Y305998D02*
D03*
X182100D02*
D03*
X166900Y291998D02*
D03*
X182100D02*
D03*
X166900Y277998D02*
D03*
X182100D02*
D03*
Y248998D02*
D03*
X166900D02*
D03*
Y262998D02*
D03*
X182100D02*
D03*
D22*
X415750Y519998D02*
D03*
X397250D02*
D03*
D23*
X441500Y507398D02*
D03*
Y522598D02*
D03*
X429000Y507398D02*
D03*
Y522598D02*
D03*
X396501Y594898D02*
D03*
Y610098D02*
D03*
X466200Y564128D02*
D03*
Y548928D02*
D03*
D25*
X50000Y899998D02*
D03*
X785000D02*
D03*
X50000Y99998D02*
D03*
D86*
X373770Y574308D02*
D03*
X383371D02*
D03*
X383370Y587008D02*
D03*
X373770D02*
D03*
X383370Y603518D02*
D03*
X373770D02*
D03*
X383370Y526048D02*
D03*
X373770D02*
D03*
X383370Y543828D02*
D03*
X373770D02*
D03*
X373770Y556528D02*
D03*
X383371D02*
D03*
X488070Y603518D02*
D03*
X497671D02*
D03*
X497670Y556528D02*
D03*
X488070D02*
D03*
X497670Y573038D02*
D03*
X488070D02*
D03*
X488070Y543828D02*
D03*
X497671D02*
D03*
X488070Y526048D02*
D03*
X497671D02*
D03*
X488070Y585738D02*
D03*
X497671D02*
D03*
D87*
X426830Y555538D02*
D03*
Y565138D02*
D03*
X436990Y603238D02*
D03*
Y593638D02*
D03*
X398890Y584468D02*
D03*
Y574868D02*
D03*
Y634988D02*
D03*
Y625388D02*
D03*
X466200Y626098D02*
D03*
Y616498D02*
D03*
Y605778D02*
D03*
Y596178D02*
D03*
Y585458D02*
D03*
Y575858D02*
D03*
D88*
X436990Y653408D02*
D03*
Y634908D02*
D03*
M02*
