G04*
G04 #@! TF.GenerationSoftware,Altium Limited,Altium Designer,20.2.4 (192)*
G04*
G04 Layer_Color=32896*
%FSLAX44Y44*%
%MOMM*%
G71*
G04*
G04 #@! TF.SameCoordinates,5C77CFF5-D3CA-48E4-97E0-CB8EAA972895*
G04*
G04*
G04 #@! TF.FilePolarity,Positive*
G04*
G01*
G75*
%ADD10C,0.2500*%
%ADD11C,0.2540*%
%ADD14C,0.2000*%
%ADD72C,0.5000*%
G36*
X501500Y102498D02*
Y77498D01*
X361500D01*
Y102498D01*
X501500D01*
D02*
G37*
G36*
Y127498D02*
Y102498D01*
X361500D01*
Y127498D01*
X501500D01*
D02*
G37*
G36*
Y152498D02*
Y127498D01*
X361500D01*
Y152498D01*
X501500D01*
D02*
G37*
%LPC*%
G36*
X438389Y95229D02*
X437592D01*
D01*
X438389D01*
D02*
G37*
G36*
D02*
D01*
Y94933D01*
X438370Y95007D01*
X438315Y95081D01*
X438296Y95100D01*
X438241Y95137D01*
X438129Y95174D01*
X437981Y95192D01*
X437944D01*
X437889Y95211D01*
X437704D01*
X437592Y95229D01*
X436889D01*
X436722Y95211D01*
X436685D01*
X436611Y95192D01*
X436500Y95174D01*
X436407Y95137D01*
X436389D01*
X436352Y95118D01*
X436296Y95081D01*
X436259Y95026D01*
X436241Y95007D01*
X436222Y94970D01*
X436204Y94915D01*
X436167Y94822D01*
X433630Y86841D01*
X431149Y94785D01*
Y94803D01*
X431130Y94878D01*
X431093Y94933D01*
X431075Y95007D01*
X431056Y95026D01*
X431037Y95063D01*
X430982Y95100D01*
X430908Y95137D01*
X430889Y95155D01*
X430815Y95174D01*
X430723Y95192D01*
X430575Y95211D01*
X430482D01*
X430408Y95229D01*
X429778D01*
X429575Y95211D01*
X429408Y95192D01*
X429371D01*
X429297Y95174D01*
X429204Y95137D01*
X429130Y95081D01*
X429112Y95063D01*
X429093Y95007D01*
X429075Y94933D01*
X429093Y94822D01*
Y94785D01*
X429112Y94711D01*
X429149Y94563D01*
X429204Y94377D01*
X432297Y85175D01*
Y85156D01*
X432315Y85101D01*
X432408Y84953D01*
X432426Y84934D01*
X432445Y84916D01*
X432519Y84879D01*
X432612Y84841D01*
X432630D01*
X432723Y84823D01*
X432852Y84804D01*
X433019Y84786D01*
X433186D01*
X433389Y84767D01*
X438389D01*
Y95229D01*
D02*
G37*
G36*
X454665Y95174D02*
D01*
Y94563D01*
X454646Y94618D01*
Y94711D01*
X454591Y94859D01*
X454554Y94951D01*
X454498Y95007D01*
X454461Y95026D01*
X454369Y95100D01*
X454239Y95155D01*
X454054Y95174D01*
X450906D01*
X450702Y95155D01*
X450647D01*
X450536Y95137D01*
X450387Y95118D01*
X450221Y95100D01*
X450184D01*
X450110Y95081D01*
X449999Y95063D01*
X449850Y95044D01*
X449665Y94989D01*
X449480Y94951D01*
X449091Y94803D01*
X449073Y94785D01*
X448999Y94766D01*
X448906Y94711D01*
X448795Y94655D01*
X448517Y94470D01*
X448240Y94229D01*
X448221Y94211D01*
X448184Y94174D01*
X448110Y94100D01*
X448036Y94007D01*
X447962Y93878D01*
X447869Y93748D01*
X447702Y93415D01*
Y93396D01*
X447665Y93322D01*
X447647Y93230D01*
X447610Y93100D01*
X447573Y92933D01*
X447554Y92748D01*
X447517Y92544D01*
Y92322D01*
Y92304D01*
Y92230D01*
Y92137D01*
X447536Y92007D01*
X447554Y91859D01*
X447573Y91693D01*
X447665Y91359D01*
Y91341D01*
X447684Y91285D01*
X447721Y91211D01*
X447758Y91100D01*
X447888Y90859D01*
X448054Y90600D01*
X448073Y90582D01*
X448091Y90545D01*
X448147Y90489D01*
X448221Y90396D01*
X448425Y90211D01*
X448684Y90008D01*
X448702Y89989D01*
X448739Y89971D01*
X448832Y89915D01*
X448925Y89878D01*
X449054Y89804D01*
X449202Y89748D01*
X449536Y89619D01*
X449517D01*
X449499Y89600D01*
X449388Y89545D01*
X449239Y89452D01*
X449091Y89341D01*
X449073D01*
X449054Y89323D01*
X448962Y89230D01*
X448851Y89119D01*
X448721Y88952D01*
Y88934D01*
X448684Y88915D01*
X448610Y88804D01*
X448499Y88637D01*
X448388Y88434D01*
Y88415D01*
X448351Y88378D01*
X448332Y88323D01*
X448276Y88249D01*
X448184Y88045D01*
X448054Y87786D01*
X447184Y85749D01*
Y85730D01*
X447165Y85693D01*
X447128Y85582D01*
X447073Y85415D01*
X447036Y85286D01*
X447017Y85267D01*
X446999Y85212D01*
X446980Y85138D01*
Y85027D01*
X447017Y84934D01*
X447054Y84897D01*
X447110Y84879D01*
X447184Y84841D01*
X447202D01*
X447277Y84823D01*
X447388Y84804D01*
X447536Y84786D01*
X447702D01*
X447888Y84767D01*
X446980D01*
D01*
X454665D01*
Y95174D01*
D02*
G37*
G36*
X445443D02*
D01*
Y94563D01*
X445425Y94618D01*
Y94711D01*
X445369Y94859D01*
X445332Y94951D01*
X445277Y95007D01*
X445240Y95026D01*
X445147Y95100D01*
X445018Y95155D01*
X444832Y95174D01*
X439629D01*
X439574Y95155D01*
X439537Y95118D01*
X439518D01*
X439500Y95081D01*
X439481Y95044D01*
X439444Y94970D01*
Y94951D01*
X439426Y94915D01*
X439407Y94822D01*
X439389Y94729D01*
Y94711D01*
X439370Y94618D01*
X439352Y94507D01*
Y94340D01*
Y94322D01*
Y94303D01*
Y94211D01*
X439370Y94081D01*
X439389Y93952D01*
Y93933D01*
X439407Y93859D01*
X439426Y93785D01*
X439444Y93692D01*
Y93674D01*
X439463Y93637D01*
X439500Y93600D01*
X439537Y93563D01*
X439574Y93544D01*
X439666Y93526D01*
X443351D01*
Y91007D01*
X440185D01*
X440129Y90989D01*
X440092Y90952D01*
X440074D01*
X440055Y90915D01*
X440037Y90878D01*
X440000Y90822D01*
Y90804D01*
X439981Y90748D01*
X439963Y90674D01*
X439944Y90563D01*
Y90545D01*
X439925Y90471D01*
X439907Y90341D01*
Y90193D01*
Y90174D01*
Y90156D01*
Y90063D01*
X439925Y89934D01*
X439944Y89804D01*
Y89785D01*
X439963Y89711D01*
X439981Y89637D01*
X440000Y89563D01*
Y89545D01*
X440018Y89508D01*
X440055Y89471D01*
X440092Y89434D01*
X440129Y89415D01*
X440222Y89396D01*
X443351D01*
Y86471D01*
X439592D01*
X439537Y86452D01*
X439500Y86415D01*
X439481D01*
X439463Y86378D01*
X439444Y86341D01*
X439407Y86267D01*
Y86249D01*
X439389Y86212D01*
X439370Y86119D01*
X439352Y86026D01*
Y86008D01*
X439333Y85915D01*
X439314Y85804D01*
Y84823D01*
X445443D01*
Y95174D01*
D02*
G37*
G36*
X427705Y95248D02*
Y93285D01*
X427668Y93433D01*
Y93452D01*
X427649Y93489D01*
X427575Y93581D01*
X427556Y93600D01*
X427538Y93618D01*
X427427Y93692D01*
X425205Y95137D01*
X425186Y95155D01*
X425112Y95192D01*
X425094D01*
X425057Y95211D01*
X424927D01*
X424871Y95229D01*
X424668D01*
X424594Y95248D01*
X421353D01*
X423964D01*
X423816Y95229D01*
X423779D01*
X423705Y95211D01*
X423612Y95192D01*
X423520Y95174D01*
X423501D01*
X423464Y95155D01*
X423427Y95137D01*
X423390Y95100D01*
X423372Y95081D01*
X423353Y94988D01*
Y86452D01*
X421650D01*
X421594Y86434D01*
X421557Y86397D01*
X421539D01*
X421520Y86360D01*
X421483Y86323D01*
X421446Y86249D01*
Y86230D01*
X421427Y86175D01*
X421409Y86101D01*
X421390Y85990D01*
Y85971D01*
X421372Y85897D01*
X421353Y85767D01*
Y85490D01*
X421372Y85360D01*
X421390Y85230D01*
Y85212D01*
X421409Y85138D01*
X421427Y85064D01*
X421465Y84990D01*
Y84971D01*
X421483Y84934D01*
X421520Y84897D01*
X421557Y84860D01*
X421594Y84841D01*
X421687Y84823D01*
X421353D01*
X427427D01*
X427501Y84860D01*
X427538Y84897D01*
X427575Y84934D01*
X427612Y84990D01*
Y85008D01*
X427631Y85064D01*
X427649Y85138D01*
X427668Y85230D01*
Y85267D01*
Y85341D01*
X427686Y85471D01*
Y85619D01*
Y85638D01*
Y85656D01*
Y85749D01*
Y85878D01*
X427668Y85990D01*
Y86026D01*
X427649Y86082D01*
X427631Y86175D01*
X427612Y86249D01*
Y86267D01*
X427593Y86304D01*
X427556Y86360D01*
X427519Y86397D01*
X427501Y86415D01*
X427482Y86434D01*
X427445Y86452D01*
X425446D01*
Y93192D01*
X427112Y92267D01*
X427149Y92248D01*
X427223Y92211D01*
X427316Y92174D01*
X427427Y92156D01*
X427556D01*
X427612Y92192D01*
Y92211D01*
X427649Y92248D01*
X427668Y92322D01*
X427686Y92433D01*
Y92470D01*
Y92563D01*
X427705Y92692D01*
Y86452D01*
Y95248D01*
D02*
G37*
G36*
X415743Y95359D02*
D01*
Y90267D01*
X415724Y90396D01*
Y90693D01*
X415687Y91026D01*
X415650Y91415D01*
X415613Y91785D01*
X415539Y92174D01*
Y92192D01*
X415521Y92211D01*
Y92267D01*
X415502Y92341D01*
X415447Y92526D01*
X415373Y92767D01*
X415298Y93044D01*
X415187Y93322D01*
X415039Y93618D01*
X414891Y93896D01*
X414873Y93933D01*
X414817Y94007D01*
X414706Y94137D01*
X414576Y94303D01*
X414410Y94470D01*
X414206Y94655D01*
X413984Y94822D01*
X413725Y94970D01*
X413688Y94988D01*
X413595Y95026D01*
X413428Y95100D01*
X413225Y95174D01*
X412965Y95229D01*
X412669Y95303D01*
X412317Y95340D01*
X411947Y95359D01*
X415743D01*
X408336D01*
X411762D01*
X411577Y95340D01*
X411336Y95322D01*
X411058Y95266D01*
X410762Y95211D01*
X410466Y95118D01*
X410188Y94988D01*
X410151Y94970D01*
X410077Y94915D01*
X409947Y94840D01*
X409781Y94711D01*
X409614Y94563D01*
X409429Y94396D01*
X409244Y94174D01*
X409077Y93933D01*
X409058Y93896D01*
X409003Y93804D01*
X408947Y93674D01*
X408855Y93470D01*
X408762Y93230D01*
X408670Y92933D01*
X408577Y92618D01*
X408503Y92267D01*
Y92248D01*
Y92230D01*
X408484Y92174D01*
Y92100D01*
X408466Y92007D01*
X408447Y91896D01*
X408410Y91618D01*
X408392Y91285D01*
X408355Y90915D01*
X408336Y90489D01*
Y89711D01*
X408355Y89582D01*
Y89285D01*
X408392Y88934D01*
X408429Y88563D01*
X408466Y88174D01*
X408540Y87786D01*
Y87767D01*
Y87748D01*
X408558Y87693D01*
X408577Y87619D01*
X408633Y87434D01*
X408707Y87193D01*
X408799Y86934D01*
X408910Y86637D01*
X409040Y86360D01*
X409207Y86082D01*
X409225Y86045D01*
X409281Y85971D01*
X409392Y85841D01*
X409521Y85693D01*
X409688Y85508D01*
X409892Y85341D01*
X410114Y85156D01*
X410373Y85008D01*
X410410Y84990D01*
X410503Y84952D01*
X410651Y84897D01*
X410873Y84823D01*
X411132Y84749D01*
X411428Y84693D01*
X411762Y84656D01*
X412151Y84638D01*
X415743D01*
Y95359D01*
D02*
G37*
G36*
X418391Y87193D02*
X418280D01*
X418168Y87175D01*
X418020Y87156D01*
X417724Y87082D01*
X417576Y87026D01*
X417465Y86934D01*
X417446Y86915D01*
X417428Y86878D01*
X417391Y86823D01*
X417335Y86712D01*
X417280Y86582D01*
X417243Y86415D01*
X417224Y86212D01*
X417206Y85971D01*
Y85841D01*
X417224Y85712D01*
X417243Y85564D01*
X417317Y85230D01*
X417372Y85064D01*
X417465Y84952D01*
X417483Y84934D01*
X417520Y84916D01*
X417576Y84879D01*
X417687Y84841D01*
X417817Y84786D01*
X417965Y84749D01*
X418168Y84730D01*
X418409Y84712D01*
X417206D01*
D01*
X419576D01*
Y86045D01*
X419557Y86175D01*
X419539Y86323D01*
X419465Y86675D01*
X419409Y86823D01*
X419316Y86934D01*
X419298Y86952D01*
X419261Y86971D01*
X419205Y87008D01*
X419094Y87063D01*
X418983Y87119D01*
X418817Y87156D01*
X418613Y87175D01*
X418391Y87193D01*
D02*
G37*
%LPD*%
G36*
X438389Y84767D02*
X434019D01*
X434204Y84786D01*
X434463D01*
X434593Y84804D01*
X434611D01*
X434685Y84823D01*
X434778D01*
X434852Y84841D01*
X434870D01*
X434907Y84860D01*
X435019Y84897D01*
X435037Y84916D01*
X435056Y84934D01*
X435130Y85027D01*
Y85045D01*
X435148Y85082D01*
X435185Y85193D01*
X438278Y94396D01*
Y94415D01*
X438296Y94452D01*
X438333Y94563D01*
X438370Y94692D01*
X438389Y94840D01*
Y84767D01*
D02*
G37*
G36*
X452554Y90619D02*
X451332D01*
X451239Y90637D01*
X450980Y90656D01*
X450721Y90711D01*
X450702D01*
X450665Y90730D01*
X450610Y90748D01*
X450517Y90785D01*
X450350Y90878D01*
X450165Y91007D01*
X450147Y91026D01*
X450128Y91045D01*
X450036Y91137D01*
X449925Y91304D01*
X449832Y91489D01*
Y91507D01*
X449813Y91545D01*
X449795Y91600D01*
X449758Y91674D01*
X449721Y91859D01*
X449702Y92100D01*
Y92119D01*
Y92193D01*
X449721Y92285D01*
X449739Y92396D01*
X449795Y92692D01*
X449869Y92841D01*
X449943Y92970D01*
X449962Y92989D01*
X449980Y93026D01*
X450036Y93081D01*
X450128Y93174D01*
X450221Y93248D01*
X450350Y93322D01*
X450517Y93415D01*
X450702Y93470D01*
X450721D01*
X450795Y93489D01*
X450906Y93507D01*
X451054Y93526D01*
X451091D01*
X451202Y93544D01*
X451387Y93563D01*
X452554D01*
Y90619D01*
D02*
G37*
G36*
X454665Y84767D02*
X453794D01*
X453961Y84786D01*
X454128Y84804D01*
X454165D01*
X454239Y84823D01*
X454350D01*
X454461Y84841D01*
X454480D01*
X454517Y84860D01*
X454572Y84897D01*
X454628Y84934D01*
Y84953D01*
X454646Y84990D01*
X454665Y85101D01*
Y84767D01*
D02*
G37*
G36*
X452554Y85101D02*
Y85082D01*
Y85045D01*
X452572Y84990D01*
X452609Y84934D01*
X452628D01*
X452646Y84897D01*
X452702Y84879D01*
X452794Y84841D01*
X452813D01*
X452869Y84823D01*
X452980D01*
X453109Y84804D01*
X453146D01*
X453257Y84786D01*
X453406Y84767D01*
X448536D01*
X448702Y84786D01*
X448739D01*
X448814Y84804D01*
X448906Y84823D01*
X449017Y84841D01*
X449036D01*
X449073Y84860D01*
X449128Y84897D01*
X449184Y84934D01*
Y84953D01*
X449202Y84990D01*
X449221Y85045D01*
X449239Y85119D01*
X450184Y87415D01*
Y87434D01*
X450221Y87489D01*
X450239Y87563D01*
X450295Y87656D01*
X450387Y87878D01*
X450517Y88100D01*
Y88119D01*
X450536Y88156D01*
X450573Y88211D01*
X450610Y88286D01*
X450721Y88452D01*
X450869Y88619D01*
Y88637D01*
X450906Y88656D01*
X450998Y88730D01*
X451128Y88841D01*
X451313Y88934D01*
X451332D01*
X451350Y88952D01*
X451406Y88971D01*
X451480Y88989D01*
X451665Y89026D01*
X451906Y89045D01*
X452554D01*
Y85101D01*
D02*
G37*
G36*
X445443Y84823D02*
X444869D01*
X444981Y84841D01*
X445129Y84879D01*
X445277Y84971D01*
X445295Y85008D01*
X445351Y85082D01*
X445425Y85249D01*
X445443Y85341D01*
Y84823D01*
D02*
G37*
G36*
X439333Y85378D02*
X439352Y85249D01*
Y85230D01*
X439370Y85156D01*
X439389Y85082D01*
X439407Y84990D01*
Y84971D01*
X439426Y84934D01*
X439463Y84897D01*
X439500Y84860D01*
X439537Y84841D01*
X439629Y84823D01*
X439314D01*
Y85508D01*
X439333Y85378D01*
D02*
G37*
G36*
X412206Y93674D02*
X412317Y93655D01*
X412558Y93600D01*
X412688Y93526D01*
X412817Y93452D01*
X412836Y93433D01*
X412873Y93415D01*
X412928Y93359D01*
X412984Y93285D01*
X413058Y93192D01*
X413150Y93063D01*
X413225Y92933D01*
X413299Y92767D01*
Y92748D01*
X413336Y92692D01*
X413354Y92581D01*
X413391Y92452D01*
X413447Y92304D01*
X413484Y92100D01*
X413521Y91878D01*
X413558Y91637D01*
Y91600D01*
Y91507D01*
X413576Y91378D01*
Y91174D01*
X413595Y90952D01*
Y90674D01*
X413613Y90378D01*
Y90045D01*
Y90026D01*
Y89989D01*
Y89934D01*
Y89859D01*
Y89656D01*
X413595Y89415D01*
Y89119D01*
X413576Y88804D01*
X413558Y88508D01*
X413539Y88211D01*
Y88174D01*
X413521Y88100D01*
X413502Y87952D01*
X413465Y87804D01*
X413428Y87619D01*
X413391Y87415D01*
X413317Y87230D01*
X413262Y87063D01*
Y87045D01*
X413225Y86989D01*
X413187Y86915D01*
X413132Y86823D01*
X412984Y86637D01*
X412891Y86545D01*
X412780Y86471D01*
X412762D01*
X412725Y86452D01*
X412669Y86415D01*
X412576Y86397D01*
X412484Y86360D01*
X412354Y86323D01*
X412076Y86304D01*
X411965D01*
X411891Y86323D01*
X411706Y86341D01*
X411521Y86397D01*
X411502D01*
X411484Y86415D01*
X411373Y86471D01*
X411243Y86564D01*
X411114Y86693D01*
Y86712D01*
X411077Y86730D01*
X411003Y86841D01*
X410910Y86989D01*
X410817Y87193D01*
Y87212D01*
X410799Y87249D01*
X410780Y87323D01*
X410743Y87397D01*
X410669Y87619D01*
X410614Y87897D01*
Y87915D01*
X410595Y87971D01*
Y88045D01*
X410577Y88156D01*
X410558Y88304D01*
X410540Y88452D01*
X410503Y88804D01*
Y88822D01*
Y88897D01*
X410484Y88989D01*
Y89137D01*
Y89304D01*
X410466Y89489D01*
Y89693D01*
Y89915D01*
Y89952D01*
Y90045D01*
Y90174D01*
Y90359D01*
X410484Y90563D01*
Y90767D01*
X410521Y91211D01*
Y91230D01*
Y91304D01*
X410540Y91415D01*
X410558Y91544D01*
X410577Y91711D01*
X410595Y91859D01*
X410651Y92192D01*
Y92211D01*
X410669Y92267D01*
X410688Y92341D01*
X410706Y92433D01*
X410762Y92674D01*
X410854Y92896D01*
Y92915D01*
X410873Y92952D01*
X410928Y93063D01*
X411021Y93211D01*
X411151Y93359D01*
X411188Y93396D01*
X411262Y93470D01*
X411391Y93544D01*
X411540Y93618D01*
X411558D01*
X411577Y93637D01*
X411688Y93655D01*
X411836Y93674D01*
X412039Y93692D01*
X412114D01*
X412206Y93674D01*
D02*
G37*
G36*
X415743Y84638D02*
X412317D01*
X412521Y84656D01*
X412762Y84675D01*
X413039Y84730D01*
X413336Y84786D01*
X413632Y84879D01*
X413910Y84990D01*
X413947Y85008D01*
X414021Y85064D01*
X414150Y85138D01*
X414317Y85267D01*
X414484Y85415D01*
X414669Y85601D01*
X414854Y85804D01*
X415021Y86045D01*
X415039Y86082D01*
X415095Y86175D01*
X415150Y86323D01*
X415243Y86508D01*
X415336Y86749D01*
X415428Y87045D01*
X415521Y87360D01*
X415595Y87711D01*
Y87730D01*
Y87748D01*
X415613Y87804D01*
Y87878D01*
X415632Y87971D01*
Y88082D01*
X415669Y88360D01*
X415687Y88693D01*
X415724Y89063D01*
X415743Y89489D01*
Y84638D01*
D02*
G37*
G36*
X419576Y84712D02*
X418520D01*
X418631Y84730D01*
X418780Y84749D01*
X419076Y84823D01*
X419224Y84879D01*
X419335Y84952D01*
X419354Y84971D01*
X419372Y85008D01*
X419409Y85064D01*
X419446Y85175D01*
X419502Y85304D01*
X419539Y85471D01*
X419557Y85675D01*
X419576Y85915D01*
Y84712D01*
D02*
G37*
%LPC*%
G36*
X471265Y121442D02*
X463858D01*
X463803Y121424D01*
X463766Y121386D01*
X463747D01*
X463729Y121349D01*
X463710Y121313D01*
X463673Y121238D01*
Y121220D01*
X463655Y121164D01*
X463636Y121090D01*
X463618Y120979D01*
Y120942D01*
X463599Y120868D01*
X463581Y120738D01*
Y121442D01*
Y111036D01*
Y120424D01*
X463599Y120294D01*
X463618Y120164D01*
Y120146D01*
X463636Y120072D01*
X463655Y119998D01*
X463673Y119905D01*
Y119887D01*
X463692Y119850D01*
X463766Y119757D01*
X463803Y119739D01*
X463895Y119720D01*
X466488D01*
Y111369D01*
Y111351D01*
Y111313D01*
X466506Y111258D01*
X466543Y111202D01*
X466562D01*
X466580Y111165D01*
X466636Y111147D01*
X466728Y111110D01*
X466747D01*
X466802Y111091D01*
X466913D01*
X467043Y111073D01*
X467080D01*
X467173Y111054D01*
X467339Y111036D01*
X467728D01*
X467895Y111054D01*
X468061Y111073D01*
X468098D01*
X468173Y111091D01*
X468284D01*
X468395Y111110D01*
X468413D01*
X468450Y111128D01*
X468506Y111165D01*
X468561Y111202D01*
Y111221D01*
X468580Y111258D01*
X468599Y111369D01*
Y119720D01*
X471246D01*
X471339Y119757D01*
Y119776D01*
X471376Y119794D01*
X471432Y119905D01*
Y119924D01*
X471450Y119979D01*
X471469Y120053D01*
X471487Y120164D01*
Y120202D01*
Y120276D01*
X471506Y120405D01*
Y113221D01*
Y120868D01*
Y120850D01*
X471487Y120979D01*
Y121016D01*
X471469Y121072D01*
X471450Y121164D01*
X471432Y121238D01*
Y121257D01*
X471413Y121294D01*
X471376Y121349D01*
X471339Y121386D01*
X471320Y121405D01*
X471302Y121424D01*
X471265Y121442D01*
D02*
G37*
G36*
X378626Y118961D02*
X378478D01*
X378404Y118942D01*
X378386D01*
X378330Y118924D01*
X378237Y118905D01*
X378145Y118887D01*
X378126D01*
X378071Y118868D01*
X377923Y118831D01*
X377904D01*
X377867Y118813D01*
X377830Y118794D01*
X377793Y118757D01*
X377775D01*
X377756Y118739D01*
X377719Y118665D01*
X377701Y118628D01*
Y118590D01*
X377682Y118535D01*
Y118517D01*
X377663Y118479D01*
Y118405D01*
Y118294D01*
Y118257D01*
X377645Y118183D01*
Y118183D01*
Y111036D01*
Y117498D01*
X377663Y117350D01*
Y117331D01*
X377682Y117257D01*
X377701Y117165D01*
X377719Y117072D01*
Y117054D01*
X377738Y117017D01*
X377775Y116961D01*
X377812Y116924D01*
X377849Y116905D01*
X377886Y116887D01*
X377978D01*
X378089Y116905D01*
X378108D01*
X378145Y116924D01*
X378200Y116943D01*
X378274Y116961D01*
X378293D01*
X378330Y116980D01*
X378404Y117017D01*
X378497Y117035D01*
X378515D01*
X378571Y117054D01*
X378645Y117072D01*
X378848D01*
X378960Y117035D01*
X379089Y116998D01*
X379126Y116980D01*
X379200Y116943D01*
X379311Y116868D01*
X379441Y116776D01*
X379478Y116757D01*
X379552Y116665D01*
X379663Y116554D01*
X379811Y116387D01*
Y116369D01*
X379848Y116350D01*
X379885Y116294D01*
X379922Y116220D01*
X380052Y116035D01*
X380219Y115794D01*
Y111350D01*
Y111332D01*
Y111295D01*
X380237Y111258D01*
X380274Y111202D01*
X380293D01*
X380311Y111165D01*
X380367Y111147D01*
X380441Y111110D01*
X380459D01*
X380515Y111091D01*
X380626D01*
X380756Y111073D01*
X380793D01*
X380885Y111054D01*
X381034Y111036D01*
X377645D01*
X381404D01*
X381570Y111054D01*
X381737Y111073D01*
X381774D01*
X381848Y111091D01*
X381941D01*
X382033Y111110D01*
X382052D01*
X382089Y111128D01*
X382144Y111165D01*
X382200Y111202D01*
Y111221D01*
X382219Y111239D01*
X382237Y111350D01*
Y118535D01*
X382200Y118628D01*
Y118646D01*
X382163Y118665D01*
X382126Y118683D01*
X382070Y118720D01*
X382052D01*
X381996Y118739D01*
X381904Y118757D01*
X381793Y118776D01*
X381756D01*
X381682Y118794D01*
X381552Y118813D01*
X381237D01*
X381089Y118794D01*
X380959Y118776D01*
X380922D01*
X380867Y118757D01*
X380774Y118739D01*
X380700Y118720D01*
X380682D01*
X380645Y118702D01*
X380608Y118665D01*
X380570Y118628D01*
X380552Y118609D01*
X380533Y118590D01*
X380515Y118535D01*
Y118479D01*
Y117591D01*
X380496Y117609D01*
X380459Y117665D01*
X380422Y117739D01*
X380348Y117831D01*
X380182Y118054D01*
X379996Y118257D01*
X379978Y118276D01*
X379959Y118294D01*
X379830Y118405D01*
X379682Y118535D01*
X379515Y118665D01*
X379497D01*
X379478Y118683D01*
X379367Y118757D01*
X379237Y118831D01*
X379071Y118887D01*
X379052D01*
X379034Y118905D01*
X378923Y118924D01*
X378793Y118942D01*
X378626Y118961D01*
D02*
G37*
G36*
X403420D02*
X403124D01*
X402920Y118942D01*
X402698Y118924D01*
X402457Y118887D01*
X402216Y118850D01*
X401976Y118794D01*
X401957D01*
X401883Y118757D01*
X401772Y118720D01*
X401624Y118665D01*
X401328Y118498D01*
X401161Y118405D01*
X401013Y118276D01*
X400994Y118257D01*
X400957Y118220D01*
X400883Y118146D01*
X400791Y118035D01*
X400698Y117924D01*
X400606Y117776D01*
X400513Y117591D01*
X400439Y117406D01*
Y117387D01*
X400402Y117313D01*
X400383Y117202D01*
X400346Y117054D01*
X400309Y116850D01*
X400291Y116646D01*
X400254Y116387D01*
Y118961D01*
Y111313D01*
X400272Y111258D01*
X400291Y111202D01*
X400346Y111147D01*
X400365D01*
X400402Y111110D01*
X400494Y111091D01*
X400606Y111073D01*
X400643D01*
X400735Y111054D01*
X400883Y111036D01*
X401309D01*
X401476Y111054D01*
X401624Y111073D01*
X401642D01*
X401716Y111091D01*
X401791Y111110D01*
X401865Y111147D01*
X401883Y111165D01*
X401902Y111184D01*
X401920Y111239D01*
X401939Y111313D01*
Y111888D01*
X401957Y111869D01*
X402013Y111813D01*
X402105Y111721D01*
X402216Y111628D01*
X402365Y111517D01*
X402531Y111388D01*
X402735Y111277D01*
X402939Y111165D01*
X402957Y111147D01*
X403031Y111128D01*
X403142Y111091D01*
X403309Y111036D01*
X403494Y110980D01*
X403698Y110943D01*
X403920Y110925D01*
X404179Y110906D01*
X400254D01*
X406772D01*
X404383D01*
X404531Y110925D01*
X404698Y110943D01*
X404864Y110962D01*
X405235Y111054D01*
X405253D01*
X405309Y111091D01*
X405401Y111110D01*
X405512Y111165D01*
X405772Y111295D01*
X406049Y111480D01*
X406068Y111499D01*
X406105Y111536D01*
X406179Y111591D01*
X406253Y111684D01*
X406327Y111795D01*
X406420Y111906D01*
X406586Y112202D01*
Y112221D01*
X406623Y112276D01*
X406642Y112369D01*
X406679Y112499D01*
X406716Y112647D01*
X406735Y112813D01*
X406772Y113017D01*
Y113332D01*
X406753Y113443D01*
X406735Y113591D01*
X406716Y113758D01*
X406660Y113943D01*
X406605Y114128D01*
X406531Y114295D01*
X406512Y114313D01*
X406494Y114369D01*
X406420Y114461D01*
X406346Y114572D01*
X406253Y114684D01*
X406123Y114813D01*
X405975Y114943D01*
X405809Y115054D01*
X405790Y115072D01*
X405716Y115109D01*
X405624Y115165D01*
X405475Y115239D01*
X405309Y115313D01*
X405105Y115387D01*
X404864Y115461D01*
X404605Y115517D01*
X404568D01*
X404476Y115535D01*
X404327Y115572D01*
X404124Y115591D01*
X403883Y115628D01*
X403605Y115646D01*
X403272Y115665D01*
X402235D01*
Y116091D01*
Y116109D01*
Y116146D01*
Y116202D01*
Y116294D01*
X402272Y116480D01*
X402309Y116665D01*
Y116683D01*
X402327Y116702D01*
X402365Y116813D01*
X402439Y116961D01*
X402550Y117091D01*
X402568Y117128D01*
X402661Y117183D01*
X402790Y117257D01*
X402957Y117331D01*
X402976D01*
X402994Y117350D01*
X403050Y117368D01*
X403124Y117387D01*
X403327Y117406D01*
X403587Y117424D01*
X403772D01*
X403901Y117406D01*
X404179Y117368D01*
X404494Y117294D01*
X404512D01*
X404568Y117276D01*
X404642Y117257D01*
X404735Y117220D01*
X404957Y117146D01*
X405198Y117054D01*
X405216D01*
X405253Y117035D01*
X405309Y117017D01*
X405364Y116980D01*
X405531Y116905D01*
X405698Y116813D01*
X405735Y116794D01*
X405809Y116757D01*
X405920Y116720D01*
X406031Y116702D01*
X406086D01*
X406142Y116720D01*
X406198Y116757D01*
Y116776D01*
X406235Y116794D01*
X406309Y116905D01*
Y116924D01*
X406327Y116980D01*
X406346Y117054D01*
X406364Y117165D01*
Y117183D01*
Y117257D01*
X406383Y117368D01*
Y117498D01*
Y117517D01*
Y117535D01*
Y117646D01*
X406364Y117757D01*
X406346Y117887D01*
Y117905D01*
X406309Y117979D01*
X406272Y118054D01*
X406198Y118146D01*
X406179Y118165D01*
X406105Y118220D01*
X405994Y118313D01*
X405809Y118405D01*
X405790D01*
X405753Y118424D01*
X405698Y118461D01*
X405624Y118498D01*
X405420Y118572D01*
X405161Y118665D01*
X405142D01*
X405087Y118683D01*
X405012Y118702D01*
X404901Y118739D01*
X404790Y118776D01*
X404642Y118813D01*
X404327Y118868D01*
X404309D01*
X404253Y118887D01*
X404161Y118905D01*
X404050Y118924D01*
X403901D01*
X403753Y118942D01*
X403420Y118961D01*
D02*
G37*
G36*
X422177D02*
X422029D01*
X421863Y118942D01*
X421640Y118924D01*
X421400Y118887D01*
X421140Y118850D01*
X420881Y118776D01*
X420640Y118683D01*
X420603Y118665D01*
X420529Y118628D01*
X420418Y118572D01*
X420270Y118498D01*
X420103Y118387D01*
X419918Y118257D01*
X419752Y118109D01*
X419585Y117942D01*
X419566Y117924D01*
X419511Y117868D01*
X419437Y117757D01*
X419363Y117628D01*
X419252Y117461D01*
X419159Y117276D01*
X419067Y117072D01*
X418993Y116831D01*
X418974Y116794D01*
X418955Y116720D01*
X418918Y116591D01*
X418881Y116424D01*
X418844Y116220D01*
X418826Y115980D01*
X418789Y115739D01*
Y118961D01*
Y114998D01*
X418807Y114924D01*
X418863Y114758D01*
X418955Y114591D01*
X418993Y114572D01*
X419067Y114517D01*
X419215Y114443D01*
X419418Y114424D01*
X423751D01*
Y114406D01*
Y114350D01*
Y114258D01*
X423733Y114146D01*
X423714Y113869D01*
X423659Y113573D01*
Y113554D01*
X423640Y113517D01*
X423603Y113443D01*
X423566Y113350D01*
X423455Y113147D01*
X423307Y112943D01*
X423288Y112924D01*
X423270Y112906D01*
X423214Y112850D01*
X423140Y112795D01*
X422955Y112665D01*
X422696Y112554D01*
X422677D01*
X422622Y112536D01*
X422548Y112517D01*
X422437Y112499D01*
X422307Y112462D01*
X422159Y112443D01*
X421992Y112424D01*
X421622D01*
X421492Y112443D01*
X421196Y112462D01*
X420881Y112499D01*
X420863D01*
X420807Y112517D01*
X420733Y112536D01*
X420640Y112554D01*
X420418Y112591D01*
X420196Y112647D01*
X420177D01*
X420140Y112665D01*
X420029Y112702D01*
X419863Y112758D01*
X419715Y112813D01*
X419696D01*
X419678Y112832D01*
X419604Y112869D01*
X419492Y112887D01*
X419381Y112906D01*
X419344D01*
X419270Y112869D01*
X419252D01*
X419233Y112850D01*
X419196Y112758D01*
Y112739D01*
X419178Y112721D01*
X419159Y112647D01*
X419141Y112554D01*
Y112536D01*
X419122Y112462D01*
Y112369D01*
Y112239D01*
Y112202D01*
Y112128D01*
Y112036D01*
X419141Y111924D01*
Y111906D01*
Y111851D01*
X419159Y111721D01*
Y111702D01*
X419178Y111665D01*
X419215Y111573D01*
X419233Y111536D01*
X419307Y111462D01*
Y111443D01*
X419363Y111425D01*
X419437Y111369D01*
X419511Y111332D01*
X419585Y111295D01*
X419604D01*
X419622Y111277D01*
X419678Y111258D01*
X419733Y111239D01*
X419937Y111184D01*
X420177Y111128D01*
X420196D01*
X420233Y111110D01*
X420307D01*
X420418Y111091D01*
X420529Y111054D01*
X420677Y111036D01*
X420992Y110980D01*
X421011D01*
X421066Y110962D01*
X421159D01*
X421288Y110943D01*
X421437Y110925D01*
X421603D01*
X421992Y110906D01*
X418789D01*
D01*
X425807D01*
D01*
X422159D01*
X422326Y110925D01*
X422566Y110943D01*
X422825Y110962D01*
X423103Y110999D01*
X423399Y111054D01*
X423677Y111128D01*
X423714Y111147D01*
X423788Y111165D01*
X423918Y111239D01*
X424085Y111313D01*
X424270Y111406D01*
X424473Y111536D01*
X424677Y111684D01*
X424862Y111851D01*
X424881Y111869D01*
X424936Y111943D01*
X425029Y112054D01*
X425140Y112202D01*
X425251Y112369D01*
X425362Y112591D01*
X425492Y112832D01*
X425584Y113091D01*
Y113128D01*
X425621Y113221D01*
X425658Y113387D01*
X425695Y113591D01*
X425732Y113850D01*
X425770Y114146D01*
X425788Y114480D01*
X425807Y114850D01*
Y115017D01*
X425788Y115183D01*
X425770Y115424D01*
X425751Y115683D01*
X425695Y115961D01*
X425640Y116257D01*
X425566Y116554D01*
X425547Y116591D01*
X425529Y116683D01*
X425473Y116831D01*
X425381Y117017D01*
X425288Y117220D01*
X425159Y117424D01*
X425029Y117646D01*
X424862Y117850D01*
X424844Y117868D01*
X424770Y117942D01*
X424677Y118035D01*
X424529Y118146D01*
X424362Y118294D01*
X424159Y118424D01*
X423936Y118553D01*
X423696Y118665D01*
X423659Y118683D01*
X423566Y118720D01*
X423437Y118757D01*
X423251Y118813D01*
X423029Y118868D01*
X422770Y118924D01*
X422474Y118942D01*
X422177Y118961D01*
D02*
G37*
G36*
X387273D02*
X387125D01*
X386959Y118942D01*
X386737Y118924D01*
X386496Y118887D01*
X386237Y118850D01*
X385977Y118776D01*
X385737Y118683D01*
X385700Y118665D01*
X385626Y118628D01*
X385514Y118572D01*
X385366Y118498D01*
X385200Y118387D01*
X385014Y118257D01*
X384848Y118109D01*
X384681Y117942D01*
X384663Y117924D01*
X384607Y117868D01*
X384533Y117757D01*
X384459Y117628D01*
X384348Y117461D01*
X384255Y117276D01*
X384163Y117072D01*
X384089Y116831D01*
X384070Y116794D01*
X384052Y116720D01*
X384015Y116591D01*
X383978Y116424D01*
X383941Y116220D01*
X383922Y115980D01*
X383885Y115739D01*
Y118961D01*
Y114998D01*
X383904Y114924D01*
X383959Y114758D01*
X384052Y114591D01*
X384089Y114572D01*
X384163Y114517D01*
X384311Y114443D01*
X384515Y114424D01*
X388848D01*
Y114406D01*
Y114350D01*
Y114258D01*
X388829Y114146D01*
X388810Y113869D01*
X388755Y113573D01*
Y113554D01*
X388736Y113517D01*
X388699Y113443D01*
X388662Y113350D01*
X388551Y113147D01*
X388403Y112943D01*
X388385Y112924D01*
X388366Y112906D01*
X388311Y112850D01*
X388236Y112795D01*
X388051Y112665D01*
X387792Y112554D01*
X387774D01*
X387718Y112536D01*
X387644Y112517D01*
X387533Y112499D01*
X387403Y112462D01*
X387255Y112443D01*
X387088Y112424D01*
X386718D01*
X386588Y112443D01*
X386292Y112462D01*
X385977Y112499D01*
X385959D01*
X385903Y112517D01*
X385829Y112536D01*
X385737Y112554D01*
X385514Y112591D01*
X385292Y112647D01*
X385274D01*
X385237Y112665D01*
X385126Y112702D01*
X384959Y112758D01*
X384811Y112813D01*
X384792D01*
X384774Y112832D01*
X384700Y112869D01*
X384589Y112887D01*
X384478Y112906D01*
X384440D01*
X384366Y112869D01*
X384348D01*
X384329Y112850D01*
X384292Y112758D01*
Y112739D01*
X384274Y112721D01*
X384255Y112647D01*
X384237Y112554D01*
Y112536D01*
X384218Y112462D01*
Y112369D01*
Y112239D01*
Y112202D01*
Y112128D01*
Y112036D01*
X384237Y111924D01*
Y111906D01*
Y111851D01*
X384255Y111721D01*
Y111702D01*
X384274Y111665D01*
X384311Y111573D01*
X384329Y111536D01*
X384403Y111462D01*
Y111443D01*
X384459Y111425D01*
X384533Y111369D01*
X384607Y111332D01*
X384681Y111295D01*
X384700D01*
X384718Y111277D01*
X384774Y111258D01*
X384829Y111239D01*
X385033Y111184D01*
X385274Y111128D01*
X385292D01*
X385329Y111110D01*
X385403D01*
X385514Y111091D01*
X385626Y111054D01*
X385774Y111036D01*
X386088Y110980D01*
X386107D01*
X386162Y110962D01*
X386255D01*
X386385Y110943D01*
X386533Y110925D01*
X386699D01*
X387088Y110906D01*
X383885D01*
D01*
X390903D01*
D01*
X387255D01*
X387422Y110925D01*
X387662Y110943D01*
X387922Y110962D01*
X388199Y110999D01*
X388496Y111054D01*
X388773Y111128D01*
X388810Y111147D01*
X388885Y111165D01*
X389014Y111239D01*
X389181Y111313D01*
X389366Y111406D01*
X389570Y111536D01*
X389773Y111684D01*
X389958Y111851D01*
X389977Y111869D01*
X390033Y111943D01*
X390125Y112054D01*
X390236Y112202D01*
X390347Y112369D01*
X390458Y112591D01*
X390588Y112832D01*
X390681Y113091D01*
Y113128D01*
X390718Y113221D01*
X390755Y113387D01*
X390792Y113591D01*
X390829Y113850D01*
X390866Y114146D01*
X390884Y114480D01*
X390903Y114850D01*
Y115017D01*
X390884Y115183D01*
X390866Y115424D01*
X390847Y115683D01*
X390792Y115961D01*
X390736Y116257D01*
X390662Y116554D01*
X390644Y116591D01*
X390625Y116683D01*
X390569Y116831D01*
X390477Y117017D01*
X390384Y117220D01*
X390255Y117424D01*
X390125Y117646D01*
X389958Y117850D01*
X389940Y117868D01*
X389866Y117942D01*
X389773Y118035D01*
X389625Y118146D01*
X389459Y118294D01*
X389255Y118424D01*
X389033Y118553D01*
X388792Y118665D01*
X388755Y118683D01*
X388662Y118720D01*
X388533Y118757D01*
X388348Y118813D01*
X388125Y118868D01*
X387866Y118924D01*
X387570Y118942D01*
X387273Y118961D01*
D02*
G37*
G36*
X444601Y115924D02*
X441212D01*
X441157Y115906D01*
X441120Y115869D01*
X441101D01*
X441083Y115832D01*
X441046Y115794D01*
X441009Y115739D01*
X440990Y115721D01*
X440972Y115665D01*
X440953Y115591D01*
X440935Y115480D01*
Y115461D01*
X440916Y115369D01*
X440898Y115258D01*
Y114943D01*
X440916Y114832D01*
X440935Y114628D01*
X440953Y114517D01*
X440990Y114443D01*
X441009Y114424D01*
X441064Y114369D01*
X441138Y114295D01*
X441268Y114276D01*
X440898D01*
D01*
X444971D01*
Y115239D01*
X444953Y115350D01*
X444934Y115554D01*
X444916Y115665D01*
X444897Y115739D01*
X444879Y115776D01*
X444823Y115832D01*
X444731Y115887D01*
X444601Y115924D01*
D02*
G37*
G36*
X461710Y121442D02*
X459970D01*
X459766Y121405D01*
X459562Y121368D01*
X459544D01*
X459525Y121349D01*
X459414Y121331D01*
X459266Y121257D01*
X459118Y121164D01*
X459099D01*
X459081Y121146D01*
X459007Y121072D01*
X458896Y120961D01*
X458785Y120794D01*
Y120775D01*
X458766Y120757D01*
X458711Y120646D01*
X458637Y120461D01*
X458563Y120239D01*
X456322Y114073D01*
X456285D01*
X453970Y120220D01*
Y120239D01*
X453952Y120276D01*
X453933Y120331D01*
X453915Y120424D01*
X453841Y120590D01*
X453748Y120775D01*
Y120794D01*
X453730Y120813D01*
X453656Y120924D01*
X453563Y121035D01*
X453452Y121164D01*
X453415Y121183D01*
X453341Y121238D01*
X453211Y121313D01*
X453063Y121368D01*
X453045D01*
X453026Y121386D01*
X452915Y121405D01*
X452748Y121424D01*
X452545Y121442D01*
X451008D01*
X450878Y121405D01*
X450767Y121368D01*
X450730Y121349D01*
X450674Y121331D01*
X450582Y121275D01*
X450508Y121201D01*
X450489Y121183D01*
X450452Y121127D01*
X450397Y121053D01*
X450341Y120942D01*
X450323Y120924D01*
X450304Y120850D01*
X450285Y120738D01*
Y121442D01*
Y111313D01*
X450304Y111258D01*
X450341Y111202D01*
X450378Y111165D01*
X450434Y111147D01*
X450508Y111110D01*
X450526D01*
X450582Y111091D01*
X450693D01*
X450822Y111073D01*
X450860D01*
X450952Y111054D01*
X451100Y111036D01*
X450285D01*
X462358D01*
Y120664D01*
X462340Y120738D01*
Y120831D01*
X462266Y121035D01*
X462229Y121127D01*
X462155Y121220D01*
X462136Y121238D01*
X462118Y121257D01*
X462062Y121294D01*
X462006Y121331D01*
X461821Y121405D01*
X461710Y121442D01*
D02*
G37*
G36*
X398309Y118813D02*
X397680D01*
X397513Y118794D01*
X397476D01*
X397402Y118776D01*
X397291Y118757D01*
X397198Y118720D01*
X397180D01*
X397143Y118683D01*
X397087Y118646D01*
X397032Y118572D01*
X397013Y118553D01*
X396995Y118498D01*
X396958Y118424D01*
X396921Y118294D01*
X395236Y113535D01*
X395217D01*
X393680Y118387D01*
Y118405D01*
X393662Y118424D01*
X393643Y118498D01*
X393606Y118590D01*
X393551Y118665D01*
X393532Y118683D01*
X393495Y118702D01*
X393421Y118739D01*
X393310Y118776D01*
X393273D01*
X393236Y118794D01*
X393069D01*
X392958Y118813D01*
X392477D01*
X392310Y118794D01*
X392125Y118776D01*
X392088D01*
X391995Y118739D01*
X391884Y118702D01*
X391792Y118646D01*
X391773Y118628D01*
X391736Y118590D01*
X391699Y118517D01*
X391680Y118424D01*
Y108184D01*
X399087D01*
X396476D01*
X396643Y108203D01*
X396810Y108221D01*
X396847D01*
X396921Y108240D01*
X397013Y108277D01*
X397106Y108314D01*
X397124Y108332D01*
X397161Y108351D01*
X397198Y108406D01*
X397217Y108481D01*
Y108499D01*
X397198Y108536D01*
X397180Y108610D01*
X397143Y108703D01*
X396217Y111091D01*
X396236D01*
X396273Y111128D01*
X396328Y111165D01*
X396402Y111221D01*
X396421Y111239D01*
X396439Y111295D01*
X396476Y111369D01*
X396513Y111443D01*
X398976Y117998D01*
Y118017D01*
X398995Y118054D01*
X399032Y118165D01*
X399069Y118294D01*
X399087Y118424D01*
Y118442D01*
X399069Y118517D01*
X399050Y118572D01*
X398995Y118646D01*
X398976Y118665D01*
X398902Y118702D01*
X398809Y118739D01*
X398661Y118776D01*
X398624D01*
X398569Y118794D01*
X398495D01*
X398309Y118813D01*
D02*
G37*
G36*
X383885Y112869D02*
D01*
D01*
D01*
D02*
G37*
G36*
X434991Y121442D02*
X432084D01*
X431973Y121424D01*
X431824D01*
X431510Y121405D01*
X431139Y121368D01*
X430751Y121294D01*
X430343Y121220D01*
X429973Y121109D01*
X429954D01*
X429936Y121090D01*
X429880Y121072D01*
X429806Y121053D01*
X429640Y120979D01*
X429417Y120868D01*
X429158Y120738D01*
X428880Y120572D01*
X428621Y120368D01*
X428362Y120146D01*
X428325Y120109D01*
X428251Y120035D01*
X428140Y119905D01*
X427991Y119720D01*
X427825Y119479D01*
X427658Y119220D01*
X427492Y118905D01*
X427343Y118572D01*
Y118553D01*
X427325Y118535D01*
X427306Y118479D01*
X427288Y118405D01*
X427232Y118220D01*
X427158Y117961D01*
X427103Y117628D01*
X427047Y117276D01*
X427010Y116850D01*
X426992Y116406D01*
Y116165D01*
X427010Y116035D01*
Y115906D01*
X427047Y115572D01*
X427084Y115183D01*
X427158Y114776D01*
X427251Y114350D01*
X427380Y113961D01*
Y113943D01*
X427399Y113924D01*
X427417Y113869D01*
X427455Y113795D01*
X427529Y113610D01*
X427658Y113387D01*
X427806Y113128D01*
X427991Y112850D01*
X428214Y112573D01*
X428455Y112313D01*
X428492Y112295D01*
X428584Y112202D01*
X428732Y112091D01*
X428917Y111962D01*
X429158Y111813D01*
X429454Y111665D01*
X429788Y111517D01*
X430140Y111388D01*
X430158D01*
X430177Y111369D01*
X430232D01*
X430325Y111351D01*
X430417Y111313D01*
X430528Y111295D01*
X430806Y111240D01*
X431158Y111184D01*
X431565Y111147D01*
X432010Y111110D01*
X432510Y111091D01*
X426992Y111091D01*
X435602Y111091D01*
D01*
X435028D01*
X435139Y111110D01*
X435287Y111147D01*
X435435Y111240D01*
X435454Y111277D01*
X435509Y111351D01*
X435583Y111517D01*
X435602Y111610D01*
Y120831D01*
X435583Y120887D01*
Y120979D01*
X435528Y121127D01*
X435491Y121220D01*
X435435Y121275D01*
X435398Y121294D01*
X435306Y121368D01*
X435176Y121424D01*
X434991Y121442D01*
D02*
G37*
G36*
X409586Y121479D02*
X409234D01*
X409105Y121461D01*
X408956Y121442D01*
X408919D01*
X408845Y121424D01*
X408753Y121405D01*
X408679Y121368D01*
X408660D01*
X408623Y121349D01*
X408568Y121313D01*
X408531Y121257D01*
X408512D01*
X408494Y121220D01*
X408475Y121183D01*
Y111702D01*
X408512Y111591D01*
X408549Y111480D01*
X408568Y111462D01*
X408586Y111406D01*
X408642Y111332D01*
X408716Y111239D01*
X408734Y111221D01*
X408790Y111184D01*
X408864Y111147D01*
X408975Y111110D01*
X408993D01*
X409068Y111091D01*
X409160Y111073D01*
X410327D01*
X410493Y111091D01*
X410660Y111128D01*
X410697Y111147D01*
X410790Y111165D01*
X410901Y111239D01*
X411030Y111313D01*
X411067Y111350D01*
X411141Y111425D01*
X411234Y111554D01*
X411364Y111721D01*
Y111739D01*
X411382Y111776D01*
X411419Y111832D01*
X411456Y111906D01*
X411567Y112110D01*
X411716Y112369D01*
X414308Y117220D01*
X414326Y117239D01*
X414345Y117294D01*
X414382Y117387D01*
X414456Y117498D01*
X414511Y117628D01*
X414604Y117794D01*
X414771Y118146D01*
X414789Y118165D01*
X414808Y118239D01*
X414845Y118331D01*
X414900Y118461D01*
X414974Y118609D01*
X415030Y118776D01*
X415178Y119128D01*
X415197D01*
Y119109D01*
Y119035D01*
X415178Y118905D01*
Y118757D01*
X415159Y118590D01*
Y118387D01*
X415141Y117961D01*
Y117942D01*
Y117868D01*
Y117757D01*
X415122Y117609D01*
Y117424D01*
Y117239D01*
Y116794D01*
Y111369D01*
Y111350D01*
Y111332D01*
X415141Y111277D01*
X415178Y111221D01*
X415215Y111184D01*
X415252Y111165D01*
X415326Y111128D01*
X415345D01*
X415400Y111110D01*
X415493Y111091D01*
X415622Y111073D01*
X415659D01*
X415752Y111054D01*
X415900Y111036D01*
X408475D01*
X417011D01*
Y120738D01*
Y120738D01*
X416993Y120813D01*
Y120887D01*
X416919Y121072D01*
X416882Y121164D01*
X416808Y121238D01*
X416789Y121257D01*
X416771Y121275D01*
X416659Y121349D01*
X416493Y121405D01*
X416382Y121442D01*
X414974D01*
X414808Y121424D01*
X414641Y121386D01*
X414623D01*
X414604Y121368D01*
X414511Y121349D01*
X414382Y121294D01*
X414271Y121201D01*
X414234Y121183D01*
X414160Y121127D01*
X414067Y121016D01*
X413956Y120868D01*
X413937Y120831D01*
X413863Y120720D01*
X413771Y120572D01*
X413660Y120350D01*
X411623Y116572D01*
Y116554D01*
X411586Y116517D01*
X411567Y116443D01*
X411512Y116350D01*
X411419Y116128D01*
X411290Y115887D01*
Y115869D01*
X411253Y115831D01*
X411216Y115758D01*
X411179Y115683D01*
X411067Y115461D01*
X410956Y115220D01*
Y115202D01*
X410919Y115165D01*
X410901Y115091D01*
X410845Y115017D01*
X410753Y114813D01*
X410642Y114572D01*
Y114554D01*
X410605Y114517D01*
X410586Y114461D01*
X410530Y114369D01*
X410438Y114184D01*
X410327Y113943D01*
Y113961D01*
Y114035D01*
Y114146D01*
X410345Y114295D01*
Y114480D01*
Y114665D01*
X410364Y115109D01*
Y115146D01*
Y115220D01*
Y115332D01*
Y115480D01*
Y115665D01*
Y115850D01*
Y116257D01*
Y121127D01*
Y121146D01*
Y121164D01*
X410327Y121257D01*
X410308Y121275D01*
X410290Y121294D01*
X410234Y121331D01*
X410160Y121368D01*
X410141Y121386D01*
X410086Y121405D01*
X409993Y121424D01*
X409864Y121442D01*
X409827D01*
X409734Y121461D01*
X409586Y121479D01*
D02*
G37*
G36*
X485356Y121812D02*
X477912D01*
X477783Y121794D01*
X477635D01*
X477283Y121775D01*
X476894Y121738D01*
X476487Y121664D01*
X476061Y121590D01*
X475653Y121479D01*
X475635D01*
X475598Y121461D01*
X475542Y121442D01*
X475468Y121424D01*
X475283Y121349D01*
X475042Y121238D01*
X474765Y121109D01*
X474487Y120942D01*
X474190Y120757D01*
X473931Y120535D01*
X473894Y120516D01*
X473820Y120424D01*
X473709Y120294D01*
X473561Y120127D01*
X473394Y119924D01*
X473228Y119683D01*
X473079Y119405D01*
X472950Y119090D01*
X472931Y119053D01*
X472894Y118942D01*
X472839Y118776D01*
X472783Y118553D01*
X472728Y118276D01*
X472672Y117942D01*
X472635Y117591D01*
X472617Y117220D01*
Y117257D01*
Y117017D01*
X472635Y116868D01*
Y116683D01*
X472654Y116480D01*
X472709Y116054D01*
Y116035D01*
X472728Y115961D01*
X472746Y115832D01*
X472765Y115683D01*
X472802Y115517D01*
X472857Y115313D01*
X472968Y114906D01*
Y114887D01*
X473005Y114813D01*
X473042Y114702D01*
X473098Y114572D01*
X473153Y114406D01*
X473246Y114239D01*
X473431Y113869D01*
X473450Y113850D01*
X473487Y113795D01*
X473542Y113702D01*
X473616Y113591D01*
X473728Y113461D01*
X473839Y113332D01*
X474116Y113054D01*
X474135Y113036D01*
X474190Y112999D01*
X474264Y112924D01*
X474376Y112850D01*
X474505Y112758D01*
X474653Y112665D01*
X475024Y112499D01*
X475042D01*
X475116Y112462D01*
X475227Y112443D01*
X475357Y112406D01*
X475542Y112369D01*
X475727Y112332D01*
X475950Y112313D01*
X476190Y112295D01*
X476338D01*
X476431Y112313D01*
X476672Y112332D01*
X476912Y112369D01*
X476931D01*
X476968Y112388D01*
X477024Y112406D01*
X477098Y112424D01*
X477283Y112499D01*
X477468Y112591D01*
X477486D01*
X477505Y112610D01*
X477616Y112684D01*
X477746Y112795D01*
X477875Y112943D01*
Y112962D01*
X477894Y112980D01*
X477949Y113091D01*
X478023Y113258D01*
X478097Y113461D01*
X478116Y113443D01*
X478153Y113406D01*
X478209Y113350D01*
X478301Y113276D01*
X478486Y113110D01*
X478727Y112924D01*
X478746D01*
X478783Y112887D01*
X478838Y112850D01*
X478912Y112795D01*
X479097Y112684D01*
X479320Y112554D01*
X479338D01*
X479375Y112536D01*
X479431Y112499D01*
X479486Y112480D01*
X479671Y112406D01*
X479894Y112350D01*
X479949D01*
X480005Y112332D01*
X480079D01*
X480264Y112313D01*
X480486Y112295D01*
X480616D01*
X480708Y112313D01*
X480930Y112332D01*
X481153Y112369D01*
X481171D01*
X481190Y112388D01*
X481319Y112443D01*
X481486Y112517D01*
X481653Y112628D01*
X481690Y112665D01*
X481764Y112739D01*
X481893Y112850D01*
X482005Y112999D01*
Y113017D01*
X482023Y113036D01*
X482079Y113147D01*
X482153Y113295D01*
X482227Y113461D01*
Y113480D01*
X482245Y113498D01*
X482264Y113554D01*
X482282Y113628D01*
X482319Y113795D01*
X482356Y113998D01*
Y114017D01*
Y114054D01*
Y114109D01*
Y114184D01*
X482375Y114369D01*
Y114572D01*
Y114591D01*
Y114647D01*
Y114721D01*
Y114813D01*
X482356Y114943D01*
Y115072D01*
X482319Y115406D01*
Y115424D01*
X482301Y115498D01*
Y115591D01*
X482282Y115702D01*
X482245Y115850D01*
X482208Y116017D01*
X482134Y116369D01*
Y116387D01*
X482116Y116443D01*
X482079Y116554D01*
X482023Y116665D01*
X481986Y116813D01*
X481912Y116961D01*
X481764Y117294D01*
X481745Y117313D01*
X481727Y117368D01*
X481671Y117461D01*
X481597Y117572D01*
X481412Y117831D01*
X481190Y118109D01*
X481171Y118128D01*
X481134Y118165D01*
X481060Y118239D01*
X480949Y118313D01*
X480838Y118405D01*
X480690Y118498D01*
X480375Y118683D01*
X480356Y118702D01*
X480301Y118720D01*
X480190Y118757D01*
X480060Y118794D01*
X479912Y118831D01*
X479727Y118868D01*
X479523Y118905D01*
X479134D01*
X478986Y118868D01*
X478801Y118831D01*
X478783D01*
X478764Y118813D01*
X478653Y118794D01*
X478505Y118739D01*
X478357Y118646D01*
X478338D01*
X478320Y118628D01*
X478227Y118572D01*
X478079Y118479D01*
X477931Y118350D01*
X477912D01*
X477894Y118313D01*
X477801Y118220D01*
X477672Y118072D01*
X477505Y117887D01*
X477357Y118498D01*
Y118517D01*
X477320Y118572D01*
X477264Y118646D01*
X477172Y118702D01*
X477135Y118720D01*
X477098D01*
X477042Y118739D01*
X476949Y118757D01*
X476857D01*
X476746Y118776D01*
X476357D01*
X476246Y118757D01*
X476227D01*
X476153Y118739D01*
X476098Y118720D01*
X476024Y118702D01*
X476005D01*
X475987Y118683D01*
X475950Y118646D01*
X475931Y118609D01*
X475913Y118590D01*
X475894Y118498D01*
X476598Y114924D01*
Y114906D01*
X476616Y114832D01*
Y114721D01*
X476635Y114591D01*
Y114313D01*
X476598Y114165D01*
X476561Y114054D01*
Y114036D01*
X476524Y114017D01*
X476487Y113961D01*
X476431Y113924D01*
X476357Y113869D01*
X476246Y113813D01*
X476116Y113795D01*
X475968Y113776D01*
X475913D01*
X475801Y113795D01*
X475635Y113832D01*
X475468Y113924D01*
X475450D01*
X475431Y113961D01*
X475320Y114036D01*
X475190Y114165D01*
X475061Y114332D01*
Y114350D01*
X475024Y114387D01*
X475005Y114424D01*
X474968Y114498D01*
X474876Y114684D01*
X474783Y114924D01*
Y114943D01*
X474765Y114980D01*
X474746Y115054D01*
X474709Y115147D01*
X474635Y115387D01*
X474579Y115646D01*
Y115665D01*
X474561Y115702D01*
X474542Y115776D01*
X474524Y115887D01*
X474487Y116109D01*
X474450Y116387D01*
Y116406D01*
Y116461D01*
X474431Y116535D01*
Y116628D01*
X474413Y116868D01*
Y117128D01*
Y117165D01*
Y117239D01*
Y117350D01*
X474431Y117517D01*
X474450Y117702D01*
X474487Y117905D01*
X474598Y118331D01*
Y118350D01*
X474635Y118424D01*
X474672Y118535D01*
X474727Y118665D01*
X474820Y118831D01*
X474931Y118998D01*
X475061Y119165D01*
X475209Y119331D01*
X475227Y119350D01*
X475283Y119405D01*
X475394Y119479D01*
X475524Y119590D01*
X475690Y119701D01*
X475913Y119813D01*
X476135Y119924D01*
X476413Y120035D01*
X476450Y120053D01*
X476542Y120072D01*
X476709Y120109D01*
X476931Y120164D01*
X477209Y120220D01*
X477542Y120257D01*
X477912Y120276D01*
X478338Y120294D01*
X478616D01*
X478801Y120276D01*
X479023Y120257D01*
X479264Y120220D01*
X479764Y120127D01*
X479801D01*
X479875Y120109D01*
X480005Y120072D01*
X480153Y120016D01*
X480338Y119961D01*
X480523Y119887D01*
X480930Y119701D01*
X480949Y119683D01*
X481023Y119646D01*
X481116Y119590D01*
X481227Y119516D01*
X481375Y119424D01*
X481523Y119313D01*
X481838Y119035D01*
X481856Y119016D01*
X481893Y118979D01*
X481967Y118887D01*
X482060Y118794D01*
X482171Y118683D01*
X482282Y118535D01*
X482523Y118220D01*
X482542Y118202D01*
X482579Y118146D01*
X482634Y118054D01*
X482690Y117942D01*
X482782Y117813D01*
X482856Y117646D01*
X483023Y117294D01*
Y117276D01*
X483060Y117202D01*
X483097Y117109D01*
X483134Y116980D01*
X483190Y116832D01*
X483245Y116646D01*
X483356Y116276D01*
Y116257D01*
X483375Y116183D01*
X483393Y116091D01*
X483412Y115961D01*
X483449Y115813D01*
X483467Y115628D01*
X483523Y115258D01*
Y115239D01*
Y115165D01*
X483541Y115072D01*
Y114943D01*
X483560Y114795D01*
Y114628D01*
X483578Y114276D01*
Y114258D01*
Y114239D01*
Y114128D01*
X483560Y113961D01*
Y113758D01*
X483541Y113517D01*
X483504Y113239D01*
X483393Y112702D01*
X483375Y112665D01*
X483356Y112591D01*
X483301Y112462D01*
X483245Y112295D01*
X483153Y112128D01*
X483041Y111925D01*
X482912Y111739D01*
X482745Y111554D01*
X482727Y111536D01*
X482653Y111480D01*
X482560Y111388D01*
X482412Y111295D01*
X482227Y111184D01*
X482005Y111054D01*
X481764Y110943D01*
X481486Y110832D01*
X481468D01*
X481449Y110814D01*
X481338Y110795D01*
X481171Y110758D01*
X480930Y110702D01*
X480653Y110647D01*
X480320Y110610D01*
X479931Y110591D01*
X479505Y110573D01*
X479282D01*
X479134Y110591D01*
X478949D01*
X478764Y110610D01*
X478375Y110647D01*
X478357D01*
X478283Y110665D01*
X478190Y110684D01*
X478060Y110702D01*
X477783Y110758D01*
X477486Y110814D01*
X477468D01*
X477412Y110832D01*
X477357Y110851D01*
X477264Y110869D01*
X477061Y110906D01*
X476857Y110962D01*
X476838D01*
X476820Y110980D01*
X476727Y110999D01*
X476616Y111017D01*
X476505D01*
X476450Y110999D01*
X476431D01*
X476413Y110980D01*
X476375Y110888D01*
Y110869D01*
X476357Y110832D01*
Y110777D01*
X476338Y110684D01*
Y110665D01*
X476320Y110591D01*
Y110480D01*
Y110332D01*
Y110314D01*
Y110240D01*
Y110147D01*
X476338Y110054D01*
Y110036D01*
Y109980D01*
X476357Y109906D01*
X476375Y109851D01*
Y109832D01*
X476394Y109795D01*
X476431Y109703D01*
Y109684D01*
X476450Y109665D01*
X476505Y109592D01*
X476561Y109554D01*
X476653Y109517D01*
X476709Y109480D01*
X476801Y109462D01*
X476820D01*
X476838Y109443D01*
X476894Y109425D01*
X476968Y109406D01*
X477061Y109388D01*
X477190Y109351D01*
X477320Y109332D01*
X477468Y109295D01*
X477486D01*
X477542Y109277D01*
X477635Y109258D01*
X477746Y109240D01*
X477894Y109221D01*
X478060Y109184D01*
X478264Y109166D01*
X478468Y109129D01*
X478486D01*
X478560Y109110D01*
X478671D01*
X478820Y109092D01*
X479005Y109073D01*
X479208D01*
X479449Y109054D01*
X472617D01*
X479949D01*
X480079Y109073D01*
X480227D01*
X480579Y109092D01*
X480986Y109147D01*
X481431Y109203D01*
X481856Y109295D01*
X482282Y109406D01*
X482301D01*
X482338Y109425D01*
X482393Y109443D01*
X482467Y109480D01*
X482653Y109554D01*
X482912Y109665D01*
X483190Y109814D01*
X483486Y109980D01*
X483764Y110184D01*
X484041Y110425D01*
X484078Y110462D01*
X484152Y110536D01*
X484282Y110684D01*
X484430Y110869D01*
X484578Y111091D01*
X484745Y111369D01*
X484912Y111665D01*
X485041Y111999D01*
Y112017D01*
X485060Y112036D01*
X485078Y112091D01*
X485097Y112165D01*
X485134Y112350D01*
X485189Y112610D01*
X485263Y112924D01*
X485300Y113295D01*
X485337Y113684D01*
X485356Y114109D01*
Y114443D01*
Y114350D01*
X485337Y114535D01*
Y114721D01*
X485319Y114961D01*
X485282Y115443D01*
Y115480D01*
X485263Y115554D01*
X485245Y115702D01*
X485208Y115869D01*
X485171Y116072D01*
X485134Y116294D01*
X485004Y116794D01*
X484986Y116832D01*
X484967Y116905D01*
X484930Y117035D01*
X484856Y117202D01*
X484782Y117406D01*
X484708Y117609D01*
X484486Y118072D01*
X484467Y118109D01*
X484430Y118183D01*
X484356Y118294D01*
X484282Y118461D01*
X484171Y118646D01*
X484041Y118831D01*
X483764Y119257D01*
X483745Y119276D01*
X483689Y119350D01*
X483597Y119461D01*
X483486Y119609D01*
X483338Y119757D01*
X483171Y119942D01*
X482986Y120109D01*
X482782Y120294D01*
X482764Y120313D01*
X482690Y120368D01*
X482579Y120461D01*
X482412Y120572D01*
X482227Y120701D01*
X482023Y120831D01*
X481782Y120961D01*
X481542Y121090D01*
X481505Y121109D01*
X481412Y121146D01*
X481282Y121220D01*
X481079Y121294D01*
X480856Y121368D01*
X480597Y121461D01*
X480301Y121553D01*
X480005Y121627D01*
X479968D01*
X479856Y121664D01*
X479690Y121683D01*
X479449Y121720D01*
X479171Y121757D01*
X478857Y121775D01*
X478523Y121812D01*
X485356D01*
D02*
G37*
G36*
X472617Y115665D02*
Y109054D01*
D01*
Y115665D01*
D02*
G37*
%LPD*%
G36*
X403568Y114369D02*
X403846Y114332D01*
X403864D01*
X403901Y114313D01*
X403957Y114295D01*
X404031Y114276D01*
X404216Y114202D01*
X404401Y114109D01*
X404438Y114091D01*
X404531Y114017D01*
X404624Y113906D01*
X404716Y113758D01*
X404735Y113721D01*
X404753Y113628D01*
X404790Y113480D01*
X404809Y113295D01*
Y113276D01*
Y113221D01*
X404790Y113128D01*
X404772Y113035D01*
X404735Y112924D01*
X404698Y112795D01*
X404624Y112684D01*
X404531Y112573D01*
X404512Y112554D01*
X404476Y112536D01*
X404420Y112499D01*
X404327Y112462D01*
X404216Y112406D01*
X404087Y112369D01*
X403938Y112350D01*
X403753Y112332D01*
X403679D01*
X403605Y112350D01*
X403494D01*
X403253Y112424D01*
X403105Y112462D01*
X402976Y112536D01*
X402957Y112554D01*
X402920Y112573D01*
X402846Y112628D01*
X402735Y112702D01*
X402624Y112795D01*
X402513Y112906D01*
X402365Y113035D01*
X402235Y113184D01*
Y114406D01*
X403290D01*
X403568Y114369D01*
D02*
G37*
G36*
X422437Y117517D02*
X422659Y117479D01*
X422881Y117387D01*
X422900D01*
X422918Y117368D01*
X423048Y117276D01*
X423196Y117165D01*
X423362Y116998D01*
Y116980D01*
X423399Y116961D01*
X423418Y116905D01*
X423474Y116831D01*
X423566Y116646D01*
X423659Y116424D01*
Y116406D01*
X423677Y116369D01*
X423696Y116294D01*
Y116220D01*
X423733Y115980D01*
X423751Y115720D01*
X420733D01*
Y115739D01*
Y115758D01*
Y115850D01*
X420752Y116017D01*
X420770Y116202D01*
X420807Y116406D01*
X420881Y116628D01*
X420955Y116850D01*
X421085Y117035D01*
X421103Y117054D01*
X421159Y117109D01*
X421233Y117202D01*
X421363Y117294D01*
X421529Y117368D01*
X421714Y117461D01*
X421955Y117517D01*
X422214Y117535D01*
X422344D01*
X422437Y117517D01*
D02*
G37*
G36*
X387533D02*
X387755Y117479D01*
X387977Y117387D01*
X387996D01*
X388014Y117368D01*
X388144Y117276D01*
X388292Y117165D01*
X388459Y116998D01*
Y116980D01*
X388496Y116961D01*
X388514Y116905D01*
X388570Y116831D01*
X388662Y116646D01*
X388755Y116424D01*
Y116406D01*
X388773Y116369D01*
X388792Y116294D01*
Y116220D01*
X388829Y115980D01*
X388848Y115720D01*
X385829D01*
Y115739D01*
Y115758D01*
Y115850D01*
X385848Y116017D01*
X385866Y116202D01*
X385903Y116406D01*
X385977Y116628D01*
X386051Y116850D01*
X386181Y117035D01*
X386200Y117054D01*
X386255Y117109D01*
X386329Y117202D01*
X386459Y117294D01*
X386626Y117368D01*
X386811Y117461D01*
X387051Y117517D01*
X387311Y117535D01*
X387440D01*
X387533Y117517D01*
D02*
G37*
G36*
X444971Y114276D02*
X444638D01*
X444712Y114295D01*
X444805Y114350D01*
X444897Y114461D01*
Y114480D01*
X444916Y114498D01*
Y114535D01*
X444934Y114609D01*
X444953Y114702D01*
Y114813D01*
X444971Y114943D01*
Y114276D01*
D02*
G37*
G36*
X462358Y111036D02*
X461544D01*
X461692Y111054D01*
X461858Y111073D01*
X461895D01*
X461969Y111091D01*
X462062D01*
X462173Y111110D01*
X462192D01*
X462229Y111128D01*
X462284Y111165D01*
X462321Y111202D01*
Y111221D01*
X462340Y111258D01*
X462358Y111369D01*
Y111036D01*
D02*
G37*
G36*
X460359Y111369D02*
Y111351D01*
Y111313D01*
X460377Y111258D01*
X460414Y111202D01*
X460451Y111165D01*
X460507Y111147D01*
X460581Y111110D01*
X460599D01*
X460655Y111091D01*
X460766D01*
X460896Y111073D01*
X460933D01*
X461025Y111054D01*
X461173Y111036D01*
X456544D01*
X456692Y111054D01*
X456859Y111073D01*
X456896D01*
X456970Y111091D01*
X457063D01*
X457174Y111110D01*
X457192D01*
X457229Y111128D01*
X457359Y111202D01*
X457377Y111221D01*
X457396Y111258D01*
X457433Y111313D01*
X457452Y111369D01*
X460359Y119794D01*
Y111369D01*
D02*
G37*
G36*
X455303D02*
Y111351D01*
X455322Y111313D01*
X455415Y111184D01*
X455433D01*
X455470Y111147D01*
X455526Y111128D01*
X455618Y111091D01*
X455637D01*
X455692Y111073D01*
X455803D01*
X455933Y111054D01*
X456063D01*
X456192Y111036D01*
X451471D01*
X451619Y111054D01*
X451785Y111073D01*
X451822D01*
X451897Y111091D01*
X451989D01*
X452082Y111110D01*
X452100D01*
X452137Y111128D01*
X452193Y111165D01*
X452248Y111202D01*
Y111221D01*
X452267Y111258D01*
X452285Y111369D01*
Y119794D01*
X452304D01*
X455303Y111369D01*
D02*
G37*
G36*
X391699Y118220D02*
X391736Y118072D01*
X394106Y111091D01*
X394958Y108573D01*
X394977Y108536D01*
X395032Y108462D01*
X395088Y108406D01*
X395162Y108369D01*
X395254Y108314D01*
X395365Y108277D01*
X395384D01*
X395421Y108258D01*
X395495Y108240D01*
X395606D01*
X395736Y108221D01*
X395884Y108203D01*
X396069Y108184D01*
X391680D01*
Y118331D01*
X391699Y118220D01*
D02*
G37*
G36*
X433509Y112758D02*
X432269D01*
X432121Y112776D01*
X431917Y112795D01*
X431695Y112813D01*
X431454Y112850D01*
X431213Y112906D01*
X430973Y112980D01*
X430954Y112999D01*
X430880Y113017D01*
X430769Y113073D01*
X430621Y113147D01*
X430473Y113239D01*
X430306Y113350D01*
X430140Y113498D01*
X429991Y113647D01*
X429973Y113665D01*
X429917Y113721D01*
X429843Y113832D01*
X429769Y113961D01*
X429658Y114109D01*
X429566Y114295D01*
X429473Y114517D01*
X429380Y114758D01*
X429362Y114795D01*
X429343Y114887D01*
X429306Y115017D01*
X429269Y115220D01*
X429232Y115443D01*
X429214Y115721D01*
X429177Y116017D01*
Y116332D01*
Y116369D01*
Y116461D01*
Y116591D01*
X429195Y116776D01*
X429214Y116998D01*
X429251Y117220D01*
X429362Y117702D01*
Y117739D01*
X429399Y117813D01*
X429436Y117924D01*
X429491Y118072D01*
X429566Y118239D01*
X429658Y118424D01*
X429788Y118609D01*
X429917Y118794D01*
X429936Y118813D01*
X429991Y118868D01*
X430065Y118961D01*
X430177Y119053D01*
X430325Y119183D01*
X430491Y119294D01*
X430676Y119405D01*
X430899Y119516D01*
X430917Y119535D01*
X431010Y119553D01*
X431139Y119609D01*
X431306Y119664D01*
X431547Y119701D01*
X431806Y119757D01*
X432102Y119776D01*
X432454Y119794D01*
X433509D01*
Y112758D01*
D02*
G37*
G36*
X417011Y111036D02*
X416252D01*
X416400Y111054D01*
X416548Y111073D01*
X416585D01*
X416659Y111091D01*
X416752Y111110D01*
X416845Y111128D01*
X416863D01*
X416900Y111147D01*
X416937Y111184D01*
X416974Y111221D01*
Y111239D01*
X416993Y111277D01*
X417011Y111369D01*
Y111036D01*
D02*
G37*
G36*
X479264Y117406D02*
X479431Y117368D01*
X479597Y117276D01*
X479616D01*
X479634Y117257D01*
X479727Y117183D01*
X479856Y117072D01*
X479986Y116924D01*
Y116905D01*
X480005Y116887D01*
X480079Y116776D01*
X480190Y116628D01*
X480282Y116424D01*
Y116406D01*
X480301Y116369D01*
X480320Y116313D01*
X480338Y116257D01*
X480412Y116072D01*
X480468Y115850D01*
Y115832D01*
X480486Y115794D01*
Y115739D01*
X480505Y115683D01*
X480542Y115498D01*
X480579Y115295D01*
Y115276D01*
Y115258D01*
Y115128D01*
X480597Y114980D01*
Y114813D01*
Y114795D01*
Y114739D01*
X480579Y114647D01*
Y114535D01*
X480523Y114295D01*
X480486Y114165D01*
X480431Y114054D01*
X480412Y114036D01*
X480393Y114017D01*
X480356Y113961D01*
X480282Y113924D01*
X480208Y113869D01*
X480097Y113813D01*
X479986Y113795D01*
X479838Y113776D01*
X479745D01*
X479634Y113795D01*
X479523Y113813D01*
X479486Y113832D01*
X479412Y113850D01*
X479301Y113906D01*
X479171Y113980D01*
X479134Y113998D01*
X479060Y114073D01*
X478931Y114165D01*
X478783Y114295D01*
X478764D01*
X478746Y114332D01*
X478653Y114424D01*
X478505Y114572D01*
X478338Y114758D01*
X478005Y116517D01*
X478023Y116535D01*
X478042Y116591D01*
X478097Y116665D01*
X478153Y116776D01*
X478320Y116980D01*
X478412Y117091D01*
X478505Y117183D01*
X478523Y117202D01*
X478542Y117220D01*
X478597Y117257D01*
X478671Y117313D01*
X478857Y117387D01*
X478968Y117406D01*
X479097Y117424D01*
X479134D01*
X479264Y117406D01*
D02*
G37*
%LPC*%
G36*
X369053Y147007D02*
X368683D01*
X368535Y146988D01*
X368387Y146970D01*
X368350D01*
X368275Y146951D01*
X368164Y146933D01*
X368072Y146896D01*
X368053D01*
X368016Y146877D01*
X367961Y146840D01*
X367905Y146785D01*
X367887D01*
X367868Y146748D01*
X367850Y146711D01*
Y147007D01*
Y135712D01*
Y136101D01*
X367868Y136063D01*
X367905Y136008D01*
X367942Y135971D01*
X367979Y135952D01*
X368035Y135915D01*
X368053D01*
X368109Y135897D01*
X368183Y135878D01*
X368294Y135860D01*
X368405D01*
X368535Y135841D01*
X368998D01*
X369127Y135860D01*
X369146D01*
X369220Y135878D01*
X369294Y135897D01*
X369386Y135915D01*
X369405D01*
X369442Y135934D01*
X369535Y136008D01*
Y136026D01*
X369553Y136045D01*
X369572Y136156D01*
Y136952D01*
X369590Y136934D01*
X369664Y136860D01*
X369775Y136749D01*
X369924Y136619D01*
X370090Y136471D01*
X370275Y136304D01*
X370498Y136156D01*
X370720Y136026D01*
X370738Y136008D01*
X370831Y135971D01*
X370960Y135934D01*
X371109Y135878D01*
X371312Y135804D01*
X371553Y135767D01*
X371794Y135730D01*
X372071Y135712D01*
X367850D01*
X375034D01*
D01*
X372201D01*
X372368Y135730D01*
X372553Y135749D01*
X372775Y135786D01*
X372997Y135841D01*
X373238Y135915D01*
X373460Y136026D01*
X373479Y136045D01*
X373553Y136082D01*
X373645Y136156D01*
X373775Y136249D01*
X373923Y136378D01*
X374071Y136526D01*
X374219Y136693D01*
X374367Y136878D01*
X374386Y136897D01*
X374423Y136971D01*
X374479Y137082D01*
X374571Y137230D01*
X374645Y137415D01*
X374738Y137637D01*
X374812Y137860D01*
X374886Y138119D01*
Y138156D01*
X374905Y138249D01*
X374923Y138397D01*
X374960Y138582D01*
X374978Y138804D01*
X375016Y139063D01*
X375034Y139341D01*
Y139804D01*
X375016Y139971D01*
Y140211D01*
X374978Y140471D01*
X374941Y140748D01*
X374905Y141045D01*
X374830Y141341D01*
X374812Y141378D01*
X374793Y141470D01*
X374738Y141618D01*
X374682Y141785D01*
X374590Y141989D01*
X374497Y142211D01*
X374367Y142433D01*
X374238Y142637D01*
X374219Y142655D01*
X374164Y142730D01*
X374090Y142822D01*
X373979Y142952D01*
X373830Y143081D01*
X373664Y143211D01*
X373479Y143359D01*
X373275Y143470D01*
X373256Y143489D01*
X373164Y143526D01*
X373053Y143563D01*
X372886Y143618D01*
X372682Y143674D01*
X372460Y143729D01*
X372201Y143748D01*
X371923Y143766D01*
X371812D01*
X371701Y143748D01*
X371553Y143729D01*
X371386Y143711D01*
X371201Y143655D01*
X371016Y143600D01*
X370831Y143507D01*
X370812Y143489D01*
X370738Y143470D01*
X370646Y143415D01*
X370516Y143322D01*
X370368Y143230D01*
X370201Y143118D01*
X370035Y142970D01*
X369849Y142804D01*
Y146655D01*
Y146673D01*
Y146692D01*
X369812Y146785D01*
Y146803D01*
X369775Y146822D01*
X369738Y146859D01*
X369664Y146896D01*
X369646Y146914D01*
X369572Y146933D01*
X369479Y146951D01*
X369350Y146970D01*
X369312D01*
X369201Y146988D01*
X369053Y147007D01*
D02*
G37*
G36*
X376849Y143766D02*
X376701D01*
X376627Y143748D01*
X376608D01*
X376552Y143729D01*
X376460Y143711D01*
X376367Y143692D01*
X376349D01*
X376293Y143674D01*
X376145Y143637D01*
X376127D01*
X376090Y143618D01*
X376053Y143600D01*
X376016Y143563D01*
X375997D01*
X375978Y143544D01*
X375941Y143470D01*
X375923Y143433D01*
Y143396D01*
X375904Y143341D01*
Y143322D01*
X375886Y143285D01*
Y143211D01*
Y143100D01*
Y143063D01*
X375867Y142989D01*
Y142989D01*
Y142989D01*
Y135841D01*
Y142304D01*
X375886Y142156D01*
Y142137D01*
X375904Y142063D01*
X375923Y141970D01*
X375941Y141878D01*
Y141859D01*
X375960Y141822D01*
X375997Y141767D01*
X376034Y141730D01*
X376071Y141711D01*
X376108Y141693D01*
X376201D01*
X376312Y141711D01*
X376330D01*
X376367Y141730D01*
X376423Y141748D01*
X376497Y141767D01*
X376515D01*
X376552Y141785D01*
X376627Y141822D01*
X376719Y141841D01*
X376738D01*
X376793Y141859D01*
X376867Y141878D01*
X377071D01*
X377182Y141841D01*
X377312Y141804D01*
X377349Y141785D01*
X377423Y141748D01*
X377534Y141674D01*
X377663Y141581D01*
X377701Y141563D01*
X377775Y141470D01*
X377886Y141359D01*
X378034Y141193D01*
Y141174D01*
X378071Y141156D01*
X378108Y141100D01*
X378145Y141026D01*
X378274Y140841D01*
X378441Y140600D01*
Y136156D01*
Y136138D01*
Y136101D01*
X378460Y136063D01*
X378497Y136008D01*
X378515D01*
X378534Y135971D01*
X378589Y135952D01*
X378663Y135915D01*
X378682D01*
X378737Y135897D01*
X378848D01*
X378978Y135878D01*
X379015D01*
X379108Y135860D01*
X379256Y135841D01*
X375867D01*
X380459D01*
D01*
X379626D01*
X379793Y135860D01*
X379959Y135878D01*
X379996D01*
X380071Y135897D01*
X380163D01*
X380256Y135915D01*
X380274D01*
X380311Y135934D01*
X380367Y135971D01*
X380422Y136008D01*
Y136026D01*
X380441Y136045D01*
X380459Y136156D01*
Y143341D01*
X380422Y143433D01*
Y143452D01*
X380385Y143470D01*
X380348Y143489D01*
X380293Y143526D01*
X380274D01*
X380219Y143544D01*
X380126Y143563D01*
X380015Y143581D01*
X379978D01*
X379904Y143600D01*
X379774Y143618D01*
X379459D01*
X379311Y143600D01*
X379182Y143581D01*
X379145D01*
X379089Y143563D01*
X378997Y143544D01*
X378923Y143526D01*
X378904D01*
X378867Y143507D01*
X378830Y143470D01*
X378793Y143433D01*
X378774Y143415D01*
X378756Y143396D01*
X378737Y143341D01*
Y143285D01*
Y142396D01*
X378719Y142415D01*
X378682Y142470D01*
X378645Y142544D01*
X378571Y142637D01*
X378404Y142859D01*
X378219Y143063D01*
X378200Y143081D01*
X378182Y143100D01*
X378052Y143211D01*
X377904Y143341D01*
X377738Y143470D01*
X377719D01*
X377701Y143489D01*
X377589Y143563D01*
X377460Y143637D01*
X377293Y143692D01*
X377275D01*
X377256Y143711D01*
X377145Y143729D01*
X377015Y143748D01*
X376849Y143766D01*
D02*
G37*
G36*
X397791Y142026D02*
D01*
D01*
D01*
D02*
G37*
G36*
Y141878D02*
D01*
D01*
D01*
D02*
G37*
G36*
X475190Y143766D02*
X474894D01*
X474690Y143748D01*
X474468Y143729D01*
X474227Y143692D01*
X473987Y143655D01*
X473746Y143600D01*
X473728D01*
X473653Y143563D01*
X473542Y143526D01*
X473394Y143470D01*
X473098Y143303D01*
X472931Y143211D01*
X472783Y143081D01*
X472765Y143063D01*
X472728Y143026D01*
X472654Y142952D01*
X472561Y142841D01*
X472468Y142730D01*
X472376Y142581D01*
X472283Y142396D01*
X472209Y142211D01*
Y142193D01*
X472172Y142119D01*
X472154Y142007D01*
X472117Y141859D01*
X472080Y141656D01*
X472061Y141452D01*
X472024Y141193D01*
Y143766D01*
Y136119D01*
X472043Y136064D01*
X472061Y136008D01*
X472117Y135953D01*
X472135D01*
X472172Y135915D01*
X472265Y135897D01*
X472376Y135878D01*
X472413D01*
X472505Y135860D01*
X472654Y135841D01*
X473079D01*
X473246Y135860D01*
X473394Y135878D01*
X473413D01*
X473487Y135897D01*
X473561Y135915D01*
X473635Y135953D01*
X473653Y135971D01*
X473672Y135990D01*
X473690Y136045D01*
X473709Y136119D01*
Y136693D01*
X473728Y136675D01*
X473783Y136619D01*
X473876Y136526D01*
X473987Y136434D01*
X474135Y136323D01*
X474302Y136193D01*
X474505Y136082D01*
X474709Y135971D01*
X474727Y135953D01*
X474801Y135934D01*
X474913Y135897D01*
X475079Y135841D01*
X475264Y135786D01*
X475468Y135749D01*
X475690Y135730D01*
X475950Y135712D01*
X472024D01*
X478542D01*
X476153D01*
X476301Y135730D01*
X476468Y135749D01*
X476635Y135767D01*
X477005Y135860D01*
X477024D01*
X477079Y135897D01*
X477172Y135915D01*
X477283Y135971D01*
X477542Y136101D01*
X477820Y136286D01*
X477838Y136304D01*
X477875Y136341D01*
X477949Y136397D01*
X478023Y136489D01*
X478097Y136601D01*
X478190Y136712D01*
X478357Y137008D01*
Y137026D01*
X478394Y137082D01*
X478412Y137175D01*
X478449Y137304D01*
X478486Y137452D01*
X478505Y137619D01*
X478542Y137823D01*
Y138137D01*
X478523Y138249D01*
X478505Y138397D01*
X478486Y138563D01*
X478431Y138749D01*
X478375Y138934D01*
X478301Y139100D01*
X478283Y139119D01*
X478264Y139174D01*
X478190Y139267D01*
X478116Y139378D01*
X478023Y139489D01*
X477894Y139619D01*
X477746Y139748D01*
X477579Y139860D01*
X477561Y139878D01*
X477486Y139915D01*
X477394Y139971D01*
X477246Y140045D01*
X477079Y140119D01*
X476875Y140193D01*
X476635Y140267D01*
X476375Y140322D01*
X476338D01*
X476246Y140341D01*
X476098Y140378D01*
X475894Y140396D01*
X475653Y140434D01*
X475376Y140452D01*
X475042Y140471D01*
X474005D01*
Y140896D01*
Y140915D01*
Y140952D01*
Y141007D01*
Y141100D01*
X474042Y141285D01*
X474079Y141470D01*
Y141489D01*
X474098Y141507D01*
X474135Y141618D01*
X474209Y141767D01*
X474320Y141896D01*
X474339Y141933D01*
X474431Y141989D01*
X474561Y142063D01*
X474727Y142137D01*
X474746D01*
X474765Y142156D01*
X474820Y142174D01*
X474894Y142193D01*
X475098Y142211D01*
X475357Y142230D01*
X475542D01*
X475672Y142211D01*
X475950Y142174D01*
X476264Y142100D01*
X476283D01*
X476338Y142081D01*
X476413Y142063D01*
X476505Y142026D01*
X476727Y141952D01*
X476968Y141859D01*
X476987D01*
X477024Y141841D01*
X477079Y141822D01*
X477135Y141785D01*
X477301Y141711D01*
X477468Y141618D01*
X477505Y141600D01*
X477579Y141563D01*
X477690Y141526D01*
X477801Y141507D01*
X477857D01*
X477912Y141526D01*
X477968Y141563D01*
Y141581D01*
X478005Y141600D01*
X478079Y141711D01*
Y141730D01*
X478097Y141785D01*
X478116Y141859D01*
X478134Y141970D01*
Y141989D01*
Y142063D01*
X478153Y142174D01*
Y142304D01*
Y142322D01*
Y142341D01*
Y142452D01*
X478134Y142563D01*
X478116Y142692D01*
Y142711D01*
X478079Y142785D01*
X478042Y142859D01*
X477968Y142952D01*
X477949Y142970D01*
X477875Y143026D01*
X477764Y143118D01*
X477579Y143211D01*
X477561D01*
X477523Y143230D01*
X477468Y143266D01*
X477394Y143303D01*
X477190Y143378D01*
X476931Y143470D01*
X476912D01*
X476857Y143489D01*
X476783Y143507D01*
X476672Y143544D01*
X476561Y143581D01*
X476413Y143618D01*
X476098Y143674D01*
X476079D01*
X476024Y143692D01*
X475931Y143711D01*
X475820Y143729D01*
X475672D01*
X475524Y143748D01*
X475190Y143766D01*
D02*
G37*
G36*
X455581D02*
X455285D01*
X455081Y143748D01*
X454859Y143729D01*
X454618Y143692D01*
X454378Y143655D01*
X454137Y143600D01*
X454118D01*
X454044Y143563D01*
X453933Y143526D01*
X453785Y143470D01*
X453489Y143303D01*
X453322Y143211D01*
X453174Y143081D01*
X453156Y143063D01*
X453119Y143026D01*
X453045Y142952D01*
X452952Y142841D01*
X452859Y142730D01*
X452767Y142581D01*
X452674Y142396D01*
X452600Y142211D01*
Y142193D01*
X452563Y142119D01*
X452545Y142007D01*
X452508Y141859D01*
X452471Y141656D01*
X452452Y141452D01*
X452415Y141193D01*
Y143766D01*
Y136119D01*
X452434Y136064D01*
X452452Y136008D01*
X452508Y135953D01*
X452526D01*
X452563Y135915D01*
X452656Y135897D01*
X452767Y135878D01*
X452804D01*
X452896Y135860D01*
X453045Y135841D01*
X453470D01*
X453637Y135860D01*
X453785Y135878D01*
X453804D01*
X453878Y135897D01*
X453952Y135915D01*
X454026Y135953D01*
X454044Y135971D01*
X454063Y135990D01*
X454081Y136045D01*
X454100Y136119D01*
Y136693D01*
X454118Y136675D01*
X454174Y136619D01*
X454267Y136526D01*
X454378Y136434D01*
X454526Y136323D01*
X454692Y136193D01*
X454896Y136082D01*
X455100Y135971D01*
X455118Y135953D01*
X455192Y135934D01*
X455303Y135897D01*
X455470Y135841D01*
X455655Y135786D01*
X455859Y135749D01*
X456081Y135730D01*
X456340Y135712D01*
X452415D01*
X458933D01*
X456544D01*
X456692Y135730D01*
X456859Y135749D01*
X457026Y135767D01*
X457396Y135860D01*
X457414D01*
X457470Y135897D01*
X457563Y135915D01*
X457674Y135971D01*
X457933Y136101D01*
X458211Y136286D01*
X458229Y136304D01*
X458266Y136341D01*
X458340Y136397D01*
X458414Y136489D01*
X458488Y136601D01*
X458581Y136712D01*
X458748Y137008D01*
Y137026D01*
X458785Y137082D01*
X458803Y137175D01*
X458840Y137304D01*
X458877Y137452D01*
X458896Y137619D01*
X458933Y137823D01*
Y138137D01*
X458914Y138249D01*
X458896Y138397D01*
X458877Y138563D01*
X458822Y138749D01*
X458766Y138934D01*
X458692Y139100D01*
X458674Y139119D01*
X458655Y139174D01*
X458581Y139267D01*
X458507Y139378D01*
X458414Y139489D01*
X458285Y139619D01*
X458137Y139748D01*
X457970Y139860D01*
X457951Y139878D01*
X457877Y139915D01*
X457785Y139971D01*
X457637Y140045D01*
X457470Y140119D01*
X457266Y140193D01*
X457026Y140267D01*
X456766Y140322D01*
X456729D01*
X456637Y140341D01*
X456489Y140378D01*
X456285Y140396D01*
X456044Y140434D01*
X455766Y140452D01*
X455433Y140471D01*
X454396D01*
Y140896D01*
Y140915D01*
Y140952D01*
Y141007D01*
Y141100D01*
X454433Y141285D01*
X454470Y141470D01*
Y141489D01*
X454489Y141507D01*
X454526Y141618D01*
X454600Y141767D01*
X454711Y141896D01*
X454729Y141933D01*
X454822Y141989D01*
X454952Y142063D01*
X455118Y142137D01*
X455137D01*
X455155Y142156D01*
X455211Y142174D01*
X455285Y142193D01*
X455489Y142211D01*
X455748Y142230D01*
X455933D01*
X456063Y142211D01*
X456340Y142174D01*
X456655Y142100D01*
X456674D01*
X456729Y142081D01*
X456803Y142063D01*
X456896Y142026D01*
X457118Y141952D01*
X457359Y141859D01*
X457377D01*
X457414Y141841D01*
X457470Y141822D01*
X457525Y141785D01*
X457692Y141711D01*
X457859Y141618D01*
X457896Y141600D01*
X457970Y141563D01*
X458081Y141526D01*
X458192Y141507D01*
X458248D01*
X458303Y141526D01*
X458359Y141563D01*
Y141581D01*
X458396Y141600D01*
X458470Y141711D01*
Y141730D01*
X458488Y141785D01*
X458507Y141859D01*
X458525Y141970D01*
Y141989D01*
Y142063D01*
X458544Y142174D01*
Y142304D01*
Y142322D01*
Y142341D01*
Y142452D01*
X458525Y142563D01*
X458507Y142692D01*
Y142711D01*
X458470Y142785D01*
X458433Y142859D01*
X458359Y142952D01*
X458340Y142970D01*
X458266Y143026D01*
X458155Y143118D01*
X457970Y143211D01*
X457951D01*
X457914Y143230D01*
X457859Y143266D01*
X457785Y143303D01*
X457581Y143378D01*
X457322Y143470D01*
X457303D01*
X457248Y143489D01*
X457174Y143507D01*
X457063Y143544D01*
X456951Y143581D01*
X456803Y143618D01*
X456489Y143674D01*
X456470D01*
X456414Y143692D01*
X456322Y143711D01*
X456211Y143729D01*
X456063D01*
X455915Y143748D01*
X455581Y143766D01*
D02*
G37*
G36*
X385626Y143766D02*
X385329D01*
X385126Y143748D01*
X384903Y143729D01*
X384663Y143692D01*
X384422Y143655D01*
X384181Y143600D01*
X384163D01*
X384089Y143563D01*
X383978Y143526D01*
X383829Y143470D01*
X383533Y143303D01*
X383367Y143211D01*
X383218Y143081D01*
X383200Y143063D01*
X383163Y143026D01*
X383089Y142952D01*
X382996Y142841D01*
X382904Y142730D01*
X382811Y142581D01*
X382719Y142396D01*
X382644Y142211D01*
Y142192D01*
X382607Y142119D01*
X382589Y142007D01*
X382552Y141859D01*
X382515Y141656D01*
X382496Y141452D01*
X382459Y141193D01*
Y143766D01*
Y136119D01*
X382478Y136063D01*
X382496Y136008D01*
X382552Y135952D01*
X382570D01*
X382607Y135915D01*
X382700Y135897D01*
X382811Y135878D01*
X382848D01*
X382941Y135860D01*
X383089Y135841D01*
X383515D01*
X383681Y135860D01*
X383829Y135878D01*
X383848D01*
X383922Y135897D01*
X383996Y135915D01*
X384070Y135952D01*
X384089Y135971D01*
X384107Y135990D01*
X384126Y136045D01*
X384144Y136119D01*
Y136693D01*
X384163Y136675D01*
X384218Y136619D01*
X384311Y136526D01*
X384422Y136434D01*
X384570Y136323D01*
X384737Y136193D01*
X384940Y136082D01*
X385144Y135971D01*
X385163Y135952D01*
X385237Y135934D01*
X385348Y135897D01*
X385514Y135841D01*
X385700Y135786D01*
X385903Y135749D01*
X386125Y135730D01*
X386385Y135712D01*
X382459D01*
X388977D01*
X386588D01*
X386737Y135730D01*
X386903Y135749D01*
X387070Y135767D01*
X387440Y135860D01*
X387459D01*
X387514Y135897D01*
X387607Y135915D01*
X387718Y135971D01*
X387977Y136101D01*
X388255Y136286D01*
X388273Y136304D01*
X388311Y136341D01*
X388385Y136397D01*
X388459Y136489D01*
X388533Y136601D01*
X388625Y136712D01*
X388792Y137008D01*
Y137026D01*
X388829Y137082D01*
X388848Y137175D01*
X388885Y137304D01*
X388922Y137452D01*
X388940Y137619D01*
X388977Y137823D01*
Y138137D01*
X388959Y138249D01*
X388940Y138397D01*
X388922Y138563D01*
X388866Y138748D01*
X388810Y138934D01*
X388736Y139100D01*
X388718Y139119D01*
X388699Y139174D01*
X388625Y139267D01*
X388551Y139378D01*
X388459Y139489D01*
X388329Y139619D01*
X388181Y139748D01*
X388014Y139859D01*
X387996Y139878D01*
X387922Y139915D01*
X387829Y139971D01*
X387681Y140045D01*
X387514Y140119D01*
X387311Y140193D01*
X387070Y140267D01*
X386811Y140322D01*
X386774D01*
X386681Y140341D01*
X386533Y140378D01*
X386329Y140396D01*
X386088Y140434D01*
X385811Y140452D01*
X385477Y140471D01*
X384440D01*
Y140896D01*
Y140915D01*
Y140952D01*
Y141007D01*
Y141100D01*
X384478Y141285D01*
X384515Y141470D01*
Y141489D01*
X384533Y141507D01*
X384570Y141618D01*
X384644Y141767D01*
X384755Y141896D01*
X384774Y141933D01*
X384866Y141989D01*
X384996Y142063D01*
X385163Y142137D01*
X385181D01*
X385200Y142156D01*
X385255Y142174D01*
X385329Y142192D01*
X385533Y142211D01*
X385792Y142230D01*
X385977D01*
X386107Y142211D01*
X386385Y142174D01*
X386699Y142100D01*
X386718D01*
X386774Y142081D01*
X386848Y142063D01*
X386940Y142026D01*
X387162Y141952D01*
X387403Y141859D01*
X387422D01*
X387459Y141841D01*
X387514Y141822D01*
X387570Y141785D01*
X387737Y141711D01*
X387903Y141618D01*
X387940Y141600D01*
X388014Y141563D01*
X388125Y141526D01*
X388236Y141507D01*
X388292D01*
X388348Y141526D01*
X388403Y141563D01*
Y141581D01*
X388440Y141600D01*
X388514Y141711D01*
Y141730D01*
X388533Y141785D01*
X388551Y141859D01*
X388570Y141970D01*
Y141989D01*
Y142063D01*
X388588Y142174D01*
Y142304D01*
Y142322D01*
Y142341D01*
Y142452D01*
X388570Y142563D01*
X388551Y142692D01*
Y142711D01*
X388514Y142785D01*
X388477Y142859D01*
X388403Y142952D01*
X388385Y142970D01*
X388311Y143026D01*
X388199Y143118D01*
X388014Y143211D01*
X387996D01*
X387959Y143230D01*
X387903Y143266D01*
X387829Y143303D01*
X387625Y143378D01*
X387366Y143470D01*
X387348D01*
X387292Y143489D01*
X387218Y143507D01*
X387107Y143544D01*
X386996Y143581D01*
X386848Y143618D01*
X386533Y143674D01*
X386514D01*
X386459Y143692D01*
X386366Y143711D01*
X386255Y143729D01*
X386107D01*
X385959Y143748D01*
X385626Y143766D01*
D02*
G37*
G36*
X397791Y140896D02*
Y140896D01*
D01*
Y140896D01*
D02*
G37*
G36*
X424362Y143766D02*
X424214D01*
X424048Y143748D01*
X423825Y143729D01*
X423585Y143692D01*
X423325Y143655D01*
X423066Y143581D01*
X422825Y143489D01*
X422788Y143470D01*
X422714Y143433D01*
X422603Y143378D01*
X422455Y143303D01*
X422288Y143192D01*
X422103Y143063D01*
X421937Y142915D01*
X421770Y142748D01*
X421752Y142730D01*
X421696Y142674D01*
X421622Y142563D01*
X421548Y142433D01*
X421437Y142267D01*
X421344Y142081D01*
X421251Y141878D01*
X421177Y141637D01*
X421159Y141600D01*
X421140Y141526D01*
X421103Y141396D01*
X421066Y141230D01*
X421029Y141026D01*
X421011Y140785D01*
X420974Y140545D01*
Y143766D01*
Y139804D01*
X420992Y139730D01*
X421048Y139563D01*
X421140Y139396D01*
X421177Y139378D01*
X421251Y139323D01*
X421400Y139248D01*
X421603Y139230D01*
X425936D01*
Y139211D01*
Y139156D01*
Y139063D01*
X425918Y138952D01*
X425899Y138674D01*
X425844Y138378D01*
Y138360D01*
X425825Y138323D01*
X425788Y138249D01*
X425751Y138156D01*
X425640Y137952D01*
X425492Y137748D01*
X425473Y137730D01*
X425455Y137711D01*
X425399Y137656D01*
X425325Y137600D01*
X425140Y137471D01*
X424881Y137360D01*
X424862D01*
X424807Y137341D01*
X424733Y137323D01*
X424622Y137304D01*
X424492Y137267D01*
X424344Y137249D01*
X424177Y137230D01*
X423807D01*
X423677Y137249D01*
X423381Y137267D01*
X423066Y137304D01*
X423048D01*
X422992Y137323D01*
X422918Y137341D01*
X422825Y137360D01*
X422603Y137397D01*
X422381Y137452D01*
X422363D01*
X422326Y137471D01*
X422214Y137508D01*
X422048Y137563D01*
X421900Y137619D01*
X421881D01*
X421863Y137637D01*
X421788Y137675D01*
X421677Y137693D01*
X421566Y137711D01*
X421529D01*
X421455Y137675D01*
X421437D01*
X421418Y137656D01*
X421381Y137563D01*
Y137545D01*
X421363Y137526D01*
X421344Y137452D01*
X421326Y137360D01*
Y137341D01*
X421307Y137267D01*
Y137175D01*
Y137045D01*
Y137008D01*
Y136934D01*
Y136841D01*
X421326Y136730D01*
Y136712D01*
Y136656D01*
X421344Y136526D01*
Y136508D01*
X421363Y136471D01*
X421400Y136378D01*
X421418Y136341D01*
X421492Y136267D01*
Y136249D01*
X421548Y136230D01*
X421622Y136175D01*
X421696Y136138D01*
X421770Y136101D01*
X421788D01*
X421807Y136082D01*
X421863Y136063D01*
X421918Y136045D01*
X422122Y135990D01*
X422363Y135934D01*
X422381D01*
X422418Y135915D01*
X422492D01*
X422603Y135897D01*
X422714Y135860D01*
X422863Y135841D01*
X423177Y135786D01*
X423196D01*
X423251Y135767D01*
X423344D01*
X423474Y135749D01*
X423622Y135730D01*
X423788D01*
X424177Y135712D01*
X420974D01*
D01*
X427991D01*
D01*
X424344D01*
X424510Y135730D01*
X424751Y135749D01*
X425010Y135767D01*
X425288Y135804D01*
X425584Y135860D01*
X425862Y135934D01*
X425899Y135952D01*
X425973Y135971D01*
X426103Y136045D01*
X426269Y136119D01*
X426455Y136212D01*
X426658Y136341D01*
X426862Y136489D01*
X427047Y136656D01*
X427066Y136675D01*
X427121Y136749D01*
X427214Y136860D01*
X427325Y137008D01*
X427436Y137175D01*
X427547Y137397D01*
X427677Y137637D01*
X427769Y137897D01*
Y137934D01*
X427806Y138026D01*
X427843Y138193D01*
X427880Y138397D01*
X427918Y138656D01*
X427954Y138952D01*
X427973Y139285D01*
X427991Y139656D01*
Y139822D01*
X427973Y139989D01*
X427954Y140230D01*
X427936Y140489D01*
X427880Y140767D01*
X427825Y141063D01*
X427751Y141359D01*
X427732Y141396D01*
X427714Y141489D01*
X427658Y141637D01*
X427566Y141822D01*
X427473Y142026D01*
X427343Y142230D01*
X427214Y142452D01*
X427047Y142655D01*
X427029Y142674D01*
X426955Y142748D01*
X426862Y142841D01*
X426714Y142952D01*
X426547Y143100D01*
X426344Y143230D01*
X426121Y143359D01*
X425881Y143470D01*
X425844Y143489D01*
X425751Y143526D01*
X425621Y143563D01*
X425436Y143618D01*
X425214Y143674D01*
X424955Y143729D01*
X424659Y143748D01*
X424362Y143766D01*
D02*
G37*
G36*
X482634Y143766D02*
X482504D01*
X482356Y143748D01*
X482171Y143729D01*
X481967Y143692D01*
X481745Y143637D01*
X481523Y143563D01*
X481301Y143452D01*
X481282Y143433D01*
X481208Y143396D01*
X481116Y143322D01*
X480986Y143230D01*
X480838Y143100D01*
X480690Y142952D01*
X480542Y142785D01*
X480412Y142600D01*
X480393Y142581D01*
X480356Y142507D01*
X480282Y142396D01*
X480208Y142248D01*
X480134Y142063D01*
X480042Y141841D01*
X479968Y141600D01*
X479894Y141341D01*
Y141304D01*
X479875Y141211D01*
X479838Y141082D01*
X479801Y140896D01*
X479782Y140674D01*
X479745Y140415D01*
X479727Y140137D01*
Y140156D01*
Y139674D01*
X479745Y139489D01*
Y139267D01*
X479782Y138989D01*
X479819Y138711D01*
X479875Y138415D01*
X479949Y138119D01*
Y138082D01*
X479986Y137989D01*
X480042Y137860D01*
X480097Y137675D01*
X480190Y137471D01*
X480282Y137249D01*
X480412Y137026D01*
X480542Y136823D01*
X480560Y136804D01*
X480616Y136730D01*
X480690Y136638D01*
X480801Y136526D01*
X480949Y136378D01*
X481116Y136249D01*
X481319Y136119D01*
X481523Y135990D01*
X481542Y135971D01*
X481616Y135953D01*
X481745Y135897D01*
X481893Y135860D01*
X482097Y135804D01*
X482319Y135749D01*
X482560Y135730D01*
X482838Y135712D01*
X482949D01*
X483023Y135730D01*
X483208Y135749D01*
X483412Y135786D01*
X483430D01*
X483449Y135804D01*
X483578Y135823D01*
X483745Y135878D01*
X483930Y135953D01*
X483949D01*
X483967Y135971D01*
X484078Y136026D01*
X484226Y136119D01*
X484412Y136249D01*
X484430D01*
X484449Y136286D01*
X484560Y136378D01*
X484708Y136508D01*
X484893Y136693D01*
Y133342D01*
Y133323D01*
Y133305D01*
X484912Y133249D01*
X484949Y133212D01*
X484967Y133194D01*
X484986Y133175D01*
X485041Y133138D01*
X485115Y133101D01*
X485134D01*
X485189Y133064D01*
X485300Y133045D01*
X485430Y133027D01*
X485467D01*
X485560Y133008D01*
X485708Y132990D01*
X486078D01*
X486245Y133008D01*
X486411Y133027D01*
X486449D01*
X486522Y133045D01*
X486615Y133064D01*
X486708Y133101D01*
X486726D01*
X486763Y133138D01*
X486819Y133156D01*
X486874Y133212D01*
Y133230D01*
X486893Y133249D01*
X486911Y133342D01*
Y143341D01*
X486874Y143433D01*
Y143452D01*
X486837Y143470D01*
X486800Y143489D01*
X486745Y143526D01*
X486726D01*
X486671Y143544D01*
X486597Y143563D01*
X486485Y143581D01*
X486449D01*
X486374Y143600D01*
X486226Y143618D01*
X485911D01*
X485800Y143600D01*
X485671Y143581D01*
X485634D01*
X485578Y143563D01*
X485486Y143544D01*
X485411Y143526D01*
X485393D01*
X485356Y143507D01*
X485300Y143470D01*
X485263Y143433D01*
X485245Y143415D01*
X485226Y143396D01*
X485208Y143341D01*
Y143285D01*
Y142452D01*
X485189Y142470D01*
X485152Y142507D01*
X485097Y142563D01*
X485023Y142655D01*
X484837Y142841D01*
X484615Y143026D01*
X484597Y143044D01*
X484560Y143063D01*
X484504Y143118D01*
X484412Y143174D01*
X484208Y143303D01*
X483986Y143433D01*
X483967D01*
X483930Y143470D01*
X483875Y143489D01*
X483782Y143526D01*
X483578Y143600D01*
X483356Y143674D01*
X483338D01*
X483301Y143692D01*
X483227Y143711D01*
X483134Y143729D01*
X482912Y143748D01*
X482634Y143766D01*
D02*
G37*
G36*
X411716Y140730D02*
X408327D01*
X408271Y140711D01*
X408234Y140674D01*
X408216D01*
X408197Y140637D01*
X408160Y140600D01*
X408123Y140545D01*
X408105Y140526D01*
X408086Y140471D01*
X408068Y140396D01*
X408049Y140285D01*
Y140267D01*
X408031Y140174D01*
X408012Y140063D01*
Y139748D01*
X408031Y139637D01*
X408049Y139434D01*
X408068Y139323D01*
X408105Y139248D01*
X408123Y139230D01*
X408179Y139174D01*
X408253Y139100D01*
X408382Y139082D01*
X408012D01*
D01*
X412086D01*
Y140045D01*
X412067Y140156D01*
X412049Y140359D01*
X412030Y140471D01*
X412012Y140545D01*
X411993Y140582D01*
X411938Y140637D01*
X411845Y140693D01*
X411716Y140730D01*
D02*
G37*
G36*
X419511Y143618D02*
X418974D01*
X418789Y143600D01*
X418622Y143581D01*
X418585D01*
X418511Y143563D01*
X418400Y143544D01*
X418307Y143526D01*
X418289D01*
X418252Y143507D01*
X418196Y143470D01*
X418159Y143415D01*
X418141Y143396D01*
X418122Y143378D01*
X418067Y143266D01*
X416456Y138026D01*
X416400Y137823D01*
X416345Y138026D01*
X414752Y143266D01*
Y143285D01*
X414734Y143322D01*
X414678Y143415D01*
X414660Y143433D01*
X414641Y143452D01*
X414585Y143489D01*
X414511Y143526D01*
X414493D01*
X414437Y143544D01*
X414345Y143563D01*
X414215Y143581D01*
X414178D01*
X414086Y143600D01*
X413919Y143618D01*
X413382D01*
X413234Y143600D01*
X413197D01*
X413123Y143581D01*
X413030Y143563D01*
X412938Y143526D01*
X412919D01*
X412882Y143507D01*
X412826Y143470D01*
X412789Y143433D01*
X412771Y143396D01*
X412752Y143303D01*
Y135841D01*
X415804D01*
X412752D01*
Y143155D01*
X412771Y143063D01*
Y143044D01*
X412789Y143026D01*
X412808Y142915D01*
Y142896D01*
X412826Y142859D01*
X412845Y142804D01*
X412864Y142730D01*
X415011Y136267D01*
Y136249D01*
X415030Y136175D01*
X415067Y136101D01*
X415122Y136026D01*
X415141Y136008D01*
X415178Y135990D01*
X415234Y135952D01*
X415345Y135915D01*
X415363D01*
X415456Y135897D01*
X415585Y135878D01*
X415771Y135860D01*
X415956D01*
X416048Y135841D01*
X420159D01*
Y143341D01*
Y143341D01*
X420122Y143433D01*
X420103Y143452D01*
X420085Y143470D01*
X420029Y143489D01*
X419955Y143526D01*
X419937Y143544D01*
X419881Y143563D01*
X419789Y143581D01*
X419659Y143600D01*
X419622D01*
X419511Y143618D01*
D02*
G37*
G36*
X420974Y136341D02*
D01*
D01*
D01*
D02*
G37*
G36*
Y135934D02*
D01*
D01*
D01*
D02*
G37*
G36*
X437787Y146248D02*
X429177D01*
X434269D01*
X434158Y146229D01*
X434009D01*
X433695Y146211D01*
X433324Y146174D01*
X432935Y146100D01*
X432528Y146025D01*
X432158Y145914D01*
X432139D01*
X432121Y145896D01*
X432065Y145877D01*
X431991Y145859D01*
X431824Y145785D01*
X431602Y145674D01*
X431343Y145544D01*
X431065Y145377D01*
X430806Y145174D01*
X430547Y144951D01*
X430510Y144915D01*
X430436Y144840D01*
X430325Y144711D01*
X430177Y144526D01*
X430010Y144285D01*
X429843Y144026D01*
X429677Y143711D01*
X429528Y143378D01*
Y143359D01*
X429510Y143341D01*
X429491Y143285D01*
X429473Y143211D01*
X429417Y143026D01*
X429343Y142767D01*
X429288Y142433D01*
X429232Y142081D01*
X429195Y141656D01*
X429177Y141211D01*
Y140970D01*
X429195Y140841D01*
Y140711D01*
X429232Y140378D01*
X429269Y139989D01*
X429343Y139582D01*
X429436Y139156D01*
X429566Y138767D01*
Y138749D01*
X429584Y138730D01*
X429603Y138674D01*
X429640Y138600D01*
X429714Y138415D01*
X429843Y138193D01*
X429991Y137934D01*
X430177Y137656D01*
X430399Y137378D01*
X430639Y137119D01*
X430676Y137100D01*
X430769Y137008D01*
X430917Y136897D01*
X431102Y136767D01*
X431343Y136619D01*
X431639Y136471D01*
X431973Y136323D01*
X432324Y136193D01*
X432343D01*
X432361Y136175D01*
X432417D01*
X432510Y136156D01*
X432602Y136119D01*
X432713Y136101D01*
X432991Y136045D01*
X433343Y135990D01*
X433750Y135953D01*
X434195Y135915D01*
X434695Y135897D01*
X437213D01*
X437324Y135915D01*
X437472Y135953D01*
X437620Y136045D01*
X437639Y136082D01*
X437694Y136156D01*
X437768Y136323D01*
X437787Y136415D01*
Y145637D01*
X437768Y145692D01*
Y145785D01*
X437713Y145933D01*
X437676Y146025D01*
X437620Y146081D01*
X437583Y146100D01*
X437491Y146174D01*
X437361Y146229D01*
X437176Y146248D01*
X437787D01*
D02*
G37*
G36*
X405809Y146248D02*
X402864D01*
X402642Y146229D01*
X402383Y146211D01*
X402124Y146174D01*
X401846Y146137D01*
X401587Y146081D01*
X401550D01*
X401476Y146044D01*
X401346Y146007D01*
X401198Y145951D01*
X401013Y145877D01*
X400828Y145803D01*
X400643Y145692D01*
X400476Y145581D01*
X400457Y145562D01*
X400402Y145526D01*
X400309Y145451D01*
X400217Y145359D01*
X400106Y145248D01*
X399976Y145100D01*
X399865Y144951D01*
X399772Y144766D01*
X399754Y144748D01*
X399735Y144674D01*
X399698Y144581D01*
X399643Y144452D01*
X399606Y144266D01*
X399569Y144081D01*
X399550Y143859D01*
X399532Y143618D01*
Y143600D01*
Y143544D01*
Y143470D01*
X399550Y143378D01*
X399569Y143155D01*
X399643Y142896D01*
Y142878D01*
X399661Y142841D01*
X399680Y142785D01*
X399717Y142692D01*
X399791Y142507D01*
X399920Y142285D01*
Y142267D01*
X399957Y142248D01*
X400050Y142137D01*
X400198Y141989D01*
X400383Y141822D01*
X400402D01*
X400420Y141785D01*
X400476Y141748D01*
X400550Y141711D01*
X400735Y141600D01*
X400976Y141489D01*
X400957D01*
X400902Y141470D01*
X400828Y141452D01*
X400717Y141415D01*
X400457Y141322D01*
X400180Y141193D01*
X400161D01*
X400124Y141156D01*
X400050Y141119D01*
X399957Y141063D01*
X399754Y140896D01*
X399532Y140693D01*
X399513Y140674D01*
X399476Y140637D01*
X399439Y140563D01*
X399365Y140489D01*
X399309Y140378D01*
X399235Y140248D01*
X399087Y139952D01*
Y139934D01*
X399069Y139878D01*
X399032Y139785D01*
X398995Y139674D01*
X398976Y139526D01*
X398939Y139360D01*
X398921Y138989D01*
Y138785D01*
X398939Y138656D01*
X398957Y138508D01*
X398995Y138341D01*
X399087Y137989D01*
Y137971D01*
X399106Y137915D01*
X399143Y137823D01*
X399198Y137730D01*
X399328Y137471D01*
X399513Y137193D01*
X399532Y137175D01*
X399550Y137137D01*
X399606Y137082D01*
X399680Y136989D01*
X399883Y136804D01*
X400143Y136601D01*
X400161Y136582D01*
X400198Y136564D01*
X400291Y136508D01*
X400383Y136452D01*
X400494Y136397D01*
X400643Y136323D01*
X400957Y136193D01*
X400976D01*
X401031Y136175D01*
X401124Y136138D01*
X401235Y136119D01*
X401383Y136082D01*
X401550Y136045D01*
X401920Y135971D01*
X401939D01*
X402013Y135952D01*
X402105D01*
X402253Y135934D01*
X402420Y135915D01*
X402605D01*
X402827Y135897D01*
X398921D01*
D01*
X406420D01*
D01*
X405846D01*
X405957Y135915D01*
X406105Y135952D01*
X406253Y136045D01*
X406272Y136082D01*
X406327Y136156D01*
X406401Y136323D01*
X406420Y136415D01*
Y145637D01*
X406401Y145692D01*
Y145785D01*
X406346Y145933D01*
X406309Y146025D01*
X406253Y146081D01*
X406216Y146100D01*
X406123Y146174D01*
X405994Y146229D01*
X405809Y146248D01*
D02*
G37*
G36*
X466413Y143766D02*
X466265D01*
X466191Y143748D01*
X466173D01*
X466117Y143729D01*
X466025Y143711D01*
X465932Y143692D01*
X465914D01*
X465858Y143674D01*
X465710Y143637D01*
X465691D01*
X465654Y143618D01*
X465617Y143600D01*
X465580Y143563D01*
X465562D01*
X465543Y143544D01*
X465506Y143470D01*
X465488Y143433D01*
Y143396D01*
X465469Y143341D01*
Y143322D01*
X465451Y143285D01*
Y143211D01*
Y143100D01*
Y143063D01*
X465432Y142989D01*
Y135841D01*
Y142304D01*
X465451Y142156D01*
Y142137D01*
X465469Y142063D01*
X465488Y141970D01*
X465506Y141878D01*
Y141859D01*
X465525Y141822D01*
X465562Y141767D01*
X465599Y141730D01*
X465636Y141711D01*
X465673Y141693D01*
X465765D01*
X465877Y141711D01*
X465895D01*
X465932Y141730D01*
X465988Y141748D01*
X466062Y141767D01*
X466080D01*
X466117Y141785D01*
X466191Y141822D01*
X466284Y141841D01*
X466302D01*
X466358Y141859D01*
X466432Y141878D01*
X466636D01*
X466747Y141841D01*
X466876Y141804D01*
X466913Y141785D01*
X466987Y141748D01*
X467099Y141674D01*
X467228Y141581D01*
X467265Y141563D01*
X467339Y141470D01*
X467450Y141359D01*
X467599Y141193D01*
Y141174D01*
X467636Y141156D01*
X467673Y141100D01*
X467710Y141026D01*
X467839Y140841D01*
X468006Y140600D01*
Y136156D01*
Y136138D01*
Y136101D01*
X468024Y136064D01*
X468061Y136008D01*
X468080D01*
X468098Y135971D01*
X468154Y135953D01*
X468228Y135915D01*
X468247D01*
X468302Y135897D01*
X468413D01*
X468543Y135878D01*
X468580D01*
X468672Y135860D01*
X468821Y135841D01*
X465432D01*
X470024D01*
D01*
X469191D01*
X469358Y135860D01*
X469524Y135878D01*
X469561D01*
X469635Y135897D01*
X469728D01*
X469821Y135915D01*
X469839D01*
X469876Y135934D01*
X469932Y135971D01*
X469987Y136008D01*
Y136026D01*
X470006Y136045D01*
X470024Y136156D01*
Y143341D01*
X469987Y143433D01*
Y143452D01*
X469950Y143470D01*
X469913Y143489D01*
X469858Y143526D01*
X469839D01*
X469784Y143544D01*
X469691Y143563D01*
X469580Y143581D01*
X469543D01*
X469469Y143600D01*
X469339Y143618D01*
X469024D01*
X468876Y143600D01*
X468747Y143581D01*
X468710D01*
X468654Y143563D01*
X468561Y143544D01*
X468487Y143526D01*
X468469D01*
X468432Y143507D01*
X468395Y143470D01*
X468358Y143433D01*
X468339Y143415D01*
X468321Y143396D01*
X468302Y143341D01*
Y143285D01*
Y142396D01*
X468284Y142415D01*
X468247Y142470D01*
X468210Y142544D01*
X468135Y142637D01*
X467969Y142859D01*
X467784Y143063D01*
X467765Y143081D01*
X467747Y143100D01*
X467617Y143211D01*
X467469Y143341D01*
X467302Y143470D01*
X467284D01*
X467265Y143489D01*
X467154Y143563D01*
X467024Y143637D01*
X466858Y143692D01*
X466839D01*
X466821Y143711D01*
X466710Y143729D01*
X466580Y143748D01*
X466413Y143766D01*
D02*
G37*
G36*
X450415D02*
X443601D01*
X446101D01*
X445971Y143748D01*
X445804Y143729D01*
X445601Y143711D01*
X445397Y143674D01*
X445193Y143600D01*
X444990Y143526D01*
X444971Y143507D01*
X444897Y143489D01*
X444823Y143433D01*
X444693Y143359D01*
X444582Y143266D01*
X444434Y143137D01*
X444305Y143007D01*
X444194Y142859D01*
X444175Y142841D01*
X444138Y142785D01*
X444082Y142692D01*
X444027Y142581D01*
X443953Y142452D01*
X443879Y142285D01*
X443805Y142100D01*
X443749Y141896D01*
Y141878D01*
X443731Y141804D01*
X443694Y141674D01*
X443675Y141526D01*
X443638Y141322D01*
X443620Y141100D01*
X443601Y140841D01*
Y135841D01*
Y136101D01*
X443620Y136064D01*
X443657Y136008D01*
X443675D01*
X443694Y135971D01*
X443749Y135953D01*
X443823Y135915D01*
X443842D01*
X443897Y135897D01*
X444008D01*
X444138Y135878D01*
X444175D01*
X444268Y135860D01*
X444416Y135841D01*
X443601D01*
X444768D01*
X444934Y135860D01*
X445101Y135878D01*
X445138D01*
X445212Y135897D01*
X445305D01*
X445397Y135915D01*
X445416D01*
X445453Y135934D01*
X445508Y135971D01*
X445564Y136008D01*
Y136026D01*
X445582Y136045D01*
X445601Y136156D01*
Y140230D01*
Y140248D01*
Y140322D01*
Y140415D01*
X445619Y140526D01*
X445638Y140785D01*
X445656Y140933D01*
X445693Y141045D01*
Y141063D01*
X445712Y141100D01*
X445731Y141156D01*
X445749Y141211D01*
X445823Y141378D01*
X445916Y141545D01*
Y141563D01*
X445934Y141581D01*
X446008Y141674D01*
X446119Y141785D01*
X446286Y141878D01*
X446305D01*
X446323Y141896D01*
X446434Y141952D01*
X446601Y141989D01*
X446804Y142007D01*
X446879D01*
X446953Y141989D01*
X447045Y141970D01*
X447175Y141933D01*
X447304Y141878D01*
X447453Y141804D01*
X447601Y141711D01*
X447619Y141693D01*
X447675Y141656D01*
X447749Y141600D01*
X447841Y141507D01*
X447971Y141396D01*
X448101Y141248D01*
X448249Y141082D01*
X448397Y140896D01*
Y136156D01*
Y136138D01*
Y136101D01*
X448415Y136064D01*
X448452Y136008D01*
X448471D01*
X448489Y135971D01*
X448545Y135953D01*
X448619Y135915D01*
X448638D01*
X448693Y135897D01*
X448804D01*
X448934Y135878D01*
X448971D01*
X449063Y135860D01*
X449212Y135841D01*
X449582D01*
X449749Y135860D01*
X449915Y135878D01*
X449952D01*
X450026Y135897D01*
X450119D01*
X450211Y135915D01*
X450230D01*
X450267Y135934D01*
X450323Y135971D01*
X450378Y136008D01*
Y136026D01*
X450397Y136045D01*
X450415Y136156D01*
Y143341D01*
X450378Y143433D01*
Y143452D01*
X450341Y143470D01*
X450304Y143489D01*
X450248Y143526D01*
X450230D01*
X450174Y143544D01*
X450082Y143563D01*
X449971Y143581D01*
X449934D01*
X449860Y143600D01*
X449730Y143618D01*
X449415D01*
X449267Y143600D01*
X449137Y143581D01*
X449100D01*
X449045Y143563D01*
X448952Y143544D01*
X448878Y143526D01*
X448860D01*
X448823Y143507D01*
X448786Y143470D01*
X448749Y143433D01*
X448730Y143415D01*
X448712Y143396D01*
X448693Y143341D01*
Y143285D01*
Y142470D01*
X448675Y142507D01*
X448601Y142581D01*
X448471Y142692D01*
X448323Y142841D01*
X448156Y142989D01*
X447952Y143155D01*
X447730Y143303D01*
X447508Y143433D01*
X447471Y143452D01*
X447397Y143489D01*
X447267Y143544D01*
X447119Y143600D01*
X446916Y143655D01*
X446712Y143711D01*
X446471Y143748D01*
X446230Y143766D01*
X450415D01*
D02*
G37*
G36*
X463044Y145507D02*
X462692D01*
X462525Y145489D01*
X462377Y145470D01*
X462340D01*
X462266Y145451D01*
X462155Y145433D01*
X462062Y145414D01*
X462044D01*
X462006Y145396D01*
X461951Y145359D01*
X461895Y145303D01*
X461877Y145285D01*
X461858Y145266D01*
X461840Y145211D01*
Y145155D01*
Y143581D01*
X460247D01*
X460192Y143563D01*
X460155Y143526D01*
X460136D01*
X460118Y143489D01*
X460099Y143452D01*
X460062Y143396D01*
Y143378D01*
X460044Y143322D01*
X460025Y143248D01*
X460007Y143137D01*
Y143118D01*
X459988Y143044D01*
X459970Y142915D01*
Y135730D01*
X465006D01*
X461729D01*
X461877Y135749D01*
X462044Y135767D01*
X462210Y135786D01*
X462562Y135878D01*
X462581D01*
X462636Y135915D01*
X462710Y135934D01*
X462821Y135990D01*
X463062Y136138D01*
X463303Y136341D01*
X463321Y136360D01*
X463340Y136397D01*
X463395Y136471D01*
X463451Y136564D01*
X463525Y136675D01*
X463599Y136804D01*
X463655Y136971D01*
X463710Y137137D01*
Y137156D01*
X463729Y137230D01*
X463747Y137323D01*
X463766Y137471D01*
X463803Y137638D01*
X463821Y137823D01*
X463840Y138045D01*
Y138286D01*
Y141952D01*
X464729D01*
X464784Y141970D01*
X464858Y142026D01*
X464932Y142137D01*
Y142156D01*
X464951Y142174D01*
Y142211D01*
X464969Y142285D01*
X464988Y142378D01*
Y142489D01*
X465006Y142618D01*
Y143026D01*
X464988Y143137D01*
Y143174D01*
X464969Y143230D01*
X464951Y143322D01*
X464932Y143396D01*
Y143415D01*
X464914Y143452D01*
X464877Y143489D01*
X464840Y143526D01*
X464821Y143544D01*
X464803Y143563D01*
X464747Y143581D01*
X463840D01*
Y145155D01*
Y145174D01*
Y145211D01*
X463803Y145303D01*
Y145322D01*
X463766Y145340D01*
X463729Y145377D01*
X463655Y145414D01*
X463636D01*
X463562Y145433D01*
X463469Y145451D01*
X463340Y145470D01*
X463303D01*
X463210Y145489D01*
X463044Y145507D01*
D02*
G37*
G36*
X491763Y146433D02*
X491263D01*
X491041Y146396D01*
X490763Y146359D01*
X490744D01*
X490707Y146340D01*
X490633D01*
X490541Y146322D01*
X490318Y146266D01*
X490078Y146211D01*
X490059D01*
X490022Y146192D01*
X489967Y146174D01*
X489893Y146155D01*
X489707Y146081D01*
X489522Y145989D01*
X489504D01*
X489485Y145970D01*
X489374Y145933D01*
X489263Y145859D01*
X489189Y145803D01*
X489170Y145785D01*
X489152Y145766D01*
X489115Y145711D01*
X489096Y145655D01*
Y145637D01*
X489078Y145618D01*
X489041Y145507D01*
Y145489D01*
X489022Y145451D01*
X489004Y145359D01*
Y145266D01*
Y145248D01*
X488985Y145174D01*
Y145063D01*
Y144933D01*
Y144915D01*
Y144896D01*
Y144785D01*
Y144655D01*
X489004Y144526D01*
Y144507D01*
X489022Y144433D01*
X489041Y144359D01*
X489059Y144266D01*
Y144248D01*
X489078Y144211D01*
X489133Y144118D01*
X489170Y144100D01*
X489207Y144081D01*
X489282D01*
X489337Y144100D01*
X489430Y144137D01*
X489559Y144192D01*
X489596Y144211D01*
X489689Y144266D01*
X489837Y144340D01*
X490022Y144433D01*
X490041D01*
X490078Y144452D01*
X490133Y144489D01*
X490207Y144507D01*
X490411Y144581D01*
X490670Y144674D01*
X490689D01*
X490726Y144692D01*
X490818Y144711D01*
X490911Y144729D01*
X491022Y144748D01*
X491170Y144766D01*
X491485Y144785D01*
X491596D01*
X491689Y144766D01*
X491874Y144748D01*
X492077Y144692D01*
X492096D01*
X492114Y144674D01*
X492226Y144637D01*
X492374Y144544D01*
X492503Y144452D01*
X492522Y144433D01*
X492596Y144359D01*
X492688Y144248D01*
X492763Y144100D01*
X492781Y144063D01*
X492800Y143970D01*
X492818Y143841D01*
X492837Y143674D01*
Y143655D01*
Y143618D01*
X492818Y143544D01*
Y143470D01*
X492763Y143266D01*
X492651Y143063D01*
Y143044D01*
X492615Y143026D01*
X492522Y142915D01*
X492355Y142767D01*
X492152Y142618D01*
X492133D01*
X492096Y142581D01*
X492022Y142544D01*
X491948Y142507D01*
X491726Y142378D01*
X491448Y142248D01*
X491429D01*
X491374Y142211D01*
X491300Y142193D01*
X491189Y142137D01*
X491078Y142081D01*
X490929Y142026D01*
X490633Y141896D01*
X490615D01*
X490559Y141859D01*
X490485Y141822D01*
X490374Y141767D01*
X490115Y141637D01*
X489818Y141452D01*
X489800Y141433D01*
X489744Y141415D01*
X489670Y141359D01*
X489578Y141285D01*
X489337Y141100D01*
X489096Y140859D01*
X489078Y140841D01*
X489041Y140804D01*
X488985Y140730D01*
X488911Y140637D01*
X488837Y140526D01*
X488745Y140378D01*
X488596Y140063D01*
X488578Y140045D01*
X488559Y139989D01*
X488522Y139896D01*
X488485Y139767D01*
X488448Y139600D01*
X488430Y139415D01*
X488393Y139211D01*
Y135712D01*
X495151D01*
D01*
X492411D01*
X492559Y135730D01*
X492707D01*
X492874Y135749D01*
X493226Y135804D01*
X493244D01*
X493300Y135823D01*
X493392Y135841D01*
X493503Y135860D01*
X493763Y135934D01*
X494040Y136008D01*
X494059D01*
X494096Y136026D01*
X494170Y136045D01*
X494244Y136082D01*
X494429Y136156D01*
X494633Y136249D01*
X494651D01*
X494670Y136267D01*
X494762Y136341D01*
X494874Y136415D01*
X494985Y136508D01*
X495003Y136526D01*
X495040Y136582D01*
X495077Y136675D01*
X495114Y136804D01*
Y136823D01*
Y136841D01*
X495133Y136952D01*
X495151Y137137D01*
Y137823D01*
X495133Y137878D01*
X495114Y137971D01*
X495096Y138063D01*
Y138082D01*
X495077Y138119D01*
X495040Y138174D01*
X495003Y138211D01*
X494985Y138230D01*
X494948Y138249D01*
X494911Y138267D01*
X494837D01*
X494781Y138249D01*
X494670Y138211D01*
X494540Y138119D01*
X494522D01*
X494503Y138100D01*
X494392Y138026D01*
X494244Y137934D01*
X494022Y137823D01*
X494003D01*
X493966Y137804D01*
X493892Y137767D01*
X493800Y137730D01*
X493688Y137693D01*
X493559Y137638D01*
X493263Y137545D01*
X493244D01*
X493189Y137526D01*
X493096Y137508D01*
X492966Y137489D01*
X492818Y137452D01*
X492633Y137434D01*
X492448Y137415D01*
X492077D01*
X491985Y137434D01*
X491763Y137452D01*
X491540Y137489D01*
X491522D01*
X491485Y137508D01*
X491429Y137526D01*
X491355Y137563D01*
X491189Y137638D01*
X491022Y137749D01*
X491003D01*
X490985Y137786D01*
X490911Y137860D01*
X490800Y137989D01*
X490707Y138156D01*
Y138174D01*
X490689Y138193D01*
X490670Y138249D01*
X490633Y138323D01*
X490596Y138508D01*
X490578Y138711D01*
Y138730D01*
Y138767D01*
X490596Y138841D01*
Y138915D01*
X490670Y139119D01*
X490707Y139230D01*
X490781Y139323D01*
Y139341D01*
X490818Y139360D01*
X490911Y139471D01*
X491078Y139619D01*
X491281Y139767D01*
X491300Y139785D01*
X491337Y139804D01*
X491392Y139841D01*
X491485Y139896D01*
X491578Y139952D01*
X491707Y140008D01*
X491985Y140137D01*
X492003D01*
X492059Y140174D01*
X492133Y140193D01*
X492226Y140248D01*
X492355Y140304D01*
X492485Y140359D01*
X492781Y140489D01*
X492800Y140507D01*
X492855Y140526D01*
X492929Y140563D01*
X493040Y140619D01*
X493152Y140693D01*
X493300Y140767D01*
X493596Y140933D01*
X493614Y140952D01*
X493670Y140970D01*
X493744Y141026D01*
X493837Y141100D01*
X494059Y141285D01*
X494300Y141507D01*
X494318Y141526D01*
X494355Y141563D01*
X494411Y141637D01*
X494466Y141748D01*
X494540Y141859D01*
X494633Y142007D01*
X494781Y142322D01*
Y142341D01*
X494818Y142396D01*
X494837Y142507D01*
X494874Y142637D01*
X494911Y142804D01*
X494929Y142989D01*
X494966Y143192D01*
Y143433D01*
Y143470D01*
Y143563D01*
X494948Y143711D01*
X494929Y143878D01*
X494911Y144081D01*
X494855Y144303D01*
X494799Y144526D01*
X494707Y144748D01*
X494688Y144766D01*
X494651Y144840D01*
X494596Y144951D01*
X494503Y145081D01*
X494411Y145211D01*
X494281Y145377D01*
X494133Y145526D01*
X493966Y145674D01*
X493948Y145692D01*
X493874Y145729D01*
X493781Y145803D01*
X493651Y145896D01*
X493485Y145989D01*
X493300Y146081D01*
X493077Y146174D01*
X492855Y146248D01*
X492818D01*
X492744Y146285D01*
X492615Y146303D01*
X492448Y146340D01*
X492244Y146377D01*
X492022Y146396D01*
X491763Y146433D01*
D02*
G37*
G36*
X397791Y143766D02*
X390144D01*
D01*
X393717D01*
X393551Y143748D01*
X393310Y143729D01*
X393051Y143692D01*
X392773Y143655D01*
X392495Y143581D01*
X392217Y143489D01*
X392180Y143470D01*
X392106Y143433D01*
X391977Y143378D01*
X391810Y143303D01*
X391625Y143192D01*
X391440Y143063D01*
X391255Y142915D01*
X391069Y142730D01*
X391051Y142711D01*
X390995Y142637D01*
X390903Y142526D01*
X390810Y142396D01*
X390699Y142211D01*
X390588Y141989D01*
X390477Y141748D01*
X390384Y141489D01*
X390366Y141452D01*
X390347Y141359D01*
X390310Y141211D01*
X390255Y141007D01*
X390218Y140748D01*
X390181Y140471D01*
X390162Y140156D01*
X390144Y139804D01*
Y135712D01*
Y139656D01*
X390162Y139471D01*
X390181Y139248D01*
X390199Y139008D01*
X390236Y138711D01*
X390310Y138434D01*
X390384Y138137D01*
X390403Y138100D01*
X390421Y138008D01*
X390495Y137878D01*
X390569Y137693D01*
X390662Y137489D01*
X390792Y137267D01*
X390940Y137045D01*
X391125Y136841D01*
X391143Y136823D01*
X391218Y136749D01*
X391310Y136656D01*
X391458Y136545D01*
X391643Y136397D01*
X391847Y136267D01*
X392088Y136138D01*
X392347Y136008D01*
X392384Y135990D01*
X392477Y135971D01*
X392625Y135915D01*
X392847Y135860D01*
X393088Y135804D01*
X393384Y135767D01*
X393717Y135730D01*
X394069Y135712D01*
X393197D01*
X394236D01*
X394402Y135730D01*
X394625Y135749D01*
X394884Y135767D01*
X395162Y135823D01*
X395439Y135878D01*
X395717Y135971D01*
X395754Y135990D01*
X395828Y136026D01*
X395958Y136082D01*
X396124Y136156D01*
X396310Y136267D01*
X396513Y136397D01*
X396698Y136564D01*
X396884Y136730D01*
X396902Y136749D01*
X396958Y136823D01*
X397050Y136934D01*
X397143Y137082D01*
X397254Y137267D01*
X397365Y137471D01*
X397476Y137711D01*
X397569Y137971D01*
Y138008D01*
X397606Y138100D01*
X397643Y138249D01*
X397680Y138452D01*
X397717Y138711D01*
X397754Y138989D01*
X397772Y139304D01*
X397791Y139656D01*
Y139804D01*
X397772Y139989D01*
X397754Y140211D01*
X397735Y140471D01*
X397680Y140748D01*
X397624Y141026D01*
X397550Y141322D01*
X397532Y141359D01*
X397513Y141452D01*
X397439Y141600D01*
X397365Y141767D01*
X397272Y141970D01*
X397143Y142192D01*
X396995Y142415D01*
X396828Y142618D01*
X396810Y142637D01*
X396735Y142711D01*
X396624Y142804D01*
X396495Y142933D01*
X396310Y143063D01*
X396106Y143211D01*
X395865Y143341D01*
X395606Y143470D01*
X395569Y143489D01*
X395476Y143526D01*
X395328Y143563D01*
X395106Y143618D01*
X394865Y143674D01*
X394569Y143729D01*
X394236Y143748D01*
X393884Y143766D01*
X397791D01*
D02*
G37*
%LPD*%
G36*
X371646Y142044D02*
X371738D01*
X371960Y141970D01*
X372090Y141933D01*
X372201Y141859D01*
X372220D01*
X372238Y141822D01*
X372368Y141711D01*
X372497Y141544D01*
X372645Y141322D01*
Y141304D01*
X372664Y141267D01*
X372701Y141193D01*
X372738Y141119D01*
X372775Y141007D01*
X372831Y140878D01*
X372905Y140600D01*
Y140582D01*
X372923Y140526D01*
Y140452D01*
X372942Y140341D01*
X372960Y140211D01*
Y140082D01*
X372979Y139767D01*
Y139748D01*
Y139693D01*
Y139600D01*
Y139489D01*
X372960Y139360D01*
Y139211D01*
X372923Y138897D01*
Y138878D01*
X372905Y138822D01*
X372886Y138748D01*
X372868Y138637D01*
X372794Y138397D01*
X372682Y138137D01*
Y138119D01*
X372645Y138082D01*
X372608Y138026D01*
X372571Y137952D01*
X372423Y137767D01*
X372257Y137600D01*
X372238D01*
X372201Y137563D01*
X372146Y137545D01*
X372071Y137508D01*
X371960Y137471D01*
X371849Y137452D01*
X371553Y137415D01*
X371423D01*
X371294Y137434D01*
X371164Y137471D01*
X371146D01*
X371127Y137489D01*
X371035Y137508D01*
X370905Y137582D01*
X370757Y137656D01*
X370738D01*
X370720Y137675D01*
X370627Y137767D01*
X370498Y137878D01*
X370331Y138026D01*
X370312Y138045D01*
X370294Y138063D01*
X370183Y138174D01*
X370035Y138341D01*
X369849Y138563D01*
Y140933D01*
X369868Y140952D01*
X369924Y141026D01*
X370016Y141119D01*
X370127Y141248D01*
X370257Y141378D01*
X370386Y141507D01*
X370553Y141656D01*
X370701Y141767D01*
X370720Y141785D01*
X370775Y141822D01*
X370849Y141859D01*
X370942Y141915D01*
X371072Y141970D01*
X371201Y142026D01*
X371349Y142044D01*
X371516Y142063D01*
X371572D01*
X371646Y142044D01*
D02*
G37*
G36*
X475339Y139174D02*
X475616Y139137D01*
X475635D01*
X475672Y139119D01*
X475727Y139100D01*
X475801Y139082D01*
X475987Y139008D01*
X476172Y138915D01*
X476209Y138897D01*
X476301Y138822D01*
X476394Y138711D01*
X476487Y138563D01*
X476505Y138526D01*
X476524Y138434D01*
X476561Y138286D01*
X476579Y138100D01*
Y138082D01*
Y138026D01*
X476561Y137934D01*
X476542Y137841D01*
X476505Y137730D01*
X476468Y137600D01*
X476394Y137489D01*
X476301Y137378D01*
X476283Y137360D01*
X476246Y137341D01*
X476190Y137304D01*
X476098Y137267D01*
X475987Y137212D01*
X475857Y137175D01*
X475709Y137156D01*
X475524Y137137D01*
X475450D01*
X475376Y137156D01*
X475264D01*
X475024Y137230D01*
X474876Y137267D01*
X474746Y137341D01*
X474727Y137360D01*
X474690Y137378D01*
X474616Y137434D01*
X474505Y137508D01*
X474394Y137600D01*
X474283Y137711D01*
X474135Y137841D01*
X474005Y137989D01*
Y139211D01*
X475061D01*
X475339Y139174D01*
D02*
G37*
G36*
X455729D02*
X456007Y139137D01*
X456026D01*
X456063Y139119D01*
X456118Y139100D01*
X456192Y139082D01*
X456377Y139008D01*
X456563Y138915D01*
X456600Y138897D01*
X456692Y138822D01*
X456785Y138711D01*
X456877Y138563D01*
X456896Y138526D01*
X456914Y138434D01*
X456951Y138286D01*
X456970Y138100D01*
Y138082D01*
Y138026D01*
X456951Y137934D01*
X456933Y137841D01*
X456896Y137730D01*
X456859Y137600D01*
X456785Y137489D01*
X456692Y137378D01*
X456674Y137360D01*
X456637Y137341D01*
X456581Y137304D01*
X456489Y137267D01*
X456377Y137212D01*
X456248Y137175D01*
X456100Y137156D01*
X455915Y137137D01*
X455840D01*
X455766Y137156D01*
X455655D01*
X455415Y137230D01*
X455266Y137267D01*
X455137Y137341D01*
X455118Y137360D01*
X455081Y137378D01*
X455007Y137434D01*
X454896Y137508D01*
X454785Y137600D01*
X454674Y137711D01*
X454526Y137841D01*
X454396Y137989D01*
Y139211D01*
X455452D01*
X455729Y139174D01*
D02*
G37*
G36*
X385774Y139174D02*
X386051Y139137D01*
X386070D01*
X386107Y139119D01*
X386162Y139100D01*
X386237Y139082D01*
X386422Y139008D01*
X386607Y138915D01*
X386644Y138897D01*
X386737Y138822D01*
X386829Y138711D01*
X386922Y138563D01*
X386940Y138526D01*
X386959Y138434D01*
X386996Y138286D01*
X387014Y138100D01*
Y138082D01*
Y138026D01*
X386996Y137934D01*
X386977Y137841D01*
X386940Y137730D01*
X386903Y137600D01*
X386829Y137489D01*
X386737Y137378D01*
X386718Y137360D01*
X386681Y137341D01*
X386626Y137304D01*
X386533Y137267D01*
X386422Y137212D01*
X386292Y137175D01*
X386144Y137156D01*
X385959Y137137D01*
X385885D01*
X385811Y137156D01*
X385700D01*
X385459Y137230D01*
X385311Y137267D01*
X385181Y137341D01*
X385163Y137360D01*
X385126Y137378D01*
X385052Y137434D01*
X384940Y137508D01*
X384829Y137600D01*
X384718Y137711D01*
X384570Y137841D01*
X384440Y137989D01*
Y139211D01*
X385496D01*
X385774Y139174D01*
D02*
G37*
G36*
X424622Y142322D02*
X424844Y142285D01*
X425066Y142192D01*
X425084D01*
X425103Y142174D01*
X425233Y142081D01*
X425381Y141970D01*
X425547Y141804D01*
Y141785D01*
X425584Y141767D01*
X425603Y141711D01*
X425658Y141637D01*
X425751Y141452D01*
X425844Y141230D01*
Y141211D01*
X425862Y141174D01*
X425881Y141100D01*
Y141026D01*
X425918Y140785D01*
X425936Y140526D01*
X422918D01*
Y140545D01*
Y140563D01*
Y140656D01*
X422937Y140822D01*
X422955Y141007D01*
X422992Y141211D01*
X423066Y141433D01*
X423140Y141656D01*
X423270Y141841D01*
X423288Y141859D01*
X423344Y141915D01*
X423418Y142007D01*
X423548Y142100D01*
X423714Y142174D01*
X423899Y142267D01*
X424140Y142322D01*
X424399Y142341D01*
X424529D01*
X424622Y142322D01*
D02*
G37*
G36*
X483486Y142007D02*
X483634Y141970D01*
X483671Y141952D01*
X483745Y141933D01*
X483875Y141859D01*
X484023Y141767D01*
X484060Y141748D01*
X484152Y141674D01*
X484282Y141563D01*
X484449Y141415D01*
X484467D01*
X484486Y141378D01*
X484578Y141267D01*
X484726Y141119D01*
X484893Y140896D01*
Y138545D01*
X484874Y138526D01*
X484819Y138452D01*
X484745Y138360D01*
X484634Y138230D01*
X484393Y137952D01*
X484245Y137823D01*
X484097Y137693D01*
X484078Y137675D01*
X484023Y137656D01*
X483949Y137600D01*
X483856Y137563D01*
X483727Y137508D01*
X483597Y137452D01*
X483449Y137434D01*
X483301Y137415D01*
X483227D01*
X483153Y137434D01*
X483060D01*
X482838Y137489D01*
X482634Y137600D01*
X482616Y137619D01*
X482579Y137638D01*
X482467Y137749D01*
X482338Y137897D01*
X482190Y138119D01*
Y138137D01*
X482153Y138174D01*
X482134Y138249D01*
X482079Y138341D01*
X482042Y138452D01*
X481986Y138582D01*
X481912Y138860D01*
Y138878D01*
X481893Y138934D01*
X481875Y139008D01*
X481856Y139119D01*
Y139248D01*
X481838Y139378D01*
X481819Y139693D01*
Y139711D01*
Y139767D01*
Y139860D01*
Y139971D01*
X481838Y140100D01*
X481856Y140248D01*
X481893Y140563D01*
Y140582D01*
X481912Y140637D01*
X481930Y140711D01*
X481949Y140822D01*
X482023Y141063D01*
X482134Y141304D01*
Y141322D01*
X482171Y141359D01*
X482208Y141415D01*
X482245Y141489D01*
X482393Y141674D01*
X482579Y141841D01*
X482597Y141859D01*
X482616Y141878D01*
X482690Y141915D01*
X482764Y141952D01*
X482967Y142007D01*
X483078Y142044D01*
X483356D01*
X483486Y142007D01*
D02*
G37*
G36*
X412086Y139082D02*
X411753D01*
X411827Y139100D01*
X411919Y139156D01*
X412012Y139267D01*
Y139285D01*
X412030Y139304D01*
Y139341D01*
X412049Y139415D01*
X412067Y139508D01*
Y139619D01*
X412086Y139748D01*
Y139082D01*
D02*
G37*
G36*
X420159Y135841D02*
X416696D01*
X416937Y135860D01*
X417159Y135878D01*
X417196D01*
X417308Y135897D01*
X417456Y135915D01*
X417585Y135934D01*
X417604D01*
X417659Y135971D01*
X417733Y135990D01*
X417807Y136045D01*
Y136063D01*
X417845Y136101D01*
X417863Y136175D01*
X417900Y136267D01*
X420048Y142730D01*
Y142748D01*
X420085Y142822D01*
X420103Y142915D01*
X420140Y143007D01*
Y143026D01*
Y143081D01*
X420159Y143137D01*
Y135841D01*
D02*
G37*
G36*
X435695Y137563D02*
X434454D01*
X434306Y137582D01*
X434102Y137600D01*
X433880Y137619D01*
X433639Y137656D01*
X433398Y137711D01*
X433158Y137786D01*
X433139Y137804D01*
X433065Y137823D01*
X432954Y137878D01*
X432806Y137952D01*
X432658Y138045D01*
X432491Y138156D01*
X432324Y138304D01*
X432176Y138452D01*
X432158Y138471D01*
X432102Y138526D01*
X432028Y138637D01*
X431954Y138767D01*
X431843Y138915D01*
X431750Y139100D01*
X431658Y139323D01*
X431565Y139563D01*
X431547Y139600D01*
X431528Y139693D01*
X431491Y139822D01*
X431454Y140026D01*
X431417Y140248D01*
X431399Y140526D01*
X431362Y140822D01*
Y141137D01*
Y141174D01*
Y141267D01*
Y141396D01*
X431380Y141581D01*
X431399Y141804D01*
X431436Y142026D01*
X431547Y142507D01*
Y142544D01*
X431584Y142618D01*
X431621Y142730D01*
X431676Y142878D01*
X431750Y143044D01*
X431843Y143230D01*
X431973Y143415D01*
X432102Y143600D01*
X432121Y143618D01*
X432176Y143674D01*
X432250Y143766D01*
X432361Y143859D01*
X432510Y143989D01*
X432676Y144100D01*
X432861Y144211D01*
X433084Y144322D01*
X433102Y144340D01*
X433195Y144359D01*
X433324Y144415D01*
X433491Y144470D01*
X433732Y144507D01*
X433991Y144563D01*
X434287Y144581D01*
X434639Y144600D01*
X435695D01*
Y137563D01*
D02*
G37*
G36*
X404364Y141989D02*
X403031D01*
X402939Y142007D01*
X402698Y142026D01*
X402587Y142044D01*
X402476Y142081D01*
X402457D01*
X402420Y142100D01*
X402309Y142156D01*
X402161Y142248D01*
X402013Y142378D01*
X401976Y142415D01*
X401902Y142507D01*
X401809Y142637D01*
X401735Y142822D01*
Y142841D01*
X401716Y142859D01*
X401698Y142915D01*
X401679Y142989D01*
X401661Y143155D01*
X401642Y143359D01*
Y143378D01*
Y143415D01*
Y143470D01*
X401661Y143544D01*
X401679Y143729D01*
X401754Y143915D01*
Y143933D01*
X401772Y143952D01*
X401828Y144063D01*
X401920Y144192D01*
X402050Y144322D01*
X402087Y144359D01*
X402179Y144415D01*
X402327Y144507D01*
X402531Y144581D01*
X402550D01*
X402587Y144600D01*
X402642Y144618D01*
X402735Y144637D01*
X402846D01*
X402976Y144655D01*
X403124Y144674D01*
X404364D01*
Y141989D01*
D02*
G37*
G36*
Y137508D02*
X402698D01*
X402587Y137526D01*
X402346Y137545D01*
X402105Y137582D01*
X402087D01*
X402050Y137600D01*
X401994Y137619D01*
X401920Y137656D01*
X401754Y137730D01*
X401587Y137860D01*
X401568D01*
X401550Y137897D01*
X401457Y137989D01*
X401346Y138119D01*
X401235Y138304D01*
Y138323D01*
X401217Y138360D01*
X401198Y138415D01*
X401161Y138489D01*
X401124Y138674D01*
X401105Y138915D01*
Y138934D01*
Y138971D01*
Y139045D01*
X401124Y139137D01*
X401161Y139341D01*
X401235Y139563D01*
Y139582D01*
X401254Y139619D01*
X401328Y139730D01*
X401439Y139896D01*
X401587Y140045D01*
X401605D01*
X401624Y140082D01*
X401679Y140119D01*
X401754Y140156D01*
X401939Y140248D01*
X402198Y140341D01*
X402216D01*
X402253Y140359D01*
X402346Y140378D01*
X402439Y140396D01*
X402587Y140415D01*
X402735Y140434D01*
X402920Y140452D01*
X404364D01*
Y137508D01*
D02*
G37*
G36*
X459988Y142526D02*
X460007Y142322D01*
X460025Y142211D01*
X460062Y142137D01*
X460081Y142100D01*
X460118Y142044D01*
X460192Y141989D01*
X460285Y141952D01*
X461840D01*
Y138582D01*
Y138563D01*
Y138489D01*
X461821Y138378D01*
Y138249D01*
X461766Y137952D01*
X461729Y137823D01*
X461673Y137693D01*
X461655Y137675D01*
X461636Y137656D01*
X461581Y137600D01*
X461525Y137563D01*
X461432Y137508D01*
X461321Y137452D01*
X461173Y137434D01*
X461007Y137415D01*
X460821D01*
X460729Y137434D01*
X460710D01*
X460655Y137452D01*
X460507Y137489D01*
X460488D01*
X460451Y137508D01*
X460396Y137526D01*
X460340Y137545D01*
X460322D01*
X460303Y137563D01*
X460210Y137582D01*
X460173D01*
X460118Y137545D01*
X460099D01*
X460081Y137526D01*
X460062Y137489D01*
X460044Y137434D01*
Y137415D01*
X460025Y137378D01*
Y137304D01*
X460007Y137212D01*
Y137193D01*
X459988Y137119D01*
X459970Y137008D01*
Y142618D01*
X459988Y142526D01*
D02*
G37*
G36*
Y136489D02*
X460025Y136323D01*
Y136286D01*
X460044Y136212D01*
X460081Y136119D01*
X460136Y136045D01*
X460155Y136026D01*
X460192Y136008D01*
X460266Y135953D01*
X460359Y135915D01*
X460377D01*
X460451Y135897D01*
X460544Y135878D01*
X460673Y135841D01*
X460710D01*
X460784Y135804D01*
X460914Y135786D01*
X461081Y135767D01*
X461118D01*
X461210Y135749D01*
X461358Y135730D01*
X459970D01*
Y136656D01*
X459988Y136489D01*
D02*
G37*
G36*
X488411Y138693D02*
X488430Y138508D01*
X488467Y138286D01*
X488522Y138045D01*
X488596Y137786D01*
X488708Y137545D01*
X488726Y137526D01*
X488763Y137452D01*
X488837Y137323D01*
X488911Y137193D01*
X489041Y137026D01*
X489170Y136860D01*
X489337Y136693D01*
X489522Y136526D01*
X489541Y136508D01*
X489615Y136452D01*
X489726Y136378D01*
X489874Y136304D01*
X490041Y136193D01*
X490263Y136101D01*
X490485Y136008D01*
X490744Y135915D01*
X490781D01*
X490874Y135878D01*
X491003Y135860D01*
X491189Y135823D01*
X491411Y135786D01*
X491670Y135749D01*
X491929Y135730D01*
X492226Y135712D01*
X488393D01*
Y138860D01*
X488411Y138693D01*
D02*
G37*
G36*
X394217Y142156D02*
X394477Y142100D01*
X394754Y142007D01*
X394773D01*
X394810Y141970D01*
X394865Y141933D01*
X394939Y141878D01*
X395125Y141730D01*
X395310Y141526D01*
Y141507D01*
X395347Y141470D01*
X395384Y141396D01*
X395421Y141322D01*
X395476Y141211D01*
X395532Y141081D01*
X395625Y140767D01*
Y140748D01*
X395643Y140693D01*
X395662Y140600D01*
Y140471D01*
X395680Y140322D01*
X395699Y140156D01*
X395717Y139952D01*
Y139748D01*
Y139730D01*
Y139656D01*
Y139563D01*
X395699Y139434D01*
Y139267D01*
X395680Y139100D01*
X395643Y138767D01*
Y138748D01*
X395625Y138693D01*
X395606Y138600D01*
X395569Y138508D01*
X395495Y138249D01*
X395365Y137989D01*
X395347Y137971D01*
X395328Y137934D01*
X395291Y137878D01*
X395217Y137804D01*
X395051Y137637D01*
X394828Y137489D01*
X394810D01*
X394773Y137471D01*
X394699Y137434D01*
X394606Y137415D01*
X394477Y137378D01*
X394328Y137341D01*
X394180Y137323D01*
X393828D01*
X393717Y137341D01*
X393458Y137378D01*
X393199Y137471D01*
X393180D01*
X393143Y137508D01*
X393088Y137545D01*
X393014Y137600D01*
X392828Y137748D01*
X392662Y137952D01*
X392643Y137971D01*
X392625Y138008D01*
X392588Y138082D01*
X392532Y138174D01*
X392477Y138286D01*
X392421Y138415D01*
X392329Y138711D01*
Y138730D01*
X392310Y138785D01*
X392291Y138878D01*
X392273Y139008D01*
X392254Y139156D01*
X392236Y139323D01*
X392217Y139526D01*
Y139730D01*
Y139748D01*
Y139822D01*
Y139915D01*
X392236Y140045D01*
Y140193D01*
X392254Y140359D01*
X392310Y140693D01*
Y140711D01*
X392329Y140767D01*
X392347Y140859D01*
X392384Y140952D01*
X392477Y141211D01*
X392606Y141470D01*
Y141489D01*
X392643Y141526D01*
X392680Y141581D01*
X392736Y141656D01*
X392903Y141822D01*
X393125Y141989D01*
X393143D01*
X393180Y142026D01*
X393254Y142044D01*
X393347Y142081D01*
X393477Y142119D01*
X393625Y142137D01*
X393773Y142174D01*
X394125D01*
X394217Y142156D01*
D02*
G37*
D10*
X71089Y504998D02*
G03*
X71089Y504998I-1250J0D01*
G01*
X73106Y747998D02*
G03*
X73106Y747998I-1250J0D01*
G01*
D11*
X63123Y530116D02*
Y514881D01*
X55505D01*
X52966Y517420D01*
Y527577D01*
X55505Y530116D01*
X63123D01*
X37731D02*
X42809Y527577D01*
X47888Y522498D01*
Y517420D01*
X45348Y514881D01*
X40270D01*
X37731Y517420D01*
Y519959D01*
X40270Y522498D01*
X47888D01*
X32652Y514881D02*
X27574D01*
X30113D01*
Y530116D01*
X32652Y527577D01*
X19957Y514881D02*
X14878D01*
X17417D01*
Y530116D01*
X19957Y527577D01*
X64431Y772616D02*
Y757381D01*
X56814D01*
X54275Y759920D01*
Y770077D01*
X56814Y772616D01*
X64431D01*
X39040D02*
X44118Y770077D01*
X49196Y764998D01*
Y759920D01*
X46657Y757381D01*
X41579D01*
X39040Y759920D01*
Y762459D01*
X41579Y764998D01*
X49196D01*
X33961Y770077D02*
X31422Y772616D01*
X26344D01*
X23805Y770077D01*
Y759920D01*
X26344Y757381D01*
X31422D01*
X33961Y759920D01*
Y770077D01*
X18726Y759920D02*
X16187Y757381D01*
X11109D01*
X8569Y759920D01*
Y770077D01*
X11109Y772616D01*
X16187D01*
X18726Y770077D01*
Y767538D01*
X16187Y764998D01*
X8569D01*
X144005Y262077D02*
X146544Y264616D01*
X151623D01*
X154162Y262077D01*
Y251920D01*
X151623Y249381D01*
X146544D01*
X144005Y251920D01*
X138927Y262077D02*
X136388Y264616D01*
X131309D01*
X128770Y262077D01*
Y259538D01*
X131309Y256998D01*
X133848D01*
X131309D01*
X128770Y254459D01*
Y251920D01*
X131309Y249381D01*
X136388D01*
X138927Y251920D01*
X123692Y249381D02*
X118613D01*
X121152D01*
Y264616D01*
X123692Y262077D01*
X110996D02*
X108457Y264616D01*
X103378D01*
X100839Y262077D01*
Y251920D01*
X103378Y249381D01*
X108457D01*
X110996Y251920D01*
Y262077D01*
X144275Y283077D02*
X146814Y285616D01*
X151892D01*
X154431Y283077D01*
Y272920D01*
X151892Y270381D01*
X146814D01*
X144275Y272920D01*
X139196Y283077D02*
X136657Y285616D01*
X131579D01*
X129040Y283077D01*
Y280537D01*
X131579Y277998D01*
X134118D01*
X131579D01*
X129040Y275459D01*
Y272920D01*
X131579Y270381D01*
X136657D01*
X139196Y272920D01*
X123961Y283077D02*
X121422Y285616D01*
X116344D01*
X113805Y283077D01*
Y272920D01*
X116344Y270381D01*
X121422D01*
X123961Y272920D01*
Y283077D01*
X108726Y285616D02*
X98569D01*
Y283077D01*
X108726Y272920D01*
Y270381D01*
X425579Y581224D02*
X428118Y578685D01*
Y573606D01*
X425579Y571067D01*
X415422D01*
X412883Y573606D01*
Y578685D01*
X415422Y581224D01*
X412883Y596459D02*
Y586302D01*
X423040Y596459D01*
X425579D01*
X428118Y593920D01*
Y588842D01*
X425579Y586302D01*
Y601538D02*
X428118Y604077D01*
Y609155D01*
X425579Y611694D01*
X415422D01*
X412883Y609155D01*
Y604077D01*
X415422Y601538D01*
X425579D01*
Y616773D02*
X428118Y619312D01*
Y624390D01*
X425579Y626929D01*
X423040D01*
X420500Y624390D01*
X417961Y626929D01*
X415422D01*
X412883Y624390D01*
Y619312D01*
X415422Y616773D01*
X417961D01*
X420500Y619312D01*
X423040Y616773D01*
X425579D01*
X420500Y619312D02*
Y624390D01*
X377295Y686067D02*
X379834Y688606D01*
X384912D01*
X387451Y686067D01*
Y675910D01*
X384912Y673371D01*
X379834D01*
X377295Y675910D01*
X362060Y673371D02*
X372216D01*
X362060Y683528D01*
Y686067D01*
X364599Y688606D01*
X369677D01*
X372216Y686067D01*
X356981D02*
X354442Y688606D01*
X349364D01*
X346824Y686067D01*
Y675910D01*
X349364Y673371D01*
X354442D01*
X356981Y675910D01*
Y686067D01*
X331590Y688606D02*
X341746D01*
Y680988D01*
X336668Y683528D01*
X334129D01*
X331590Y680988D01*
Y675910D01*
X334129Y673371D01*
X339207D01*
X341746Y675910D01*
X528425Y644157D02*
X530965Y646696D01*
X536043D01*
X538582Y644157D01*
Y634000D01*
X536043Y631461D01*
X530965D01*
X528425Y634000D01*
X513190Y631461D02*
X523347D01*
X513190Y641618D01*
Y644157D01*
X515730Y646696D01*
X520808D01*
X523347Y644157D01*
X508112D02*
X505573Y646696D01*
X500494D01*
X497955Y644157D01*
Y634000D01*
X500494Y631461D01*
X505573D01*
X508112Y634000D01*
Y644157D01*
X492877Y631461D02*
X487799D01*
X490338D01*
Y646696D01*
X492877Y644157D01*
X254942Y508719D02*
Y523954D01*
X247324D01*
X244785Y521415D01*
Y516336D01*
X247324Y513797D01*
X254942D01*
X249863D02*
X244785Y508719D01*
X229550Y523954D02*
X234628Y521415D01*
X239707Y516336D01*
Y511258D01*
X237167Y508719D01*
X232089D01*
X229550Y511258D01*
Y513797D01*
X232089Y516336D01*
X239707D01*
X224472Y508719D02*
X219393D01*
X221932D01*
Y523954D01*
X224472Y521415D01*
X204158Y508719D02*
Y523954D01*
X211776Y516336D01*
X201619D01*
X254941Y445604D02*
Y460840D01*
X247324D01*
X244785Y458300D01*
Y453222D01*
X247324Y450683D01*
X254941D01*
X249863D02*
X244785Y445604D01*
X229550Y460840D02*
X234628Y458300D01*
X239706Y453222D01*
Y448144D01*
X237167Y445604D01*
X232089D01*
X229550Y448144D01*
Y450683D01*
X232089Y453222D01*
X239706D01*
X224471Y458300D02*
X221932Y460840D01*
X216854D01*
X214314Y458300D01*
Y448144D01*
X216854Y445604D01*
X221932D01*
X224471Y448144D01*
Y458300D01*
X209236Y460840D02*
X199079D01*
Y458300D01*
X209236Y448144D01*
Y445604D01*
X206619Y772700D02*
Y787935D01*
X214236D01*
X216776Y785396D01*
Y780318D01*
X214236Y777778D01*
X206619D01*
X211697D02*
X216776Y772700D01*
X232011Y787935D02*
X226932Y785396D01*
X221854Y780318D01*
Y775239D01*
X224393Y772700D01*
X229471D01*
X232011Y775239D01*
Y777778D01*
X229471Y780318D01*
X221854D01*
X237089Y772700D02*
X242167D01*
X239628D01*
Y787935D01*
X237089Y785396D01*
X259942Y772700D02*
X249785D01*
X259942Y782857D01*
Y785396D01*
X257402Y787935D01*
X252324D01*
X249785Y785396D01*
X254941Y382490D02*
Y397725D01*
X247324D01*
X244785Y395186D01*
Y390108D01*
X247324Y387569D01*
X254941D01*
X249863D02*
X244785Y382490D01*
X229550Y397725D02*
X234628Y395186D01*
X239706Y390108D01*
Y385029D01*
X237167Y382490D01*
X232089D01*
X229550Y385029D01*
Y387569D01*
X232089Y390108D01*
X239706D01*
X224471Y395186D02*
X221932Y397725D01*
X216854D01*
X214314Y395186D01*
Y385029D01*
X216854Y382490D01*
X221932D01*
X224471Y385029D01*
Y395186D01*
X199079Y382490D02*
X209236D01*
X199079Y392647D01*
Y395186D01*
X201619Y397725D01*
X206697D01*
X209236Y395186D01*
X254941Y424566D02*
Y439801D01*
X247324D01*
X244785Y437262D01*
Y432184D01*
X247324Y429645D01*
X254941D01*
X249863D02*
X244785Y424566D01*
X229550Y439801D02*
X234628Y437262D01*
X239706Y432184D01*
Y427105D01*
X237167Y424566D01*
X232089D01*
X229550Y427105D01*
Y429645D01*
X232089Y432184D01*
X239706D01*
X224471Y437262D02*
X221932Y439801D01*
X216854D01*
X214314Y437262D01*
Y427105D01*
X216854Y424566D01*
X221932D01*
X224471Y427105D01*
Y437262D01*
X199079Y439801D02*
X204158Y437262D01*
X209236Y432184D01*
Y427105D01*
X206697Y424566D01*
X201619D01*
X199079Y427105D01*
Y429645D01*
X201619Y432184D01*
X209236D01*
X204079Y709223D02*
Y724458D01*
X211697D01*
X214236Y721919D01*
Y716841D01*
X211697Y714301D01*
X204079D01*
X209158D02*
X214236Y709223D01*
X229471Y724458D02*
X224393Y721919D01*
X219314Y716841D01*
Y711762D01*
X221854Y709223D01*
X226932D01*
X229471Y711762D01*
Y714301D01*
X226932Y716841D01*
X219314D01*
X234549Y721919D02*
X237089Y724458D01*
X242167D01*
X244706Y721919D01*
Y711762D01*
X242167Y709223D01*
X237089D01*
X234549Y711762D01*
Y721919D01*
X249785Y711762D02*
X252324Y709223D01*
X257402D01*
X259941Y711762D01*
Y721919D01*
X257402Y724458D01*
X252324D01*
X249785Y721919D01*
Y719380D01*
X252324Y716841D01*
X259941D01*
X204079Y730261D02*
Y745496D01*
X211697D01*
X214236Y742957D01*
Y737879D01*
X211697Y735340D01*
X204079D01*
X209158D02*
X214236Y730261D01*
X229471Y745496D02*
X224393Y742957D01*
X219314Y737879D01*
Y732800D01*
X221854Y730261D01*
X226932D01*
X229471Y732800D01*
Y735340D01*
X226932Y737879D01*
X219314D01*
X234549Y742957D02*
X237089Y745496D01*
X242167D01*
X244706Y742957D01*
Y732800D01*
X242167Y730261D01*
X237089D01*
X234549Y732800D01*
Y742957D01*
X249785D02*
X252324Y745496D01*
X257402D01*
X259941Y742957D01*
Y740418D01*
X257402Y737879D01*
X259941Y735340D01*
Y732800D01*
X257402Y730261D01*
X252324D01*
X249785Y732800D01*
Y735340D01*
X252324Y737879D01*
X249785Y740418D01*
Y742957D01*
X252324Y737879D02*
X257402D01*
X204609Y625381D02*
Y640616D01*
X212226D01*
X214765Y638077D01*
Y632998D01*
X212226Y630459D01*
X204609D01*
X209687D02*
X214765Y625381D01*
X230000Y640616D02*
X224922Y638077D01*
X219844Y632998D01*
Y627920D01*
X222383Y625381D01*
X227461D01*
X230000Y627920D01*
Y630459D01*
X227461Y632998D01*
X219844D01*
X235079Y638077D02*
X237618Y640616D01*
X242696D01*
X245236Y638077D01*
Y627920D01*
X242696Y625381D01*
X237618D01*
X235079Y627920D01*
Y638077D01*
X250314Y625381D02*
X255392D01*
X252853D01*
Y640616D01*
X250314Y638077D01*
X254942Y529757D02*
Y544992D01*
X247324D01*
X244785Y542453D01*
Y537374D01*
X247324Y534835D01*
X254942D01*
X249863D02*
X244785Y529757D01*
X229550Y544992D02*
X234628Y542453D01*
X239707Y537374D01*
Y532296D01*
X237167Y529757D01*
X232089D01*
X229550Y532296D01*
Y534835D01*
X232089Y537374D01*
X239707D01*
X224472Y529757D02*
X219393D01*
X221932D01*
Y544992D01*
X224472Y542453D01*
X201619Y544992D02*
X211776D01*
Y537374D01*
X206697Y539913D01*
X204158D01*
X201619Y537374D01*
Y532296D01*
X204158Y529757D01*
X209237D01*
X211776Y532296D01*
X204079Y688185D02*
Y703420D01*
X211697D01*
X214236Y700881D01*
Y695803D01*
X211697Y693263D01*
X204079D01*
X209158D02*
X214236Y688185D01*
X229471Y703420D02*
X224393Y700881D01*
X219314Y695803D01*
Y690724D01*
X221854Y688185D01*
X226932D01*
X229471Y690724D01*
Y693263D01*
X226932Y695803D01*
X219314D01*
X234549Y700881D02*
X237089Y703420D01*
X242167D01*
X244706Y700881D01*
Y690724D01*
X242167Y688185D01*
X237089D01*
X234549Y690724D01*
Y700881D01*
X257402Y688185D02*
Y703420D01*
X249785Y695803D01*
X259941D01*
X254943Y487681D02*
Y502916D01*
X247325D01*
X244786Y500376D01*
Y495298D01*
X247325Y492759D01*
X254943D01*
X249864D02*
X244786Y487681D01*
X229551Y502916D02*
X234629Y500376D01*
X239708Y495298D01*
Y490220D01*
X237168Y487681D01*
X232090D01*
X229551Y490220D01*
Y492759D01*
X232090Y495298D01*
X239708D01*
X224472Y487681D02*
X219394D01*
X221933D01*
Y502916D01*
X224472Y500376D01*
X211777Y487681D02*
X206698D01*
X209237D01*
Y502916D01*
X211777Y500376D01*
X206619Y751299D02*
Y766534D01*
X214236D01*
X216776Y763995D01*
Y758917D01*
X214236Y756377D01*
X206619D01*
X211697D02*
X216776Y751299D01*
X232011Y766534D02*
X226932Y763995D01*
X221854Y758917D01*
Y753838D01*
X224393Y751299D01*
X229471D01*
X232011Y753838D01*
Y756377D01*
X229471Y758917D01*
X221854D01*
X237089Y751299D02*
X242167D01*
X239628D01*
Y766534D01*
X237089Y763995D01*
X249785D02*
X252324Y766534D01*
X257402D01*
X259942Y763995D01*
Y761456D01*
X257402Y758917D01*
X254863D01*
X257402D01*
X259942Y756377D01*
Y753838D01*
X257402Y751299D01*
X252324D01*
X249785Y753838D01*
X254942Y466642D02*
Y481878D01*
X247324D01*
X244785Y479338D01*
Y474260D01*
X247324Y471721D01*
X254942D01*
X249863D02*
X244785Y466642D01*
X229550Y481878D02*
X234628Y479338D01*
X239707Y474260D01*
Y469182D01*
X237167Y466642D01*
X232089D01*
X229550Y469182D01*
Y471721D01*
X232089Y474260D01*
X239707D01*
X224472Y466642D02*
X219393D01*
X221932D01*
Y481878D01*
X224472Y479338D01*
X211776D02*
X209237Y481878D01*
X204158D01*
X201619Y479338D01*
Y469182D01*
X204158Y466642D01*
X209237D01*
X211776Y469182D01*
Y479338D01*
X204079Y667328D02*
Y682563D01*
X211697D01*
X214236Y680024D01*
Y674946D01*
X211697Y672407D01*
X204079D01*
X209158D02*
X214236Y667328D01*
X229471Y682563D02*
X224393Y680024D01*
X219314Y674946D01*
Y669867D01*
X221854Y667328D01*
X226932D01*
X229471Y669867D01*
Y672407D01*
X226932Y674946D01*
X219314D01*
X234549Y680024D02*
X237089Y682563D01*
X242167D01*
X244706Y680024D01*
Y669867D01*
X242167Y667328D01*
X237089D01*
X234549Y669867D01*
Y680024D01*
X259941Y682563D02*
X249785D01*
Y674946D01*
X254863Y677485D01*
X257402D01*
X259941Y674946D01*
Y669867D01*
X257402Y667328D01*
X252324D01*
X249785Y669867D01*
X254941Y403528D02*
Y418763D01*
X247324D01*
X244785Y416224D01*
Y411146D01*
X247324Y408607D01*
X254941D01*
X249863D02*
X244785Y403528D01*
X229550Y418763D02*
X234628Y416224D01*
X239706Y411146D01*
Y406067D01*
X237167Y403528D01*
X232089D01*
X229550Y406067D01*
Y408607D01*
X232089Y411146D01*
X239706D01*
X224471Y416224D02*
X221932Y418763D01*
X216854D01*
X214314Y416224D01*
Y406067D01*
X216854Y403528D01*
X221932D01*
X224471Y406067D01*
Y416224D01*
X209236D02*
X206697Y418763D01*
X201619D01*
X199079Y416224D01*
Y413685D01*
X201619Y411146D01*
X204158D01*
X201619D01*
X199079Y408607D01*
Y406067D01*
X201619Y403528D01*
X206697D01*
X209236Y406067D01*
X204079Y646109D02*
Y661344D01*
X211697D01*
X214236Y658805D01*
Y653726D01*
X211697Y651187D01*
X204079D01*
X209158D02*
X214236Y646109D01*
X229471Y661344D02*
X224393Y658805D01*
X219314Y653726D01*
Y648648D01*
X221854Y646109D01*
X226932D01*
X229471Y648648D01*
Y651187D01*
X226932Y653726D01*
X219314D01*
X234549Y658805D02*
X237089Y661344D01*
X242167D01*
X244706Y658805D01*
Y648648D01*
X242167Y646109D01*
X237089D01*
X234549Y648648D01*
Y658805D01*
X249785D02*
X252324Y661344D01*
X257402D01*
X259941Y658805D01*
Y648648D01*
X257402Y646109D01*
X252324D01*
X249785Y648648D01*
Y658805D01*
X556365Y603517D02*
X558904Y606056D01*
X563983D01*
X566522Y603517D01*
Y593360D01*
X563983Y590821D01*
X558904D01*
X556365Y593360D01*
X541130Y606056D02*
X551287D01*
Y598438D01*
X546208Y600978D01*
X543669D01*
X541130Y598438D01*
Y593360D01*
X543669Y590821D01*
X548747D01*
X551287Y593360D01*
X536052Y590821D02*
X530973D01*
X533512D01*
Y606056D01*
X536052Y603517D01*
X513199Y590821D02*
X523356D01*
X513199Y600978D01*
Y603517D01*
X515738Y606056D01*
X520817D01*
X523356Y603517D01*
X345545Y559067D02*
X348084Y561606D01*
X353162D01*
X355701Y559067D01*
Y548910D01*
X353162Y546371D01*
X348084D01*
X345545Y548910D01*
X330310Y561606D02*
X340466D01*
Y553988D01*
X335388Y556527D01*
X332849D01*
X330310Y553988D01*
Y548910D01*
X332849Y546371D01*
X337927D01*
X340466Y548910D01*
X325231Y559067D02*
X322692Y561606D01*
X317614D01*
X315075Y559067D01*
Y548910D01*
X317614Y546371D01*
X322692D01*
X325231Y548910D01*
Y559067D01*
X309996D02*
X307457Y561606D01*
X302379D01*
X299839Y559067D01*
Y556527D01*
X302379Y553988D01*
X304918D01*
X302379D01*
X299839Y551449D01*
Y548910D01*
X302379Y546371D01*
X307457D01*
X309996Y548910D01*
X556365Y522237D02*
X558904Y524776D01*
X563982D01*
X566521Y522237D01*
Y512080D01*
X563982Y509541D01*
X558904D01*
X556365Y512080D01*
X541130Y524776D02*
X551286D01*
Y517158D01*
X546208Y519697D01*
X543669D01*
X541130Y517158D01*
Y512080D01*
X543669Y509541D01*
X548747D01*
X551286Y512080D01*
X536051Y522237D02*
X533512Y524776D01*
X528434D01*
X525895Y522237D01*
Y512080D01*
X528434Y509541D01*
X533512D01*
X536051Y512080D01*
Y522237D01*
X520816Y512080D02*
X518277Y509541D01*
X513199D01*
X510659Y512080D01*
Y522237D01*
X513199Y524776D01*
X518277D01*
X520816Y522237D01*
Y519697D01*
X518277Y517158D01*
X510659D01*
X556365Y501917D02*
X558904Y504456D01*
X563982D01*
X566521Y501917D01*
Y491760D01*
X563982Y489221D01*
X558904D01*
X556365Y491760D01*
X541130Y504456D02*
X551286D01*
Y496838D01*
X546208Y499378D01*
X543669D01*
X541130Y496838D01*
Y491760D01*
X543669Y489221D01*
X548747D01*
X551286Y491760D01*
X536051Y501917D02*
X533512Y504456D01*
X528434D01*
X525895Y501917D01*
Y491760D01*
X528434Y489221D01*
X533512D01*
X536051Y491760D01*
Y501917D01*
X520816D02*
X518277Y504456D01*
X513199D01*
X510659Y501917D01*
Y499378D01*
X513199Y496838D01*
X510659Y494299D01*
Y491760D01*
X513199Y489221D01*
X518277D01*
X520816Y491760D01*
Y494299D01*
X518277Y496838D01*
X520816Y499378D01*
Y501917D01*
X518277Y496838D02*
X513199D01*
X556366Y542557D02*
X558905Y545096D01*
X563983D01*
X566523Y542557D01*
Y532400D01*
X563983Y529861D01*
X558905D01*
X556366Y532400D01*
X541131Y545096D02*
X551287D01*
Y537478D01*
X546209Y540018D01*
X543670D01*
X541131Y537478D01*
Y532400D01*
X543670Y529861D01*
X548748D01*
X551287Y532400D01*
X536053Y529861D02*
X530974D01*
X533513D01*
Y545096D01*
X536053Y542557D01*
X523357Y529861D02*
X518278D01*
X520817D01*
Y545096D01*
X523357Y542557D01*
X556365Y583197D02*
X558904Y585736D01*
X563982D01*
X566521Y583197D01*
Y573040D01*
X563982Y570501D01*
X558904D01*
X556365Y573040D01*
X541130Y585736D02*
X551286D01*
Y578118D01*
X546208Y580658D01*
X543669D01*
X541130Y578118D01*
Y573040D01*
X543669Y570501D01*
X548747D01*
X551286Y573040D01*
X536051Y583197D02*
X533512Y585736D01*
X528434D01*
X525895Y583197D01*
Y573040D01*
X528434Y570501D01*
X533512D01*
X536051Y573040D01*
Y583197D01*
X520816Y585736D02*
X510659D01*
Y583197D01*
X520816Y573040D01*
Y570501D01*
X439079Y450994D02*
X441618Y448455D01*
Y443376D01*
X439079Y440837D01*
X428922D01*
X426383Y443376D01*
Y448455D01*
X428922Y450994D01*
X441618Y466229D02*
Y456072D01*
X434001D01*
X436540Y461150D01*
Y463689D01*
X434001Y466229D01*
X428922D01*
X426383Y463689D01*
Y458611D01*
X428922Y456072D01*
X426383Y471307D02*
Y476385D01*
Y473846D01*
X441618D01*
X439079Y471307D01*
Y484003D02*
X441618Y486542D01*
Y491620D01*
X439079Y494160D01*
X436540D01*
X434001Y491620D01*
Y489081D01*
Y491620D01*
X431461Y494160D01*
X428922D01*
X426383Y491620D01*
Y486542D01*
X428922Y484003D01*
X461579Y449724D02*
X464118Y447185D01*
Y442107D01*
X461579Y439567D01*
X451422D01*
X448883Y442107D01*
Y447185D01*
X451422Y449724D01*
X464118Y464959D02*
Y454802D01*
X456501D01*
X459040Y459881D01*
Y462420D01*
X456501Y464959D01*
X451422D01*
X448883Y462420D01*
Y457342D01*
X451422Y454802D01*
X461579Y470037D02*
X464118Y472577D01*
Y477655D01*
X461579Y480194D01*
X451422D01*
X448883Y477655D01*
Y472577D01*
X451422Y470037D01*
X461579D01*
X464118Y495429D02*
X461579Y490351D01*
X456501Y485272D01*
X451422D01*
X448883Y487812D01*
Y492890D01*
X451422Y495429D01*
X453961D01*
X456501Y492890D01*
Y485272D01*
X345545Y579387D02*
X348084Y581926D01*
X353162D01*
X355701Y579387D01*
Y569230D01*
X353162Y566691D01*
X348084D01*
X345545Y569230D01*
X330310Y581926D02*
X340466D01*
Y574308D01*
X335388Y576847D01*
X332849D01*
X330310Y574308D01*
Y569230D01*
X332849Y566691D01*
X337927D01*
X340466Y569230D01*
X325231Y579387D02*
X322692Y581926D01*
X317614D01*
X315075Y579387D01*
Y569230D01*
X317614Y566691D01*
X322692D01*
X325231Y569230D01*
Y579387D01*
X299839Y566691D02*
X309996D01*
X299839Y576847D01*
Y579387D01*
X302379Y581926D01*
X307457D01*
X309996Y579387D01*
X345545Y620027D02*
X348084Y622566D01*
X353162D01*
X355701Y620027D01*
Y609870D01*
X353162Y607331D01*
X348084D01*
X345545Y609870D01*
X330310Y622566D02*
X340466D01*
Y614948D01*
X335388Y617487D01*
X332849D01*
X330310Y614948D01*
Y609870D01*
X332849Y607331D01*
X337927D01*
X340466Y609870D01*
X325231Y620027D02*
X322692Y622566D01*
X317614D01*
X315075Y620027D01*
Y609870D01*
X317614Y607331D01*
X322692D01*
X325231Y609870D01*
Y620027D01*
X309996D02*
X307457Y622566D01*
X302379D01*
X299839Y620027D01*
Y609870D01*
X302379Y607331D01*
X307457D01*
X309996Y609870D01*
Y620027D01*
X345546Y599707D02*
X348085Y602246D01*
X353163D01*
X355702Y599707D01*
Y589550D01*
X353163Y587011D01*
X348085D01*
X345546Y589550D01*
X330310Y602246D02*
X340467D01*
Y594628D01*
X335389Y597168D01*
X332850D01*
X330310Y594628D01*
Y589550D01*
X332850Y587011D01*
X337928D01*
X340467Y589550D01*
X325232Y599707D02*
X322693Y602246D01*
X317614D01*
X315075Y599707D01*
Y589550D01*
X317614Y587011D01*
X322693D01*
X325232Y589550D01*
Y599707D01*
X309997Y587011D02*
X304919D01*
X307458D01*
Y602246D01*
X309997Y599707D01*
X345545Y538747D02*
X348084Y541286D01*
X353162D01*
X355701Y538747D01*
Y528590D01*
X353162Y526051D01*
X348084D01*
X345545Y528590D01*
X330310Y541286D02*
X340466D01*
Y533668D01*
X335388Y536208D01*
X332849D01*
X330310Y533668D01*
Y528590D01*
X332849Y526051D01*
X337927D01*
X340466Y528590D01*
X325231Y538747D02*
X322692Y541286D01*
X317614D01*
X315075Y538747D01*
Y528590D01*
X317614Y526051D01*
X322692D01*
X325231Y528590D01*
Y538747D01*
X302379Y526051D02*
Y541286D01*
X309996Y533668D01*
X299839D01*
X556365Y562877D02*
X558904Y565416D01*
X563983D01*
X566522Y562877D01*
Y552720D01*
X563983Y550181D01*
X558904D01*
X556365Y552720D01*
X541130Y565416D02*
X551287D01*
Y557798D01*
X546208Y560337D01*
X543669D01*
X541130Y557798D01*
Y552720D01*
X543669Y550181D01*
X548747D01*
X551287Y552720D01*
X536052Y550181D02*
X530973D01*
X533512D01*
Y565416D01*
X536052Y562877D01*
X523356D02*
X520817Y565416D01*
X515738D01*
X513199Y562877D01*
Y552720D01*
X515738Y550181D01*
X520817D01*
X523356Y552720D01*
Y562877D01*
X345545Y518427D02*
X348084Y520966D01*
X353162D01*
X355701Y518427D01*
Y508270D01*
X353162Y505731D01*
X348084D01*
X345545Y508270D01*
X330310Y520966D02*
X340466D01*
Y513348D01*
X335388Y515887D01*
X332849D01*
X330310Y513348D01*
Y508270D01*
X332849Y505731D01*
X337927D01*
X340466Y508270D01*
X325231Y518427D02*
X322692Y520966D01*
X317614D01*
X315075Y518427D01*
Y508270D01*
X317614Y505731D01*
X322692D01*
X325231Y508270D01*
Y518427D01*
X299839Y520966D02*
X309996D01*
Y513348D01*
X304918Y515887D01*
X302379D01*
X299839Y513348D01*
Y508270D01*
X302379Y505731D01*
X307457D01*
X309996Y508270D01*
X143466Y241077D02*
X146005Y243616D01*
X151083D01*
X153623Y241077D01*
Y230920D01*
X151083Y228381D01*
X146005D01*
X143466Y230920D01*
X138387Y241077D02*
X135848Y243616D01*
X130770D01*
X128231Y241077D01*
Y238538D01*
X130770Y235998D01*
X133309D01*
X130770D01*
X128231Y233459D01*
Y230920D01*
X130770Y228381D01*
X135848D01*
X138387Y230920D01*
X123153Y228381D02*
X118074D01*
X120613D01*
Y243616D01*
X123153Y241077D01*
X110457Y228381D02*
X105378D01*
X107917D01*
Y243616D01*
X110457Y241077D01*
X144275Y304077D02*
X146814Y306616D01*
X151892D01*
X154431Y304077D01*
Y293920D01*
X151892Y291381D01*
X146814D01*
X144275Y293920D01*
X139196Y304077D02*
X136657Y306616D01*
X131579D01*
X129040Y304077D01*
Y301537D01*
X131579Y298998D01*
X134118D01*
X131579D01*
X129040Y296459D01*
Y293920D01*
X131579Y291381D01*
X136657D01*
X139196Y293920D01*
X123961Y304077D02*
X121422Y306616D01*
X116344D01*
X113805Y304077D01*
Y293920D01*
X116344Y291381D01*
X121422D01*
X123961Y293920D01*
Y304077D01*
X108726D02*
X106187Y306616D01*
X101109D01*
X98569Y304077D01*
Y301537D01*
X101109Y298998D01*
X98569Y296459D01*
Y293920D01*
X101109Y291381D01*
X106187D01*
X108726Y293920D01*
Y296459D01*
X106187Y298998D01*
X108726Y301537D01*
Y304077D01*
X106187Y298998D02*
X101109D01*
X144275Y325077D02*
X146814Y327616D01*
X151892D01*
X154431Y325077D01*
Y314920D01*
X151892Y312381D01*
X146814D01*
X144275Y314920D01*
X139196Y325077D02*
X136657Y327616D01*
X131579D01*
X129040Y325077D01*
Y322537D01*
X131579Y319998D01*
X134118D01*
X131579D01*
X129040Y317459D01*
Y314920D01*
X131579Y312381D01*
X136657D01*
X139196Y314920D01*
X123961Y325077D02*
X121422Y327616D01*
X116344D01*
X113805Y325077D01*
Y314920D01*
X116344Y312381D01*
X121422D01*
X123961Y314920D01*
Y325077D01*
X98569Y327616D02*
X103648Y325077D01*
X108726Y319998D01*
Y314920D01*
X106187Y312381D01*
X101109D01*
X98569Y314920D01*
Y317459D01*
X101109Y319998D01*
X108726D01*
X417079Y452263D02*
X419618Y449724D01*
Y444646D01*
X417079Y442107D01*
X406922D01*
X404383Y444646D01*
Y449724D01*
X406922Y452263D01*
X404383Y464959D02*
X419618D01*
X412001Y457342D01*
Y467498D01*
X417079Y472577D02*
X419618Y475116D01*
Y480194D01*
X417079Y482733D01*
X406922D01*
X404383Y480194D01*
Y475116D01*
X406922Y472577D01*
X417079D01*
X404383Y487812D02*
Y492890D01*
Y490351D01*
X419618D01*
X417079Y487812D01*
X450955Y687337D02*
X453494Y689876D01*
X458572D01*
X461111Y687337D01*
Y677180D01*
X458572Y674641D01*
X453494D01*
X450955Y677180D01*
X435720Y674641D02*
X445876D01*
X435720Y684798D01*
Y687337D01*
X438259Y689876D01*
X443337D01*
X445876Y687337D01*
X430641D02*
X428102Y689876D01*
X423024D01*
X420485Y687337D01*
Y677180D01*
X423024Y674641D01*
X428102D01*
X430641Y677180D01*
Y687337D01*
X415406Y689876D02*
X405249D01*
Y687337D01*
X415406Y677180D01*
Y674641D01*
X448579Y541224D02*
X451118Y538685D01*
Y533606D01*
X448579Y531067D01*
X438422D01*
X435883Y533606D01*
Y538685D01*
X438422Y541224D01*
X435883Y556459D02*
Y546302D01*
X446040Y556459D01*
X448579D01*
X451118Y553920D01*
Y548842D01*
X448579Y546302D01*
Y561538D02*
X451118Y564077D01*
Y569155D01*
X448579Y571694D01*
X438422D01*
X435883Y569155D01*
Y564077D01*
X438422Y561538D01*
X448579D01*
X438422Y576772D02*
X435883Y579312D01*
Y584390D01*
X438422Y586929D01*
X448579D01*
X451118Y584390D01*
Y579312D01*
X448579Y576772D01*
X446040D01*
X443501Y579312D01*
Y586929D01*
X528425Y665747D02*
X530964Y668286D01*
X536042D01*
X538581Y665747D01*
Y655590D01*
X536042Y653051D01*
X530964D01*
X528425Y655590D01*
X513190Y653051D02*
X523346D01*
X513190Y663207D01*
Y665747D01*
X515729Y668286D01*
X520807D01*
X523346Y665747D01*
X508111D02*
X505572Y668286D01*
X500494D01*
X497954Y665747D01*
Y655590D01*
X500494Y653051D01*
X505572D01*
X508111Y655590D01*
Y665747D01*
X482719Y653051D02*
X492876D01*
X482719Y663207D01*
Y665747D01*
X485259Y668286D01*
X490337D01*
X492876Y665747D01*
X377295Y645427D02*
X379834Y647966D01*
X384912D01*
X387451Y645427D01*
Y635270D01*
X384912Y632731D01*
X379834D01*
X377295Y635270D01*
X362060Y632731D02*
X372216D01*
X362060Y642887D01*
Y645427D01*
X364599Y647966D01*
X369677D01*
X372216Y645427D01*
X356981D02*
X354442Y647966D01*
X349364D01*
X346824Y645427D01*
Y635270D01*
X349364Y632731D01*
X354442D01*
X356981Y635270D01*
Y645427D01*
X331590Y647966D02*
X336668Y645427D01*
X341746Y640348D01*
Y635270D01*
X339207Y632731D01*
X334129D01*
X331590Y635270D01*
Y637809D01*
X334129Y640348D01*
X341746D01*
X528425Y623837D02*
X530964Y626376D01*
X536042D01*
X538581Y623837D01*
Y613680D01*
X536042Y611141D01*
X530964D01*
X528425Y613680D01*
X513190Y611141D02*
X523346D01*
X513190Y621297D01*
Y623837D01*
X515729Y626376D01*
X520807D01*
X523346Y623837D01*
X508111D02*
X505572Y626376D01*
X500494D01*
X497954Y623837D01*
Y613680D01*
X500494Y611141D01*
X505572D01*
X508111Y613680D01*
Y623837D01*
X492876D02*
X490337Y626376D01*
X485259D01*
X482719Y623837D01*
Y613680D01*
X485259Y611141D01*
X490337D01*
X492876Y613680D01*
Y623837D01*
X376175Y663457D02*
X378714Y665996D01*
X383792D01*
X386331Y663457D01*
Y653300D01*
X383792Y650761D01*
X378714D01*
X376175Y653300D01*
X360940Y650761D02*
X371096D01*
X360940Y660918D01*
Y663457D01*
X363479Y665996D01*
X368557D01*
X371096Y663457D01*
X355861D02*
X353322Y665996D01*
X348244D01*
X345704Y663457D01*
Y653300D01*
X348244Y650761D01*
X353322D01*
X355861Y653300D01*
Y663457D01*
X333009Y650761D02*
Y665996D01*
X340626Y658378D01*
X330470D01*
X528425Y686067D02*
X530964Y688606D01*
X536042D01*
X538581Y686067D01*
Y675910D01*
X536042Y673371D01*
X530964D01*
X528425Y675910D01*
X513190Y673371D02*
X523346D01*
X513190Y683528D01*
Y686067D01*
X515729Y688606D01*
X520807D01*
X523346Y686067D01*
X508111D02*
X505572Y688606D01*
X500494D01*
X497954Y686067D01*
Y675910D01*
X500494Y673371D01*
X505572D01*
X508111Y675910D01*
Y686067D01*
X492876D02*
X490337Y688606D01*
X485259D01*
X482719Y686067D01*
Y683528D01*
X485259Y680988D01*
X487798D01*
X485259D01*
X482719Y678449D01*
Y675910D01*
X485259Y673371D01*
X490337D01*
X492876Y675910D01*
D14*
X445500Y513998D02*
Y515998D01*
X437500Y513998D02*
Y515998D01*
X433000Y513998D02*
Y515998D01*
X425000Y513998D02*
Y515998D01*
X405500Y526248D02*
X407500D01*
X405500Y513748D02*
X407500D01*
X183000Y755417D02*
X185000D01*
X183000Y762417D02*
X185000D01*
X183000Y783455D02*
X185000D01*
X183000Y776455D02*
X185000D01*
X183000Y720341D02*
X185000D01*
X183000Y713341D02*
X185000D01*
X183000Y734379D02*
X185000D01*
X183000Y741379D02*
X185000D01*
X51839Y471998D02*
Y502998D01*
X60839Y471998D02*
Y502998D01*
X51839Y471998D02*
X60839D01*
X51839Y502998D02*
X60839D01*
X180501Y520545D02*
X182500D01*
X180501Y513545D02*
X182500D01*
X180501Y534583D02*
X182500D01*
X180501Y541583D02*
X182500D01*
X180501Y492507D02*
X182500D01*
X180501Y499507D02*
X182500D01*
X180501Y478469D02*
X182500D01*
X180501Y471469D02*
X182500D01*
X180501Y450431D02*
X182500D01*
X180501Y457431D02*
X182500D01*
X180501Y436393D02*
X182500D01*
X180501Y429393D02*
X182500D01*
X180501Y408355D02*
X182500D01*
X180501Y415355D02*
X182500D01*
X180501Y394317D02*
X182500D01*
X180501Y387317D02*
X182500D01*
X183000Y678264D02*
X185000D01*
X183000Y671264D02*
X185000D01*
X183000Y692302D02*
X185000D01*
X183000Y699303D02*
X185000D01*
X183000Y636188D02*
X185000D01*
X183000Y629188D02*
X185000D01*
X183000Y650226D02*
X185000D01*
X183000Y657226D02*
X185000D01*
X53856Y714998D02*
Y745998D01*
X62856Y714998D02*
Y745998D01*
X53856Y714998D02*
X62856D01*
X53856Y745998D02*
X62856D01*
X173500Y301998D02*
X175500D01*
X173500Y309998D02*
X175500D01*
X173500Y287998D02*
X175500D01*
X173500Y295998D02*
X175500D01*
X173500Y273998D02*
X175500D01*
X173500Y281998D02*
X175500D01*
X173500Y252998D02*
X175500D01*
X173500Y244998D02*
X175500D01*
X173500Y258998D02*
X175500D01*
X173500Y266998D02*
X175500D01*
X400500Y601498D02*
Y603498D01*
X392500Y601498D02*
Y603498D01*
X462200Y555528D02*
Y557528D01*
X470200Y555528D02*
Y557528D01*
X430740Y643158D02*
Y645158D01*
X443240Y643158D02*
Y645158D01*
D72*
X510127Y69998D02*
Y159998D01*
X353265Y69998D02*
Y159998D01*
X510127D01*
X353265Y69998D02*
X510127D01*
M02*
