G04*
G04 #@! TF.GenerationSoftware,Altium Limited,Altium Designer,20.2.4 (192)*
G04*
G04 Layer_Color=16711935*
%FSLAX44Y44*%
%MOMM*%
G71*
G04*
G04 #@! TF.SameCoordinates,5C77CFF5-D3CA-48E4-97E0-CB8EAA972895*
G04*
G04*
G04 #@! TF.FilePolarity,Positive*
G04*
G01*
G75*
%ADD11C,0.2540*%
D11*
X0Y-2D02*
Y999998D01*
X835000D02*
X835000Y-2D01*
X0Y999998D02*
X835000Y999998D01*
X0Y-2D02*
X835000Y-2D01*
X358489Y929908D02*
X365929D01*
X374819Y938798D01*
X393869Y929908D02*
X401489D01*
X384979Y938798D02*
X393869Y929908D01*
X358489Y843548D02*
X365929D01*
X374819Y834658D01*
X393869Y843548D02*
X401489D01*
X384979Y834658D02*
X393869Y843548D01*
X358309Y843908D02*
Y929908D01*
X374819Y938798D02*
X384979D01*
X374819Y834658D02*
X384979D01*
X401489Y843548D02*
Y929908D01*
X446482D02*
X453922D01*
X462812Y938798D01*
X481862Y929908D02*
X489482D01*
X472972Y938798D02*
X481862Y929908D01*
X446482Y843548D02*
X453922D01*
X462812Y834658D01*
X481862Y843548D02*
X489482D01*
X472972Y834658D02*
X481862Y843548D01*
X446302Y843908D02*
Y929908D01*
X462812Y938798D02*
X472972D01*
X462812Y834658D02*
X472972D01*
X489482Y843548D02*
Y929908D01*
X270496D02*
X277936D01*
X286826Y938798D01*
X305876Y929908D02*
X313496D01*
X296986Y938798D02*
X305876Y929908D01*
X270496Y843548D02*
X277936D01*
X286826Y834658D01*
X305876Y843548D02*
X313496D01*
X296986Y834658D02*
X305876Y843548D01*
X270316Y843908D02*
Y929908D01*
X286826Y938798D02*
X296986D01*
X286826Y834658D02*
X296986D01*
X313496Y843548D02*
Y929908D01*
X94510D02*
X101950D01*
X110840Y938798D01*
X129890Y929908D02*
X137510D01*
X121000Y938798D02*
X129890Y929908D01*
X94510Y843548D02*
X101950D01*
X110840Y834658D01*
X129890Y843548D02*
X137510D01*
X121000Y834658D02*
X129890Y843548D01*
X94330Y843908D02*
Y929908D01*
X110840Y938798D02*
X121000D01*
X110840Y834658D02*
X121000D01*
X137510Y843548D02*
Y929908D01*
X182503D02*
X189943D01*
X198833Y938798D01*
X217883Y929908D02*
X225503D01*
X208993Y938798D02*
X217883Y929908D01*
X182503Y843548D02*
X189943D01*
X198833Y834658D01*
X217883Y843548D02*
X225503D01*
X208993Y834658D02*
X217883Y843548D01*
X182323Y843908D02*
Y929908D01*
X198833Y938798D02*
X208993D01*
X198833Y834658D02*
X208993D01*
X225503Y843548D02*
Y929908D01*
X622467D02*
X629907D01*
X638797Y938798D01*
X657848Y929908D02*
X665468D01*
X648958Y938798D02*
X657848Y929908D01*
X622467Y843548D02*
X629907D01*
X638797Y834658D01*
X657848Y843548D02*
X665468D01*
X648958Y834658D02*
X657848Y843548D01*
X622287Y843908D02*
Y929908D01*
X638797Y938798D02*
X648958D01*
X638797Y834658D02*
X648958D01*
X665468Y843548D02*
Y929908D01*
X710460D02*
X717900D01*
X726790Y938798D01*
X745840Y929908D02*
X753460D01*
X736950Y938798D02*
X745840Y929908D01*
X710460Y843548D02*
X717900D01*
X726790Y834658D01*
X745840Y843548D02*
X753460D01*
X736950Y834658D02*
X745840Y843548D01*
X710280Y843908D02*
Y929908D01*
X726790Y938798D02*
X736950D01*
X726790Y834658D02*
X736950D01*
X753460Y843548D02*
Y929908D01*
X534475D02*
X541915D01*
X550805Y938798D01*
X569855Y929908D02*
X577475D01*
X560965Y938798D02*
X569855Y929908D01*
X534475Y843548D02*
X541915D01*
X550805Y834658D01*
X569855Y843548D02*
X577475D01*
X560965Y834658D02*
X569855Y843548D01*
X534295Y843908D02*
Y929908D01*
X550805Y938798D02*
X560965D01*
X550805Y834658D02*
X560965D01*
X577475Y843548D02*
Y929908D01*
X32040Y219978D02*
X39480D01*
X48370Y228868D01*
X67420Y219978D02*
X75040D01*
X58530Y228868D02*
X67420Y219978D01*
X32040Y133618D02*
X39480D01*
X48370Y124728D01*
X67420Y133618D02*
X75040D01*
X58530Y124728D02*
X67420Y133618D01*
X31860Y133978D02*
Y219978D01*
X48370Y228868D02*
X58530D01*
X48370Y124728D02*
X58530D01*
X75040Y133618D02*
Y219978D01*
X226804Y204164D02*
X296657Y204164D01*
X226657Y154164D02*
X226804Y204164D01*
X296657Y154164D02*
Y204164D01*
X226657Y154164D02*
X296657D01*
X398501Y55998D02*
X472500Y498D01*
X398501D02*
X472500Y55998D01*
X398501D02*
X472500D01*
X398501Y498D02*
Y55998D01*
Y498D02*
X472500D01*
Y55998D01*
M02*
