M48
;Layer_Color=9474304
;FILE_FORMAT=4:4
METRIC,LZ
;TYPE=PLATED
T1F00S00C0.3000
T3F00S00C0.8000
T4F00S00C0.9000
T5F00S00C1.5000
;TYPE=NON_PLATED
T6F00S00C3.2000
%
T01
X000765Y00112498
X00209Y00077498
X002065Y00064998
Y00049998
X001765Y00034998
X002315Y00077498
X00254
X0026944Y00042058
X00323438Y000421
X003765Y00044998
Y00064998
X00396501
Y00044998
X004165Y00064998
X00396501Y00084998
Y00104998
X003765
Y00084998
Y00124998
X00396501
X004315Y00130998
X00449Y00139998
X004665
Y00119998
X004865
Y00139998
X005065
X00524001
X005065Y00119998
X00538251Y00074248
X006115Y00100998
X006545Y00098998
X007115Y00123998
X00788255Y00134253
X007425Y00175998
Y00195998
X0068814Y00215948
X00675784Y00217948
X006765Y00204998
X00655533Y00211198
X00644533
Y00222198
X00655533
X00650033Y00216698
X0066025Y00192498
X006545Y00172998
Y00151998
X006715Y00234998
X006765Y00304998
Y00329998
X006515
Y00354998
X006765
Y00379998
Y00404998
X00674Y00429998
X00714
X00759
X007615Y00404998
Y00379998
Y00354998
X007365
Y00329998
X007615
Y00304998
X007115Y00329998
Y00354998
Y00379998
X007365
X006515
X00789Y00457498
X00629Y00429998
X006265Y00404998
Y00379998
Y00354998
Y00329998
Y00304998
X005965Y00329998
Y00354998
X005715
X005465
Y00329998
X005715
Y00379998
X005965
X005465
X00549001Y00429998
X00594
X00536501Y00472498
X00504Y00462998
X00484
X004865Y00504998
X004915Y00514998
X005015
X005065Y00524998
X004965Y00534998
X004865
X004665
X004565
X004365
X004265
X004165
X004065
X003865
X00376225Y00535163
X003615Y00529998
X003765Y00504998
X00419Y00502498
X00444Y00499998
X00459
X00459001Y00507499
X00467211Y00524717
X004765Y00524998
X00414Y00469821
X004215Y00429998
X00399Y00389998
X0031375Y00411248
X002515Y00255616
X003765Y00144998
X00396501
X004165
Y00164998
X00396501
X00449Y00159998
X004665
X004865
X005065
X005515Y00174998
Y00194998
Y00214998
X005715Y00184998
Y00164998
X005915
X006115
Y00184998
X005915
X006165Y00204998
X006245Y00214998
X002215Y00192998
X002085Y00203998
X0019823Y00230138
X001915Y00259998
Y00282498
X001925Y00301578
X001565Y00302498
Y00292498
X00144
Y00279998
Y00267498
X001565
Y00279998
X001515Y00249998
X001415
X001275Y00224998
X001135Y00228998
X001595
X001005Y00262998
Y00276828
X00102114Y00301885
X001005Y00313998
X001225Y00316998
X001295Y00309498
X00114Y00344998
X001515Y00358998
X001505Y00370998
X00173251Y00345457
X002465Y00342498
X002405Y00313998
X002225Y00164998
X00029Y00484998
Y00499999
X000315Y00727498
Y00744998
X00105145Y00826608
X00174Y00824998
X001465Y00912498
X00072253Y00897579
X003465Y00729998
X004315
X004215Y00674998
X004265Y00654998
Y00644998
X004365
X004465
X004565Y00654998
X004665Y00654998
X004765
X004715Y00667498
X004515
X004565Y00634998
X004665
Y00644998
X00456501Y00624998
X004565Y00614998
X00456501Y00604998
X004565Y00594998
X00456501Y00584998
X004565Y00574998
X00456501Y00564998
X004565Y00554998
X004465
X004365
Y00544998
X004265
X00416501
X004165Y00554998
Y00564998
Y00574998
Y00584998
Y00594998
Y00604998
X004065
Y00594998
Y00584998
Y00574998
Y00564998
X00396501Y00554998
X003865Y00564998
X003765
X003565Y00565998
X00356215Y00572784
X003565Y00583498
Y00589998
Y00601748
Y00608248
X003615Y00619998
X003565Y00631748
Y00638248
X003765Y00634998
X003865
Y00644998
X00396501
X004065
Y00634998
Y00624998
X004165
X00416501Y00614998
X004265
X004365
Y00624998
X004465
X00426501Y00624998
X00416501Y00634998
X003865Y00624998
Y00614998
Y00594998
X003765
X004265Y00584998
Y00574998
X004365
X004465
Y00584998
Y00594998
Y00604998
X004865Y00595498
X004965
X00509Y00599998
X005165Y00609998
X005065Y00614998
X004965Y00634998
X00517854Y00640181
X005065Y00664998
X00519Y00684998
X00515Y00718411
X005165Y00749998
X005515
Y00769998
X005865Y00814998
X006015
X00615Y0073
X005815Y00608998
X00516501Y00553248
Y00546748
X004965Y00564998
X004865
X004765Y00554998
X004565Y00544998
X004365Y00564998
X004765Y00624998
X00734Y00684998
Y00704998
Y00724998
T03
X0005345Y00156798
Y00176798
Y00196798
X0011592Y00866728
Y00886728
Y00906728
X00203913
Y00886728
Y00866728
X00291906
Y00886728
Y00906728
X00379899
Y00886728
Y00866728
X00467892
Y00886728
Y00906728
X00555885
Y00886728
Y00866728
X00643877
Y00886728
Y00906728
X0073187
Y00886728
Y00866728
T04
X00102828Y00399707
X00128228
Y00425107
Y00450507
Y00475907
Y00501307
Y00526707
X00102828
Y00501307
Y00475907
Y00450507
Y00425107
Y00641565
X00128228
Y00666965
Y00692365
Y00717765
Y00743165
Y00768565
X00102828
Y00743165
Y00717765
Y00692365
Y00666965
T05
X0005345Y00135798
Y00217798
X0011592Y00845728
Y00927728
X00203913
Y00845728
X00291906
Y00927728
X00379899
Y00845728
X00467892
Y00927728
X00555885
Y00845728
X00643877
Y00927728
X0073187
Y00845728
T06
X0004Y00039998
X00795
Y00959998
X0004
M30
