M48
;Layer_Color=9474304
;FILE_FORMAT=4:4
METRIC,LZ
;TYPE=PLATED
T1F00S00C0.3000
T3F00S00C0.8000
T4F00S00C0.9000
T5F00S00C1.5000
;TYPE=NON_PLATED
T6F00S00C3.2000
%
T01
X00096501Y00024999
X00116501
X00136501
X00156501
X00176501
X001765Y00034998
X00196501Y00024999
X00216501
X00236501
X002065Y00049998
Y00064998
X00209Y00077498
X002315
X00226501Y00124999
X00246501
X00206501
X00126501Y00084999
X00106501
X00086501
X00096501Y00064998
X00116501
X00106501Y00044998
X000765Y00112498
X00066501Y00124999
X00026501
X00016501Y00104999
X00256501
X00276501
X00296501
X00316501
X00336501
X00356501
X003765Y00104998
Y00084998
Y00064998
X00356501Y00064998
X00346501Y00084999
X00326501
X00306501
X00286501
X00266501
X00254Y00077498
X0026944Y00042058
X00276501Y00024999
X00256501
X00323438Y000421
X003765Y00044998
X00396501
Y00064998
X004165
X00396501Y00084998
Y00104998
Y00124998
X003765
X00346501Y00124999
X00326501
X00306501
X00286501
X004315Y00130998
X00449Y00139998
X004665
Y00119998
X004865
Y00139998
X005065
X00524001
X005065Y00119998
X00546501Y00124999
X00566501
X00586501
X00606501
X006115Y00100998
X00606501Y00084999
X00586501
X00566501
X00546501
X00538251Y00074248
X00556501Y00064998
X00576501
X00596501
X00616501
X00586501Y00044998
X00566501
X00546501
X00556501Y00024999
X00576501
X00636501
X00516501
X00496501
X00486501Y00044998
X00496501Y00064998
X00476501
X00456501
X00466501Y00084999
X00486501
X00666501
X00686501
X00706501
X00696501Y00104999
X00676501
X006545Y00098998
X00666501Y00124999
X00686501
X007115Y00123998
X00746501Y00124999
X00766501
X00786501
X00788255Y00134253
X00806501Y00124999
X00826501
X00816501Y00104999
X00796501
X00776501
X00756501
X00766501Y00084999
X00746501
X00736501Y00024999
X00716501
X00696501
X00676501
X00656501
X00676501Y00064998
X00696501
X00826501Y00084999
X00816501Y00144999
X00796501
X00776501
X00756501
X00766501Y00164998
X00776501Y00184998
X00796501
X00816501
X00826501Y00204998
X00806501
X00816501Y00224999
X00796501
X00776501
Y00264999
X00796501
X00816501
X00826501Y00284999
X00806501
X00816501Y00304999
X00796501
X00806501Y00324999
X00826501
X00816501Y00344999
X00796501
X00806501Y00364999
X00826501
X00816501Y00384999
X00796501
X00806501Y00404999
X00826501
X00816501Y00424999
X00796501
X00776501
X00759Y00429998
X00766501Y00444999
X00776501Y00464999
X00789Y00457498
X00796501Y00464999
X00816501
X00826501Y00484999
X00806501
X00786501
X00766501
X00746501
X00726501
X00706501
X00686501
X00666501
X00646501
X00656501Y00504999
X00676501
X00696501
X00716501
X00736501
X00756501
X00776501
X00796501
X00816501
X00826501Y00524999
X00806501
X00786501
X00766501
X00746501
X00726501
X00706501
X00686501
X00666501
X00646501
X00656501Y00464999
X00676501
X00696501
X00716501
X00736501
X00756501
X007615Y00404998
Y00379998
Y00354998
X007365
Y00329998
X007615
Y00304998
X007115Y00329998
Y00354998
Y00379998
X007365
X006765
Y00404998
X00674Y00429998
X00696501Y00424999
X00714Y00429998
X00706501Y00444999
X00686501
X006765Y00354998
X006515
Y00329998
X006765
Y00304998
X00686501Y00284999
Y00244999
X006715Y00234998
X00675784Y00217948
X006765Y00204998
X00686501Y00204998
X0068814Y00215948
X00706501Y00204998
X00696501Y00184998
X00676501
X0066025Y00192498
X00655533Y00211198
X00644533
Y00222198
X00655533
X00650033Y00216698
X006545Y00172998
X00666501Y00164998
X00686501
X00706501
X00696501Y00144999
X00676501
X006545Y00151998
X007425Y00175998
Y00195998
X00746501Y00204998
X00756501Y00184998
X00806501Y00164998
X00826501
Y00244999
X00806501
Y00444999
X00826501
X006515Y00379998
X006265
Y00404998
X00629Y00429998
X00626501Y00444999
X00606501
X00594Y00429998
X00596501Y00464999
X00616501
X00636501
X00626501Y00484999
X00606501
X00586501
X00566501
X00546501
X00536501Y00472498
X00556501Y00464999
X00576501
Y00504999
X00596501
X00616501
X00636501
X00626501Y00524999
X00606501
X00586501
X00566501
X00546501
X00556501Y00504999
X00536501
X005015Y00514998
X004915
X004865Y00504998
X004765Y00524998
X00467211Y00524717
X004665Y00534998
X004565
X004365
X004265
X004165
X004065
X003865
X00376225Y00535163
X003615Y00529998
X00346501Y00524999
X00326501
X00306501
X00276501Y00504999
X00256501
Y00464999
X00276501
Y00424999
X0031375Y00411248
X00316501Y00344999
X00336501
X00356501
X00376501
X00396501
X00416501
X00436501
X00456501
X00476501
X00496501
X00516501
X00526501Y00364999
X00506501
X00486501
X00466501
X00446501
X00426501
X00406501
X00386501
X00399Y00389998
X00406501Y00404999
X00396501Y00424999
X004215Y00429998
X00436501Y00424999
X00456501
X00476501
X00496501
X00516501
X00526501Y00444999
X00546501
X00549001Y00429998
X00526501Y00404999
X00506501
X00486501
X00466501
X00446501
X00456501Y00384999
X00476501
X00496501
X00516501
X005465Y00379998
Y00354998
X005715
X005965
Y00329998
X005715
X005465
X00526501Y00324999
X00506501
X00486501
X00466501
X00446501
X00426501
X00406501
X00386501
X00366501
X00346501
X00326501
X00306501
X00286501
X00266501
X00276501Y00344999
X00296501
X00256501
Y00264999
X002515Y00255616
X00266501Y00244999
X00286501
X00306501
X00326501
X00346501
X00366501
X00386501
X00406501
X00416501Y00264999
X00396501
X00376501
X00356501
X00336501
X00316501
X00296501
X00276501
X00296501Y00224999
X00316501
X00336501
X00356501
X00376501
X00396501
X00416501
X00406501Y00204998
X00386501
X00366501
X00346501
X00326501
X00306501
X00316501Y00184998
X00336501
X00356501
X00376501
X00396501
X00416501
X004165Y00164998
X00396501
Y00144998
X004165
X003765
X00356501Y00144999
X00336501
X00316501
X00326501Y00164998
X00346501
X00366501
X00306501
X00449Y00159998
X004665
X004865
X005065
X00496501Y00184998
X00476501
X00456501
X00466501Y00204998
X00486501
X00496501Y00224999
X00476501
X00456501
X00466501Y00244999
X00486501
X00506501
X00526501
X00536501Y00264999
X00516501
X00496501
X00476501
X00456501
X00466501Y00284999
X00486501
X00506501
X00526501
X00446501
Y00244999
Y00204998
X005515Y00214998
Y00194998
Y00174998
X005715Y00164998
Y00184998
X005915
X006115
Y00164998
X005915
X006165Y00204998
X006245Y00214998
X00616501Y00264999
X006265Y00304998
Y00329998
Y00354998
X005965Y00379998
X005715
X00436501Y00384999
X00414Y00469821
X00419Y00502498
X00444Y00499998
X00459
X00459001Y00507499
X004865Y00534998
X004965
X005065Y00524998
X00504Y00462998
X00484
X003765Y00504998
X00236501Y00504999
Y00464999
X00216501
X00156501Y00384999
X001505Y00370998
X001515Y00358998
X00126501Y00364999
X00106501
X00086501
X00066501
X00046501
X00026501
X00036501Y00384999
X00056501
X00076501
X00066501Y00404999
X00046501
X00026501
X00036501Y00424999
X00056501
X00076501
X00066501Y00444999
X00046501
X00026501
X00036501Y00464999
X00016501
X00029Y00484998
Y00499999
X00026501Y00524999
X00046501
X00066501
X00076501Y00464999
X00016501Y00424999
Y00384999
Y00344999
X00026501Y00324999
X00046501
X00066501
X00086501
X001005Y00313998
X00102114Y00301885
X001005Y00276828
Y00262998
X00056501Y00264999
X00046501Y00284999
X00026501
X00016501Y00304999
X00056501
Y00344999
X00076501
X00096501
X00114Y00344998
X001225Y00316998
X001295Y00309498
X00144Y00292498
Y00279998
Y00267498
X001565
Y00279998
Y00292498
Y00302498
X001925Y00301578
X001915Y00282498
Y00259998
X0019823Y00230138
X002085Y00203998
X002215Y00192998
X00216501Y00184998
X00196501
X00206501Y00164998
X002225Y00164998
X00216501Y00144999
X00236501
X00196501
X00116501
X00096501
X00106501Y00164998
X00126501
X00116501Y00184998
X00096501
X00076501
X00086501Y00164998
X00066501
X00026501
X00036501Y00144999
X00016501
Y00184998
X00026501Y00204998
X00016501Y00224999
X00026501Y00244999
X00046501
X00076501Y00224999
X001135Y00228998
X001275Y00224998
X001595Y00228998
X001515Y00249998
X001415
X00173251Y00345457
X002465Y00342498
X002405Y00313998
X00016501Y00264999
Y00544999
X00036501
X00056501
X00076501
X00096501
X00106501Y00564999
X00126501
X00146501
X00166501
X00186501
X00206501
X00226501
X00246501
X00236501Y00584999
X00216501
X00196501
X00176501
X00156501
X00136501
X00116501
X00096501
X00076501
X00056501
X00036501
X00016501
X00026501Y00604999
X00046501
X00066501
X00086501
X00106501
X00126501
X00146501
X00166501
X00186501
X00206501
X00226501
X00246501
X00216501Y00624999
Y00664999
X00226501Y00684999
X00236501Y00704999
X00226501Y00724999
X00236501Y00744999
X00226501Y00764999
Y00844999
Y00884999
X00246501
X00236501Y00904999
X00226501Y00924999
X00186501
X00176501Y00904999
X00166501Y00884999
X00176501Y00864999
X00186501Y00844999
X00174Y00824998
X00136501Y00824999
X00116501
X00105145Y00826608
X00096501Y00864999
X00136501
Y00904999
X001465Y00912498
X00146501Y00924999
X00086501
X00072253Y00897579
X00046501Y00884999
X00026501
X00036501Y00864999
X00056501
X00046501Y00844999
X00026501
X00036501Y00824999
X00056501
X00066501Y00804999
X00046501
X00026501
X00036501Y00784999
X00056501
X00076501
X00096501
X00116501
X00136501
X00156501
X00146501Y00764999
X00156501Y00704999
X00096501
X00076501
X00066501Y00684999
X00046501
X00026501
X00036501Y00704999
X00016501
X000315Y00727498
Y00744998
X00026501Y00764999
X00046501
X00066501
X00016501Y00784999
Y00824999
Y00864999
Y00904999
Y00664999
X00036501
X00056501
X00076501
X00066501Y00644999
X00046501
X00026501
X00036501Y00624999
X00056501
X00076501
X00016501
X00026501Y00564999
X00046501
X00066501
X00086501
X00156501Y00624999
X00256501
X00266501Y00644999
X00276501Y00664999
X00266501Y00684999
X00276501Y00704999
X00266501Y00724999
X00306501Y00684999
Y00644999
X00346501
X003565Y00638248
Y00631748
X003615Y00619998
X003565Y00608248
Y00601748
Y00589998
Y00583498
X00356215Y00572784
X003565Y00565998
X003765Y00564998
X003865
X004065
Y00574998
X004165
Y00564998
Y00554998
X00416501Y00544998
X004265
X004365
Y00554998
X004465
X004565
Y00544998
X00456501Y00564998
X004565Y00574998
X004465
X004365
Y00564998
X004265Y00574998
Y00584998
X004165
Y00594998
Y00604998
X004065
Y00594998
Y00584998
X003865Y00594998
X003765
X003865Y00614998
Y00624998
Y00634998
Y00644998
X00396501
X004065
Y00634998
Y00624998
X004165
X00416501Y00614998
X004265
X004365
Y00624998
X004465
X00456501Y00624998
X004565Y00634998
X004665
Y00644998
Y00654998
X004765
X004715Y00667498
X004515
X004565Y00654998
X004465Y00644998
X004365
X004265
Y00654998
X004215Y00674998
X00416501Y00634998
X00426501Y00624998
X004565Y00614998
X00456501Y00604998
X004565Y00594998
X00456501Y00584998
X004465Y00584998
Y00594998
Y00604998
X004865Y00595498
X004965
X00509Y00599998
X005165Y00609998
X005065Y00614998
X004965Y00634998
X00517854Y00640181
X00536501Y00624999
X00576501
X005815Y00608998
X00606501Y00604999
X00626501
X00636501Y00624999
X00616501
Y00584999
X00636501
X00626501Y00564999
X00606501
X00586501
X00596501Y00584999
X00516501Y00553248
Y00546748
X004965Y00564998
X004865
X004765Y00554998
Y00624998
X00466501Y00684999
X00486501
X00519Y00684998
X005065Y00664998
X00506501Y00724999
X00515Y00718411
X005165Y00749998
X00506501Y00764999
X00486501
X00466501
X00446501
X00456501Y00744999
X00476501
X00486501Y00724999
X00466501
X00446501
X004315Y00729998
X00436501Y00744999
Y00784999
X00416501
X00446501Y00804999
X00456501Y00824999
X00476501
X00486501Y00844999
X00526501
X00536501Y00864999
X00576501
X00616501
X00626501Y00844999
X00636501Y00824999
X00616501
X006015Y00814998
X005865
X00576501Y00824999
X00556501
X00536501
X00546501Y00804999
X00566501
X00576501Y00784999
X00556501
X00536501
X00516501
X00496501
X00476501
X00526501Y00804999
X005515Y00769998
Y00749998
X00566501Y00764999
X00626501
X00636501Y00784999
X00616501
X00626501Y00804999
X00615Y0073
X00576501Y00704999
Y00904999
X00586501Y00924999
X00626501
X00616501Y00904999
X00606501Y00884999
X00506501
X00486501
X00496501Y00904999
X00486501Y00924999
X00526501
X00446501
X00436501Y00904999
X00426501Y00884999
X00436501Y00864999
X00446501Y00844999
X00436501Y00824999
X00396501
X00376501
X00356501
X00366501Y00804999
X00386501
X00346501
Y00844999
X00356501Y00864999
X00396501
X00406501Y00924999
X00346501
X00356501Y00904999
X00316501
X00306501Y00884999
X00316501Y00864999
Y00824999
X00296501
X00276501
X00286501Y00804999
X00306501
X00316501Y00784999
X00296501
X00266501Y00804999
Y00844999
X00276501Y00864999
X00256501
X00266501Y00924999
X00336501Y00744999
X00356501
X003465Y00729998
X00336501Y00624999
X003765Y00634998
X00306501Y00604999
X00296501Y00584999
X00286501Y00564999
X00266501
X00256501Y00584999
X00336501Y00544999
X00356501
X00396501Y00554998
X00646501Y00564999
X00666501
X00686501
X00706501
X00726501
X00746501
X00756501Y00584999
X00736501
X00716501
X00696501
X00676501
X00656501
X00666501Y00604999
X00686501
X00706501
X00726501
X00746501
X00756501Y00624999
X00736501
X00716501
X00696501
X00676501
X00656501
X00646501Y00604999
X00706501Y00644999
X00726501
X00746501
X00756501Y00664999
X00736501
X00716501
X00734Y00684998
X00746501Y00684999
X00756501Y00704999
X00734Y00704998
Y00724998
X00746501Y00724999
X00756501Y00744999
X00776501
X00796501
X00816501
X00826501Y00764999
X00806501
X00786501
X00766501
X00746501
X00756501Y00784999
X00776501
X00796501
X00816501
X00826501Y00804999
X00806501
X00786501
X00766501
X00746501
X00726501
X00706501
X00716501Y00824999
X00736501
X00756501
X00776501
X00796501
X00816501
X00826501Y00844999
X00806501
X00786501
X00766501
X00776501Y00864999
X00796501
X00816501
X00826501Y00884999
X00806501
X00786501
X00766501
X00746501
X00756501Y00904999
Y00864999
X00716501
X00696501
X00706501Y00844999
X00666501
X00656501Y00824999
X00666501Y00804999
X00646501
X00656501Y00784999
X00676501
X00686501Y00764999
X00706501
X00716501Y00784999
X00736501
X00716501Y00744999
X00666501Y00764999
X00646501
X00656501Y00704999
X00666501Y00684999
X00786501
X00796501Y00704999
X00806501Y00724999
X00826501
X00786501
X00796501Y00664999
X00786501Y00644999
X00796501Y00624999
X00816501
X00826501Y00644999
Y00604999
X00806501
X00786501
X00796501Y00584999
X00816501
X00826501Y00564999
X00806501
X00786501
X00796501Y00544999
X00816501
X00776501
X00816501Y00904999
X00706501Y00924999
X00666501
X00676501Y00904999
X00686501Y00884999
X00666501
X00676501Y00944999
X00696501
X00716501
X00736501
X00686501Y00964999
X00656501Y00944999
X00636501
X00616501
X00626501Y00964999
X00586501
X00576501Y00944999
X00556501
X00536501
X00496501
X00476501
X00456501
X00436501
X00416501
X00396501
X00376501
X00356501
X00316501
X00296501
X00276501
X00256501
X00266501Y00964999
X00326501
X00406501
X00446501
X00506501
X00236501Y00944999
X00216501
X00196501
X00176501
X00186501Y00964999
X00146501
X00136501Y00944999
X00116501
T03
X0005345Y00156798
Y00176798
Y00196798
X0011592Y00866728
Y00886728
Y00906728
X00203913
Y00886728
Y00866728
X00291906
Y00886728
Y00906728
X00379899
Y00886728
Y00866728
X00467892
Y00886728
Y00906728
X00555885
Y00886728
Y00866728
X00643877
Y00886728
Y00906728
X0073187
Y00886728
Y00866728
T04
X00102828Y00399707
X00128228
Y00425107
Y00450507
Y00475907
Y00501307
Y00526707
X00102828
Y00501307
Y00475907
Y00450507
Y00425107
Y00641565
X00128228
Y00666965
Y00692365
Y00717765
Y00743165
Y00768565
X00102828
Y00743165
Y00717765
Y00692365
Y00666965
T05
X0005345Y00135798
Y00217798
X0011592Y00845728
Y00927728
X00203913
Y00845728
X00291906
Y00927728
X00379899
Y00845728
X00467892
Y00927728
X00555885
Y00845728
X00643877
Y00927728
X0073187
Y00845728
T06
X0004Y00039998
X00795
Y00959998
X0004
M30
