G04*
G04 #@! TF.GenerationSoftware,Altium Limited,Altium Designer,20.2.4 (192)*
G04*
G04 Layer_Color=16711935*
%FSLAX44Y44*%
%MOMM*%
G71*
G04*
G04 #@! TF.SameCoordinates,1F703A16-312B-4BD4-8826-9FE52E5A98FB*
G04*
G04*
G04 #@! TF.FilePolarity,Negative*
G04*
G01*
G75*
%ADD21R,0.7532X1.1032*%
%ADD31C,2.0000*%
%ADD33R,1.2532X1.6532*%
%ADD34R,0.8032X1.2032*%
%ADD37R,1.2032X0.8032*%
%ADD41R,1.2032X0.7032*%
%ADD42O,1.2532X2.0532*%
%ADD43C,1.8032*%
%ADD44C,7.2000*%
%ADD45C,1.7032*%
%ADD46R,1.7032X1.7032*%
%ADD47C,2.2032*%
%ADD48C,0.7032*%
%ADD89R,0.8432X0.8032*%
%ADD90R,1.6532X1.2532*%
%ADD91R,0.8032X0.8432*%
D21*
X191500Y653726D02*
D03*
X176500D02*
D03*
X174000Y411855D02*
D03*
X189000D02*
D03*
X176500Y674764D02*
D03*
X191500D02*
D03*
X189000Y474969D02*
D03*
X174000D02*
D03*
X191500Y758917D02*
D03*
X176500D02*
D03*
X174000Y496007D02*
D03*
X189000D02*
D03*
X191500Y695803D02*
D03*
X176500D02*
D03*
X174000Y538083D02*
D03*
X189000D02*
D03*
X176500Y632688D02*
D03*
X191500D02*
D03*
X191500Y737879D02*
D03*
X176500D02*
D03*
X176500Y716841D02*
D03*
X191500D02*
D03*
X189000Y432893D02*
D03*
X174000D02*
D03*
X189000Y390817D02*
D03*
X174000D02*
D03*
X176500Y779955D02*
D03*
X191500D02*
D03*
X174000Y453931D02*
D03*
X189000D02*
D03*
X189000Y517045D02*
D03*
X174000D02*
D03*
D31*
X50000Y99998D02*
D03*
X785000Y899998D02*
D03*
X50000D02*
D03*
D33*
X397250Y519998D02*
D03*
X415750D02*
D03*
D34*
X182100Y305998D02*
D03*
X166900D02*
D03*
X182100Y291998D02*
D03*
X166900D02*
D03*
Y248998D02*
D03*
X182100D02*
D03*
Y277998D02*
D03*
X166900D02*
D03*
X182100Y262998D02*
D03*
X166900D02*
D03*
D37*
X396501Y610098D02*
D03*
Y594898D02*
D03*
X466200Y548928D02*
D03*
Y564128D02*
D03*
X441500Y522598D02*
D03*
Y507398D02*
D03*
X429000Y522598D02*
D03*
Y507398D02*
D03*
D41*
X69839Y496998D02*
D03*
Y487498D02*
D03*
Y477998D02*
D03*
X42839D02*
D03*
Y487498D02*
D03*
Y496998D02*
D03*
X71856Y739998D02*
D03*
Y730498D02*
D03*
Y720998D02*
D03*
X44856D02*
D03*
Y730498D02*
D03*
Y739998D02*
D03*
D42*
X399751Y14998D02*
D03*
X471250D02*
D03*
D43*
X115920Y906728D02*
D03*
Y886728D02*
D03*
Y866728D02*
D03*
X53450Y196798D02*
D03*
Y176798D02*
D03*
Y156798D02*
D03*
X731870Y906728D02*
D03*
Y886728D02*
D03*
Y866728D02*
D03*
X643877Y906728D02*
D03*
Y886728D02*
D03*
Y866728D02*
D03*
X555885Y906728D02*
D03*
Y886728D02*
D03*
Y866728D02*
D03*
X467892Y906728D02*
D03*
Y886728D02*
D03*
Y866728D02*
D03*
X379899Y906728D02*
D03*
Y886728D02*
D03*
Y866728D02*
D03*
X291906Y906728D02*
D03*
Y886728D02*
D03*
Y866728D02*
D03*
X203913Y906728D02*
D03*
Y886728D02*
D03*
Y866728D02*
D03*
D44*
X40000Y39998D02*
D03*
Y959998D02*
D03*
X795000Y39998D02*
D03*
Y959998D02*
D03*
D45*
X102828Y526707D02*
D03*
Y501307D02*
D03*
Y475907D02*
D03*
Y450507D02*
D03*
Y425107D02*
D03*
Y399707D02*
D03*
X128228Y526707D02*
D03*
Y501307D02*
D03*
Y475907D02*
D03*
Y450507D02*
D03*
Y425107D02*
D03*
X102828Y768565D02*
D03*
Y743165D02*
D03*
Y717765D02*
D03*
Y692365D02*
D03*
Y666965D02*
D03*
Y641565D02*
D03*
X128228Y768565D02*
D03*
Y743165D02*
D03*
Y717765D02*
D03*
Y692365D02*
D03*
Y666965D02*
D03*
D46*
Y399707D02*
D03*
Y641565D02*
D03*
D47*
X115920Y927728D02*
D03*
Y845728D02*
D03*
X53450Y217798D02*
D03*
Y135798D02*
D03*
X731870Y927728D02*
D03*
Y845728D02*
D03*
X643877Y927728D02*
D03*
Y845728D02*
D03*
X555885Y927728D02*
D03*
Y845728D02*
D03*
X467892Y927728D02*
D03*
Y845728D02*
D03*
X379899Y927728D02*
D03*
Y845728D02*
D03*
X291906Y927728D02*
D03*
Y845728D02*
D03*
X203913Y927728D02*
D03*
Y845728D02*
D03*
D48*
X650033Y216698D02*
D03*
X655533Y211198D02*
D03*
X644533D02*
D03*
Y222198D02*
D03*
X655533D02*
D03*
D89*
X436990Y593638D02*
D03*
Y603238D02*
D03*
X466200Y616498D02*
D03*
Y626098D02*
D03*
X398890Y574868D02*
D03*
Y584468D02*
D03*
X466200Y596178D02*
D03*
Y605778D02*
D03*
X426830Y565138D02*
D03*
Y555538D02*
D03*
X466200Y575858D02*
D03*
Y585458D02*
D03*
X398890Y625388D02*
D03*
Y634988D02*
D03*
D90*
X436990Y634908D02*
D03*
Y653408D02*
D03*
D91*
X373770Y526048D02*
D03*
X383370D02*
D03*
X488070Y573038D02*
D03*
X497670D02*
D03*
X373770Y543828D02*
D03*
X383370D02*
D03*
X373770Y587008D02*
D03*
X383370D02*
D03*
X373770Y603518D02*
D03*
X383370D02*
D03*
X383371Y574308D02*
D03*
X373770D02*
D03*
X497671Y585738D02*
D03*
X488070D02*
D03*
X488070Y556528D02*
D03*
X497670D02*
D03*
X497671Y526048D02*
D03*
X488070D02*
D03*
X497671Y543828D02*
D03*
X488070D02*
D03*
X383371Y556528D02*
D03*
X373770D02*
D03*
X497671Y603518D02*
D03*
X488070D02*
D03*
M02*
