G04*
G04 #@! TF.GenerationSoftware,Altium Limited,Altium Designer,20.2.4 (192)*
G04*
G04 Layer_Physical_Order=1*
G04 Layer_Color=255*
%FSLAX44Y44*%
%MOMM*%
G71*
G04*
G04 #@! TF.SameCoordinates,1F703A16-312B-4BD4-8826-9FE52E5A98FB*
G04*
G04*
G04 #@! TF.FilePolarity,Positive*
G04*
G01*
G75*
%ADD10C,0.2500*%
%ADD11C,0.6000*%
%ADD14C,0.2000*%
%ADD27C,0.4000*%
G04:AMPARAMS|DCode=28|XSize=0.75mm|YSize=0.25mm|CornerRadius=0.125mm|HoleSize=0mm|Usage=FLASHONLY|Rotation=180.000|XOffset=0mm|YOffset=0mm|HoleType=Round|Shape=RoundedRectangle|*
%AMROUNDEDRECTD28*
21,1,0.7500,0.0000,0,0,180.0*
21,1,0.5000,0.2500,0,0,180.0*
1,1,0.2500,-0.2500,0.0000*
1,1,0.2500,0.2500,0.0000*
1,1,0.2500,0.2500,0.0000*
1,1,0.2500,-0.2500,0.0000*
%
%ADD28ROUNDEDRECTD28*%
G04:AMPARAMS|DCode=29|XSize=0.25mm|YSize=0.75mm|CornerRadius=0.125mm|HoleSize=0mm|Usage=FLASHONLY|Rotation=180.000|XOffset=0mm|YOffset=0mm|HoleType=Round|Shape=RoundedRectangle|*
%AMROUNDEDRECTD29*
21,1,0.2500,0.5000,0,0,180.0*
21,1,0.0000,0.7500,0,0,180.0*
1,1,0.2500,0.0000,0.2500*
1,1,0.2500,0.0000,0.2500*
1,1,0.2500,0.0000,-0.2500*
1,1,0.2500,0.0000,-0.2500*
%
%ADD29ROUNDEDRECTD29*%
%ADD30R,4.4500X4.4500*%
%ADD49R,1.7500X1.9000*%
%ADD50R,0.4000X1.4000*%
%ADD51R,1.1500X1.4500*%
%ADD52R,0.6000X1.2000*%
%ADD53R,0.6500X1.7000*%
%ADD54O,0.6000X1.5000*%
%ADD55R,0.5500X0.9000*%
%ADD56O,0.8000X0.2000*%
%ADD57O,0.2000X0.8000*%
%ADD58R,1.6500X1.6500*%
%ADD59R,0.6000X0.8000*%
%ADD60R,2.1000X1.9000*%
%ADD61C,1.0000*%
%ADD62R,2.6500X1.4000*%
%ADD63R,1.0500X1.4500*%
%ADD64R,0.6000X1.0000*%
%ADD65R,2.2000X2.0000*%
%ADD66R,1.2400X1.2900*%
%ADD67R,1.0000X0.6000*%
%ADD68R,0.8000X0.6000*%
%ADD69R,0.9000X0.5500*%
%ADD70R,1.4000X2.6500*%
%ADD71R,1.0000X0.5000*%
%ADD72C,0.5000*%
%ADD73C,0.3000*%
%ADD74C,0.4000*%
%ADD75C,0.3810*%
%ADD76C,1.0000*%
%ADD77C,0.5300*%
%ADD78O,1.0500X1.8500*%
%ADD79C,1.6000*%
%ADD80C,3.2000*%
%ADD81C,1.5000*%
%ADD82R,1.5000X1.5000*%
%ADD83C,2.0000*%
%ADD84C,0.5000*%
%ADD85C,0.6000*%
G36*
X758156Y993841D02*
X755235Y990511D01*
X751593Y985060D01*
X748693Y979180D01*
X746680Y973251D01*
X745410Y973460D01*
Y979434D01*
X741140D01*
Y972894D01*
Y966354D01*
X744365D01*
X745233Y965427D01*
X744877Y959998D01*
X745306Y953456D01*
X746585Y947026D01*
X748693Y940817D01*
X751593Y934937D01*
X755235Y929485D01*
X759558Y924556D01*
X764488Y920233D01*
X769939Y916591D01*
X775819Y913691D01*
X779605Y912406D01*
X779647Y911136D01*
X778778Y910776D01*
X776200Y908799D01*
X774222Y906221D01*
X772979Y903219D01*
X772555Y899998D01*
X772979Y896777D01*
X774222Y893776D01*
X776200Y891198D01*
X778778Y889220D01*
X781779Y887977D01*
X785000Y887553D01*
X788222Y887977D01*
X791223Y889220D01*
X793801Y891198D01*
X795779Y893776D01*
X797022Y896777D01*
X797446Y899998D01*
X797022Y903219D01*
X795779Y906221D01*
X793895Y908675D01*
X794131Y909676D01*
X794225Y909926D01*
X795000Y909875D01*
X801543Y910304D01*
X807973Y911583D01*
X814182Y913691D01*
X820062Y916591D01*
X825513Y920233D01*
X828844Y923154D01*
X830000Y922629D01*
Y77367D01*
X828844Y76843D01*
X825513Y79763D01*
X820062Y83406D01*
X814182Y86306D01*
X807973Y88413D01*
X801543Y89692D01*
X795000Y90121D01*
X788458Y89692D01*
X782028Y88413D01*
X775819Y86306D01*
X769939Y83406D01*
X764488Y79763D01*
X759558Y75441D01*
X755235Y70511D01*
X751593Y65060D01*
X748693Y59180D01*
X746585Y52971D01*
X745306Y46541D01*
X744877Y39998D01*
X745306Y33456D01*
X746585Y27025D01*
X748693Y20817D01*
X751593Y14937D01*
X755235Y9485D01*
X758156Y6155D01*
X757632Y4998D01*
X487104D01*
Y24998D01*
X487122D01*
X486717Y28071D01*
X485532Y30934D01*
X483645Y33393D01*
X481186Y35279D01*
X478323Y36465D01*
X475250Y36870D01*
Y36852D01*
X468960D01*
X467750Y36870D01*
X467450Y37133D01*
Y47548D01*
X449950D01*
Y39057D01*
X447001D01*
Y52998D01*
X440089D01*
Y79148D01*
X441245Y80304D01*
X442239Y81793D01*
X442280Y81998D01*
X447000D01*
Y96891D01*
X507000D01*
X509146Y97317D01*
X510966Y98533D01*
X555466Y143033D01*
X556480Y144551D01*
X557541Y144762D01*
X558533Y145425D01*
X558533Y145426D01*
X559336Y146228D01*
X560020D01*
Y146912D01*
X560177Y147070D01*
X617330D01*
X618501Y147302D01*
X619493Y147965D01*
X624013Y152485D01*
X624630Y153409D01*
X624724Y153425D01*
X625900Y152859D01*
Y143998D01*
X627422D01*
Y138498D01*
X626250D01*
Y123498D01*
X633573D01*
X634059Y122325D01*
X629233Y117498D01*
X626250D01*
Y102498D01*
X627922D01*
Y96998D01*
X625900D01*
Y80998D01*
X627922D01*
Y75498D01*
X626250D01*
Y60498D01*
X637750D01*
Y75498D01*
X636079D01*
Y80998D01*
X637900D01*
Y96998D01*
X636079D01*
Y102498D01*
X637750D01*
Y114481D01*
X639981Y116711D01*
X641251Y116185D01*
Y102498D01*
X641493D01*
Y96998D01*
X641100D01*
Y80998D01*
X653100D01*
Y92668D01*
X654082Y93474D01*
X654500Y93391D01*
X656646Y93817D01*
X658466Y95033D01*
X659681Y96852D01*
X660108Y98998D01*
X659681Y101144D01*
X658466Y102964D01*
X658016Y103414D01*
X656196Y104629D01*
X654050Y105056D01*
X652750D01*
Y117498D01*
X642564D01*
X642038Y118768D01*
X642384Y119114D01*
X642384Y119115D01*
X643268Y120438D01*
X643579Y121998D01*
Y123958D01*
X645731D01*
Y130998D01*
Y138038D01*
X643579D01*
Y143998D01*
X653100D01*
Y146391D01*
X654500D01*
X654500Y146391D01*
X656646Y146817D01*
X658466Y148033D01*
X659681Y149852D01*
X660108Y151998D01*
X659681Y154144D01*
X658466Y155964D01*
X656646Y157179D01*
X654500Y157606D01*
X653100D01*
Y159998D01*
X643579D01*
Y165498D01*
X652750D01*
Y167391D01*
X654500D01*
X656646Y167817D01*
X658466Y169033D01*
X659681Y170852D01*
X660108Y172998D01*
X659681Y175144D01*
X660669Y175952D01*
X663688Y172933D01*
X663688Y172933D01*
X665011Y172049D01*
X666572Y171738D01*
X666572Y171738D01*
X712950D01*
Y167817D01*
X714972D01*
Y162285D01*
X713300D01*
Y147285D01*
X724800D01*
Y162285D01*
X723129D01*
Y167817D01*
X724950D01*
Y183817D01*
X723129D01*
Y188348D01*
X724800D01*
Y203348D01*
X713300D01*
Y188348D01*
X714972D01*
Y183817D01*
X712950D01*
Y179895D01*
X668261D01*
X662034Y186122D01*
X662232Y186774D01*
X662540Y187413D01*
X664216Y188533D01*
X665431Y190352D01*
X665858Y192498D01*
X665431Y194644D01*
X664216Y196464D01*
X662396Y197679D01*
X660250Y198106D01*
X659093Y197876D01*
X658111Y198681D01*
Y204698D01*
X658066Y204927D01*
X658670Y205663D01*
X659189Y205787D01*
X660472Y204930D01*
X662033Y204620D01*
X670968D01*
X671320Y202852D01*
X672535Y201033D01*
X674354Y199817D01*
X676500Y199391D01*
X678646Y199817D01*
X680466Y201033D01*
X681681Y202852D01*
X682108Y204998D01*
X681681Y207144D01*
X681444Y207500D01*
X682042Y208620D01*
X684890D01*
X684890Y208620D01*
X686451Y208930D01*
X687774Y209814D01*
X688340Y210380D01*
X690286Y210767D01*
X692106Y211983D01*
X693321Y213802D01*
X693748Y215948D01*
X693321Y218094D01*
X692409Y219459D01*
X692996Y220730D01*
X750290D01*
X750290Y220730D01*
X751461Y220962D01*
X752453Y221625D01*
X763663Y232835D01*
X764326Y233828D01*
X764559Y234998D01*
X764559Y234998D01*
Y279998D01*
X764475Y280422D01*
X764437Y280853D01*
X764359Y281003D01*
X764326Y281169D01*
X764086Y281528D01*
X763887Y281912D01*
X756764Y290795D01*
X757314Y291940D01*
X761500D01*
X762671Y292172D01*
X763663Y292835D01*
X763663Y292836D01*
X773663Y302835D01*
X774326Y303828D01*
X774559Y304998D01*
X774559Y304998D01*
Y404758D01*
X774559Y404758D01*
X774326Y405929D01*
X773663Y406921D01*
X773663Y406921D01*
X762924Y417661D01*
X761931Y418324D01*
X760761Y418557D01*
X760761Y418557D01*
X753498D01*
X752290Y419827D01*
Y426978D01*
X720710D01*
X720710Y418708D01*
X719503Y418557D01*
X712000D01*
X712000Y418557D01*
X710830Y418324D01*
X709837Y417661D01*
X709837Y417661D01*
X699337Y407161D01*
X698674Y406169D01*
X698442Y404998D01*
X698442Y404998D01*
X698442Y305853D01*
X698535Y305384D01*
X698591Y304908D01*
X698651Y304802D01*
X698674Y304683D01*
X698941Y304284D01*
X699174Y303867D01*
X708445Y293012D01*
X708063Y291852D01*
X699228Y282045D01*
X698963Y281600D01*
X698674Y281169D01*
X698659Y281089D01*
X698617Y281020D01*
X698543Y280507D01*
X698442Y279998D01*
X698442Y248604D01*
X680507Y233197D01*
X677751Y233197D01*
X676945Y234179D01*
X677108Y234998D01*
X676681Y237144D01*
X675466Y238964D01*
X675216Y239130D01*
X675092Y240394D01*
X680453Y245755D01*
X680453Y245755D01*
X681116Y246748D01*
X681349Y247918D01*
X681349Y247918D01*
Y283478D01*
X681116Y284649D01*
X680453Y285641D01*
X674148Y291946D01*
X674634Y293120D01*
X681465D01*
X681962Y293218D01*
X682463Y293287D01*
X682544Y293334D01*
X682636Y293352D01*
X683057Y293633D01*
X683494Y293889D01*
X693529Y302779D01*
X693585Y302853D01*
X693663Y302905D01*
X693944Y303326D01*
X694250Y303729D01*
X694274Y303820D01*
X694326Y303898D01*
X694425Y304394D01*
X694554Y304884D01*
X694541Y304977D01*
X694559Y305068D01*
Y404558D01*
X694449Y405114D01*
X694349Y405673D01*
X694332Y405699D01*
X694326Y405729D01*
X694011Y406200D01*
X693706Y406678D01*
X683671Y417118D01*
X683645Y417136D01*
X683628Y417161D01*
X683157Y417476D01*
X682692Y417800D01*
X682662Y417807D01*
X682636Y417824D01*
X682080Y417935D01*
X681526Y418056D01*
X681496Y418051D01*
X681465Y418057D01*
X668291D01*
X667290Y418708D01*
X667290Y419327D01*
Y426978D01*
X635710D01*
Y419327D01*
X635710Y418708D01*
X634710Y418057D01*
X626501D01*
X626500Y418057D01*
X625330Y417824D01*
X624338Y417161D01*
X624338Y417161D01*
X613898Y406721D01*
X613235Y405729D01*
X613002Y404558D01*
X613002Y404558D01*
X613002Y305068D01*
X613234Y303898D01*
X613898Y302905D01*
X613898Y302905D01*
X622788Y294016D01*
X622788Y294015D01*
X623780Y293352D01*
X624950Y293120D01*
X624950Y293120D01*
X628607D01*
X629093Y291946D01*
X622788Y285641D01*
X622124Y284649D01*
X621892Y283478D01*
X621892Y283478D01*
Y252729D01*
X620622Y252203D01*
X610229Y262595D01*
X610229Y289828D01*
X610229Y289828D01*
X609996Y290999D01*
X609333Y291991D01*
X609333Y291991D01*
X608063Y293261D01*
X607071Y293924D01*
X605900Y294157D01*
X605900Y294157D01*
X601644D01*
X601158Y295330D01*
X607138Y301310D01*
X607801Y302303D01*
X608034Y303473D01*
X608034Y303473D01*
Y404998D01*
X607964Y405350D01*
X607950Y405709D01*
X607849Y405930D01*
X607801Y406169D01*
X607602Y406467D01*
X607452Y406794D01*
X598887Y418608D01*
X598708Y418773D01*
X598573Y418975D01*
X598275Y419175D01*
X598011Y419419D01*
X597783Y419503D01*
X597581Y419638D01*
X597229Y419708D01*
X596892Y419833D01*
X596649Y419823D01*
X596410Y419871D01*
X588246D01*
X587245Y420522D01*
X587245Y421141D01*
Y428792D01*
X555665D01*
Y421141D01*
X555665Y420522D01*
X554665Y419871D01*
X546500D01*
X546278Y419827D01*
X546050Y419838D01*
X545697Y419711D01*
X545330Y419638D01*
X545141Y419512D01*
X544927Y419435D01*
X544649Y419183D01*
X544338Y418975D01*
X544211Y418786D01*
X544043Y418633D01*
X535288Y406819D01*
X535128Y406480D01*
X534919Y406169D01*
X534875Y405946D01*
X534778Y405740D01*
X534760Y405366D01*
X534687Y404998D01*
Y304998D01*
X534782Y304517D01*
X534844Y304030D01*
X534898Y303935D01*
X534919Y303828D01*
X535192Y303420D01*
X535435Y302994D01*
X544002Y293121D01*
X544229Y292355D01*
X543980Y291457D01*
X543675Y290999D01*
X543442Y289828D01*
X543442Y289828D01*
Y250998D01*
X543675Y249828D01*
X544338Y248835D01*
X544338Y248835D01*
X557578Y235595D01*
X558570Y234932D01*
X559740Y234699D01*
X559741Y234699D01*
X588030D01*
X588148Y234416D01*
X588403Y233430D01*
X587835Y232579D01*
X587602Y231408D01*
X587602Y231408D01*
Y227772D01*
X587660Y227477D01*
Y227175D01*
X587776Y226897D01*
X587835Y226602D01*
X588002Y226351D01*
X588117Y226073D01*
X588329Y225756D01*
X588480Y224998D01*
X588329Y224241D01*
X588117Y223924D01*
X588002Y223645D01*
X587835Y223395D01*
X587776Y223100D01*
X587660Y222821D01*
Y222520D01*
X587602Y222224D01*
Y212772D01*
X587660Y212477D01*
Y212175D01*
X587776Y211897D01*
X587835Y211602D01*
X588002Y211351D01*
X588117Y211073D01*
X588329Y210756D01*
X588480Y209998D01*
X588329Y209241D01*
X588117Y208924D01*
X588002Y208645D01*
X587835Y208395D01*
X587776Y208100D01*
X587660Y207821D01*
Y207520D01*
X587602Y207225D01*
Y202717D01*
X584093D01*
Y215428D01*
X574553D01*
Y216698D01*
X573283D01*
Y232488D01*
X565013D01*
Y226348D01*
X563743Y225822D01*
X562343Y227221D01*
X561351Y227884D01*
X560180Y228117D01*
X560180Y228117D01*
X539237D01*
X539139Y228097D01*
X539040Y228111D01*
X537803Y228031D01*
X537320Y227902D01*
X536830Y227804D01*
X536747Y227749D01*
X536650Y227723D01*
X536253Y227419D01*
X535838Y227141D01*
X535782Y227058D01*
X535702Y226997D01*
X535452Y226564D01*
X535174Y226149D01*
X535155Y226051D01*
X535105Y225964D01*
X535039Y225468D01*
X535033Y225438D01*
X526460D01*
Y212818D01*
X525990Y212724D01*
X524998Y212061D01*
X524334Y211069D01*
X524102Y209898D01*
Y205928D01*
X524334Y204758D01*
X524998Y203765D01*
X525990Y203102D01*
X526460Y203009D01*
Y190388D01*
X535033D01*
X535039Y190358D01*
X535105Y189863D01*
X535155Y189776D01*
X535174Y189678D01*
X535452Y189262D01*
X535702Y188830D01*
X535782Y188769D01*
X535838Y188685D01*
X535953Y188608D01*
X535654Y187482D01*
X535561Y187338D01*
X526220D01*
Y171338D01*
X525274Y170557D01*
X522630D01*
X522560Y171798D01*
X522560D01*
Y178068D01*
X517020D01*
X511480D01*
Y174933D01*
X510429Y174221D01*
X507636Y175338D01*
X507067Y175444D01*
X506501Y175557D01*
X446501D01*
X446500Y175557D01*
X445330Y175324D01*
X444338Y174661D01*
X439609Y169932D01*
X438541Y170254D01*
X438339Y170405D01*
Y269935D01*
X437989Y271691D01*
X436995Y273179D01*
X425351Y284823D01*
X423863Y285817D01*
X422107Y286166D01*
X311544D01*
X311544Y286166D01*
X216096D01*
X215610Y287340D01*
X219018Y290748D01*
X229500D01*
Y311248D01*
X223538D01*
X223052Y312422D01*
X226565Y315934D01*
X227504Y317340D01*
X227834Y318998D01*
Y319498D01*
X229750D01*
Y333228D01*
X229750Y334498D01*
X229750D01*
Y334498D01*
X229750D01*
Y349498D01*
X229750D01*
X230000Y350665D01*
X233001D01*
X233250Y349498D01*
X233251Y349395D01*
Y335118D01*
X233250Y334498D01*
X233710Y333419D01*
Y328268D01*
X239000D01*
X244290D01*
Y333419D01*
X244750Y334498D01*
X244750Y335118D01*
Y336891D01*
X246500D01*
X248646Y337317D01*
X250466Y338533D01*
X251681Y340352D01*
X252108Y342498D01*
X251681Y344644D01*
X250466Y346464D01*
X248646Y347679D01*
X246500Y348106D01*
X244750D01*
Y349395D01*
X244750Y349498D01*
X245000Y350665D01*
X391501D01*
X393159Y350995D01*
X394565Y351934D01*
X402065Y359434D01*
X403004Y360840D01*
X403334Y362498D01*
Y386584D01*
X404181Y387852D01*
X404608Y389998D01*
X404181Y392144D01*
X402966Y393964D01*
X401146Y395179D01*
X399000Y395606D01*
X396855Y395179D01*
X395035Y393964D01*
X393820Y392144D01*
X393393Y389998D01*
X393820Y387852D01*
X394667Y386584D01*
Y364293D01*
X389706Y359332D01*
X223118D01*
X222340Y360576D01*
X222480Y360665D01*
X371501D01*
X373159Y360995D01*
X374565Y361934D01*
X385045Y372414D01*
X385984Y373820D01*
X386314Y375478D01*
Y466998D01*
X389480D01*
Y478498D01*
X374481D01*
Y466998D01*
X377647D01*
Y377273D01*
X369706Y369332D01*
X219884D01*
X219256Y370152D01*
X219135Y370554D01*
X219202Y370665D01*
X351500D01*
X353159Y370995D01*
X354565Y371934D01*
X364725Y382094D01*
X365664Y383500D01*
X365994Y385158D01*
Y466998D01*
X369160D01*
Y478498D01*
X354160D01*
Y466998D01*
X357327D01*
Y386953D01*
X349706Y379332D01*
X216884D01*
X216256Y380152D01*
X216136Y380554D01*
X216202Y380665D01*
X331500D01*
X333159Y380995D01*
X334565Y381934D01*
X344404Y391774D01*
X345344Y393180D01*
X345674Y394838D01*
Y466998D01*
X348840D01*
Y478498D01*
X335834D01*
Y481998D01*
X348840D01*
Y493498D01*
X345419D01*
Y498149D01*
X348190Y500920D01*
X358128D01*
X358493Y499650D01*
X357733Y498512D01*
X357422Y496952D01*
X357422Y496952D01*
Y493498D01*
X354160D01*
Y481998D01*
X369160D01*
Y493498D01*
X370204Y494045D01*
X373437D01*
X374481Y493498D01*
Y481998D01*
X389480D01*
Y488489D01*
X398687Y497695D01*
X399002Y497645D01*
X399922Y497134D01*
Y493248D01*
X396501D01*
Y481748D01*
X411500D01*
Y493248D01*
X408079D01*
Y495809D01*
X419384Y507114D01*
X419384Y507114D01*
X420690Y508420D01*
X424000D01*
X424000Y508420D01*
X425561Y508730D01*
X426884Y509614D01*
X440480Y523210D01*
X441833Y522767D01*
X441923Y522188D01*
X433617Y513882D01*
X432733Y512559D01*
X432422Y510998D01*
X432422Y510998D01*
Y446688D01*
X421301Y435566D01*
X419354Y435179D01*
X417535Y433964D01*
X416320Y432144D01*
X415893Y429998D01*
X416320Y427852D01*
X417535Y426033D01*
X419354Y424817D01*
X421500Y424391D01*
X423646Y424817D01*
X425466Y426033D01*
X426681Y427852D01*
X427068Y429799D01*
X439384Y442114D01*
X439384Y442114D01*
X440268Y443438D01*
X440579Y444998D01*
X440579Y444998D01*
Y509309D01*
X446215Y514945D01*
X447529Y514463D01*
X447733Y513438D01*
X448617Y512114D01*
X449922Y510809D01*
Y462498D01*
X449922Y462498D01*
X450233Y460938D01*
X451117Y459614D01*
X456117Y454614D01*
X457440Y453730D01*
X459000Y453420D01*
X459001Y453420D01*
X785204D01*
X786854Y452317D01*
X789000Y451891D01*
X791146Y452317D01*
X792966Y453533D01*
X794181Y455352D01*
X794608Y457498D01*
X794181Y459644D01*
X792966Y461464D01*
X791146Y462679D01*
X789000Y463106D01*
X786854Y462679D01*
X785204Y461577D01*
X511077D01*
X510271Y462558D01*
X510418Y463298D01*
Y467078D01*
X511800D01*
Y478578D01*
X506148D01*
X504300Y478946D01*
X502453Y478578D01*
X496800D01*
Y467078D01*
X498183D01*
Y464506D01*
X497883Y462998D01*
X497970Y462558D01*
X497165Y461577D01*
X490836D01*
X490031Y462558D01*
X490118Y462998D01*
X490098Y463099D01*
Y467078D01*
X491480D01*
Y478578D01*
X485828D01*
X483980Y478946D01*
X482132Y478578D01*
X476480D01*
Y467078D01*
X477863D01*
Y463018D01*
X477954Y462558D01*
X477149Y461577D01*
X460690D01*
X458079Y464188D01*
Y493356D01*
X459349Y493882D01*
X468287Y484944D01*
X468287Y484944D01*
X469610Y484060D01*
X471170Y483750D01*
X476480D01*
Y482078D01*
X491480D01*
Y493420D01*
X496800D01*
Y482078D01*
X511800D01*
Y493578D01*
X508379D01*
Y494698D01*
X508068Y496259D01*
X507184Y497582D01*
X507184Y497582D01*
X505117Y499650D01*
X505643Y500920D01*
X514811D01*
X520542Y495189D01*
Y493698D01*
X517120D01*
Y482198D01*
X532120D01*
Y493698D01*
X528699D01*
Y496878D01*
X528388Y498439D01*
X527504Y499762D01*
X527504Y499762D01*
X519384Y507882D01*
X518061Y508766D01*
X516500Y509077D01*
X516500Y509077D01*
X504824D01*
X504439Y510347D01*
X505466Y511033D01*
X506681Y512852D01*
X507108Y514998D01*
X506681Y517144D01*
X505466Y518964D01*
X503646Y520179D01*
X502849Y520338D01*
Y521220D01*
X502538Y522781D01*
X501654Y524104D01*
X501654Y524104D01*
X501606Y524152D01*
X502071Y525483D01*
X503272Y525722D01*
X504774Y526725D01*
X505777Y528227D01*
X505877Y528728D01*
X501500D01*
Y531268D01*
X505877D01*
X505777Y531770D01*
X504774Y533271D01*
X503638Y534031D01*
X503558Y534566D01*
X503613Y535288D01*
X503659Y535427D01*
X504397Y535920D01*
X524000D01*
X524001Y535920D01*
X525561Y536230D01*
X526884Y537114D01*
X535690Y545920D01*
X757314D01*
X757314Y545920D01*
X758875Y546230D01*
X760198Y547114D01*
X774384Y561301D01*
X774384Y561301D01*
X775268Y562624D01*
X775579Y564184D01*
X775579Y564184D01*
Y719998D01*
X775268Y721559D01*
X774384Y722882D01*
X692529Y804738D01*
Y820138D01*
X695950D01*
Y831638D01*
X680950D01*
Y820138D01*
X684372D01*
Y807054D01*
X683199Y806568D01*
X678079Y811688D01*
Y883309D01*
X691334Y896564D01*
X691334Y896564D01*
X692218Y897887D01*
X692529Y899448D01*
Y906668D01*
X695950D01*
Y918168D01*
X680950D01*
Y906668D01*
X684372D01*
Y901138D01*
X671117Y887882D01*
X670232Y886559D01*
X669922Y884998D01*
X669922Y884998D01*
Y809998D01*
X669922Y809998D01*
X670232Y808438D01*
X671117Y807114D01*
X762422Y715809D01*
Y569188D01*
X752311Y559077D01*
X535690D01*
X527261Y567505D01*
X527747Y568678D01*
X537200D01*
Y569840D01*
X539551D01*
Y561228D01*
X557950D01*
Y580128D01*
X539551D01*
Y579016D01*
X537200D01*
Y580178D01*
X522201D01*
Y574225D01*
X521027Y573739D01*
X511884Y582882D01*
X510561Y583766D01*
X509000Y584077D01*
X509000Y584077D01*
X505609D01*
X505562Y584140D01*
X506202Y585410D01*
X522201D01*
Y583678D01*
X537200D01*
Y595178D01*
X522201D01*
Y594586D01*
X513087D01*
X512701Y595857D01*
X512966Y596033D01*
X514181Y597852D01*
X514608Y599998D01*
X514181Y602144D01*
X513023Y603878D01*
X512980Y604031D01*
X513243Y605305D01*
X513491Y605394D01*
X514354Y604817D01*
X516500Y604391D01*
X518646Y604817D01*
X520466Y606033D01*
X521681Y607852D01*
X522108Y609998D01*
X521681Y612144D01*
X520466Y613964D01*
X518646Y615179D01*
X516500Y615606D01*
X514354Y615179D01*
X512704Y614077D01*
X504397D01*
X503659Y614569D01*
X503613Y614708D01*
X503558Y615431D01*
X503638Y615966D01*
X504774Y616725D01*
X505777Y618227D01*
X505877Y618728D01*
X501500D01*
Y621268D01*
X505877D01*
X505777Y621770D01*
X504774Y623271D01*
X503638Y624031D01*
X503558Y624566D01*
X503613Y625288D01*
X503659Y625427D01*
X505105Y626394D01*
X506210Y628047D01*
X506598Y629998D01*
X506210Y631949D01*
X505105Y633603D01*
X504160Y634235D01*
Y635762D01*
X505105Y636394D01*
X506210Y638047D01*
X506598Y639998D01*
X507355Y640920D01*
X511640D01*
X512246Y640181D01*
X512673Y638035D01*
X513889Y636216D01*
X515708Y635000D01*
X517854Y634573D01*
X520000Y635000D01*
X521819Y636216D01*
X522800Y637684D01*
X524071Y637299D01*
Y636658D01*
X535570D01*
Y651570D01*
X539071D01*
Y636658D01*
X540746D01*
X541053Y635118D01*
X541937Y633794D01*
X546116Y629614D01*
X546117Y629614D01*
X547440Y628730D01*
X549000Y628420D01*
X669000D01*
X669000Y628420D01*
X670561Y628730D01*
X671884Y629614D01*
X679706Y637436D01*
X679706Y637436D01*
X680590Y638759D01*
X680900Y640320D01*
Y643250D01*
X681798Y644148D01*
X684140Y644148D01*
X685220Y644608D01*
X685411Y644608D01*
X689320D01*
Y655648D01*
Y666688D01*
X685220Y666688D01*
X684140Y667148D01*
X683721Y667148D01*
X681969D01*
Y669699D01*
X691720Y679450D01*
X705281D01*
Y676028D01*
X716780D01*
Y691028D01*
X705281D01*
Y687607D01*
X694036D01*
X693550Y688780D01*
X704010Y699241D01*
X705281Y698715D01*
Y696348D01*
X716780D01*
Y711348D01*
X705774D01*
X705225Y712595D01*
X709220Y716590D01*
X709280D01*
X709280Y716590D01*
X709675Y716668D01*
X716780D01*
Y731668D01*
X705281D01*
Y723976D01*
X704647Y723552D01*
X698014Y716919D01*
X696840Y717405D01*
Y738148D01*
X695579D01*
Y742498D01*
X695579Y742498D01*
X695268Y744059D01*
X694384Y745382D01*
X684384Y755382D01*
X683061Y756266D01*
X681500Y756577D01*
X681500Y756577D01*
X577498D01*
X577498Y756577D01*
X575938Y756266D01*
X574614Y755382D01*
X574614Y755382D01*
X551840Y732608D01*
X550570Y733134D01*
Y735478D01*
X539071D01*
Y720478D01*
X550570D01*
Y723900D01*
X552978D01*
X552978Y723900D01*
X554539Y724210D01*
X555862Y725095D01*
X579188Y748420D01*
X679811D01*
X687422Y740809D01*
Y739046D01*
X686524Y738148D01*
X684340Y738148D01*
X683073Y738148D01*
X681969Y738608D01*
X681658Y740169D01*
X680774Y741492D01*
X680774Y741492D01*
X676884Y745382D01*
X675561Y746266D01*
X674000Y746577D01*
X674000Y746577D01*
X587498D01*
X587498Y746577D01*
X585938Y746266D01*
X584614Y745382D01*
X551744Y712512D01*
X550570Y712998D01*
Y714523D01*
X539071D01*
Y699523D01*
X550570D01*
Y702945D01*
X552023D01*
X552023Y702945D01*
X553584Y703255D01*
X554907Y704139D01*
X589188Y738420D01*
X645083D01*
X646240Y738148D01*
X646240Y737150D01*
Y733717D01*
X619934D01*
X619326Y734326D01*
X617341Y735652D01*
X615000Y736117D01*
X612659Y735652D01*
X610674Y734326D01*
X609348Y732341D01*
X608882Y730000D01*
X609348Y727659D01*
X610674Y725674D01*
X613074Y723274D01*
X615059Y721948D01*
X617400Y721482D01*
X646240D01*
Y715148D01*
X657670D01*
X658740Y715148D01*
X660214Y715148D01*
X661112Y714250D01*
Y702878D01*
X647311Y689077D01*
X550570D01*
Y693568D01*
X539071D01*
Y678568D01*
X550570D01*
Y680920D01*
X649000D01*
X649000Y680920D01*
X650561Y681230D01*
X651884Y682114D01*
X668074Y698304D01*
X668074Y698305D01*
X668958Y699628D01*
X669269Y701188D01*
X669269Y701188D01*
Y705920D01*
X696860D01*
X696860Y705920D01*
X697482Y706044D01*
X698108Y704873D01*
X668617Y675382D01*
X667732Y674059D01*
X667694Y673868D01*
X667535Y673763D01*
X666317Y673450D01*
X661884Y677882D01*
X660561Y678766D01*
X659000Y679077D01*
X659000Y679077D01*
X631501D01*
X631500Y679077D01*
X629940Y678766D01*
X628617Y677882D01*
X628616Y677882D01*
X619926Y669192D01*
X550570D01*
Y672613D01*
X539071D01*
Y659727D01*
X535570D01*
Y672613D01*
X524071D01*
Y669192D01*
X521615D01*
X520055Y668881D01*
X518732Y667997D01*
X518732Y667997D01*
X509811Y659077D01*
X506886D01*
X506129Y659998D01*
X505777Y661770D01*
X504774Y663271D01*
X503272Y664275D01*
X502770Y664375D01*
Y659998D01*
X500230D01*
Y664375D01*
X499729Y664275D01*
X498227Y663271D01*
X497468Y662135D01*
X496933Y662056D01*
X496210Y662110D01*
X496072Y662157D01*
X495105Y663603D01*
X493451Y664708D01*
X491500Y665096D01*
X489549Y664708D01*
X487896Y663603D01*
X487264Y662658D01*
X485737D01*
X485105Y663603D01*
X483451Y664708D01*
X481501Y665096D01*
X479550Y664708D01*
X477896Y663603D01*
X476929Y662157D01*
X476791Y662110D01*
X476068Y662056D01*
X475533Y662135D01*
X474774Y663271D01*
X473272Y664275D01*
X472771Y664375D01*
Y659998D01*
X470230D01*
Y664375D01*
X469729Y664275D01*
X468227Y663271D01*
X467468Y662135D01*
X466933Y662056D01*
X466210Y662110D01*
X466072Y662157D01*
X465105Y663603D01*
X463451Y664708D01*
X461500Y665096D01*
X459550Y664708D01*
X457896Y663603D01*
X456929Y662157D01*
X456791Y662110D01*
X456068Y662056D01*
X455533Y662135D01*
X454774Y663271D01*
X453272Y664275D01*
X452770Y664375D01*
Y659998D01*
X450230D01*
Y664375D01*
X449729Y664275D01*
X448227Y663271D01*
X447468Y662135D01*
X446933Y662056D01*
X446210Y662110D01*
X446072Y662157D01*
X445579Y662894D01*
Y688309D01*
X460215Y702945D01*
X524071D01*
Y699523D01*
X535570D01*
Y714523D01*
X524071D01*
Y711102D01*
X458526D01*
X458525Y711102D01*
X456965Y710791D01*
X455642Y709907D01*
X438617Y692882D01*
X437733Y691559D01*
X437422Y689998D01*
X437422Y689998D01*
Y663789D01*
X436152Y663273D01*
X435579Y663863D01*
Y667498D01*
X435579Y667498D01*
Y726202D01*
X436681Y727852D01*
X437108Y729998D01*
X436681Y732144D01*
X435466Y733964D01*
X433646Y735179D01*
X431500Y735606D01*
X429354Y735179D01*
X427535Y733964D01*
X426320Y732144D01*
X425893Y729998D01*
X426320Y727852D01*
X427422Y726202D01*
Y667498D01*
X427422Y667498D01*
X427422Y667498D01*
Y662894D01*
X426929Y662157D01*
X426791Y662110D01*
X426068Y662056D01*
X425533Y662135D01*
X424774Y663271D01*
X423272Y664275D01*
X421501Y664627D01*
X420579Y665384D01*
Y745809D01*
X468190Y793420D01*
X506500D01*
X506500Y793420D01*
X508061Y793730D01*
X509384Y794614D01*
X515307Y800537D01*
X515307Y800537D01*
X516191Y801861D01*
X516502Y803421D01*
Y820138D01*
X519923D01*
Y831638D01*
X504923D01*
Y820138D01*
X508345D01*
Y805111D01*
X504811Y801577D01*
X495506D01*
X495020Y802750D01*
X501884Y809614D01*
X501884Y809614D01*
X502768Y810938D01*
X503079Y812498D01*
Y885809D01*
X515307Y898037D01*
X515307Y898037D01*
X516191Y899361D01*
X516502Y900921D01*
X516502Y900921D01*
Y906668D01*
X519923D01*
Y918168D01*
X504923D01*
Y906668D01*
X508345D01*
Y902611D01*
X496117Y890382D01*
X495233Y889059D01*
X494922Y887498D01*
X494922Y887498D01*
Y814188D01*
X487311Y806577D01*
X464001D01*
X464000Y806577D01*
X462440Y806266D01*
X461117Y805382D01*
X411752Y756018D01*
X410579Y756504D01*
Y783309D01*
X427306Y800036D01*
X427306Y800036D01*
X428190Y801359D01*
X428500Y802920D01*
Y820138D01*
X431910D01*
Y831638D01*
X416910D01*
Y820138D01*
X420344D01*
Y804609D01*
X416536Y800802D01*
X415366Y801427D01*
X415579Y802498D01*
Y885809D01*
X426884Y897114D01*
X426884Y897114D01*
X427768Y898438D01*
X428079Y899998D01*
Y906668D01*
X431910D01*
Y918168D01*
X416910D01*
Y906668D01*
X419922D01*
Y901688D01*
X408617Y890382D01*
X407733Y889059D01*
X407422Y887498D01*
X407422Y887498D01*
Y804188D01*
X398617Y795382D01*
X397733Y794059D01*
X397422Y792498D01*
X397422Y792498D01*
Y766504D01*
X396249Y766018D01*
X374384Y787882D01*
X373061Y788766D01*
X371501Y789077D01*
X371500Y789077D01*
X350690D01*
X340475Y799292D01*
Y820138D01*
X343896D01*
Y831638D01*
X328896D01*
X328079Y832570D01*
Y834207D01*
X328896Y835138D01*
X329349Y835138D01*
X343896D01*
Y846638D01*
X340579D01*
Y868309D01*
X354920Y882650D01*
X369682D01*
X370290Y881181D01*
X372054Y878883D01*
X373856Y877500D01*
X373935Y877315D01*
Y876141D01*
X373856Y875956D01*
X372054Y874574D01*
X370290Y872276D01*
X369182Y869600D01*
X368804Y866728D01*
X369182Y863857D01*
X370290Y861181D01*
X372054Y858883D01*
X372952Y858194D01*
X372828Y856688D01*
X370627Y855000D01*
X368544Y852284D01*
X367234Y849122D01*
X366787Y845728D01*
X367234Y842335D01*
X368544Y839172D01*
X370627Y836457D01*
X373343Y834373D01*
X376505Y833063D01*
X379899Y832616D01*
X383293Y833063D01*
X386455Y834373D01*
X389171Y836457D01*
X391254Y839172D01*
X392564Y842335D01*
X393011Y845728D01*
X392564Y849122D01*
X391254Y852284D01*
X389171Y855000D01*
X386970Y856688D01*
X386846Y858194D01*
X387744Y858883D01*
X389507Y861181D01*
X390616Y863857D01*
X390994Y866728D01*
X390616Y869600D01*
X389507Y872276D01*
X387744Y874574D01*
X385942Y875956D01*
X385863Y876141D01*
Y877315D01*
X385942Y877500D01*
X387744Y878883D01*
X389507Y881181D01*
X390616Y883857D01*
X390994Y886728D01*
X390616Y889600D01*
X389507Y892276D01*
X387744Y894574D01*
X385526Y896276D01*
X385415Y896721D01*
X385456Y897707D01*
X387416Y899211D01*
X389106Y901413D01*
X390168Y903977D01*
X390363Y905458D01*
X379899D01*
X369435D01*
X369630Y903977D01*
X370692Y901413D01*
X372382Y899211D01*
X374342Y897707D01*
X374383Y896721D01*
X374272Y896276D01*
X372054Y894574D01*
X370290Y892276D01*
X369682Y890807D01*
X353231D01*
X353231Y890807D01*
X351670Y890496D01*
X350347Y889612D01*
X350347Y889612D01*
X333617Y872882D01*
X332733Y871559D01*
X332422Y869998D01*
X332422Y869998D01*
Y847536D01*
X331524Y846638D01*
X328896Y846638D01*
X328079Y847570D01*
Y885809D01*
X339280Y897010D01*
X340164Y898334D01*
X340475Y899894D01*
X340475Y899894D01*
Y906668D01*
X343896D01*
Y918168D01*
X328896D01*
Y906668D01*
X332318D01*
Y901584D01*
X321117Y890382D01*
X320233Y889059D01*
X319922Y887498D01*
X319922Y887498D01*
Y802498D01*
X319922Y802498D01*
X320233Y800938D01*
X321117Y799614D01*
X343617Y777114D01*
X343617Y777114D01*
X344940Y776230D01*
X346500Y775920D01*
X346501Y775920D01*
X367311D01*
X387422Y755809D01*
Y746504D01*
X386249Y746018D01*
X369384Y762882D01*
X368061Y763766D01*
X366500Y764077D01*
X366500Y764077D01*
X268190D01*
X252461Y779805D01*
Y820138D01*
X255883D01*
Y831638D01*
X240883D01*
X240579Y832782D01*
Y833994D01*
X240883Y835138D01*
X241849Y835138D01*
X255883D01*
Y846638D01*
X252461D01*
Y867691D01*
X267420Y882650D01*
X281689D01*
X282298Y881181D01*
X284061Y878883D01*
X285863Y877500D01*
X285942Y877315D01*
Y876141D01*
X285863Y875956D01*
X284061Y874574D01*
X282298Y872276D01*
X281189Y869600D01*
X280811Y866728D01*
X281189Y863857D01*
X282298Y861181D01*
X284061Y858883D01*
X284959Y858194D01*
X284835Y856688D01*
X282634Y855000D01*
X280551Y852284D01*
X279241Y849122D01*
X278794Y845728D01*
X279241Y842335D01*
X280551Y839172D01*
X282634Y836457D01*
X285350Y834373D01*
X288512Y833063D01*
X291906Y832616D01*
X295300Y833063D01*
X298462Y834373D01*
X301178Y836457D01*
X303262Y839172D01*
X304571Y842335D01*
X305018Y845728D01*
X304571Y849122D01*
X303262Y852284D01*
X301178Y855000D01*
X298978Y856688D01*
X298853Y858194D01*
X299751Y858883D01*
X301515Y861181D01*
X302623Y863857D01*
X303001Y866728D01*
X302623Y869600D01*
X301515Y872276D01*
X299751Y874574D01*
X297949Y875956D01*
X297871Y876141D01*
Y877315D01*
X297949Y877500D01*
X299751Y878883D01*
X301515Y881181D01*
X302623Y883857D01*
X303001Y886728D01*
X302623Y889600D01*
X301515Y892276D01*
X299751Y894574D01*
X297533Y896276D01*
X297422Y896721D01*
X297463Y897707D01*
X299423Y899211D01*
X301113Y901413D01*
X302175Y903977D01*
X302370Y905458D01*
X291906D01*
X281442D01*
X281637Y903977D01*
X282700Y901413D01*
X284389Y899211D01*
X286349Y897707D01*
X286390Y896721D01*
X286279Y896276D01*
X284061Y894574D01*
X282298Y892276D01*
X281689Y890807D01*
X265730D01*
X264170Y890496D01*
X262847Y889612D01*
X245499Y872265D01*
X244615Y870941D01*
X244305Y869381D01*
X244305Y869381D01*
Y847536D01*
X243407Y846638D01*
X240883Y846638D01*
X240579Y847782D01*
Y888309D01*
X251267Y898997D01*
X251267Y898997D01*
X252151Y900320D01*
X252461Y901881D01*
Y906668D01*
X255883D01*
Y918168D01*
X240883D01*
Y906668D01*
X244305D01*
Y903570D01*
X233617Y892882D01*
X232733Y891559D01*
X232422Y889998D01*
X232422Y889998D01*
Y777498D01*
X232422Y777498D01*
X232733Y775938D01*
X233617Y774614D01*
X256117Y752114D01*
X256117Y752114D01*
X257440Y751230D01*
X259000Y750920D01*
X362311D01*
X377422Y735809D01*
Y662894D01*
X376929Y662157D01*
X376791Y662110D01*
X376068Y662056D01*
X375533Y662135D01*
X374774Y663271D01*
X373272Y664275D01*
X372771Y664375D01*
Y659998D01*
X371501D01*
Y658728D01*
X367124D01*
X367224Y658227D01*
X368227Y656725D01*
X369363Y655966D01*
X369443Y655431D01*
X369388Y654708D01*
X369342Y654569D01*
X367896Y653603D01*
X366791Y651949D01*
X366403Y649998D01*
X366791Y648047D01*
X367896Y646394D01*
X368841Y645762D01*
Y644235D01*
X367896Y643603D01*
X367043Y642327D01*
X360297D01*
X358646Y643429D01*
X356500Y643856D01*
X354354Y643429D01*
X352535Y642214D01*
X351320Y640394D01*
X350893Y638248D01*
X351320Y636102D01*
X352057Y634998D01*
X351320Y633894D01*
X350893Y631748D01*
X351320Y629602D01*
X352535Y627783D01*
X354354Y626567D01*
X356500Y626141D01*
X358646Y626567D01*
X360297Y627670D01*
X367043D01*
X367896Y626394D01*
X369342Y625427D01*
X369388Y625288D01*
X369443Y624566D01*
X369363Y624031D01*
X368227Y623271D01*
X367224Y621770D01*
X367124Y621268D01*
X371501D01*
Y618728D01*
X367124D01*
X367224Y618227D01*
X368227Y616725D01*
X369363Y615966D01*
X369443Y615431D01*
X369388Y614708D01*
X369342Y614569D01*
X367896Y613603D01*
X367043Y612327D01*
X360297D01*
X358646Y613429D01*
X356500Y613856D01*
X354354Y613429D01*
X352535Y612214D01*
X351320Y610394D01*
X350893Y608248D01*
X351320Y606102D01*
X352057Y604998D01*
X351320Y603894D01*
X350893Y601748D01*
X351320Y599602D01*
X352535Y597783D01*
X354354Y596567D01*
X354589Y596521D01*
Y595226D01*
X354354Y595179D01*
X352535Y593964D01*
X351320Y592144D01*
X350893Y589998D01*
X351320Y587852D01*
X352057Y586748D01*
X351320Y585644D01*
X350893Y583498D01*
X351320Y581352D01*
X352535Y579533D01*
X353333Y579000D01*
Y577473D01*
X352250Y576749D01*
X351034Y574930D01*
X350607Y572784D01*
X351034Y570638D01*
X352010Y569177D01*
X351320Y568144D01*
X350893Y565998D01*
X351320Y563852D01*
X352535Y562033D01*
X354354Y560817D01*
X356500Y560391D01*
X358646Y560817D01*
X360466Y562033D01*
X361681Y563852D01*
X361720Y564047D01*
X362442Y564190D01*
X363765Y565075D01*
X366185Y567495D01*
X367820Y567334D01*
X368227Y566725D01*
X369363Y565966D01*
X369443Y565431D01*
X369388Y564708D01*
X369342Y564569D01*
X367896Y563603D01*
X366791Y561949D01*
X366403Y559998D01*
X366791Y558047D01*
X367896Y556394D01*
X368841Y555762D01*
Y554235D01*
X367896Y553603D01*
X366791Y551949D01*
X366403Y549998D01*
X366791Y548047D01*
X367896Y546394D01*
X368841Y545762D01*
Y544235D01*
X367896Y543603D01*
X366791Y541949D01*
X366403Y539998D01*
X366791Y538047D01*
X367896Y536394D01*
X369342Y535427D01*
X369388Y535288D01*
X369443Y534566D01*
X369363Y534031D01*
X368227Y533271D01*
X367224Y531770D01*
X367124Y531268D01*
X371501D01*
Y529998D01*
X372771D01*
Y525622D01*
X373272Y525722D01*
X374774Y526725D01*
X375533Y527861D01*
X376068Y527940D01*
X376791Y527886D01*
X376929Y527840D01*
X377896Y526394D01*
X379140Y525562D01*
X379480Y524106D01*
X374706Y519332D01*
X338500D01*
X336842Y519002D01*
X335436Y518062D01*
X322436Y505062D01*
X321497Y503657D01*
X321167Y501998D01*
Y493248D01*
X319079D01*
Y696809D01*
X346700Y724430D01*
X348646Y724817D01*
X350466Y726033D01*
X351681Y727852D01*
X352108Y729998D01*
X351681Y732144D01*
X350466Y733964D01*
X348646Y735179D01*
X346500Y735606D01*
X344355Y735179D01*
X342535Y733964D01*
X341320Y732144D01*
X340932Y730198D01*
X312117Y701382D01*
X311232Y700059D01*
X310922Y698498D01*
X310922Y698498D01*
Y493248D01*
X307500D01*
Y481748D01*
X321167D01*
Y478248D01*
X307500D01*
Y466748D01*
X310667D01*
Y415803D01*
X309785Y415214D01*
X308570Y413394D01*
X308143Y411248D01*
X308570Y409102D01*
X309785Y407283D01*
X311604Y406067D01*
X313750Y405641D01*
X315583Y406005D01*
X316300Y404926D01*
X314706Y403331D01*
X211500D01*
X209842Y403002D01*
X208436Y402062D01*
X179706Y373331D01*
X158295D01*
X157564Y374062D01*
X156159Y375002D01*
X154501Y375331D01*
X153915D01*
X152646Y376179D01*
X150500Y376606D01*
X148354Y376179D01*
X146535Y374964D01*
X145320Y373144D01*
X144893Y370998D01*
X145320Y368852D01*
X146535Y367033D01*
X148354Y365817D01*
X149718Y365546D01*
Y364251D01*
X149354Y364179D01*
X147535Y362964D01*
X146320Y361144D01*
X145893Y358998D01*
X146320Y356852D01*
X147535Y355033D01*
X149354Y353817D01*
X151500Y353391D01*
X153646Y353817D01*
X155466Y355033D01*
X155667Y355335D01*
X156565Y355934D01*
X159295Y358665D01*
X182166D01*
X182467Y358298D01*
Y353708D01*
X173160D01*
Y351248D01*
X171357Y350889D01*
X170770Y350497D01*
X169500Y351176D01*
Y353248D01*
X165231D01*
Y345708D01*
Y338168D01*
X169500D01*
Y340001D01*
X170620Y340600D01*
X171105Y340276D01*
X173160Y339867D01*
Y337708D01*
X173160Y337708D01*
X173160D01*
X172675Y336626D01*
X172452Y336582D01*
X171610Y336019D01*
X170769Y336582D01*
X169110Y336912D01*
X167452Y336582D01*
X166610Y336019D01*
X165769Y336582D01*
X164110Y336912D01*
X162452Y336582D01*
X161610Y336019D01*
X160769Y336582D01*
X159110Y336912D01*
X157452Y336582D01*
X156196Y335743D01*
X155589Y336148D01*
X155380Y336190D01*
Y334647D01*
X155107Y334237D01*
X154777Y332578D01*
Y330078D01*
Y327578D01*
X155107Y325920D01*
X155380Y325510D01*
Y323967D01*
X155589Y324008D01*
X156196Y324414D01*
X157452Y323575D01*
X159110Y323245D01*
X160769Y323575D01*
X161610Y324137D01*
X162452Y323575D01*
X164110Y323245D01*
X165769Y323575D01*
X166610Y324137D01*
X167452Y323575D01*
X169110Y323245D01*
X170769Y323575D01*
X171610Y324137D01*
X172452Y323575D01*
X174110Y323245D01*
X175769Y323575D01*
X176610Y324137D01*
X177452Y323575D01*
X179110Y323245D01*
X180769Y323575D01*
X181610Y324137D01*
X182452Y323575D01*
X184110Y323245D01*
X185769Y323575D01*
X186610Y324137D01*
X187452Y323575D01*
X189110Y323245D01*
X190769Y323575D01*
X191610Y324137D01*
X192452Y323575D01*
X194110Y323245D01*
X194531Y323329D01*
X195611Y322249D01*
X195527Y321828D01*
X195857Y320170D01*
X196696Y318914D01*
X196290Y318307D01*
X196249Y318098D01*
X197792D01*
X198202Y317824D01*
X199860Y317495D01*
X202360D01*
X202360Y317495D01*
Y316162D01*
X199860D01*
X198202Y315832D01*
X197792Y315558D01*
X196249D01*
X196290Y315350D01*
X196696Y314742D01*
X195857Y313486D01*
X195527Y311828D01*
X195857Y310170D01*
X196696Y308914D01*
X196290Y308307D01*
X196094Y307319D01*
X194968Y306701D01*
X194770Y306677D01*
X194646Y306759D01*
X192500Y307186D01*
X190354Y306759D01*
X188535Y305544D01*
X187320Y303724D01*
X186893Y301578D01*
X187320Y299432D01*
X188535Y297613D01*
X190354Y296397D01*
X192500Y295971D01*
X194646Y296397D01*
X194771Y296480D01*
X196182Y295896D01*
X196290Y295350D01*
X196973Y294328D01*
X196290Y293307D01*
X196060Y292149D01*
X195996Y291828D01*
X195974Y291703D01*
X195830Y290907D01*
X194270Y290596D01*
X192947Y289712D01*
X192946Y289712D01*
X191301Y288066D01*
X189354Y287679D01*
X187535Y286464D01*
X186320Y284644D01*
X185893Y282498D01*
X186320Y280352D01*
X187535Y278533D01*
X189354Y277317D01*
X191500Y276891D01*
X193646Y277317D01*
X194434Y277844D01*
X195577Y277080D01*
X195527Y276828D01*
X195857Y275170D01*
X196419Y274328D01*
X195857Y273486D01*
X195527Y271828D01*
X195857Y270170D01*
X196696Y268914D01*
X196290Y268307D01*
X195996Y266828D01*
X195449Y266161D01*
X194007D01*
X192349Y265832D01*
X191894Y265528D01*
X191500Y265606D01*
X189354Y265179D01*
X187535Y263964D01*
X186320Y262144D01*
X185893Y259998D01*
X186320Y257852D01*
X187535Y256033D01*
X189354Y254817D01*
X191500Y254391D01*
X193646Y254817D01*
X194435Y255345D01*
X195703Y255063D01*
X196235Y254053D01*
X195857Y253486D01*
X195527Y251828D01*
X195857Y250170D01*
X196696Y248914D01*
X196290Y248307D01*
X196249Y248098D01*
X197792D01*
X198202Y247824D01*
X199860Y247495D01*
X202360D01*
Y246828D01*
X203631D01*
Y242964D01*
X204860D01*
X206152Y243221D01*
X207349Y242719D01*
X207422Y242679D01*
Y226998D01*
X207422Y226998D01*
X207733Y225438D01*
X208617Y224114D01*
X212617Y220114D01*
X212617Y220114D01*
X213940Y219230D01*
X215500Y218920D01*
X217250D01*
Y215498D01*
X228750D01*
Y230498D01*
X228750D01*
X228750Y231498D01*
X228750D01*
Y234665D01*
X230036D01*
X231440Y234944D01*
X232710Y234263D01*
Y231958D01*
X236730D01*
Y238998D01*
X238000D01*
Y240268D01*
X243290D01*
Y246038D01*
X244266Y246748D01*
X248750D01*
Y249234D01*
X251236D01*
X253577Y249699D01*
X255561Y251025D01*
X255826Y251290D01*
X257152Y253275D01*
X257618Y255616D01*
X257152Y257957D01*
X255826Y259942D01*
X253841Y261268D01*
X251500Y261733D01*
X250170Y261469D01*
X248750D01*
Y267248D01*
X235692D01*
X235504Y268192D01*
X234564Y269598D01*
X233100Y271062D01*
X232864Y271220D01*
X233249Y272490D01*
X309680D01*
X309681Y272490D01*
X418343D01*
X424662Y266170D01*
Y171276D01*
X424460Y171126D01*
X423392Y170804D01*
X419535Y174661D01*
X419535Y174661D01*
X418543Y175324D01*
X417372Y175557D01*
X417372Y175557D01*
X386500D01*
X385330Y175324D01*
X384337Y174661D01*
X384337Y174661D01*
X366837Y157161D01*
X366174Y156169D01*
X365941Y154998D01*
X365941Y154998D01*
X365941Y84998D01*
Y49542D01*
X365250Y48558D01*
X364671Y48558D01*
X362584D01*
Y53248D01*
X362254Y54907D01*
X361315Y56312D01*
X349565Y68062D01*
X348159Y69002D01*
X346500Y69331D01*
X210482D01*
X209995Y69854D01*
X210442Y71237D01*
X210805Y71309D01*
X211930Y72062D01*
X213200Y71383D01*
Y71211D01*
X218852D01*
X220700Y70844D01*
X230963D01*
X233305Y71309D01*
X233883Y71696D01*
X234790Y71211D01*
Y71211D01*
X240442D01*
X242290Y70844D01*
X253463D01*
X255805Y71309D01*
X257789Y72635D01*
X258326Y73172D01*
X259652Y75157D01*
X260118Y77498D01*
X259652Y79839D01*
X258326Y81824D01*
X256341Y83150D01*
X254000Y83616D01*
X251659Y83150D01*
X251553Y83079D01*
X242290D01*
X240442Y82711D01*
X234790D01*
X234790Y82711D01*
X233968Y83066D01*
X233841Y83150D01*
X231500Y83616D01*
X229159Y83150D01*
X229053Y83079D01*
X220700D01*
X218852Y82711D01*
X213200D01*
Y82711D01*
X212533Y82354D01*
X211341Y83150D01*
X209000Y83616D01*
X206659Y83150D01*
X206553Y83079D01*
X199110D01*
X197914Y82841D01*
X197289Y84011D01*
X199489Y86211D01*
X206610D01*
Y97535D01*
X208998D01*
X213200Y93333D01*
Y86211D01*
X228200D01*
Y97711D01*
X221078D01*
X213857Y104932D01*
X212452Y105872D01*
X210793Y106201D01*
X191880D01*
X190222Y105872D01*
X188816Y104932D01*
X182720Y98836D01*
X181549Y99461D01*
X181778Y100611D01*
Y109611D01*
X182949Y110235D01*
X217888D01*
X234790Y93333D01*
Y86211D01*
X249790D01*
Y97711D01*
X242668D01*
X222747Y117632D01*
X221342Y118572D01*
X219683Y118902D01*
X193674D01*
Y197948D01*
X196960D01*
Y203488D01*
Y209028D01*
X193674D01*
Y212688D01*
X197640D01*
X198230Y212571D01*
X198821Y212688D01*
X206230D01*
Y224688D01*
X204348D01*
Y230138D01*
X203882Y232479D01*
X202556Y234464D01*
X200571Y235790D01*
X198444Y236213D01*
Y241078D01*
X198263Y241987D01*
X199298Y243076D01*
X199860Y242964D01*
X201091D01*
Y245558D01*
X195364D01*
X195019Y245231D01*
X194110Y245411D01*
X192452Y245082D01*
X191610Y244519D01*
X190769Y245082D01*
X189110Y245411D01*
X187452Y245082D01*
X186610Y244519D01*
X185769Y245082D01*
X184110Y245411D01*
X182452Y245082D01*
X181610Y244519D01*
X180769Y245082D01*
X179110Y245411D01*
X177452Y245082D01*
X176610Y244519D01*
X175769Y245082D01*
X174110Y245411D01*
X172452Y245082D01*
X171610Y244519D01*
X170769Y245082D01*
X169110Y245411D01*
X167452Y245082D01*
X166610Y244519D01*
X165769Y245082D01*
X164110Y245411D01*
X162452Y245082D01*
X161610Y244519D01*
X160769Y245082D01*
X159110Y245411D01*
X157452Y245082D01*
X157223Y244928D01*
X156156Y245280D01*
X155832Y246581D01*
X156681Y247852D01*
X157108Y249998D01*
X156681Y252144D01*
X155466Y253964D01*
X153646Y255179D01*
X151500Y255606D01*
X149354Y255179D01*
X147535Y253964D01*
X147135Y253365D01*
X145865D01*
X145466Y253964D01*
X143646Y255179D01*
X141500Y255606D01*
X139354Y255179D01*
X137535Y253964D01*
X136320Y252144D01*
X135893Y249998D01*
X136320Y247852D01*
X137074Y246722D01*
X136752Y245321D01*
X135885Y245004D01*
X135769Y245082D01*
X134110Y245411D01*
X132452Y245082D01*
X131196Y244243D01*
X130589Y244648D01*
X130380Y244690D01*
Y243147D01*
X130107Y242737D01*
X129777Y241078D01*
Y238578D01*
X128444D01*
Y241078D01*
X128114Y242737D01*
X127840Y243147D01*
Y244690D01*
X127632Y244648D01*
X127024Y244243D01*
X125769Y245082D01*
X124110Y245411D01*
X122452Y245082D01*
X121610Y244519D01*
X120769Y245082D01*
X119110Y245411D01*
X118690Y245328D01*
X117610Y246408D01*
X117694Y246828D01*
X117364Y248486D01*
X116525Y249742D01*
X116931Y250350D01*
X116972Y250558D01*
X115429D01*
X115019Y250832D01*
X113361Y251162D01*
X110860D01*
Y252495D01*
X113361D01*
X115019Y252824D01*
X115429Y253098D01*
X116972D01*
X116931Y253307D01*
X116525Y253914D01*
X117364Y255170D01*
X117694Y256828D01*
X117364Y258487D01*
X116801Y259328D01*
X117364Y260170D01*
X117694Y261828D01*
X117364Y263486D01*
X116801Y264328D01*
X117364Y265170D01*
X117694Y266828D01*
X117364Y268487D01*
X116801Y269328D01*
X117364Y270170D01*
X117694Y271828D01*
X117364Y273486D01*
X116801Y274328D01*
X117364Y275170D01*
X117694Y276828D01*
X117364Y278486D01*
X116801Y279328D01*
X117364Y280170D01*
X117694Y281828D01*
X117364Y283487D01*
X116801Y284328D01*
X117364Y285170D01*
X117694Y286828D01*
X118241Y287495D01*
X125330D01*
X126989Y287825D01*
X128394Y288764D01*
X130647Y291017D01*
X131820Y290531D01*
Y285598D01*
X155340D01*
Y309118D01*
X135420D01*
X135108Y309498D01*
X134681Y311644D01*
X133466Y313464D01*
X131646Y314679D01*
X129500Y315106D01*
X129007Y315008D01*
X127927Y316088D01*
X128108Y316998D01*
X127681Y319144D01*
X126466Y320964D01*
X124788Y322085D01*
X124752Y322649D01*
X124922Y323406D01*
X125769Y323575D01*
X126610Y324137D01*
X127452Y323575D01*
X129110Y323245D01*
X130769Y323575D01*
X131610Y324137D01*
X132452Y323575D01*
X134110Y323245D01*
X135769Y323575D01*
X136610Y324137D01*
X137452Y323575D01*
X139110Y323245D01*
X140769Y323575D01*
X141610Y324137D01*
X142452Y323575D01*
X144110Y323245D01*
X145769Y323575D01*
X146610Y324137D01*
X147452Y323575D01*
X149110Y323245D01*
X150769Y323575D01*
X152024Y324414D01*
X152632Y324008D01*
X152840Y323967D01*
Y325510D01*
X153114Y325920D01*
X153444Y327578D01*
Y330078D01*
Y332578D01*
X153114Y334237D01*
X152840Y334646D01*
Y336190D01*
X152632Y336148D01*
X152024Y335743D01*
X150769Y336582D01*
X149110Y336912D01*
X147452Y336582D01*
X146610Y336019D01*
X145769Y336582D01*
X144110Y336912D01*
X142452Y336582D01*
X141610Y336019D01*
X140769Y336582D01*
X139110Y336912D01*
X137452Y336582D01*
X136610Y336019D01*
X135769Y336582D01*
X134110Y336912D01*
X132452Y336582D01*
X131975Y336263D01*
X131158Y336670D01*
X130590Y337708D01*
X130590Y337708D01*
X130590Y337708D01*
Y353708D01*
X118590D01*
Y351316D01*
X114710D01*
X112564Y350889D01*
X110745Y349674D01*
X110035Y348964D01*
X108820Y347144D01*
X108393Y344998D01*
X108820Y342852D01*
X110035Y341033D01*
X111854Y339817D01*
X114000Y339391D01*
X116146Y339817D01*
X116570Y340101D01*
X117692D01*
X118590Y339202D01*
Y337708D01*
X117987Y336688D01*
X117452Y336582D01*
X116046Y335642D01*
X115107Y334237D01*
X114777Y332578D01*
Y327578D01*
X114861Y327158D01*
X113781Y326078D01*
X113361Y326161D01*
X108360D01*
X106702Y325832D01*
X105296Y324892D01*
X104357Y323487D01*
X104027Y321828D01*
X104357Y320170D01*
X104919Y319328D01*
X104357Y318487D01*
X104027Y316828D01*
X104357Y315170D01*
X105196Y313914D01*
X104790Y313307D01*
X104749Y313098D01*
X106292D01*
X106702Y312824D01*
X108360Y312495D01*
X110860D01*
Y311162D01*
X108360D01*
X106702Y310832D01*
X106292Y310558D01*
X104749D01*
X104790Y310350D01*
X105196Y309742D01*
X104357Y308487D01*
X104179Y307592D01*
X102114Y308002D01*
X99773Y307537D01*
X99403Y307290D01*
X97550D01*
Y309258D01*
X85550D01*
Y301849D01*
X85433Y301258D01*
Y301172D01*
X85550Y300581D01*
Y293258D01*
X97550D01*
Y295055D01*
X101401D01*
X103743Y295520D01*
X104267Y295303D01*
X104768Y294101D01*
X104357Y293487D01*
X104027Y291828D01*
X104357Y290170D01*
X104920Y289328D01*
X104357Y288486D01*
X104027Y286828D01*
X104357Y285170D01*
X104919Y284328D01*
X104357Y283487D01*
X104271Y283053D01*
X102859Y282468D01*
X102842Y282480D01*
X100500Y282946D01*
X94930D01*
X92589Y282480D01*
X91167Y281530D01*
X91009Y281498D01*
X85600D01*
Y276089D01*
X85483Y275498D01*
Y273498D01*
X85600Y272907D01*
Y265498D01*
X94145D01*
X95137Y264228D01*
X94893Y262998D01*
X95320Y260852D01*
X95710Y260268D01*
X95031Y258998D01*
X85600D01*
Y242998D01*
X97600D01*
Y246685D01*
X99159Y246995D01*
X100564Y247934D01*
X103205Y250575D01*
X104490Y250321D01*
X104887Y249280D01*
X104357Y248486D01*
X104027Y246828D01*
X104357Y245170D01*
X105296Y243764D01*
X106702Y242825D01*
X108360Y242495D01*
X113361D01*
X113781Y242579D01*
X114861Y241499D01*
X114777Y241078D01*
Y236403D01*
X113487Y235113D01*
X111159Y234650D01*
X109175Y233324D01*
X108725Y232874D01*
X107399Y230889D01*
X106933Y228548D01*
Y224688D01*
X105050D01*
Y212688D01*
X112459D01*
X113050Y212571D01*
X113641Y212688D01*
X121050D01*
Y221566D01*
X122320Y221951D01*
X123175Y220673D01*
X126050Y217797D01*
Y212688D01*
X131459D01*
X132050Y212571D01*
X134050D01*
X134641Y212688D01*
X142050D01*
Y224688D01*
X136433D01*
X136376Y224774D01*
X131826Y229324D01*
X129841Y230650D01*
X129331Y230752D01*
X129272Y230986D01*
X130214Y232433D01*
X130589Y232508D01*
X131196Y232914D01*
X132452Y232075D01*
X134110Y231745D01*
X135769Y232075D01*
X136610Y232637D01*
X137452Y232075D01*
X139110Y231745D01*
X140769Y232075D01*
X141610Y232637D01*
X142452Y232075D01*
X144110Y231745D01*
X145769Y232075D01*
X146610Y232637D01*
X147452Y232075D01*
X149110Y231745D01*
X149875Y231897D01*
X150107Y230730D01*
X151046Y229324D01*
X151819Y228552D01*
X151333Y227823D01*
X150867Y225482D01*
Y224688D01*
X147050D01*
Y212688D01*
X154459D01*
X155050Y212571D01*
X156984D01*
X157575Y212688D01*
X163050D01*
Y218429D01*
X163102Y218688D01*
Y222020D01*
X163417Y222230D01*
X164687Y221551D01*
Y154313D01*
X146906Y136532D01*
X145967Y135127D01*
X145637Y133468D01*
Y131332D01*
X118100D01*
Y132898D01*
X103101D01*
Y121398D01*
X118100D01*
Y122665D01*
X145637D01*
Y113492D01*
X144608Y111952D01*
X144558Y111698D01*
X143263D01*
X143212Y111952D01*
X141886Y113937D01*
X139902Y115263D01*
X137560Y115729D01*
X136641Y115546D01*
X135735Y116152D01*
X134077Y116482D01*
X118100D01*
Y117898D01*
X103101D01*
Y106398D01*
X118100D01*
Y107815D01*
X131443D01*
Y100611D01*
X131909Y98270D01*
X133227Y96297D01*
Y88878D01*
X133557Y87220D01*
X134496Y85814D01*
X143376Y76934D01*
X144782Y75995D01*
X146440Y75665D01*
X187147D01*
X188806Y75995D01*
X190212Y76934D01*
X190437Y77160D01*
X191610Y76674D01*
Y71211D01*
X197262D01*
X199110Y70844D01*
X203063D01*
X203448Y69574D01*
X202535Y68964D01*
X201320Y67144D01*
X200893Y64998D01*
X201320Y62852D01*
X202535Y61033D01*
X204354Y59817D01*
X206500Y59391D01*
X208646Y59817D01*
X209915Y60665D01*
X344706D01*
X353917Y51453D01*
Y48558D01*
X351250D01*
Y36558D01*
X364671D01*
X365250Y36558D01*
X365941Y35575D01*
Y33352D01*
X365250Y32368D01*
X364671Y32368D01*
X359783D01*
X359765Y32380D01*
X357560Y32819D01*
X341740D01*
X341687Y32808D01*
X334240D01*
Y21308D01*
X341687D01*
X341740Y21298D01*
X351250D01*
Y20368D01*
X365250D01*
Y27924D01*
X366520Y28310D01*
X366837Y27835D01*
X366837Y27835D01*
X369337Y25335D01*
X369337Y25335D01*
X370330Y24672D01*
X371500Y24439D01*
X371500Y24439D01*
X384197D01*
Y4999D01*
X384196Y4998D01*
X77369D01*
X76845Y6155D01*
X79766Y9485D01*
X83408Y14937D01*
X86308Y20817D01*
X88415Y27025D01*
X89695Y33456D01*
X90123Y39998D01*
X89695Y46541D01*
X88415Y52971D01*
X86308Y59180D01*
X83408Y65060D01*
X79766Y70511D01*
X75443Y75441D01*
X70513Y79763D01*
X65062Y83406D01*
X59182Y86306D01*
X55396Y87591D01*
X55354Y88860D01*
X56223Y89220D01*
X58801Y91198D01*
X60778Y93776D01*
X62022Y96777D01*
X62446Y99998D01*
X62022Y103219D01*
X60778Y106221D01*
X58801Y108799D01*
X56223Y110776D01*
X53222Y112020D01*
X50000Y112444D01*
X46779Y112020D01*
X43778Y110776D01*
X41200Y108799D01*
X39222Y106221D01*
X37979Y103219D01*
X37555Y99998D01*
X37979Y96777D01*
X39222Y93776D01*
X41105Y91322D01*
X40870Y90320D01*
X40776Y90070D01*
X40000Y90121D01*
X33458Y89692D01*
X27028Y88413D01*
X20819Y86306D01*
X14939Y83406D01*
X9488Y79763D01*
X6157Y76843D01*
X5000Y77367D01*
Y922629D01*
X6157Y923154D01*
X9488Y920233D01*
X14939Y916591D01*
X20819Y913691D01*
X27028Y911583D01*
X33458Y910304D01*
X40000Y909875D01*
X40776Y909926D01*
X40870Y909676D01*
X41105Y908675D01*
X39222Y906221D01*
X37979Y903219D01*
X37555Y899998D01*
X37979Y896777D01*
X39222Y893776D01*
X41200Y891198D01*
X43778Y889220D01*
X46779Y887977D01*
X50000Y887553D01*
X53222Y887977D01*
X56223Y889220D01*
X58801Y891198D01*
X60778Y893776D01*
X62022Y896777D01*
X62446Y899998D01*
X62022Y903219D01*
X60778Y906221D01*
X58801Y908799D01*
X56223Y910776D01*
X55354Y911136D01*
X55396Y912406D01*
X59182Y913691D01*
X65062Y916591D01*
X70513Y920233D01*
X75443Y924556D01*
X79766Y929485D01*
X83408Y934937D01*
X86308Y940817D01*
X88415Y947026D01*
X89652Y953242D01*
X90922Y953117D01*
Y919188D01*
X89983Y918248D01*
X75000D01*
Y906748D01*
X90000D01*
Y908420D01*
X90000Y908420D01*
X91561Y908730D01*
X92884Y909614D01*
X97884Y914614D01*
X98768Y915938D01*
X99079Y917498D01*
X99079Y917498D01*
Y968309D01*
X99585Y968815D01*
X101730D01*
Y965894D01*
X113730D01*
Y979894D01*
X101730D01*
Y976972D01*
X97896D01*
X96335Y976662D01*
X95012Y975778D01*
X95012Y975777D01*
X92117Y972882D01*
X91233Y971559D01*
X90922Y969998D01*
X90922Y969998D01*
Y966879D01*
X89652Y966754D01*
X88415Y972971D01*
X86308Y979180D01*
X83408Y985060D01*
X79766Y990511D01*
X76845Y993841D01*
X77369Y994998D01*
X757632D01*
X758156Y993841D01*
D02*
G37*
G36*
X530733Y552498D02*
X523011Y544776D01*
X521840Y545402D01*
X522108Y546748D01*
X521681Y548894D01*
X520944Y549998D01*
X521681Y551102D01*
X522108Y553248D01*
X521681Y555394D01*
X520466Y557214D01*
X518647Y558429D01*
X516501Y558856D01*
X514355Y558429D01*
X512535Y557214D01*
X512100Y556563D01*
X510786Y556480D01*
X509384Y557882D01*
X508061Y558766D01*
X506501Y559077D01*
X506583Y559856D01*
X506598Y559998D01*
X506545Y560264D01*
X506210Y561949D01*
X505105Y563603D01*
X503659Y564569D01*
X503613Y564708D01*
X503558Y565431D01*
X503638Y565966D01*
X504774Y566725D01*
X505777Y568227D01*
X505877Y568728D01*
X501500D01*
Y571268D01*
X505877D01*
X505777Y571770D01*
X504774Y573271D01*
X503638Y574031D01*
X503558Y574566D01*
X503613Y575288D01*
X503659Y575427D01*
X504397Y575920D01*
X507311D01*
X530733Y552498D01*
D02*
G37*
G36*
X691500Y404558D02*
Y305068D01*
X681465Y296178D01*
X624950D01*
X616060Y305068D01*
X616060Y404558D01*
X626500Y414998D01*
X681465D01*
X691500Y404558D01*
D02*
G37*
G36*
X771500Y404758D02*
Y304998D01*
X761500Y294998D01*
X710770Y294998D01*
X701500Y305853D01*
X701500Y404998D01*
X712000Y415498D01*
X760761Y415498D01*
X771500Y404758D01*
D02*
G37*
G36*
X604975Y404998D02*
Y303473D01*
X596410Y294908D01*
X546500D01*
X537745Y304998D01*
Y404998D01*
X546500Y416812D01*
X596410D01*
X604975Y404998D01*
D02*
G37*
G36*
X678290Y283478D02*
Y247918D01*
X670848Y240476D01*
X669354Y240179D01*
X667632Y239028D01*
X653500D01*
X651302Y238042D01*
X651219Y237629D01*
X651149Y237582D01*
X650796Y237055D01*
X649269D01*
X648916Y237582D01*
X648831Y237639D01*
X648811Y238042D01*
X646500Y239028D01*
X637650D01*
X624950Y251728D01*
Y283478D01*
X633840Y292368D01*
X669400D01*
X678290Y283478D01*
D02*
G37*
G36*
X761500Y279998D02*
Y234998D01*
X750290Y223788D01*
X670608D01*
X669593Y224466D01*
X668033Y224777D01*
X663295D01*
X662769Y226047D01*
X666332Y229610D01*
X669286D01*
X669841Y229721D01*
X671500Y229391D01*
X673646Y229817D01*
X674127Y230138D01*
X681640Y230138D01*
X701500Y247200D01*
X701500Y279998D01*
X711500Y291098D01*
X752600Y291098D01*
X761500Y279998D01*
D02*
G37*
G36*
X607170Y289828D02*
X607170Y261328D01*
X637954Y230544D01*
Y228698D01*
Y225058D01*
X635393D01*
X635111Y224777D01*
X630312D01*
X617330Y237758D01*
X559740D01*
X546500Y250998D01*
Y289828D01*
X547771Y291098D01*
X605900D01*
X607170Y289828D01*
D02*
G37*
G36*
X627490Y222518D02*
X627798Y222448D01*
X628096Y222047D01*
X627478Y220815D01*
X627421Y220777D01*
X626201D01*
X626200Y220777D01*
X624921Y220522D01*
X624500Y220606D01*
X622354Y220179D01*
X620535Y218964D01*
X619320Y217144D01*
X618893Y214998D01*
X619320Y212852D01*
X620535Y211033D01*
X622354Y209817D01*
X624500Y209391D01*
X626646Y209817D01*
X628466Y211033D01*
X629526Y212620D01*
X638033D01*
X638783Y212004D01*
Y207535D01*
X637245Y205998D01*
Y199511D01*
X628617Y190882D01*
X628098Y190106D01*
X627490Y189498D01*
X621850Y182498D01*
Y154648D01*
X617330Y150128D01*
X558910D01*
X556370Y147588D01*
X546210D01*
X543670Y150128D01*
Y186958D01*
X539860Y190768D01*
X539237D01*
X538000Y190848D01*
Y197118D01*
X532460D01*
Y198388D01*
X531190D01*
Y205928D01*
X527160D01*
Y209898D01*
X531190D01*
Y217438D01*
X532460D01*
Y218708D01*
X538000D01*
Y224978D01*
X539237Y225058D01*
X560180D01*
X562720Y222518D01*
Y202198D01*
X565260Y199658D01*
X589390D01*
X590660Y200928D01*
Y207225D01*
X591210Y208047D01*
X591598Y209998D01*
X591210Y211949D01*
X590660Y212772D01*
Y222224D01*
X591210Y223047D01*
X591598Y224998D01*
X591210Y226949D01*
X590660Y227772D01*
Y231408D01*
X591930Y232678D01*
X617330D01*
X627490Y222518D01*
D02*
G37*
G36*
X519000Y167498D02*
X534001D01*
X539000Y162498D01*
Y144998D01*
X506501Y112498D01*
X459000D01*
X454000Y117498D01*
Y122498D01*
X441500Y139998D01*
Y167498D01*
X446500Y172498D01*
X506501D01*
X519000Y167498D01*
D02*
G37*
G36*
X421500Y168370D02*
Y139998D01*
X409001Y122367D01*
Y87498D01*
X424412Y72511D01*
Y52998D01*
X424001D01*
Y43374D01*
X424000Y43374D01*
X421500Y43221D01*
X421050Y46270D01*
Y47548D01*
X420862D01*
X420500Y49998D01*
X419000Y52498D01*
X406500D01*
X404000Y49998D01*
Y47548D01*
X403550D01*
Y39548D01*
X400855Y36853D01*
X396051D01*
Y36871D01*
X392978Y36466D01*
X390115Y35280D01*
X387656Y33393D01*
X385770Y30935D01*
X384584Y28071D01*
X384508Y27498D01*
X371500D01*
X369000Y29998D01*
Y84998D01*
X369000Y154998D01*
X386500Y172498D01*
X417372D01*
X421500Y168370D01*
D02*
G37*
%LPC*%
G36*
X641687Y979894D02*
X629688D01*
Y976972D01*
X619396D01*
X619396Y976972D01*
X617835Y976662D01*
X616512Y975778D01*
X597553Y956819D01*
X596669Y955496D01*
X596358Y953935D01*
X596358Y953935D01*
Y933168D01*
X592937D01*
Y921668D01*
X607937D01*
Y933168D01*
X604515D01*
Y952245D01*
X621085Y968815D01*
X629688D01*
Y965894D01*
X641687D01*
Y979894D01*
D02*
G37*
G36*
X553695D02*
X541695D01*
Y976972D01*
X529396D01*
X529396Y976972D01*
X527835Y976662D01*
X526512Y975778D01*
X526512Y975777D01*
X509540Y958805D01*
X508656Y957482D01*
X508345Y955921D01*
X508345Y955921D01*
Y933168D01*
X504923D01*
Y921668D01*
X519923D01*
Y933168D01*
X516502D01*
Y954232D01*
X531085Y968815D01*
X541695D01*
Y965894D01*
X553695D01*
Y979894D01*
D02*
G37*
G36*
X289716D02*
X277716D01*
Y976972D01*
X261896D01*
X261896Y976972D01*
X260335Y976662D01*
X259012Y975778D01*
X245499Y962265D01*
X244615Y960941D01*
X244305Y959381D01*
X244305Y959381D01*
Y933168D01*
X240883D01*
Y921668D01*
X255883D01*
Y933168D01*
X252461D01*
Y957691D01*
X263585Y968815D01*
X277716D01*
Y965894D01*
X289716D01*
Y979894D01*
D02*
G37*
G36*
X201723D02*
X189723D01*
Y976972D01*
X176896D01*
X176896Y976972D01*
X175335Y976662D01*
X174012Y975778D01*
X174012Y975777D01*
X157486Y959251D01*
X156601Y957928D01*
X156291Y956367D01*
X156291Y956367D01*
Y933168D01*
X152870D01*
Y921668D01*
X167869D01*
Y933168D01*
X164448D01*
Y954678D01*
X178585Y968815D01*
X189723D01*
Y965894D01*
X201723D01*
Y979894D01*
D02*
G37*
G36*
X738600Y979434D02*
X734330D01*
Y974164D01*
X738600D01*
Y979434D01*
D02*
G37*
G36*
X657418D02*
X653148D01*
Y974164D01*
X657418D01*
Y979434D01*
D02*
G37*
G36*
X650608D02*
X646338D01*
Y974164D01*
X650608D01*
Y979434D01*
D02*
G37*
G36*
X569425D02*
X565155D01*
Y974164D01*
X569425D01*
Y979434D01*
D02*
G37*
G36*
X562615D02*
X558345D01*
Y974164D01*
X562615D01*
Y979434D01*
D02*
G37*
G36*
X481432D02*
X477162D01*
Y974164D01*
X481432D01*
Y979434D01*
D02*
G37*
G36*
X474622D02*
X470352D01*
Y974164D01*
X474622D01*
Y979434D01*
D02*
G37*
G36*
X393439D02*
X389169D01*
Y974164D01*
X393439D01*
Y979434D01*
D02*
G37*
G36*
X386629D02*
X382359D01*
Y974164D01*
X386629D01*
Y979434D01*
D02*
G37*
G36*
X305446D02*
X301176D01*
Y974164D01*
X305446D01*
Y979434D01*
D02*
G37*
G36*
X298636D02*
X294366D01*
Y974164D01*
X298636D01*
Y979434D01*
D02*
G37*
G36*
X217453D02*
X213183D01*
Y974164D01*
X217453D01*
Y979434D01*
D02*
G37*
G36*
X210643D02*
X206373D01*
Y974164D01*
X210643D01*
Y979434D01*
D02*
G37*
G36*
X129460D02*
X125190D01*
Y974164D01*
X129460D01*
Y979434D01*
D02*
G37*
G36*
X122650D02*
X118380D01*
Y974164D01*
X122650D01*
Y979434D01*
D02*
G37*
G36*
X657418Y971624D02*
X653148D01*
Y966354D01*
X657418D01*
Y971624D01*
D02*
G37*
G36*
X650608D02*
X646338D01*
Y966354D01*
X650608D01*
Y971624D01*
D02*
G37*
G36*
X569425D02*
X565155D01*
Y966354D01*
X569425D01*
Y971624D01*
D02*
G37*
G36*
X562615D02*
X558345D01*
Y966354D01*
X562615D01*
Y971624D01*
D02*
G37*
G36*
X481432D02*
X477162D01*
Y966354D01*
X481432D01*
Y971624D01*
D02*
G37*
G36*
X474622D02*
X470352D01*
Y966354D01*
X474622D01*
Y971624D01*
D02*
G37*
G36*
X393439D02*
X389169D01*
Y966354D01*
X393439D01*
Y971624D01*
D02*
G37*
G36*
X386629D02*
X382359D01*
Y966354D01*
X386629D01*
Y971624D01*
D02*
G37*
G36*
X305446D02*
X301176D01*
Y966354D01*
X305446D01*
Y971624D01*
D02*
G37*
G36*
X298636D02*
X294366D01*
Y966354D01*
X298636D01*
Y971624D01*
D02*
G37*
G36*
X217453D02*
X213183D01*
Y966354D01*
X217453D01*
Y971624D01*
D02*
G37*
G36*
X210643D02*
X206373D01*
Y966354D01*
X210643D01*
Y971624D01*
D02*
G37*
G36*
X129460D02*
X125190D01*
Y966354D01*
X129460D01*
Y971624D01*
D02*
G37*
G36*
X122650D02*
X118380D01*
Y966354D01*
X122650D01*
Y971624D01*
D02*
G37*
G36*
X738600D02*
X734330D01*
Y966354D01*
X738600D01*
Y971624D01*
D02*
G37*
G36*
X729680Y979894D02*
X717680D01*
Y976972D01*
X706896D01*
X705335Y976662D01*
X704012Y975778D01*
X704012Y975777D01*
X685566Y957332D01*
X684682Y956009D01*
X684372Y954448D01*
X684372Y954448D01*
Y933168D01*
X680950D01*
Y921668D01*
X695950D01*
Y933168D01*
X692529D01*
Y952759D01*
X708585Y968815D01*
X717680D01*
Y965894D01*
X729680D01*
Y979894D01*
D02*
G37*
G36*
X465702D02*
X453702D01*
Y976972D01*
X441896D01*
X440335Y976662D01*
X439012Y975778D01*
X439012Y975777D01*
X421526Y958292D01*
X420642Y956969D01*
X420331Y955408D01*
X420332Y955408D01*
Y933168D01*
X416910D01*
Y921668D01*
X431910D01*
Y933168D01*
X428488D01*
Y953718D01*
X443585Y968815D01*
X453702D01*
Y965894D01*
X465702D01*
Y979894D01*
D02*
G37*
G36*
X377709D02*
X365709D01*
Y976972D01*
X354396D01*
X352835Y976662D01*
X351512Y975778D01*
X351512Y975777D01*
X333513Y957778D01*
X332629Y956455D01*
X332318Y954894D01*
X332318Y954894D01*
Y933168D01*
X328896D01*
Y921668D01*
X343896D01*
Y933168D01*
X340475D01*
Y953205D01*
X356085Y968815D01*
X365709D01*
Y965894D01*
X377709D01*
Y979894D01*
D02*
G37*
G36*
X167869Y918168D02*
X152870D01*
Y916536D01*
X150357D01*
X148646Y917679D01*
X146500Y918106D01*
X144354Y917679D01*
X142535Y916464D01*
X141320Y914644D01*
X140893Y912498D01*
X141320Y910352D01*
X142535Y908533D01*
X144354Y907317D01*
X146500Y906891D01*
X148646Y907317D01*
X150236Y908380D01*
X152870D01*
Y906668D01*
X167869D01*
Y918168D01*
D02*
G37*
G36*
X555885Y940841D02*
X552491Y940394D01*
X549328Y939084D01*
X546613Y937000D01*
X544529Y934284D01*
X543219Y931122D01*
X542772Y927728D01*
X543219Y924335D01*
X544529Y921172D01*
X546613Y918457D01*
X549191Y916478D01*
X549474Y915285D01*
X549497Y915113D01*
X548367Y914246D01*
X546678Y912044D01*
X545616Y909480D01*
X545421Y907998D01*
X555885D01*
X566348D01*
X566153Y909480D01*
X565091Y912044D01*
X563402Y914246D01*
X562272Y915113D01*
X562295Y915285D01*
X562578Y916478D01*
X565156Y918457D01*
X567240Y921172D01*
X568550Y924335D01*
X568997Y927728D01*
X568550Y931122D01*
X567240Y934284D01*
X565156Y937000D01*
X562441Y939084D01*
X559278Y940394D01*
X555885Y940841D01*
D02*
G37*
G36*
X467892D02*
X464498Y940394D01*
X461336Y939084D01*
X458620Y937000D01*
X456536Y934284D01*
X455226Y931122D01*
X454780Y927728D01*
X455226Y924335D01*
X456536Y921172D01*
X458620Y918457D01*
X461198Y916478D01*
X461482Y915284D01*
X461504Y915113D01*
X460375Y914246D01*
X458685Y912044D01*
X457623Y909480D01*
X457428Y907998D01*
X467892D01*
X478356D01*
X478161Y909480D01*
X477099Y912044D01*
X475409Y914246D01*
X474279Y915113D01*
X474302Y915284D01*
X474585Y916478D01*
X477164Y918457D01*
X479247Y921172D01*
X480557Y924335D01*
X481004Y927728D01*
X480557Y931122D01*
X479247Y934284D01*
X477164Y937000D01*
X474448Y939084D01*
X471286Y940394D01*
X467892Y940841D01*
D02*
G37*
G36*
X115920D02*
X112527Y940394D01*
X109364Y939084D01*
X106649Y937000D01*
X104565Y934284D01*
X103255Y931122D01*
X102808Y927728D01*
X103255Y924335D01*
X104565Y921172D01*
X106649Y918457D01*
X109227Y916478D01*
X109510Y915284D01*
X109533Y915113D01*
X108403Y914246D01*
X106714Y912044D01*
X105652Y909480D01*
X105457Y907998D01*
X115920D01*
X126384D01*
X126189Y909480D01*
X125127Y912044D01*
X123438Y914246D01*
X122308Y915113D01*
X122330Y915284D01*
X122614Y916478D01*
X125192Y918457D01*
X127276Y921172D01*
X128586Y924335D01*
X129033Y927728D01*
X128586Y931122D01*
X127276Y934284D01*
X125192Y937000D01*
X122477Y939084D01*
X119314Y940394D01*
X115920Y940841D01*
D02*
G37*
G36*
X731870D02*
X728477Y940394D01*
X725314Y939084D01*
X722599Y937000D01*
X720515Y934284D01*
X719205Y931122D01*
X718758Y927728D01*
X719205Y924335D01*
X720515Y921172D01*
X722599Y918457D01*
X725177Y916478D01*
X725460Y915285D01*
X725483Y915113D01*
X724353Y914246D01*
X722664Y912044D01*
X721602Y909480D01*
X721407Y907998D01*
X731870D01*
X742334D01*
X742139Y909480D01*
X741077Y912044D01*
X739388Y914246D01*
X738258Y915113D01*
X738280Y915285D01*
X738564Y916478D01*
X741142Y918457D01*
X743226Y921172D01*
X744536Y924335D01*
X744983Y927728D01*
X744536Y931122D01*
X743226Y934284D01*
X741142Y937000D01*
X738426Y939084D01*
X735264Y940394D01*
X731870Y940841D01*
D02*
G37*
G36*
X379899D02*
X376505Y940394D01*
X373343Y939084D01*
X370627Y937000D01*
X368544Y934284D01*
X367234Y931122D01*
X366787Y927728D01*
X367234Y924335D01*
X368544Y921172D01*
X370627Y918457D01*
X373205Y916478D01*
X373489Y915285D01*
X373512Y915113D01*
X372382Y914246D01*
X370692Y912044D01*
X369630Y909480D01*
X369435Y907998D01*
X379899D01*
X390363D01*
X390168Y909480D01*
X389106Y912044D01*
X387416Y914246D01*
X386286Y915113D01*
X386309Y915285D01*
X386592Y916478D01*
X389171Y918457D01*
X391254Y921172D01*
X392564Y924335D01*
X393011Y927728D01*
X392564Y931122D01*
X391254Y934284D01*
X389171Y937000D01*
X386455Y939084D01*
X383293Y940394D01*
X379899Y940841D01*
D02*
G37*
G36*
X643877D02*
X640484Y940394D01*
X637321Y939084D01*
X634606Y937000D01*
X632522Y934284D01*
X631212Y931122D01*
X630765Y927728D01*
X631212Y924335D01*
X632522Y921172D01*
X634606Y918457D01*
X637184Y916478D01*
X637467Y915284D01*
X637490Y915113D01*
X636360Y914246D01*
X634671Y912044D01*
X633609Y909480D01*
X633414Y907998D01*
X643877D01*
X654341D01*
X654146Y909480D01*
X653084Y912044D01*
X651395Y914246D01*
X650265Y915113D01*
X650287Y915284D01*
X650571Y916478D01*
X653149Y918457D01*
X655233Y921172D01*
X656543Y924335D01*
X656990Y927728D01*
X656543Y931122D01*
X655233Y934284D01*
X653149Y937000D01*
X650434Y939084D01*
X647271Y940394D01*
X643877Y940841D01*
D02*
G37*
G36*
X291906D02*
X288512Y940394D01*
X285350Y939084D01*
X282634Y937000D01*
X280551Y934284D01*
X279241Y931122D01*
X278794Y927728D01*
X279241Y924335D01*
X280551Y921172D01*
X282634Y918457D01*
X285213Y916478D01*
X285496Y915284D01*
X285519Y915113D01*
X284389Y914246D01*
X282700Y912044D01*
X281637Y909480D01*
X281442Y907998D01*
X291906D01*
X302370D01*
X302175Y909480D01*
X301113Y912044D01*
X299423Y914246D01*
X298293Y915113D01*
X298316Y915284D01*
X298600Y916478D01*
X301178Y918457D01*
X303262Y921172D01*
X304571Y924335D01*
X305018Y927728D01*
X304571Y931122D01*
X303262Y934284D01*
X301178Y937000D01*
X298462Y939084D01*
X295300Y940394D01*
X291906Y940841D01*
D02*
G37*
G36*
X203913D02*
X200520Y940394D01*
X197357Y939084D01*
X194642Y937000D01*
X192558Y934284D01*
X191248Y931122D01*
X190801Y927728D01*
X191248Y924335D01*
X192558Y921172D01*
X194642Y918457D01*
X197220Y916478D01*
X197503Y915285D01*
X197526Y915113D01*
X196396Y914246D01*
X194707Y912044D01*
X193645Y909480D01*
X193449Y907998D01*
X203913D01*
X214377D01*
X214182Y909480D01*
X213120Y912044D01*
X211430Y914246D01*
X210301Y915113D01*
X210323Y915285D01*
X210607Y916478D01*
X213185Y918457D01*
X215269Y921172D01*
X216579Y924335D01*
X217025Y927728D01*
X216579Y931122D01*
X215269Y934284D01*
X213185Y937000D01*
X210469Y939084D01*
X207307Y940394D01*
X203913Y940841D01*
D02*
G37*
G36*
X478355Y905458D02*
X467892D01*
X457428D01*
X457623Y903977D01*
X458685Y901413D01*
X460375Y899211D01*
X462334Y897707D01*
X462376Y896721D01*
X462265Y896276D01*
X460047Y894574D01*
X458283Y892276D01*
X457675Y890807D01*
X440731D01*
X440731Y890807D01*
X439170Y890496D01*
X437847Y889612D01*
X437847Y889612D01*
X421526Y873292D01*
X420642Y871969D01*
X420331Y870408D01*
X420331Y870408D01*
Y846638D01*
X416910D01*
Y835138D01*
X431910D01*
Y846638D01*
X428488D01*
Y868718D01*
X442420Y882650D01*
X457675D01*
X458283Y881181D01*
X460047Y878883D01*
X461849Y877500D01*
X461927Y877315D01*
Y876141D01*
X461849Y875956D01*
X460047Y874574D01*
X458283Y872276D01*
X457175Y869600D01*
X456797Y866728D01*
X457175Y863857D01*
X458283Y861181D01*
X460047Y858883D01*
X460945Y858194D01*
X460820Y856688D01*
X458620Y855000D01*
X456536Y852284D01*
X455226Y849122D01*
X454780Y845728D01*
X455226Y842335D01*
X456536Y839172D01*
X458620Y836457D01*
X461336Y834373D01*
X464498Y833063D01*
X467892Y832616D01*
X471286Y833063D01*
X474448Y834373D01*
X477164Y836457D01*
X479247Y839172D01*
X480557Y842335D01*
X481004Y845728D01*
X480557Y849122D01*
X479247Y852284D01*
X477164Y855000D01*
X474963Y856688D01*
X474839Y858194D01*
X475737Y858883D01*
X477500Y861181D01*
X478609Y863857D01*
X478987Y866728D01*
X478609Y869600D01*
X477500Y872276D01*
X475737Y874574D01*
X473935Y875956D01*
X473856Y876141D01*
Y877315D01*
X473935Y877500D01*
X475737Y878883D01*
X477500Y881181D01*
X478609Y883857D01*
X478987Y886728D01*
X478609Y889600D01*
X477500Y892276D01*
X475737Y894574D01*
X473519Y896276D01*
X473407Y896721D01*
X473449Y897707D01*
X475409Y899211D01*
X477099Y901413D01*
X478161Y903977D01*
X478355Y905458D01*
D02*
G37*
G36*
X214377D02*
X203913D01*
X193449D01*
X193645Y903977D01*
X194707Y901413D01*
X196396Y899211D01*
X198356Y897707D01*
X198398Y896721D01*
X198286Y896276D01*
X196068Y894574D01*
X194305Y892276D01*
X193696Y890807D01*
X178231D01*
X178230Y890807D01*
X176670Y890496D01*
X175347Y889612D01*
X175347Y889612D01*
X157486Y871751D01*
X156601Y870428D01*
X156291Y868867D01*
X156291Y868867D01*
Y846638D01*
X152869D01*
Y835138D01*
X167869D01*
Y846638D01*
X164448D01*
Y867178D01*
X179920Y882650D01*
X193696D01*
X194305Y881181D01*
X196068Y878883D01*
X197870Y877500D01*
X197949Y877315D01*
Y876141D01*
X197870Y875956D01*
X196068Y874574D01*
X194305Y872276D01*
X193196Y869600D01*
X192818Y866728D01*
X193196Y863857D01*
X194305Y861181D01*
X196068Y858883D01*
X196966Y858194D01*
X196842Y856688D01*
X194642Y855000D01*
X192558Y852284D01*
X191248Y849122D01*
X190801Y845728D01*
X191248Y842335D01*
X192558Y839172D01*
X194642Y836457D01*
X197357Y834373D01*
X200520Y833063D01*
X203913Y832616D01*
X207307Y833063D01*
X210469Y834373D01*
X213185Y836457D01*
X215269Y839172D01*
X216579Y842335D01*
X217025Y845728D01*
X216579Y849122D01*
X215269Y852284D01*
X213185Y855000D01*
X210985Y856688D01*
X210860Y858194D01*
X211759Y858883D01*
X213522Y861181D01*
X214630Y863857D01*
X215008Y866728D01*
X214630Y869600D01*
X213522Y872276D01*
X211759Y874574D01*
X209957Y875956D01*
X209878Y876141D01*
Y877315D01*
X209957Y877500D01*
X211759Y878883D01*
X213522Y881181D01*
X214630Y883857D01*
X215008Y886728D01*
X214630Y889600D01*
X213522Y892276D01*
X211759Y894574D01*
X209540Y896276D01*
X209429Y896721D01*
X209471Y897707D01*
X211430Y899211D01*
X213120Y901413D01*
X214182Y903977D01*
X214377Y905458D01*
D02*
G37*
G36*
X126384D02*
X115920D01*
X105457D01*
X105652Y903977D01*
X106714Y901413D01*
X108403Y899211D01*
X110363Y897707D01*
X110405Y896721D01*
X110294Y896276D01*
X108075Y894574D01*
X106312Y892276D01*
X105703Y890807D01*
X91248D01*
X90284Y891509D01*
X90000Y892290D01*
X90000Y892290D01*
Y903248D01*
X75001D01*
Y903248D01*
X73730Y902892D01*
X72253Y903186D01*
X70107Y902759D01*
X68287Y901544D01*
X67072Y899725D01*
X66645Y897579D01*
X67072Y895433D01*
X68287Y893613D01*
X70107Y892398D01*
X72253Y891971D01*
X73730Y892265D01*
X75001Y891748D01*
Y891748D01*
X88817D01*
X88846Y891748D01*
X88846Y891748D01*
X88955Y891748D01*
X89076Y891043D01*
D01*
X89076Y891043D01*
X88440Y890009D01*
X87847Y889612D01*
X87847Y889612D01*
X79617Y881382D01*
X78733Y880059D01*
X78422Y878498D01*
X78422Y878498D01*
Y848248D01*
X75000D01*
Y836748D01*
X80781D01*
X80940Y836642D01*
X82500Y836332D01*
X84061Y836642D01*
X84220Y836748D01*
X90000D01*
Y848248D01*
X86579D01*
Y876809D01*
X92420Y882650D01*
X105703D01*
X106312Y881181D01*
X108075Y878883D01*
X109877Y877500D01*
X109956Y877315D01*
Y876141D01*
X109877Y875956D01*
X108075Y874574D01*
X106312Y872276D01*
X105204Y869600D01*
X104825Y866728D01*
X105204Y863857D01*
X106312Y861181D01*
X108075Y858883D01*
X108973Y858194D01*
X108849Y856688D01*
X106649Y855000D01*
X104565Y852284D01*
X103255Y849122D01*
X102808Y845728D01*
X103255Y842335D01*
X104565Y839172D01*
X106649Y836457D01*
X109364Y834373D01*
X112527Y833063D01*
X115920Y832616D01*
X119314Y833063D01*
X122477Y834373D01*
X125192Y836457D01*
X127276Y839172D01*
X128586Y842335D01*
X129033Y845728D01*
X128586Y849122D01*
X127276Y852284D01*
X125192Y855000D01*
X122992Y856688D01*
X122867Y858194D01*
X123766Y858883D01*
X125529Y861181D01*
X126637Y863857D01*
X127015Y866728D01*
X126637Y869600D01*
X125529Y872276D01*
X123766Y874574D01*
X121964Y875956D01*
X121885Y876141D01*
Y877315D01*
X121964Y877500D01*
X123766Y878883D01*
X125529Y881181D01*
X126637Y883857D01*
X127015Y886728D01*
X126637Y889600D01*
X125529Y892276D01*
X123766Y894574D01*
X121547Y896276D01*
X121436Y896721D01*
X121478Y897707D01*
X123438Y899211D01*
X125127Y901413D01*
X126189Y903977D01*
X126384Y905458D01*
D02*
G37*
G36*
X742334D02*
X731870D01*
X721407D01*
X721602Y903977D01*
X722664Y901413D01*
X724353Y899211D01*
X726313Y897707D01*
X726355Y896721D01*
X726244Y896276D01*
X724025Y894574D01*
X722262Y892276D01*
X721653Y890807D01*
X705731D01*
X704170Y890496D01*
X702847Y889612D01*
X702847Y889612D01*
X685566Y872332D01*
X684682Y871009D01*
X684372Y869448D01*
X684372Y869448D01*
Y846638D01*
X680950D01*
Y835138D01*
X695950D01*
Y846638D01*
X692529D01*
Y867759D01*
X707420Y882650D01*
X721653D01*
X722262Y881181D01*
X724025Y878883D01*
X725827Y877500D01*
X725906Y877315D01*
Y876141D01*
X725827Y875956D01*
X724025Y874574D01*
X722262Y872276D01*
X721153Y869600D01*
X720775Y866728D01*
X721153Y863857D01*
X722262Y861181D01*
X724025Y858883D01*
X724923Y858194D01*
X724799Y856688D01*
X722599Y855000D01*
X720515Y852284D01*
X719205Y849122D01*
X718758Y845728D01*
X719205Y842335D01*
X720515Y839172D01*
X722599Y836457D01*
X725314Y834373D01*
X728477Y833063D01*
X731870Y832616D01*
X735264Y833063D01*
X738426Y834373D01*
X741142Y836457D01*
X743226Y839172D01*
X744536Y842335D01*
X744983Y845728D01*
X744536Y849122D01*
X743226Y852284D01*
X741142Y855000D01*
X738942Y856688D01*
X738817Y858194D01*
X739716Y858883D01*
X741479Y861181D01*
X742587Y863857D01*
X742965Y866728D01*
X742587Y869600D01*
X741479Y872276D01*
X739716Y874574D01*
X737914Y875956D01*
X737835Y876141D01*
Y877315D01*
X737914Y877500D01*
X739716Y878883D01*
X741479Y881181D01*
X742587Y883857D01*
X742965Y886728D01*
X742587Y889600D01*
X741479Y892276D01*
X739716Y894574D01*
X737497Y896276D01*
X737386Y896721D01*
X737428Y897707D01*
X739388Y899211D01*
X741077Y901413D01*
X742139Y903977D01*
X742334Y905458D01*
D02*
G37*
G36*
X654341D02*
X643877D01*
X633414D01*
X633609Y903977D01*
X634671Y901413D01*
X636360Y899211D01*
X638320Y897707D01*
X638362Y896721D01*
X638251Y896276D01*
X636032Y894574D01*
X634269Y892276D01*
X633661Y890807D01*
X618231D01*
X616670Y890496D01*
X615347Y889612D01*
X597553Y871819D01*
X596669Y870496D01*
X596358Y868935D01*
X596358Y868935D01*
Y846638D01*
X592937D01*
Y835138D01*
X607937D01*
Y846638D01*
X604515D01*
Y867245D01*
X619920Y882650D01*
X633661D01*
X634269Y881181D01*
X636032Y878883D01*
X637834Y877500D01*
X637913Y877315D01*
Y876141D01*
X637834Y875956D01*
X636032Y874574D01*
X634269Y872276D01*
X633161Y869600D01*
X632783Y866728D01*
X633161Y863857D01*
X634269Y861181D01*
X636032Y858883D01*
X636931Y858194D01*
X636806Y856688D01*
X634606Y855000D01*
X632522Y852284D01*
X631212Y849122D01*
X630765Y845728D01*
X631212Y842335D01*
X632522Y839172D01*
X634606Y836457D01*
X637321Y834373D01*
X640484Y833063D01*
X643877Y832616D01*
X647271Y833063D01*
X650434Y834373D01*
X653149Y836457D01*
X655233Y839172D01*
X656543Y842335D01*
X656990Y845728D01*
X656543Y849122D01*
X655233Y852284D01*
X653149Y855000D01*
X650949Y856688D01*
X650825Y858194D01*
X651723Y858883D01*
X653486Y861181D01*
X654594Y863857D01*
X654972Y866728D01*
X654594Y869600D01*
X653486Y872276D01*
X651723Y874574D01*
X649921Y875956D01*
X649842Y876141D01*
Y877315D01*
X649921Y877500D01*
X651723Y878883D01*
X653486Y881181D01*
X654594Y883857D01*
X654972Y886728D01*
X654594Y889600D01*
X653486Y892276D01*
X651723Y894574D01*
X649504Y896276D01*
X649393Y896721D01*
X649435Y897707D01*
X651395Y899211D01*
X653084Y901413D01*
X654146Y903977D01*
X654341Y905458D01*
D02*
G37*
G36*
X566348D02*
X555885D01*
X545421D01*
X545616Y903977D01*
X546678Y901413D01*
X548367Y899211D01*
X550327Y897707D01*
X550369Y896721D01*
X550258Y896276D01*
X548039Y894574D01*
X546276Y892276D01*
X545668Y890807D01*
X528231D01*
X526670Y890496D01*
X525347Y889612D01*
X525347Y889612D01*
X509445Y873711D01*
X508561Y872387D01*
X508251Y870827D01*
X508251Y870827D01*
Y856780D01*
X508251Y856780D01*
X508345Y856304D01*
Y846638D01*
X504923D01*
Y835138D01*
X519923D01*
Y846638D01*
X516502D01*
Y856685D01*
X516407Y857160D01*
Y869137D01*
X529920Y882650D01*
X545668D01*
X546276Y881181D01*
X548039Y878883D01*
X549841Y877500D01*
X549920Y877315D01*
Y876141D01*
X549841Y875956D01*
X548039Y874574D01*
X546276Y872276D01*
X545168Y869600D01*
X544790Y866728D01*
X545168Y863857D01*
X546276Y861181D01*
X548039Y858883D01*
X548938Y858194D01*
X548813Y856688D01*
X546613Y855000D01*
X544529Y852284D01*
X543219Y849122D01*
X542772Y845728D01*
X543219Y842335D01*
X544529Y839172D01*
X546613Y836457D01*
X549328Y834373D01*
X552491Y833063D01*
X555885Y832616D01*
X559278Y833063D01*
X562441Y834373D01*
X565156Y836457D01*
X567240Y839172D01*
X568550Y842335D01*
X568997Y845728D01*
X568550Y849122D01*
X567240Y852284D01*
X565156Y855000D01*
X562956Y856688D01*
X562832Y858194D01*
X563730Y858883D01*
X565493Y861181D01*
X566601Y863857D01*
X566979Y866728D01*
X566601Y869600D01*
X565493Y872276D01*
X563730Y874574D01*
X561928Y875956D01*
X561849Y876141D01*
Y877315D01*
X561928Y877500D01*
X563730Y878883D01*
X565493Y881181D01*
X566601Y883857D01*
X566979Y886728D01*
X566601Y889600D01*
X565493Y892276D01*
X563730Y894574D01*
X561511Y896276D01*
X561400Y896721D01*
X561442Y897707D01*
X563402Y899211D01*
X565091Y901413D01*
X566153Y903977D01*
X566348Y905458D01*
D02*
G37*
G36*
X90000Y833248D02*
X75000D01*
Y821748D01*
X90000D01*
Y822530D01*
X101349D01*
X102999Y821427D01*
X105145Y821001D01*
X107291Y821427D01*
X109110Y822643D01*
X110326Y824462D01*
X110753Y826608D01*
X110326Y828754D01*
X109110Y830574D01*
X107291Y831789D01*
X105145Y832216D01*
X102999Y831789D01*
X101349Y830687D01*
X90000D01*
Y833248D01*
D02*
G37*
G36*
X167869Y831638D02*
X152869D01*
Y820138D01*
X167869D01*
Y821365D01*
X169813D01*
X170035Y821033D01*
X171854Y819817D01*
X174000Y819391D01*
X176146Y819817D01*
X177966Y821033D01*
X179181Y822852D01*
X179608Y824998D01*
X179181Y827144D01*
X177966Y828964D01*
X176146Y830179D01*
X174000Y830606D01*
X171854Y830179D01*
X170870Y829522D01*
X167869D01*
Y831638D01*
D02*
G37*
G36*
X607937D02*
X592937D01*
Y820138D01*
X596358D01*
Y817203D01*
X596320Y817144D01*
X595893Y814998D01*
X596320Y812852D01*
X597535Y811033D01*
X599355Y809817D01*
X601500Y809391D01*
X603646Y809817D01*
X605466Y811033D01*
X606681Y812852D01*
X607108Y814998D01*
X606681Y817144D01*
X605529Y818868D01*
X605639Y819350D01*
X605993Y820138D01*
X607937D01*
Y831638D01*
D02*
G37*
G36*
X607937Y918168D02*
X592937D01*
Y906668D01*
X596358D01*
Y900624D01*
X583617Y887882D01*
X582733Y886559D01*
X582422Y884998D01*
X582422Y884998D01*
Y818794D01*
X581320Y817144D01*
X580893Y814998D01*
X581320Y812852D01*
X582535Y811033D01*
X584354Y809817D01*
X586500Y809391D01*
X588646Y809817D01*
X590466Y811033D01*
X591681Y812852D01*
X592108Y814998D01*
X591681Y817144D01*
X590579Y818794D01*
Y883309D01*
X603321Y896051D01*
X603321Y896051D01*
X604205Y897374D01*
X604515Y898935D01*
X604515Y898935D01*
Y906668D01*
X607937D01*
Y918168D01*
D02*
G37*
G36*
X550570Y777388D02*
X539070D01*
Y762388D01*
X550570D01*
Y764280D01*
X551390D01*
X553536Y764707D01*
X555356Y765923D01*
X555466Y766033D01*
X556681Y767852D01*
X557108Y769998D01*
X556681Y772144D01*
X555466Y773964D01*
X553646Y775179D01*
X551501Y775606D01*
X550570Y776656D01*
Y777388D01*
D02*
G37*
G36*
X102828Y779156D02*
X100087Y778795D01*
X97533Y777737D01*
X95339Y776054D01*
X93656Y773861D01*
X92598Y771306D01*
X92238Y768565D01*
X92598Y765824D01*
X93656Y763270D01*
X95339Y761077D01*
X97533Y759394D01*
X100087Y758335D01*
X102828Y757975D01*
X105569Y758335D01*
X108123Y759394D01*
X110317Y761077D01*
X112000Y763270D01*
X113058Y765824D01*
X113419Y768565D01*
X113058Y771306D01*
X112000Y773861D01*
X110317Y776054D01*
X108123Y777737D01*
X105569Y778795D01*
X102828Y779156D01*
D02*
G37*
G36*
X535570Y777388D02*
X524071D01*
Y762388D01*
X525742D01*
Y757068D01*
X524071D01*
Y754077D01*
X520297D01*
X518646Y755179D01*
X516500Y755606D01*
X514354Y755179D01*
X512535Y753964D01*
X511320Y752144D01*
X510893Y749998D01*
X511320Y747852D01*
X512535Y746033D01*
X514354Y744817D01*
X516500Y744391D01*
X518646Y744817D01*
X520297Y745920D01*
X524071D01*
Y742068D01*
X535570D01*
Y757068D01*
X533899D01*
Y762388D01*
X535570D01*
Y777388D01*
D02*
G37*
G36*
X550110Y756608D02*
X546090D01*
Y750838D01*
X550110D01*
Y756608D01*
D02*
G37*
G36*
X543550D02*
X539530D01*
Y750838D01*
X543550D01*
Y756608D01*
D02*
G37*
G36*
X550110Y748298D02*
X546090D01*
Y742528D01*
X550110D01*
Y748298D01*
D02*
G37*
G36*
X543550D02*
X539530D01*
Y742528D01*
X543550D01*
Y748298D01*
D02*
G37*
G36*
X212540Y744538D02*
X206271D01*
Y740768D01*
X212540D01*
Y744538D01*
D02*
G37*
G36*
X203731D02*
X197460D01*
Y740768D01*
X203731D01*
Y744538D01*
D02*
G37*
G36*
X128228Y779156D02*
X125487Y778795D01*
X122933Y777737D01*
X120739Y776054D01*
X119056Y773861D01*
X117998Y771306D01*
X117638Y768565D01*
X117998Y765824D01*
X119056Y763270D01*
X120739Y761077D01*
X122933Y759394D01*
X125487Y758335D01*
X128228Y757975D01*
X130969Y758335D01*
X131263Y758457D01*
X153451Y736269D01*
X153017Y734999D01*
X143467D01*
X138336Y740130D01*
X138458Y740424D01*
X138819Y743165D01*
X138458Y745906D01*
X137400Y748461D01*
X135717Y750654D01*
X133523Y752337D01*
X130969Y753395D01*
X128228Y753756D01*
X125487Y753395D01*
X122933Y752337D01*
X120739Y750654D01*
X119056Y748461D01*
X117998Y745906D01*
X117638Y743165D01*
X117998Y740424D01*
X119056Y737870D01*
X120739Y735677D01*
X122933Y733994D01*
X125487Y732935D01*
X128228Y732575D01*
X130969Y732935D01*
X131263Y733057D01*
X137859Y726462D01*
X138289Y726174D01*
X137904Y724904D01*
X135985D01*
X135717Y725254D01*
X133523Y726937D01*
X130969Y727995D01*
X128228Y728356D01*
X125487Y727995D01*
X122933Y726937D01*
X120739Y725254D01*
X119056Y723061D01*
X117998Y720506D01*
X117638Y717765D01*
X117998Y715024D01*
X119056Y712470D01*
X120739Y710277D01*
X122933Y708594D01*
X125487Y707535D01*
X128228Y707175D01*
X130969Y707535D01*
X133523Y708594D01*
X135717Y710277D01*
X137400Y712470D01*
X138407Y714902D01*
X177405D01*
X177889Y714998D01*
X186000D01*
Y724498D01*
Y733998D01*
Y744998D01*
X170000D01*
Y744499D01*
X159367D01*
X138336Y765530D01*
X138458Y765824D01*
X138819Y768565D01*
X138458Y771306D01*
X137400Y773861D01*
X135717Y776054D01*
X133523Y777737D01*
X130969Y778795D01*
X128228Y779156D01*
D02*
G37*
G36*
X102828Y753756D02*
X100087Y753395D01*
X97533Y752337D01*
X95339Y750654D01*
X93656Y748461D01*
X92598Y745906D01*
X92238Y743165D01*
X92598Y740424D01*
X93656Y737870D01*
X95339Y735677D01*
X97533Y733994D01*
X100087Y732935D01*
X102828Y732575D01*
X105569Y732935D01*
X108123Y733994D01*
X110317Y735677D01*
X112000Y737870D01*
X113058Y740424D01*
X113419Y743165D01*
X113058Y745906D01*
X112000Y748461D01*
X110317Y750654D01*
X108123Y752337D01*
X105569Y753395D01*
X102828Y753756D01*
D02*
G37*
G36*
X212540Y738228D02*
X205000D01*
X197460D01*
Y734458D01*
Y731268D01*
X205000D01*
X212540D01*
Y734458D01*
Y738228D01*
D02*
G37*
G36*
X535570Y735478D02*
X524071D01*
Y731958D01*
X523007Y731746D01*
X521683Y730862D01*
X521683Y730862D01*
X514800Y723979D01*
X512854Y723592D01*
X511035Y722376D01*
X509819Y720557D01*
X509392Y718411D01*
X509819Y716265D01*
X511035Y714446D01*
X512854Y713230D01*
X515000Y712803D01*
X517146Y713230D01*
X518965Y714446D01*
X520181Y716265D01*
X520568Y718211D01*
X523197Y720840D01*
X524071Y720478D01*
Y720478D01*
X535570D01*
Y735478D01*
D02*
G37*
G36*
X731780Y731668D02*
X720280D01*
Y716668D01*
X731780D01*
Y719391D01*
X734000D01*
X736146Y719817D01*
X737966Y721033D01*
X739181Y722852D01*
X739608Y724998D01*
X739181Y727144D01*
X737966Y728964D01*
X736146Y730179D01*
X734000Y730606D01*
X731780D01*
Y731668D01*
D02*
G37*
G36*
X638488Y717940D02*
X632218D01*
Y713670D01*
X638488D01*
Y717940D01*
D02*
G37*
G36*
X629678D02*
X623408D01*
Y713670D01*
X629678D01*
Y717940D01*
D02*
G37*
G36*
X102828Y728356D02*
X100087Y727995D01*
X97533Y726937D01*
X95339Y725254D01*
X93656Y723061D01*
X92598Y720506D01*
X92238Y717765D01*
X92598Y715024D01*
X93656Y712470D01*
X95339Y710277D01*
X97533Y708594D01*
X100087Y707535D01*
X102828Y707175D01*
X105569Y707535D01*
X108123Y708594D01*
X110317Y710277D01*
X112000Y712470D01*
X113058Y715024D01*
X113419Y717765D01*
X113058Y720506D01*
X112000Y723061D01*
X110317Y725254D01*
X108123Y726937D01*
X105569Y727995D01*
X102828Y728356D01*
D02*
G37*
G36*
X638488Y711130D02*
X632218D01*
Y706860D01*
X638488D01*
Y711130D01*
D02*
G37*
G36*
X629678D02*
X623408D01*
Y706860D01*
X629678D01*
Y711130D01*
D02*
G37*
G36*
X731780Y711348D02*
Y711348D01*
X720280D01*
Y696348D01*
X731780D01*
Y698241D01*
X732850D01*
X734996Y698667D01*
X736816Y699883D01*
X737966Y701033D01*
X739181Y702852D01*
X739608Y704998D01*
X739181Y707144D01*
X737966Y708964D01*
X736146Y710179D01*
X734000Y710606D01*
X733050Y710417D01*
X731780Y711348D01*
D02*
G37*
G36*
X212540Y728728D02*
X205000D01*
X197460D01*
Y725998D01*
X197000D01*
Y714998D01*
X199999D01*
Y702570D01*
X193429Y695999D01*
X138088D01*
X137400Y697661D01*
X135717Y699854D01*
X133523Y701537D01*
X130969Y702595D01*
X128228Y702956D01*
X125487Y702595D01*
X122933Y701537D01*
X120739Y699854D01*
X119056Y697661D01*
X117998Y695106D01*
X117638Y692365D01*
X117998Y689624D01*
X119056Y687070D01*
X120739Y684877D01*
X122933Y683194D01*
X125487Y682135D01*
X128228Y681775D01*
X130969Y682135D01*
X133523Y683194D01*
X135717Y684877D01*
X136577Y685997D01*
X195500D01*
X197414Y686378D01*
X199037Y687462D01*
X208537Y696962D01*
X209621Y698584D01*
X210002Y700498D01*
Y714998D01*
X213000D01*
Y725998D01*
X212540D01*
Y728728D01*
D02*
G37*
G36*
X535570Y693568D02*
X524071D01*
Y689332D01*
X522415D01*
X521146Y690179D01*
X519000Y690606D01*
X516854Y690179D01*
X515035Y688964D01*
X513820Y687144D01*
X513393Y684998D01*
X513820Y682852D01*
X515035Y681033D01*
X516854Y679817D01*
X519000Y679391D01*
X521146Y679817D01*
X522415Y680665D01*
X524071D01*
Y678568D01*
X535570D01*
Y693568D01*
D02*
G37*
G36*
X102828Y702956D02*
X100087Y702595D01*
X97533Y701537D01*
X95339Y699854D01*
X93656Y697661D01*
X92598Y695106D01*
X92238Y692365D01*
X92598Y689624D01*
X93656Y687070D01*
X95339Y684877D01*
X97533Y683194D01*
X100087Y682135D01*
X102828Y681775D01*
X105569Y682135D01*
X108123Y683194D01*
X110317Y684877D01*
X112000Y687070D01*
X113058Y689624D01*
X113419Y692365D01*
X113058Y695106D01*
X112000Y697661D01*
X110317Y699854D01*
X108123Y701537D01*
X105569Y702595D01*
X102828Y702956D01*
D02*
G37*
G36*
X731780Y691028D02*
Y691028D01*
X720280D01*
Y676028D01*
X731780D01*
Y677921D01*
X732530D01*
X734676Y678347D01*
X736496Y679563D01*
X737966Y681033D01*
X739181Y682852D01*
X739608Y684998D01*
X739181Y687144D01*
X737966Y688964D01*
X736146Y690179D01*
X734000Y690606D01*
X733050Y690417D01*
X731780Y691028D01*
D02*
G37*
G36*
X370230Y664375D02*
X369729Y664275D01*
X368227Y663271D01*
X367224Y661770D01*
X367124Y661268D01*
X370230D01*
Y664375D01*
D02*
G37*
G36*
X691860Y666688D02*
Y656918D01*
X696380D01*
Y666688D01*
X691860D01*
D02*
G37*
G36*
X128228Y677556D02*
X125487Y677195D01*
X122933Y676137D01*
X120739Y674454D01*
X119056Y672261D01*
X117998Y669706D01*
X117638Y666965D01*
X117998Y664224D01*
X119056Y661670D01*
X120739Y659477D01*
X122933Y657794D01*
X125487Y656736D01*
X128228Y656375D01*
X130969Y656736D01*
X133523Y657794D01*
X135717Y659477D01*
X137400Y661670D01*
X138458Y664224D01*
X138819Y666965D01*
X138458Y669706D01*
X137400Y672261D01*
X135717Y674454D01*
X133523Y676137D01*
X130969Y677195D01*
X128228Y677556D01*
D02*
G37*
G36*
X102828D02*
X100087Y677195D01*
X97533Y676137D01*
X95339Y674454D01*
X93656Y672261D01*
X92598Y669706D01*
X92238Y666965D01*
X92598Y664224D01*
X93656Y661670D01*
X95339Y659477D01*
X97533Y657794D01*
X100087Y656736D01*
X102828Y656375D01*
X105569Y656736D01*
X108123Y657794D01*
X110317Y659477D01*
X112000Y661670D01*
X113058Y664224D01*
X113419Y666965D01*
X113058Y669706D01*
X112000Y672261D01*
X110317Y674454D01*
X108123Y676137D01*
X105569Y677195D01*
X102828Y677556D01*
D02*
G37*
G36*
X817500Y720567D02*
X807500D01*
X805412Y720292D01*
X803466Y719486D01*
X801795Y718204D01*
X800512Y716533D01*
X799706Y714587D01*
X799431Y712498D01*
Y654998D01*
X799706Y652910D01*
X800512Y650964D01*
X801795Y649293D01*
X803466Y648010D01*
X805412Y647204D01*
X807500Y646929D01*
X817500D01*
X819589Y647204D01*
X821535Y648010D01*
X823206Y649293D01*
X824488Y650964D01*
X825294Y652910D01*
X825569Y654998D01*
Y712498D01*
X825294Y714587D01*
X824488Y716533D01*
X823206Y718204D01*
X821535Y719486D01*
X819589Y720292D01*
X817500Y720567D01*
D02*
G37*
G36*
X696380Y654378D02*
X691860D01*
Y644608D01*
X696380D01*
Y654378D01*
D02*
G37*
G36*
X138268Y651605D02*
X129498D01*
Y642835D01*
X138268D01*
Y651605D01*
D02*
G37*
G36*
X104098Y651525D02*
Y642835D01*
X112788D01*
X112610Y644186D01*
X111598Y646629D01*
X109989Y648726D01*
X107891Y650335D01*
X105449Y651347D01*
X104098Y651525D01*
D02*
G37*
G36*
X101558D02*
X100207Y651347D01*
X97765Y650335D01*
X95667Y648726D01*
X94058Y646629D01*
X93047Y644186D01*
X92869Y642835D01*
X101558D01*
Y651525D01*
D02*
G37*
G36*
X126958Y651605D02*
X118188D01*
Y642835D01*
X126958D01*
Y651605D01*
D02*
G37*
G36*
X101558Y640295D02*
X92869D01*
X93047Y638944D01*
X94058Y636502D01*
X95667Y634405D01*
X97765Y632795D01*
X100207Y631784D01*
X101558Y631606D01*
Y640295D01*
D02*
G37*
G36*
X112788D02*
X104098D01*
Y631606D01*
X105449Y631784D01*
X107891Y632795D01*
X109989Y634405D01*
X111598Y636502D01*
X112610Y638944D01*
X112788Y640295D01*
D02*
G37*
G36*
X138268D02*
X129498D01*
Y631525D01*
X138268D01*
Y640295D01*
D02*
G37*
G36*
X126958D02*
X118188D01*
Y631525D01*
X126958D01*
Y640295D01*
D02*
G37*
G36*
X559390Y617408D02*
X555121D01*
Y611138D01*
X559390D01*
Y617408D01*
D02*
G37*
G36*
X552580D02*
X548310D01*
Y611138D01*
X552580D01*
Y617408D01*
D02*
G37*
G36*
X559390Y608598D02*
X553851D01*
X548310D01*
X548310Y602328D01*
X547107Y602168D01*
X540010D01*
Y594448D01*
X548750D01*
X557490D01*
X557491Y602168D01*
X558694Y602328D01*
X559390D01*
Y608598D01*
D02*
G37*
G36*
X557490Y591908D02*
X550020D01*
Y584188D01*
X557490D01*
Y591908D01*
D02*
G37*
G36*
X547481D02*
X540010D01*
Y584188D01*
X547481D01*
Y591908D01*
D02*
G37*
G36*
X575050Y617868D02*
X563050D01*
Y610459D01*
X562933Y609868D01*
Y598528D01*
X563399Y596187D01*
X564725Y594202D01*
X564950Y593977D01*
Y583728D01*
X566081D01*
Y580128D01*
X564950D01*
Y561228D01*
X583350D01*
Y580128D01*
X582220D01*
Y583728D01*
X583350D01*
Y602628D01*
X584163Y603562D01*
X585826Y604673D01*
X587152Y606657D01*
X587618Y608998D01*
X587152Y611339D01*
X585826Y613324D01*
X583842Y614650D01*
X581500Y615116D01*
X575050D01*
Y617868D01*
D02*
G37*
G36*
X370230Y528728D02*
X367124D01*
X367224Y528227D01*
X368227Y526725D01*
X369729Y525722D01*
X370230Y525622D01*
Y528728D01*
D02*
G37*
G36*
X102828Y537297D02*
X100087Y536936D01*
X97533Y535878D01*
X95339Y534195D01*
X93656Y532002D01*
X92598Y529448D01*
X92238Y526707D01*
X92598Y523966D01*
X93656Y521411D01*
X95339Y519218D01*
X97533Y517535D01*
X100087Y516477D01*
X102828Y516116D01*
X105569Y516477D01*
X108123Y517535D01*
X110317Y519218D01*
X112000Y521411D01*
X113058Y523966D01*
X113419Y526707D01*
X113058Y529448D01*
X112000Y532002D01*
X110317Y534195D01*
X108123Y535878D01*
X105569Y536936D01*
X102828Y537297D01*
D02*
G37*
G36*
X212540Y502038D02*
X206271D01*
Y498268D01*
X212540D01*
Y502038D01*
D02*
G37*
G36*
X203731D02*
X197460D01*
Y498268D01*
X203731D01*
Y502038D01*
D02*
G37*
G36*
X128228Y537297D02*
X125487Y536936D01*
X122933Y535878D01*
X120739Y534195D01*
X119056Y532002D01*
X117998Y529448D01*
X117638Y526707D01*
X117998Y523966D01*
X119056Y521411D01*
X120739Y519218D01*
X122933Y517535D01*
X125487Y516477D01*
X128228Y516116D01*
X130969Y516477D01*
X131263Y516599D01*
X154093Y493769D01*
X153658Y492499D01*
X144108D01*
X138336Y498271D01*
X138458Y498566D01*
X138819Y501307D01*
X138458Y504048D01*
X137400Y506602D01*
X135717Y508795D01*
X133523Y510478D01*
X130969Y511536D01*
X128228Y511897D01*
X125487Y511536D01*
X122933Y510478D01*
X120739Y508795D01*
X119056Y506602D01*
X117998Y504048D01*
X117638Y501307D01*
X117998Y498566D01*
X119056Y496011D01*
X120739Y493818D01*
X122933Y492135D01*
X125487Y491077D01*
X128228Y490716D01*
X130969Y491077D01*
X131263Y491199D01*
X138500Y483962D01*
X138931Y483674D01*
X138545Y482404D01*
X136477D01*
X135717Y483395D01*
X133523Y485078D01*
X130969Y486136D01*
X128228Y486497D01*
X125487Y486136D01*
X122933Y485078D01*
X120739Y483395D01*
X119056Y481202D01*
X117998Y478648D01*
X117638Y475907D01*
X117998Y473166D01*
X119056Y470611D01*
X120739Y468418D01*
X122933Y466735D01*
X125487Y465677D01*
X128228Y465316D01*
X130969Y465677D01*
X133523Y466735D01*
X135717Y468418D01*
X137400Y470611D01*
X138142Y472402D01*
X177405D01*
X177889Y472498D01*
X186000D01*
Y481998D01*
Y491498D01*
Y502498D01*
X170000D01*
Y501999D01*
X160008D01*
X138336Y523671D01*
X138458Y523966D01*
X138819Y526707D01*
X138458Y529448D01*
X137400Y532002D01*
X135717Y534195D01*
X133523Y535878D01*
X130969Y536936D01*
X128228Y537297D01*
D02*
G37*
G36*
X102828Y511897D02*
X100087Y511536D01*
X97533Y510478D01*
X95339Y508795D01*
X93656Y506602D01*
X92598Y504048D01*
X92238Y501307D01*
X92598Y498566D01*
X93656Y496011D01*
X95339Y493818D01*
X97533Y492135D01*
X100087Y491077D01*
X102828Y490716D01*
X105569Y491077D01*
X108123Y492135D01*
X110317Y493818D01*
X112000Y496011D01*
X113058Y498566D01*
X113419Y501307D01*
X113058Y504048D01*
X112000Y506602D01*
X110317Y508795D01*
X108123Y510478D01*
X105569Y511536D01*
X102828Y511897D01*
D02*
G37*
G36*
X212540Y495728D02*
X205000D01*
X197460D01*
Y491958D01*
Y488768D01*
X205000D01*
X212540D01*
Y491958D01*
Y495728D01*
D02*
G37*
G36*
X531660Y478238D02*
X525891D01*
Y474218D01*
X531660D01*
Y478238D01*
D02*
G37*
G36*
X523350D02*
X517580D01*
Y474218D01*
X523350D01*
Y478238D01*
D02*
G37*
G36*
X531660Y471678D02*
X525891D01*
Y467658D01*
X531660D01*
Y471678D01*
D02*
G37*
G36*
X523350D02*
X517580D01*
Y467658D01*
X523350D01*
Y471678D01*
D02*
G37*
G36*
X102828Y486497D02*
X100087Y486136D01*
X97533Y485078D01*
X95339Y483395D01*
X93656Y481202D01*
X92598Y478648D01*
X92238Y475907D01*
X92598Y473166D01*
X93656Y470611D01*
X95339Y468418D01*
X97533Y466735D01*
X100087Y465677D01*
X102828Y465316D01*
X105569Y465677D01*
X108123Y466735D01*
X110317Y468418D01*
X112000Y470611D01*
X113058Y473166D01*
X113419Y475907D01*
X113058Y478648D01*
X112000Y481202D01*
X110317Y483395D01*
X108123Y485078D01*
X105569Y486136D01*
X102828Y486497D01*
D02*
G37*
G36*
X404000Y478616D02*
X402152Y478248D01*
X396501D01*
Y466748D01*
X401682D01*
X401909Y466596D01*
X404250Y466131D01*
X409039D01*
X409675Y465495D01*
X411659Y464169D01*
X414000Y463704D01*
X416342Y464169D01*
X418326Y465495D01*
X419652Y467480D01*
X420118Y469821D01*
X419652Y472162D01*
X418326Y474147D01*
X415899Y476574D01*
X413914Y477900D01*
X411573Y478366D01*
X405257D01*
X404000Y478616D01*
D02*
G37*
G36*
X212540Y486228D02*
X205000D01*
X197460D01*
Y483498D01*
X197000D01*
Y477887D01*
X196904Y477403D01*
Y466475D01*
X185937Y455508D01*
X137522D01*
X137400Y455802D01*
X135717Y457995D01*
X133523Y459678D01*
X130969Y460736D01*
X128228Y461097D01*
X125487Y460736D01*
X122933Y459678D01*
X120739Y457995D01*
X119056Y455802D01*
X117998Y453248D01*
X117638Y450507D01*
X117998Y447766D01*
X119056Y445211D01*
X120739Y443018D01*
X122933Y441335D01*
X125487Y440277D01*
X128228Y439916D01*
X130969Y440277D01*
X133523Y441335D01*
X135717Y443018D01*
X137400Y445211D01*
X137522Y445506D01*
X188009D01*
X189923Y445886D01*
X191545Y446970D01*
X205442Y460867D01*
X206526Y462489D01*
X206907Y464403D01*
Y472498D01*
X213000D01*
Y483498D01*
X212540D01*
Y486228D01*
D02*
G37*
G36*
X102828Y461097D02*
X100087Y460736D01*
X97533Y459678D01*
X95339Y457995D01*
X93656Y455802D01*
X92598Y453248D01*
X92238Y450507D01*
X92598Y447766D01*
X93656Y445211D01*
X95339Y443018D01*
X97533Y441335D01*
X100087Y440277D01*
X102828Y439916D01*
X105569Y440277D01*
X108123Y441335D01*
X110317Y443018D01*
X112000Y445211D01*
X113058Y447766D01*
X113419Y450507D01*
X113058Y453248D01*
X112000Y455802D01*
X110317Y457995D01*
X108123Y459678D01*
X105569Y460736D01*
X102828Y461097D01*
D02*
G37*
G36*
X587245Y439602D02*
X572725D01*
Y431332D01*
X587245D01*
Y439602D01*
D02*
G37*
G36*
X570185D02*
X555665D01*
Y431332D01*
X570185D01*
Y439602D01*
D02*
G37*
G36*
X752290Y437788D02*
X737770D01*
Y429518D01*
X752290D01*
Y437788D01*
D02*
G37*
G36*
X735230D02*
X720710D01*
Y429518D01*
X735230D01*
Y437788D01*
D02*
G37*
G36*
X667290Y437788D02*
X652770D01*
Y429518D01*
X667290D01*
Y437788D01*
D02*
G37*
G36*
X650230D02*
X635710D01*
Y429518D01*
X650230D01*
Y437788D01*
D02*
G37*
G36*
X128228Y435697D02*
X125487Y435336D01*
X122933Y434278D01*
X120739Y432595D01*
X119056Y430402D01*
X117998Y427848D01*
X117638Y425107D01*
X117998Y422366D01*
X119056Y419811D01*
X120739Y417618D01*
X122933Y415935D01*
X125487Y414877D01*
X128228Y414516D01*
X130969Y414877D01*
X133523Y415935D01*
X135717Y417618D01*
X137400Y419811D01*
X138458Y422366D01*
X138819Y425107D01*
X138458Y427848D01*
X137400Y430402D01*
X135717Y432595D01*
X133523Y434278D01*
X130969Y435336D01*
X128228Y435697D01*
D02*
G37*
G36*
X102828D02*
X100087Y435336D01*
X97533Y434278D01*
X95339Y432595D01*
X93656Y430402D01*
X92598Y427848D01*
X92238Y425107D01*
X92598Y422366D01*
X93656Y419811D01*
X95339Y417618D01*
X97533Y415935D01*
X100087Y414877D01*
X102828Y414516D01*
X105569Y414877D01*
X108123Y415935D01*
X110317Y417618D01*
X112000Y419811D01*
X113058Y422366D01*
X113419Y425107D01*
X113058Y427848D01*
X112000Y430402D01*
X110317Y432595D01*
X108123Y434278D01*
X105569Y435336D01*
X102828Y435697D01*
D02*
G37*
G36*
X138268Y409747D02*
X129498D01*
Y400977D01*
X138268D01*
Y409747D01*
D02*
G37*
G36*
X104098Y409666D02*
Y400977D01*
X112788D01*
X112610Y402328D01*
X111598Y404770D01*
X109989Y406867D01*
X107891Y408477D01*
X105449Y409488D01*
X104098Y409666D01*
D02*
G37*
G36*
X101558D02*
X100207Y409488D01*
X97765Y408477D01*
X95667Y406867D01*
X94058Y404770D01*
X93047Y402328D01*
X92869Y400977D01*
X101558D01*
Y409666D01*
D02*
G37*
G36*
X126958Y409747D02*
X118188D01*
Y400977D01*
X126958D01*
Y409747D01*
D02*
G37*
G36*
X101558Y398437D02*
X92869D01*
X93047Y397086D01*
X94058Y394643D01*
X95667Y392546D01*
X97765Y390937D01*
X100207Y389925D01*
X101558Y389747D01*
Y398437D01*
D02*
G37*
G36*
X112788D02*
X104098D01*
Y389747D01*
X105449Y389925D01*
X107891Y390937D01*
X109989Y392546D01*
X111598Y394643D01*
X112610Y397086D01*
X112788Y398437D01*
D02*
G37*
G36*
X138268D02*
X129498D01*
Y389667D01*
X138268D01*
Y398437D01*
D02*
G37*
G36*
X126958D02*
X118188D01*
Y389667D01*
X126958D01*
Y398437D01*
D02*
G37*
G36*
X145330Y353248D02*
X141060D01*
Y346978D01*
X145330D01*
Y353248D01*
D02*
G37*
G36*
X138520D02*
X134250D01*
Y346978D01*
X138520D01*
Y353248D01*
D02*
G37*
G36*
X162691D02*
X158420D01*
Y346978D01*
X162691D01*
Y353248D01*
D02*
G37*
G36*
Y344438D02*
X158420D01*
Y338168D01*
X162691D01*
Y344438D01*
D02*
G37*
G36*
X145330D02*
X141060D01*
Y338168D01*
X145330D01*
Y344438D01*
D02*
G37*
G36*
X138520D02*
X134250D01*
Y338168D01*
X138520D01*
Y344438D01*
D02*
G37*
G36*
X81890Y308798D02*
X77621D01*
Y302528D01*
X81890D01*
Y308798D01*
D02*
G37*
G36*
X75080D02*
X70810D01*
Y302528D01*
X75080D01*
Y308798D01*
D02*
G37*
G36*
X81890Y299988D02*
X77621D01*
Y293718D01*
X81890D01*
Y299988D01*
D02*
G37*
G36*
X75080D02*
X70810D01*
Y293718D01*
X75080D01*
Y299988D01*
D02*
G37*
G36*
X244290Y325728D02*
X239000D01*
X233710D01*
Y319958D01*
X236335D01*
X236720Y318688D01*
X236175Y318324D01*
X234849Y316339D01*
X234383Y313998D01*
Y311248D01*
X231500D01*
Y290748D01*
X248000D01*
Y311248D01*
X246618D01*
Y313998D01*
X246152Y316339D01*
X244826Y318324D01*
X244281Y318688D01*
X244290Y319958D01*
X244291Y319958D01*
X244290Y319958D01*
Y325728D01*
D02*
G37*
G36*
X181400Y309118D02*
X157880D01*
Y285598D01*
X181400D01*
Y309118D01*
D02*
G37*
G36*
X81940Y281038D02*
X77670D01*
Y274768D01*
X81940D01*
Y281038D01*
D02*
G37*
G36*
X75131D02*
X70860D01*
Y274768D01*
X75131D01*
Y281038D01*
D02*
G37*
G36*
X81940Y272228D02*
X77670D01*
Y265958D01*
X81940D01*
Y272228D01*
D02*
G37*
G36*
X75131D02*
X70860D01*
Y265958D01*
X75131D01*
Y272228D01*
D02*
G37*
G36*
X181400Y283058D02*
X157880D01*
Y259538D01*
X181400D01*
Y283058D01*
D02*
G37*
G36*
X155340D02*
X131820D01*
Y259538D01*
X155340D01*
Y283058D01*
D02*
G37*
G36*
X81940Y258538D02*
X77670D01*
Y252268D01*
X81940D01*
Y258538D01*
D02*
G37*
G36*
X75130D02*
X70860D01*
Y252268D01*
X75130D01*
Y258538D01*
D02*
G37*
G36*
X81940Y249728D02*
X77670D01*
Y243458D01*
X81940D01*
Y249728D01*
D02*
G37*
G36*
X75130D02*
X70860D01*
Y243458D01*
X75130D01*
Y249728D01*
D02*
G37*
G36*
X243290Y237728D02*
X239270D01*
Y231958D01*
X243290D01*
Y237728D01*
D02*
G37*
G36*
X522800Y224978D02*
X518530D01*
Y218708D01*
X522800D01*
Y224978D01*
D02*
G37*
G36*
X515990D02*
X511720D01*
Y218708D01*
X515990D01*
Y224978D01*
D02*
G37*
G36*
X584093Y232488D02*
X575823D01*
Y217968D01*
X584093D01*
Y232488D01*
D02*
G37*
G36*
X522800Y216168D02*
X518530D01*
Y209898D01*
X522800D01*
Y216168D01*
D02*
G37*
G36*
X515990D02*
X511720D01*
Y209898D01*
X515990D01*
Y216168D01*
D02*
G37*
G36*
X98590Y208878D02*
X92820D01*
Y204858D01*
X98590D01*
Y208878D01*
D02*
G37*
G36*
X90280D02*
X84510D01*
Y204858D01*
X90280D01*
Y208878D01*
D02*
G37*
G36*
X162590Y209028D02*
X156320D01*
Y204758D01*
X162590D01*
Y209028D01*
D02*
G37*
G36*
X141590D02*
X135321D01*
Y204758D01*
X141590D01*
Y209028D01*
D02*
G37*
G36*
X205770D02*
X199500D01*
Y204758D01*
X205770D01*
Y209028D01*
D02*
G37*
G36*
X120590D02*
X114320D01*
Y204758D01*
X120590D01*
Y209028D01*
D02*
G37*
G36*
X111780D02*
X105510D01*
Y204758D01*
X111780D01*
Y209028D01*
D02*
G37*
G36*
X132781D02*
X126510D01*
Y204758D01*
X132781D01*
Y209028D01*
D02*
G37*
G36*
X153780D02*
X147510D01*
Y204758D01*
X153780D01*
Y209028D01*
D02*
G37*
G36*
X522800Y205928D02*
X518530D01*
Y199658D01*
X522800D01*
Y205928D01*
D02*
G37*
G36*
X515990D02*
X511720D01*
Y199658D01*
X515990D01*
Y205928D01*
D02*
G37*
G36*
X98590Y202318D02*
X92820D01*
Y198298D01*
X98590D01*
Y202318D01*
D02*
G37*
G36*
X90280D02*
X84510D01*
Y198298D01*
X90280D01*
Y202318D01*
D02*
G37*
G36*
X205770Y202218D02*
X199500D01*
Y197948D01*
X205770D01*
Y202218D01*
D02*
G37*
G36*
X162590D02*
X156320D01*
Y197948D01*
X162590D01*
Y202218D01*
D02*
G37*
G36*
X153780D02*
X147510D01*
Y197948D01*
X153780D01*
Y202218D01*
D02*
G37*
G36*
X141590D02*
X135321D01*
Y197948D01*
X141590D01*
Y202218D01*
D02*
G37*
G36*
X132781D02*
X126510D01*
Y197948D01*
X132781D01*
Y202218D01*
D02*
G37*
G36*
X120590D02*
X114320D01*
Y197948D01*
X120590D01*
Y202218D01*
D02*
G37*
G36*
X111780D02*
X105510D01*
Y197948D01*
X111780D01*
Y202218D01*
D02*
G37*
G36*
X522800Y197118D02*
X518530D01*
Y190848D01*
X522800D01*
Y197118D01*
D02*
G37*
G36*
X515990D02*
X511720D01*
Y190848D01*
X515990D01*
Y197118D01*
D02*
G37*
G36*
X739800Y203348D02*
X728300D01*
Y188348D01*
X739800D01*
Y190240D01*
X742350D01*
X744496Y190667D01*
X746316Y191883D01*
X746466Y192033D01*
X747681Y193852D01*
X748108Y195998D01*
X747681Y198144D01*
X746466Y199964D01*
X744646Y201179D01*
X742500Y201606D01*
X741746Y201456D01*
X739800D01*
Y203348D01*
D02*
G37*
G36*
X522560Y186878D02*
X518290D01*
Y180608D01*
X522560D01*
Y186878D01*
D02*
G37*
G36*
X515751D02*
X511480D01*
Y180608D01*
X515751D01*
Y186878D01*
D02*
G37*
G36*
X243750Y230498D02*
X232250D01*
Y215498D01*
X243750D01*
Y218665D01*
X271706D01*
X277167Y213203D01*
Y206068D01*
X267631D01*
Y180068D01*
X295630D01*
Y206068D01*
X285834D01*
Y214998D01*
X285504Y216657D01*
X284564Y218062D01*
X276565Y226062D01*
X275159Y227002D01*
X273500Y227332D01*
X243750D01*
Y230498D01*
D02*
G37*
G36*
X255831Y206068D02*
X227831D01*
Y198676D01*
X221570D01*
X219424Y198249D01*
X217605Y197034D01*
X217535Y196964D01*
X216320Y195144D01*
X215893Y192998D01*
X216320Y190852D01*
X217535Y189033D01*
X219354Y187817D01*
X221500Y187391D01*
X221852Y187461D01*
X227831D01*
Y180068D01*
X236224D01*
Y177968D01*
X227831D01*
Y170576D01*
X222651D01*
X222500Y170606D01*
X220354Y170179D01*
X218535Y168964D01*
X217320Y167144D01*
X216893Y164998D01*
X217320Y162852D01*
X218535Y161033D01*
X218565Y161003D01*
X220384Y159787D01*
X222530Y159361D01*
X227831D01*
Y151968D01*
X246900D01*
X247253Y151615D01*
Y145108D01*
X246861D01*
Y129108D01*
X258860D01*
Y145108D01*
X258468D01*
Y153938D01*
X258041Y156084D01*
X256826Y157904D01*
X255830Y158899D01*
Y177968D01*
X247439D01*
Y180068D01*
X255831D01*
Y206068D01*
D02*
G37*
G36*
X740150Y183817D02*
X728150D01*
Y167817D01*
X740150D01*
Y170209D01*
X742319D01*
X744465Y170636D01*
X746284Y171851D01*
X746466Y172033D01*
X747681Y173852D01*
X748108Y175998D01*
X747681Y178144D01*
X746466Y179964D01*
X744646Y181179D01*
X742500Y181606D01*
X741587Y181424D01*
X740150D01*
Y183817D01*
D02*
G37*
G36*
X295170Y177508D02*
X282900D01*
Y166238D01*
X295170D01*
Y177508D01*
D02*
G37*
G36*
X280360D02*
X268090D01*
Y166238D01*
X280360D01*
Y177508D01*
D02*
G37*
G36*
X739340Y161825D02*
X735320D01*
Y156055D01*
X739340D01*
Y161825D01*
D02*
G37*
G36*
X732780D02*
X728761D01*
Y156055D01*
X732780D01*
Y161825D01*
D02*
G37*
G36*
X295170Y163698D02*
X282900D01*
Y152428D01*
X295170D01*
Y163698D01*
D02*
G37*
G36*
X280360D02*
X268090D01*
Y152428D01*
X280360D01*
Y163698D01*
D02*
G37*
G36*
X739340Y153515D02*
X735320D01*
Y147745D01*
X739340D01*
Y153515D01*
D02*
G37*
G36*
X732780D02*
X728761D01*
Y147745D01*
X732780D01*
Y153515D01*
D02*
G37*
G36*
X273600Y144648D02*
X269330D01*
Y138378D01*
X273600D01*
Y144648D01*
D02*
G37*
G36*
X266790D02*
X262521D01*
Y138378D01*
X266790D01*
Y144648D01*
D02*
G37*
G36*
X652290Y138038D02*
X648270D01*
Y132268D01*
X652290D01*
Y138038D01*
D02*
G37*
G36*
X273600Y135838D02*
X269330D01*
Y129568D01*
X273600D01*
Y135838D01*
D02*
G37*
G36*
X266790D02*
X262521D01*
Y129568D01*
X266790D01*
Y135838D01*
D02*
G37*
G36*
X652290Y129728D02*
X648270D01*
Y123958D01*
X652290D01*
Y129728D01*
D02*
G37*
G36*
X53450Y230910D02*
X50057Y230464D01*
X46894Y229154D01*
X44179Y227070D01*
X42095Y224354D01*
X40785Y221192D01*
X40338Y217798D01*
X40785Y214405D01*
X42095Y211242D01*
X44179Y208527D01*
X46379Y206838D01*
X46503Y205333D01*
X45605Y204644D01*
X43842Y202346D01*
X42734Y199670D01*
X42355Y196798D01*
X42734Y193927D01*
X43842Y191251D01*
X45605Y188953D01*
X47407Y187570D01*
X47486Y187385D01*
Y186211D01*
X47407Y186026D01*
X45605Y184644D01*
X43842Y182346D01*
X42734Y179670D01*
X42355Y176798D01*
X42734Y173927D01*
X43842Y171251D01*
X45605Y168953D01*
X47407Y167570D01*
X47486Y167385D01*
Y166211D01*
X47407Y166026D01*
X45605Y164644D01*
X43842Y162346D01*
X42734Y159670D01*
X42355Y156798D01*
X42734Y153927D01*
X43842Y151251D01*
X45605Y148953D01*
X46503Y148264D01*
X46379Y146758D01*
X44179Y145070D01*
X42095Y142354D01*
X40785Y139192D01*
X40338Y135798D01*
X40785Y132405D01*
X42095Y129242D01*
X44179Y126527D01*
X46894Y124443D01*
X50057Y123133D01*
X53450Y122686D01*
X56844Y123133D01*
X60006Y124443D01*
X62722Y126527D01*
X64806Y129242D01*
X66116Y132405D01*
X66563Y135798D01*
X66116Y139192D01*
X64806Y142354D01*
X62722Y145070D01*
X60522Y146758D01*
X60397Y148264D01*
X61296Y148953D01*
X62583Y150631D01*
X64165Y150845D01*
X82781Y132230D01*
Y121398D01*
X97780D01*
Y132898D01*
X94534D01*
X94519Y132974D01*
X93525Y134463D01*
X67945Y160043D01*
X66456Y161037D01*
X64700Y161386D01*
X63456D01*
X63059Y162346D01*
X61296Y164644D01*
X59494Y166026D01*
X59415Y166211D01*
Y167385D01*
X59494Y167570D01*
X61296Y168953D01*
X63059Y171251D01*
X64167Y173927D01*
X64545Y176798D01*
X64167Y179670D01*
X63059Y182346D01*
X61296Y184644D01*
X59494Y186026D01*
X59415Y186211D01*
Y187385D01*
X59494Y187570D01*
X61296Y188953D01*
X63059Y191251D01*
X63470Y192244D01*
X65056Y192559D01*
X66545Y193554D01*
X85829Y212838D01*
X99050D01*
Y224338D01*
X84051D01*
Y222970D01*
X83335Y222827D01*
X81846Y221833D01*
X63436Y203423D01*
X62169Y203506D01*
X61296Y204644D01*
X60397Y205333D01*
X60522Y206838D01*
X62722Y208527D01*
X64806Y211242D01*
X66116Y214405D01*
X66563Y217798D01*
X66116Y221192D01*
X64806Y224354D01*
X62722Y227070D01*
X60006Y229154D01*
X56844Y230464D01*
X53450Y230910D01*
D02*
G37*
G36*
X739656Y141753D02*
X728156D01*
Y126753D01*
X729318D01*
Y121222D01*
X728156D01*
Y108929D01*
X725926Y106699D01*
X724656Y107225D01*
Y121222D01*
X724514D01*
Y126753D01*
X724656D01*
Y141753D01*
X713156D01*
Y129595D01*
X711555D01*
X711500Y129606D01*
X709354Y129179D01*
X707535Y127964D01*
X706320Y126144D01*
X705893Y123998D01*
X706320Y121852D01*
X707535Y120033D01*
X707546Y120022D01*
X709365Y118807D01*
X711511Y118380D01*
X713156D01*
Y106222D01*
X723653D01*
X724179Y104952D01*
X719918Y100690D01*
X713156D01*
Y85690D01*
X714318D01*
Y80158D01*
X713156D01*
Y65158D01*
X724656D01*
Y80158D01*
X723494D01*
Y85690D01*
X724656D01*
Y92451D01*
X726983Y94778D01*
X728156Y94292D01*
Y85690D01*
X729318D01*
Y80158D01*
X728156D01*
Y65158D01*
X729318D01*
Y47337D01*
X612900D01*
Y48748D01*
X598900D01*
Y36748D01*
X612900D01*
Y38160D01*
X732149D01*
X733905Y38509D01*
X735393Y39504D01*
X737151Y41261D01*
X738145Y42750D01*
X738494Y44506D01*
Y65158D01*
X739656D01*
Y80158D01*
X738494D01*
Y85690D01*
X739656D01*
Y100690D01*
X734554D01*
X734068Y101863D01*
X737151Y104946D01*
X738003Y106222D01*
X739656D01*
Y121222D01*
X738494D01*
Y126753D01*
X739656D01*
Y130175D01*
X784459D01*
X786109Y129072D01*
X788255Y128645D01*
X790401Y129072D01*
X792221Y130288D01*
X793436Y132107D01*
X793863Y134253D01*
X793436Y136399D01*
X792221Y138218D01*
X790401Y139434D01*
X788255Y139861D01*
X786109Y139434D01*
X784459Y138332D01*
X739656D01*
Y141753D01*
D02*
G37*
G36*
X76500Y118616D02*
X74159Y118150D01*
X72175Y116824D01*
X70849Y114839D01*
X70383Y112498D01*
X70849Y110157D01*
X72175Y108173D01*
X72525Y107823D01*
X74509Y106496D01*
X76850Y106031D01*
X90280D01*
X92128Y106398D01*
X97780D01*
Y117898D01*
X92128D01*
X90280Y118266D01*
X78260D01*
X76500Y118616D01*
D02*
G37*
G36*
X611500Y106606D02*
X609354Y106179D01*
X608467Y105587D01*
X525000D01*
X523245Y105237D01*
X521756Y104243D01*
X513256Y95743D01*
X512262Y94254D01*
X511912Y92498D01*
X510251D01*
Y89586D01*
X508258D01*
X506502Y89237D01*
X505014Y88243D01*
X503256Y86485D01*
X502262Y84997D01*
X501912Y83241D01*
Y47218D01*
X502262Y45462D01*
X503256Y43974D01*
X520160Y27070D01*
Y20558D01*
X534160D01*
Y32558D01*
X527649D01*
X524632Y35575D01*
X525118Y36748D01*
X534160D01*
Y48748D01*
X527649D01*
X521169Y55228D01*
X521695Y56498D01*
X521750D01*
Y71498D01*
X511089D01*
Y77498D01*
X521750D01*
Y91260D01*
X526901Y96410D01*
X608467D01*
X609354Y95817D01*
X611500Y95391D01*
X613646Y95817D01*
X615466Y97033D01*
X616681Y98852D01*
X617108Y100998D01*
X616681Y103144D01*
X615466Y104964D01*
X613646Y106179D01*
X611500Y106606D01*
D02*
G37*
G36*
X652290Y75038D02*
X648270D01*
Y69268D01*
X652290D01*
Y75038D01*
D02*
G37*
G36*
X645731D02*
X641711D01*
Y69268D01*
X645731D01*
Y75038D01*
D02*
G37*
G36*
X536750Y92498D02*
X525251D01*
Y77498D01*
X525393D01*
Y71498D01*
X525251D01*
Y56498D01*
X536750D01*
Y67644D01*
X538020Y68686D01*
X538251Y68641D01*
X540396Y69067D01*
X542216Y70283D01*
X543431Y72102D01*
X543858Y74248D01*
X543431Y76394D01*
X542216Y78214D01*
X541966Y78464D01*
X540146Y79679D01*
X538000Y80106D01*
X536750D01*
Y92498D01*
D02*
G37*
G36*
X652290Y66728D02*
X648270D01*
Y60958D01*
X652290D01*
Y66728D01*
D02*
G37*
G36*
X645731D02*
X641711D01*
Y60958D01*
X645731D01*
Y66728D01*
D02*
G37*
G36*
X175660Y61729D02*
X173319Y61263D01*
X171335Y59937D01*
X170009Y57952D01*
X169958Y57698D01*
X168663D01*
X168612Y57952D01*
X167286Y59937D01*
X165301Y61263D01*
X162960Y61729D01*
X160619Y61263D01*
X158635Y59937D01*
X157309Y57952D01*
X157258Y57698D01*
X155963D01*
X155912Y57952D01*
X154586Y59937D01*
X152601Y61263D01*
X150260Y61729D01*
X147919Y61263D01*
X145935Y59937D01*
X144608Y57952D01*
X144323Y56519D01*
X143028D01*
X142779Y57773D01*
X141554Y59605D01*
X139722Y60830D01*
X138830Y61007D01*
Y51111D01*
Y41215D01*
X139722Y41393D01*
X141554Y42617D01*
X142779Y44450D01*
X143028Y45704D01*
X144323D01*
X144608Y44270D01*
X145935Y42285D01*
X147919Y40959D01*
X150260Y40494D01*
X152601Y40959D01*
X154586Y42285D01*
X155912Y44270D01*
X155963Y44525D01*
X157258D01*
X157309Y44270D01*
X158635Y42285D01*
X160619Y40959D01*
X162960Y40494D01*
X165301Y40959D01*
X167286Y42285D01*
X168273Y43762D01*
X169543Y43377D01*
Y35838D01*
X170009Y33497D01*
X171335Y31513D01*
X172175Y30673D01*
X174159Y29346D01*
X176500Y28881D01*
X178841Y29346D01*
X180826Y30673D01*
X182152Y32657D01*
X182618Y34998D01*
X182152Y37339D01*
X181778Y37900D01*
Y51111D01*
Y55611D01*
X181312Y57952D01*
X179986Y59937D01*
X178001Y61263D01*
X175660Y61729D01*
D02*
G37*
G36*
X136290Y61007D02*
X135399Y60830D01*
X133566Y59605D01*
X132342Y57773D01*
X131912Y55611D01*
Y52381D01*
X136290D01*
Y61007D01*
D02*
G37*
G36*
Y49841D02*
X131912D01*
Y46611D01*
X132342Y44450D01*
X133566Y42617D01*
X135399Y41393D01*
X136290Y41215D01*
Y49841D01*
D02*
G37*
G36*
X206500Y55606D02*
X204354Y55179D01*
X202535Y53964D01*
X201320Y52144D01*
X200893Y49998D01*
X201320Y47852D01*
X202535Y46033D01*
X204354Y44817D01*
X206500Y44391D01*
X208646Y44817D01*
X209915Y45665D01*
X263889D01*
X264487Y44545D01*
X264260Y44204D01*
X263833Y42058D01*
X264260Y39912D01*
X265475Y38093D01*
X267295Y36877D01*
X269440Y36451D01*
X279631D01*
Y36308D01*
X294630D01*
Y45665D01*
X301721D01*
Y36558D01*
X315720D01*
Y48558D01*
X312899D01*
X312724Y49437D01*
X311784Y50842D01*
X309564Y53062D01*
X308159Y54002D01*
X306500Y54331D01*
X209915D01*
X208646Y55179D01*
X206500Y55606D01*
D02*
G37*
G36*
X349240Y47808D02*
X334240D01*
Y47708D01*
X323438D01*
X321292Y47281D01*
X319472Y46066D01*
X318257Y44246D01*
X317830Y42100D01*
X318257Y39954D01*
X319472Y38135D01*
X321292Y36920D01*
X323438Y36493D01*
X334240D01*
Y36308D01*
X349240D01*
Y47808D01*
D02*
G37*
G36*
X612440Y32098D02*
X607170D01*
Y27828D01*
X612440D01*
Y32098D01*
D02*
G37*
G36*
X604630D02*
X599360D01*
Y27828D01*
X604630D01*
Y32098D01*
D02*
G37*
G36*
X612440Y25288D02*
X607170D01*
Y21018D01*
X612440D01*
Y25288D01*
D02*
G37*
G36*
X604630D02*
X599360D01*
Y21018D01*
X604630D01*
Y25288D01*
D02*
G37*
G36*
X308030Y32819D02*
X287130D01*
X287077Y32808D01*
X279631D01*
Y21308D01*
X287077D01*
X287130Y21298D01*
X301721D01*
Y20368D01*
X315720D01*
Y32368D01*
X310253D01*
X310235Y32380D01*
X308030Y32819D01*
D02*
G37*
%LPD*%
G36*
X818935Y660785D02*
X808918D01*
X808936Y660767D01*
X809010Y660674D01*
X809121Y660563D01*
X809251Y660378D01*
X809417Y660174D01*
X809603Y659915D01*
X809806Y659619D01*
X810010Y659285D01*
Y659267D01*
X810029Y659248D01*
X810103Y659137D01*
X810195Y658952D01*
X810306Y658730D01*
X810436Y658471D01*
X810565Y658193D01*
X810695Y657915D01*
X810806Y657637D01*
X809288D01*
Y657656D01*
X809251Y657693D01*
X809232Y657767D01*
X809177Y657860D01*
X809121Y657971D01*
X809047Y658100D01*
X808862Y658415D01*
X808658Y658785D01*
X808399Y659156D01*
X808103Y659545D01*
X807788Y659933D01*
X807769Y659952D01*
X807751Y659970D01*
X807695Y660026D01*
X807640Y660100D01*
X807455Y660267D01*
X807233Y660489D01*
X806973Y660711D01*
X806677Y660952D01*
X806381Y661156D01*
X806066Y661341D01*
Y662359D01*
X818935D01*
Y660785D01*
D02*
G37*
%LPC*%
G36*
X667290Y411288D02*
X652770D01*
Y403018D01*
X667290D01*
Y411288D01*
D02*
G37*
G36*
X650230D02*
X635710D01*
Y403018D01*
X650230D01*
Y411288D01*
D02*
G37*
G36*
X667290Y400478D02*
X652770D01*
Y392208D01*
X667290D01*
Y400478D01*
D02*
G37*
G36*
X650230D02*
X635710D01*
Y392208D01*
X650230D01*
Y400478D01*
D02*
G37*
G36*
X664343Y322188D02*
X652573D01*
Y311418D01*
X664343D01*
Y322188D01*
D02*
G37*
G36*
X650033D02*
X638263D01*
Y311418D01*
X650033D01*
Y322188D01*
D02*
G37*
G36*
X664343Y308878D02*
X652573D01*
Y298108D01*
X664343D01*
Y308878D01*
D02*
G37*
G36*
X650033D02*
X638263D01*
Y298108D01*
X650033D01*
Y308878D01*
D02*
G37*
G36*
X752290Y411288D02*
X737770D01*
Y403018D01*
X752290D01*
Y411288D01*
D02*
G37*
G36*
X735230D02*
X720710D01*
Y403018D01*
X735230D01*
Y411288D01*
D02*
G37*
G36*
X752290Y400478D02*
X737770D01*
Y392208D01*
X752290D01*
Y400478D01*
D02*
G37*
G36*
X735230D02*
X720710D01*
Y392208D01*
X735230D01*
Y400478D01*
D02*
G37*
G36*
X743270Y322808D02*
X731500D01*
Y312038D01*
X743270D01*
Y322808D01*
D02*
G37*
G36*
X728960D02*
X717190D01*
Y312038D01*
X728960D01*
Y322808D01*
D02*
G37*
G36*
X743270Y309498D02*
X731500D01*
Y298728D01*
X743270D01*
Y309498D01*
D02*
G37*
G36*
X728960D02*
X717190D01*
Y298728D01*
X728960D01*
Y309498D01*
D02*
G37*
G36*
X587245Y413102D02*
X572725D01*
Y404832D01*
X587245D01*
Y413102D01*
D02*
G37*
G36*
X570185D02*
X555665D01*
Y404832D01*
X570185D01*
Y413102D01*
D02*
G37*
G36*
X587245Y402292D02*
X572725D01*
Y394022D01*
X587245D01*
Y402292D01*
D02*
G37*
G36*
X570185D02*
X555665D01*
Y394022D01*
X570185D01*
Y402292D01*
D02*
G37*
G36*
X588186Y322188D02*
X576415D01*
Y311418D01*
X588186D01*
Y322188D01*
D02*
G37*
G36*
X573876D02*
X562106D01*
Y311418D01*
X573876D01*
Y322188D01*
D02*
G37*
G36*
X588186Y308878D02*
X576415D01*
Y298108D01*
X588186D01*
Y308878D01*
D02*
G37*
G36*
X573876D02*
X562106D01*
Y298108D01*
X573876D01*
Y308878D01*
D02*
G37*
G36*
X664343Y287688D02*
X652573D01*
Y276918D01*
X664343D01*
Y287688D01*
D02*
G37*
G36*
X650033D02*
X638263D01*
Y276918D01*
X650033D01*
Y287688D01*
D02*
G37*
G36*
X664343Y274378D02*
X652573D01*
Y263608D01*
X664343D01*
Y274378D01*
D02*
G37*
G36*
X650033D02*
X638263D01*
Y263608D01*
X650033D01*
Y274378D01*
D02*
G37*
G36*
X743270Y288308D02*
X731500D01*
Y277538D01*
X743270D01*
Y288308D01*
D02*
G37*
G36*
X728960D02*
X717190D01*
Y277538D01*
X728960D01*
Y288308D01*
D02*
G37*
G36*
X743270Y274998D02*
X731500D01*
Y264228D01*
X743270D01*
Y274998D01*
D02*
G37*
G36*
X728960D02*
X717190D01*
Y264228D01*
X728960D01*
Y274998D01*
D02*
G37*
G36*
X588186Y287688D02*
X576415D01*
Y276918D01*
X588186D01*
Y287688D01*
D02*
G37*
G36*
X573876D02*
X562106D01*
Y276918D01*
X573876D01*
Y287688D01*
D02*
G37*
G36*
X588186Y274378D02*
X576415D01*
Y263608D01*
X588186D01*
Y274378D01*
D02*
G37*
G36*
X573876D02*
X562106D01*
Y263608D01*
X573876D01*
Y274378D01*
D02*
G37*
G36*
X538000Y216168D02*
X533730D01*
Y209898D01*
X538000D01*
Y216168D01*
D02*
G37*
G36*
Y205928D02*
X533730D01*
Y199658D01*
X538000D01*
Y205928D01*
D02*
G37*
%LPD*%
D10*
X206500Y49998D02*
X306500D01*
X308720Y47778D01*
X223000Y238998D02*
X230036D01*
X210195Y267998D02*
X230036D01*
X231500Y266534D01*
Y240463D02*
Y266534D01*
X230036Y238998D02*
X231500Y240463D01*
X315000Y413175D02*
Y472498D01*
X313750Y411925D02*
X315000Y413175D01*
X313750Y411248D02*
Y411925D01*
X156610Y284328D02*
X174110Y266828D01*
X154110Y286828D02*
Y330078D01*
X139000Y266718D02*
X156610Y284328D01*
X391501Y354998D02*
X399000Y362498D01*
Y389998D01*
X221500Y354998D02*
X391501D01*
X208390Y341888D02*
X221500Y354998D01*
X371501Y364998D02*
X381980Y375478D01*
X219500Y364998D02*
X371501D01*
X381980Y375478D02*
Y472748D01*
X202040Y347538D02*
X219500Y364998D01*
X202040Y338088D02*
Y347538D01*
X194110Y330158D02*
X202040Y338088D01*
X194110Y330078D02*
Y330158D01*
X103347Y311828D02*
X110860D01*
X101177Y313998D02*
X103347Y311828D01*
X100500Y313998D02*
X101177D01*
X154000Y344998D02*
X163250D01*
X140500D02*
X154000D01*
X154110Y344888D01*
X139790Y345708D02*
X140500Y344998D01*
X163250D02*
X163960Y345708D01*
X154110Y330078D02*
Y344888D01*
X341750Y510248D02*
X381750D01*
X331500Y499998D02*
X341750Y510248D01*
X381750D02*
X401500Y529998D01*
X325500Y501998D02*
X338500Y514998D01*
X351500D01*
X376500D01*
X391500Y529998D01*
X325500Y407998D02*
Y501998D01*
X194007Y261828D02*
X202360D01*
X192177Y259998D02*
X194007Y261828D01*
X191500Y259998D02*
X192177D01*
X223500Y318998D02*
Y341498D01*
X224000Y341998D01*
X202360Y311828D02*
X216330D01*
X223500Y318998D01*
X159500Y228998D02*
X159662D01*
X160081Y229418D01*
X154110Y232388D02*
Y238578D01*
Y232388D02*
X157081Y229418D01*
X160081D01*
X124110Y228388D02*
Y238578D01*
Y228388D02*
X127500Y224998D01*
X100500Y262998D02*
Y276828D01*
Y253998D02*
Y262998D01*
X91600Y250998D02*
X97500D01*
X100500Y253998D01*
X102114Y301885D02*
X102256Y301742D01*
X108360Y301828D02*
X110860D01*
X108274Y301742D02*
X108360Y301828D01*
X102256Y301742D02*
X108274D01*
X113500Y228998D02*
X119110Y234608D01*
Y238578D01*
X150500Y370998D02*
X154501D01*
X156500Y368998D01*
X151500Y358998D02*
X153500D01*
X157500Y362998D01*
X121500Y315998D02*
X122500Y316998D01*
X121500Y299998D02*
Y315998D01*
X110860Y296828D02*
X118330D01*
X121500Y299998D01*
X129022Y295520D02*
Y309020D01*
X110860Y291828D02*
X125330D01*
X129022Y295520D01*
Y309020D02*
X129500Y309498D01*
X100500Y276828D02*
X110860D01*
X91600Y250998D02*
Y251634D01*
X93350Y253384D01*
X181500Y368998D02*
X211500Y398998D01*
X156500Y368998D02*
X181500D01*
X211500Y398998D02*
X316500D01*
X325500Y407998D01*
X157500Y362998D02*
X183500D01*
X213500Y392998D01*
X319500D01*
X331500Y384998D02*
X341340Y394838D01*
X213500Y384998D02*
X331500D01*
X341340Y394838D02*
Y472748D01*
X186800Y358298D02*
X213500Y384998D01*
X331500Y404998D02*
Y499998D01*
X319500Y392998D02*
X331500Y404998D01*
X187147Y79998D02*
X199110Y91961D01*
X137560Y88878D02*
X146440Y79998D01*
X187147D01*
X154110Y286828D02*
X156610Y284328D01*
X164110Y291828D02*
X179110Y306828D01*
X156610Y284328D02*
X164110Y291828D01*
X179110Y306828D02*
X202360D01*
X192500Y301578D02*
X192750Y301828D01*
X202360D01*
X170366Y308864D02*
X176500Y314998D01*
X139000Y259998D02*
Y266718D01*
X176500Y314998D02*
Y314998D01*
X170366Y298754D02*
Y308864D01*
X164110Y291828D02*
X202360D01*
X137855Y265573D02*
X139000Y266718D01*
X132075Y265573D02*
X137855D01*
X118330Y251828D02*
X132075Y265573D01*
X110860Y251828D02*
X118330D01*
X129110Y238578D02*
Y250108D01*
X139000Y259998D01*
X174110Y266828D02*
X174206Y266733D01*
X174110Y266828D02*
X202360D01*
X174206Y259793D02*
Y266733D01*
Y259793D02*
X187170Y246828D01*
X202360D01*
X281500Y193198D02*
X281630Y193068D01*
X281500Y193198D02*
Y214998D01*
X273500Y222998D02*
X281500Y214998D01*
X238000Y222998D02*
X273500D01*
X528750Y684998D02*
X529821Y686068D01*
X519000Y684998D02*
X528750D01*
X461500Y639998D02*
X466500Y644998D01*
X206500Y64998D02*
X346500D01*
X358250Y53248D01*
Y42558D02*
Y53248D01*
X308720Y42558D02*
Y47778D01*
X351500Y374998D02*
X361660Y385158D01*
X216500Y374998D02*
X351500D01*
X361660Y385158D02*
Y472748D01*
X194420Y352918D02*
X216500Y374998D01*
X208390Y327858D02*
Y341888D01*
X176500Y314998D02*
X178330Y316828D01*
X202360D01*
X196433Y291936D02*
X196500Y292003D01*
Y294998D01*
X198330Y296828D01*
X202360D01*
X149110Y247608D02*
X151500Y249998D01*
X149110Y238578D02*
Y247608D01*
X141500Y249998D02*
X144110Y247388D01*
Y238578D02*
Y247388D01*
X194420Y339358D02*
Y352918D01*
X186800Y340642D02*
Y358298D01*
X202360Y271828D02*
X206365D01*
X210195Y267998D01*
X217171Y261828D02*
X222000Y256998D01*
X202360Y261828D02*
X217171D01*
X202360Y321828D02*
X208390Y327858D01*
X175660Y105111D02*
Y110158D01*
X180070Y114568D02*
X189340D01*
X175660Y110158D02*
X180070Y114568D01*
X189340D02*
Y238348D01*
X110600Y112148D02*
X134077D01*
X137560Y108665D01*
Y88878D02*
Y108665D01*
X149970Y126998D02*
Y133468D01*
Y105401D02*
Y126998D01*
X110600Y127148D02*
X110751Y126998D01*
X149970D01*
X169020Y152518D02*
Y223788D01*
X149970Y133468D02*
X169020Y152518D01*
X162960Y105111D02*
Y116128D01*
X179180Y132348D02*
Y223788D01*
X162960Y116128D02*
X179180Y132348D01*
X189110Y238578D02*
X189340Y238348D01*
Y114568D02*
X219683D01*
X189110Y334048D02*
X194420Y339358D01*
X189110Y330078D02*
Y334048D01*
X184110Y330078D02*
Y337952D01*
X186800Y340642D01*
X179160Y330128D02*
Y345708D01*
X124110Y330078D02*
Y345228D01*
X194110Y234258D02*
Y238578D01*
Y234258D02*
X198230Y230138D01*
X149970Y105401D02*
X150260Y105111D01*
X162960Y93958D02*
Y105111D01*
X169020Y223788D02*
X179110Y233878D01*
Y238578D01*
X179180Y223788D02*
X184110Y228718D01*
Y238578D01*
X219683Y114568D02*
X242290Y91961D01*
X166481Y90438D02*
X180450D01*
X162960Y93958D02*
X166481Y90438D01*
X180450D02*
X191880Y101868D01*
X210793D02*
X220700Y91961D01*
X191880Y101868D02*
X210793D01*
D11*
X617400Y727600D02*
X630948D01*
X615000Y730000D02*
X617400Y727600D01*
X630948D02*
X651740D01*
X652490Y726850D01*
Y726648D02*
Y726850D01*
X569300Y608998D02*
X581500D01*
X569050Y608748D02*
X569300Y608998D01*
X569050Y608748D02*
Y609868D01*
Y598528D02*
Y609868D01*
X404000Y472498D02*
X404250Y472248D01*
X411573D01*
X414000Y469821D01*
X504300Y463298D02*
Y472828D01*
X504000Y462998D02*
X504300Y463298D01*
X483980Y463018D02*
Y472828D01*
Y463018D02*
X484000Y462998D01*
X91550Y301172D02*
X101401D01*
X238000Y238998D02*
X246500D01*
X207990Y203488D02*
X208500Y203998D01*
X198230Y203488D02*
X207990D01*
X159500Y227998D02*
Y228998D01*
X156984Y225482D02*
X159500Y227998D01*
X156984Y218688D02*
Y225482D01*
X132050Y218688D02*
Y220448D01*
X155050Y218688D02*
X156984D01*
X132050D02*
X134050D01*
X127500Y224998D02*
X132050Y220448D01*
X251236Y255351D02*
X251500Y255616D01*
X242148Y255351D02*
X251236D01*
X240500Y256998D02*
X242148Y255351D01*
X239750Y300998D02*
X240500Y301748D01*
Y313998D01*
X91600Y275498D02*
X93600D01*
X91600Y273498D02*
Y275498D01*
X93600D02*
X94930Y276828D01*
X100500D01*
X101401Y301172D02*
X102114Y301885D01*
X91550Y301172D02*
Y301258D01*
X113050Y228548D02*
X113500Y228998D01*
X113050Y218688D02*
Y228548D01*
X76850Y112148D02*
X90280D01*
X76500Y112498D02*
X76850Y112148D01*
X253463Y76961D02*
X254000Y77498D01*
X242290Y76961D02*
X253463D01*
X220700D02*
X230963D01*
X231500Y77498D01*
X208463Y76961D02*
X209000Y77498D01*
X199110Y76961D02*
X208463D01*
X175660Y35838D02*
Y51111D01*
Y35838D02*
X176500Y34998D01*
X569050Y598528D02*
X574150Y593428D01*
Y593178D02*
Y593428D01*
X431500Y113998D02*
Y130998D01*
X198230Y218688D02*
Y230138D01*
D14*
X517854Y640181D02*
X517854D01*
X521465Y643792D01*
X521500D01*
X529454D01*
X529821Y644158D01*
X515329Y644998D02*
X516500Y646170D01*
X476500Y644998D02*
X515329D01*
X516500Y646170D02*
Y649998D01*
X522150Y655648D01*
X652490D01*
X524567Y727978D02*
X529821D01*
X515000Y718411D02*
X524567Y727978D01*
X549000Y632498D02*
X669000D01*
X544820Y665113D02*
X621615D01*
X545890Y684998D02*
X649000D01*
X544820Y707023D02*
X552023D01*
X587498Y742498D02*
X674000D01*
X552023Y707023D02*
X587498Y742498D01*
X544820Y727978D02*
X552978D01*
X577498Y752498D02*
X681500D01*
X552978Y727978D02*
X577498Y752498D01*
X521615Y665113D02*
X529821D01*
X511501Y654998D02*
X521615Y665113D01*
X486501Y654998D02*
X511501D01*
X72293Y897539D02*
X82460D01*
X72253Y897579D02*
X72293Y897539D01*
X95000Y917498D02*
Y969998D01*
X97896Y972894D01*
X107730D01*
X90000Y912498D02*
X95000Y917498D01*
X665033Y212698D02*
X684890D01*
X688140Y215948D01*
X665033Y216698D02*
X674534D01*
X675784Y217948D01*
X625801Y220698D02*
X635033D01*
X624000Y222498D02*
X625801Y220698D01*
X654033Y231698D02*
Y233698D01*
X654533Y234198D01*
X381501Y649998D02*
X386500Y654998D01*
X364000Y754998D02*
X381500Y737498D01*
Y659998D02*
X381501Y659998D01*
X366500Y759998D02*
X386500Y739998D01*
Y654998D02*
Y739998D01*
X381500Y659998D02*
Y737498D01*
X369000Y779998D02*
X391500Y757498D01*
Y659998D02*
Y757498D01*
Y649998D02*
X396501Y654998D01*
X371501Y784998D02*
X396501Y759998D01*
Y654998D02*
Y759998D01*
X411500Y659998D02*
Y749998D01*
X464000Y802498D01*
X416500Y654998D02*
Y747498D01*
Y654998D02*
X421501Y649998D01*
X416500Y747498D02*
X466500Y797498D01*
X406500Y654998D02*
Y784998D01*
Y654998D02*
X411500Y649998D01*
X406500Y784998D02*
X424422Y802920D01*
X671500Y642498D02*
Y672498D01*
X702850Y703848D02*
X711030D01*
X671500Y672498D02*
X702850Y703848D01*
X461500Y629998D02*
X466500Y634998D01*
X674000Y742498D02*
X677890Y738608D01*
X709280Y720668D02*
X711030Y722418D01*
X649000Y684998D02*
X665190Y701188D01*
X711030Y722418D02*
Y724168D01*
X665500Y709998D02*
X696860D01*
X544820Y686068D02*
X545890Y684998D01*
X665190Y701188D02*
Y726648D01*
X696860Y709998D02*
X707530Y720668D01*
X709280D01*
X82500Y878498D02*
X90730Y886728D01*
X82500Y840410D02*
Y878498D01*
Y826608D02*
X105145D01*
X81679D02*
X82500D01*
X81645Y826643D02*
X81679Y826608D01*
X82500Y912498D02*
X90000D01*
X431501Y659998D02*
Y667498D01*
X431500Y667498D02*
X431501Y667498D01*
X431500Y667498D02*
Y729998D01*
X315000Y487498D02*
Y492998D01*
Y698498D02*
X346500Y729998D01*
X315000Y492998D02*
Y698498D01*
X259000Y754998D02*
X364000D01*
X266500Y759998D02*
X366500D01*
X236500Y777498D02*
X259000Y754998D01*
X248383Y778116D02*
X266500Y759998D01*
X504300Y487828D02*
Y494698D01*
X476500Y497498D02*
X501500D01*
X504300Y494698D01*
X459001Y507499D02*
X466500D01*
X476500Y497498D01*
X471170Y487828D02*
X483980D01*
X459000Y499998D02*
X471170Y487828D01*
X524620Y487948D02*
Y496878D01*
X486500Y504998D02*
X516500D01*
X524620Y496878D01*
X416500Y509998D02*
X419000Y512498D01*
X404000Y497498D02*
X416500Y509998D01*
X419000Y512498D02*
X424000D01*
X404000Y487498D02*
Y497498D01*
X456500Y534998D02*
X461500Y539998D01*
X466500Y534998D02*
X471501Y539998D01*
X466782Y524717D02*
X467211D01*
X461500Y529998D02*
X466782Y524717D01*
X471501Y529998D02*
X476500Y524998D01*
X471501Y529998D02*
Y529998D01*
X454000Y462498D02*
Y512498D01*
Y462498D02*
X459000Y457498D01*
X451500Y514998D02*
X454000Y512498D01*
X426500Y544998D02*
Y554998D01*
X431501Y559998D01*
Y549998D02*
X436500Y544998D01*
X446500Y554998D02*
Y554998D01*
X441500Y549998D02*
X446500Y554998D01*
X490087Y520511D02*
X493059D01*
X481501Y529998D02*
X482042D01*
X501455Y514998D02*
X501500D01*
X494939Y525051D02*
X498770Y521220D01*
X491967Y525051D02*
X494939D01*
X490796Y526222D02*
X491967Y525051D01*
X486256Y524342D02*
X490087Y520511D01*
X482042Y529998D02*
X483042Y528998D01*
X498770Y517683D02*
Y521220D01*
X491118Y528201D02*
Y529616D01*
X491500Y529998D01*
X486256Y524342D02*
Y525802D01*
X493059Y520511D02*
X494230Y519339D01*
Y517683D02*
Y519339D01*
X498770Y517683D02*
X501455Y514998D01*
X490796Y527879D02*
X491118Y528201D01*
X483042Y528998D02*
X483059D01*
X486256Y525802D01*
X491546Y514998D02*
X494230Y517683D01*
X491500Y514998D02*
X491546D01*
X490796Y526222D02*
Y527879D01*
X688450Y869448D02*
X705731Y886728D01*
X688450Y840888D02*
Y869448D01*
X600437Y868935D02*
X618231Y886728D01*
X600437Y840888D02*
Y868935D01*
X336500Y840992D02*
Y869998D01*
X336396Y840888D02*
X336500Y840992D01*
Y869998D02*
X353231Y886728D01*
X248383Y869381D02*
X265730Y886728D01*
X248383Y840888D02*
Y869381D01*
X160369Y840888D02*
Y868867D01*
X178230Y886728D01*
X90730D02*
X115920D01*
X178230D02*
X203913D01*
X265730D02*
X291906D01*
X353231D02*
X379899D01*
X424410Y870408D02*
X440731Y886728D01*
X424410Y840888D02*
Y870408D01*
X440731Y886728D02*
X467892D01*
X512329Y870827D02*
X528231Y886728D01*
X512423Y840888D02*
Y856685D01*
X512329Y856780D02*
X512423Y856685D01*
X512329Y856780D02*
Y870827D01*
X528231Y886728D02*
X555885D01*
X618231D02*
X643877D01*
X705731D02*
X731870D01*
X706896Y972894D02*
X723680D01*
X688450Y954448D02*
X706896Y972894D01*
X688450Y927418D02*
Y954448D01*
X619396Y972894D02*
X635687D01*
X600437Y953935D02*
X619396Y972894D01*
X600437Y927418D02*
Y953935D01*
X529396Y972894D02*
X547695D01*
X512423Y955921D02*
X529396Y972894D01*
X512423Y927418D02*
Y955921D01*
X441896Y972894D02*
X459702D01*
X424410Y955408D02*
X441896Y972894D01*
X424410Y927418D02*
Y955408D01*
X354396Y972894D02*
X371709D01*
X336396Y954894D02*
X354396Y972894D01*
X336396Y927418D02*
Y954894D01*
X261896Y972894D02*
X283716D01*
X248383Y959381D02*
X261896Y972894D01*
X248383Y927418D02*
Y959381D01*
X176896Y972894D02*
X195723D01*
X160369Y956367D02*
X176896Y972894D01*
X160369Y927418D02*
Y956367D01*
X674000Y809998D02*
Y884998D01*
X688450Y899448D02*
Y912418D01*
X674000Y884998D02*
X688450Y899448D01*
X688450Y803048D02*
X771500Y719998D01*
X688450Y803048D02*
Y825888D01*
X674000Y809998D02*
X766500Y717498D01*
X586500Y884998D02*
X600437Y898935D01*
X586500Y814998D02*
Y884998D01*
X600437Y898935D02*
Y912418D01*
X600437Y816874D02*
Y825888D01*
Y816874D02*
X601500Y815810D01*
Y814998D02*
Y815810D01*
X499000Y812498D02*
Y887498D01*
X512423Y900921D02*
Y912418D01*
X499000Y887498D02*
X512423Y900921D01*
X506500Y797498D02*
X512423Y803421D01*
Y825888D01*
X464000Y802498D02*
X489000D01*
X499000Y812498D01*
X424422Y802920D02*
Y825876D01*
X424410Y825888D02*
X424422Y825876D01*
X411500Y802498D02*
Y887498D01*
X424000Y899998D02*
Y912009D01*
X411500Y887498D02*
X424000Y899998D01*
X401500Y792498D02*
X411500Y802498D01*
X424000Y912009D02*
X424410Y912418D01*
X401500Y659998D02*
Y792498D01*
X324000Y802498D02*
Y887498D01*
X336396Y899894D02*
Y912418D01*
X324000Y887498D02*
X336396Y899894D01*
X336396Y797602D02*
Y825888D01*
Y797602D02*
X349000Y784998D01*
X371501D01*
X324000Y802498D02*
X346500Y779998D01*
X236500Y889998D02*
X248383Y901881D01*
Y912418D01*
X236500Y777498D02*
Y889998D01*
X248383Y778116D02*
Y825888D01*
X173556Y825443D02*
X174000Y824998D01*
X160814Y825443D02*
X173556D01*
X160369Y825888D02*
X160814Y825443D01*
X81645Y826643D02*
X82500Y827498D01*
X160329Y912458D02*
X160369Y912418D01*
X146541Y912458D02*
X160329D01*
X146500Y912498D02*
X146541Y912458D01*
X82460Y897539D02*
X82500Y897498D01*
X346500Y779998D02*
X369000D01*
X466500Y797498D02*
X506500D01*
X396501Y644998D02*
X401500Y639998D01*
X386500Y634998D02*
X391500Y629998D01*
X397001Y625498D02*
X401500Y629998D01*
X387001Y625498D02*
X397001D01*
X386500Y624998D02*
X387001Y625498D01*
X501500Y609998D02*
X516500D01*
X501500Y599998D02*
X509000D01*
X501500Y539998D02*
X524001D01*
X534000Y549998D01*
X757314D01*
X771500Y564184D01*
Y719998D01*
X766500Y567498D02*
Y717498D01*
X754000Y554998D02*
X766500Y567498D01*
X509000Y579998D02*
X534000Y554998D01*
X754000D01*
X386500Y644998D02*
X391500Y639998D01*
X645889Y221426D02*
Y231698D01*
X642033Y224698D02*
X645305Y221426D01*
X654033Y220698D02*
X665033D01*
X650033Y216698D02*
X658033Y208698D01*
X654000Y220730D02*
X654033Y220698D01*
X654462Y221269D02*
Y221308D01*
Y221269D02*
X654500Y221231D01*
X645305Y221426D02*
X645889D01*
Y220842D02*
Y221426D01*
Y220842D02*
X650033Y216698D01*
X654000Y220730D02*
X654500Y221231D01*
X650033Y216698D02*
X654033Y220698D01*
X672800Y208698D02*
X676500Y204998D01*
X665033Y208698D02*
X672800D01*
X656500Y192498D02*
X660250D01*
X356500Y631748D02*
X369750D01*
X424000Y512498D02*
X441500Y529998D01*
Y529998D01*
X385480Y489498D02*
Y490256D01*
X411762Y516538D02*
X418040D01*
X383730Y487748D02*
X385480Y489498D01*
Y490256D02*
X405222Y509998D01*
X411762Y516538D01*
X381980Y487748D02*
X383730D01*
X418040Y516538D02*
X431501Y529998D01*
X733906Y134253D02*
X788255D01*
X459000Y457498D02*
X789000D01*
X451500Y514998D02*
Y529998D01*
X356500Y565998D02*
X358460Y567958D01*
X376500Y574998D02*
X381501Y579998D01*
X359001Y572498D02*
X366501Y579998D01*
X360881Y567958D02*
X367921Y574998D01*
X358460Y567958D02*
X360881D01*
X367921Y574998D02*
X376500D01*
X366501Y579998D02*
X371501D01*
X341340Y487748D02*
Y499838D01*
X346500Y504998D02*
X376500D01*
X341340Y499838D02*
X346500Y504998D01*
X361500Y487908D02*
Y496952D01*
X362672Y498123D01*
X379626D01*
X416501Y544998D02*
X421501Y549998D01*
X501500Y579998D02*
X509000D01*
X195830Y286828D02*
X202360D01*
X191500Y282498D02*
X195830Y286828D01*
X446500Y520998D02*
Y544998D01*
X436500Y444998D02*
Y510998D01*
X446500Y520998D01*
Y544998D02*
X451500Y549998D01*
X369750Y631748D02*
X371501Y629998D01*
X369750Y638248D02*
X371501Y639998D01*
X356500Y638248D02*
X369750D01*
X356500Y601748D02*
X369750D01*
X371501Y599998D01*
X369750Y608248D02*
X371501Y609998D01*
X356500Y608248D02*
X369750D01*
X376500Y584998D02*
X381501Y589998D01*
X358000Y584998D02*
X376500D01*
X356500Y583498D02*
X358000Y584998D01*
X356500Y589998D02*
X356501Y589998D01*
X371501D01*
X506500Y554998D02*
X509230Y552268D01*
X513829D01*
X481501Y549998D02*
X486501Y554998D01*
X506500D01*
X509230Y547728D02*
X513829D01*
X506500Y544998D02*
X509230Y547728D01*
X471501Y549998D02*
X476500Y544998D01*
X506500D01*
X379626Y498123D02*
X391500Y509998D01*
X404000Y522498D01*
X361500Y487908D02*
X361660Y487748D01*
X404000Y522498D02*
X416500D01*
X421215Y529713D02*
X421501Y529998D01*
X421215Y527213D02*
Y529713D01*
X416500Y522498D02*
X421215Y527213D01*
X421500Y429998D02*
X436500Y444998D01*
X669000Y639998D02*
X671500Y642498D01*
X652490Y641170D02*
X653662Y639998D01*
X652490Y641170D02*
Y655648D01*
X653662Y639998D02*
X669000D01*
X676822Y640320D02*
Y654580D01*
X669000Y632498D02*
X676822Y640320D01*
X544820Y636678D02*
Y644158D01*
Y636678D02*
X549000Y632498D01*
X677890Y671388D02*
X690030Y683528D01*
X677890Y655648D02*
Y671388D01*
X690030Y683528D02*
X711030D01*
X529820Y749568D02*
X529821Y749568D01*
X529390Y749998D02*
X529820Y749568D01*
Y769888D01*
X516500Y749998D02*
X529390D01*
X676822Y654580D02*
X677890Y655648D01*
X621615Y665113D02*
X631500Y674998D01*
X659000D01*
X665190Y655648D02*
Y668808D01*
X659000Y674998D02*
X665190Y668808D01*
X690590Y726648D02*
X691500Y727558D01*
Y742498D01*
X681500Y752498D02*
X691500Y742498D01*
X677890Y726648D02*
Y738608D01*
X461500Y649998D02*
Y649998D01*
X466500Y654998D01*
X481501Y649998D02*
X486501Y654998D01*
X471501Y639998D02*
X476500Y644998D01*
X458525Y707023D02*
X529821D01*
X441500Y689998D02*
X458525Y707023D01*
X441500Y659998D02*
Y689998D01*
X476500Y654998D02*
Y654998D01*
X471501Y649998D02*
X476500Y654998D01*
X658033Y201698D02*
Y208698D01*
X642033Y224698D02*
Y231698D01*
X209330Y286828D02*
X221250Y298748D01*
X202360Y286828D02*
X209330D01*
X221250Y298748D02*
Y300998D01*
X215500Y222998D02*
X223000D01*
X211500Y226998D02*
X215500Y222998D01*
X211500Y226998D02*
Y246998D01*
X206670Y251828D02*
X211500Y246998D01*
X202360Y251828D02*
X206670D01*
X632001Y67998D02*
Y109998D01*
X646033Y192530D02*
Y201698D01*
X639500Y185998D02*
X646033Y192530D01*
X639500Y121998D02*
Y185998D01*
X632000Y114498D02*
X639500Y121998D01*
X632000Y109998D02*
Y114498D01*
Y109998D02*
X632001Y109998D01*
X631500Y131498D02*
Y187998D01*
Y131498D02*
X632001Y130998D01*
X631500Y187998D02*
X642033Y198531D01*
Y201698D01*
X624500Y214998D02*
X626200Y216698D01*
X635033D01*
X654033Y194966D02*
X656500Y192498D01*
X654033Y194966D02*
Y201698D01*
X650033Y192356D02*
Y201698D01*
Y192356D02*
X666572Y175817D01*
X179110Y330078D02*
X179160Y330128D01*
X124110Y345228D02*
X124591Y345708D01*
X666572Y175817D02*
X718950D01*
X719051D02*
Y195848D01*
Y154785D02*
Y175817D01*
X719050Y195848D02*
X719051Y195848D01*
D27*
X381501Y659998D02*
D03*
X391500D02*
D03*
X401500D02*
D03*
X411500D02*
D03*
X381501Y649998D02*
D03*
X411500D02*
D03*
X421501D02*
D03*
X401500Y639998D02*
D03*
X391500Y629998D02*
D03*
X401500D02*
D03*
X501500Y609998D02*
D03*
Y599998D02*
D03*
Y539998D02*
D03*
X391500Y649998D02*
D03*
Y639998D02*
D03*
X501500Y579998D02*
D03*
X371501Y659998D02*
D03*
X421501D02*
D03*
X431501D02*
D03*
X441500D02*
D03*
X451500D02*
D03*
X461500D02*
D03*
X471501D02*
D03*
X481501D02*
D03*
X491500D02*
D03*
X501500D02*
D03*
X371501Y649998D02*
D03*
X401500D02*
D03*
X431501D02*
D03*
X441500D02*
D03*
X451500D02*
D03*
X461500D02*
D03*
X471501D02*
D03*
X481501D02*
D03*
X491500D02*
D03*
X501500D02*
D03*
X371501Y639998D02*
D03*
X381501D02*
D03*
X411500D02*
D03*
X421501D02*
D03*
X431501D02*
D03*
X441500D02*
D03*
X451500D02*
D03*
X461500D02*
D03*
X471501D02*
D03*
X481501D02*
D03*
X491500D02*
D03*
X501500D02*
D03*
X371501Y629998D02*
D03*
X381501D02*
D03*
X411500D02*
D03*
X421501D02*
D03*
X431501D02*
D03*
X441500D02*
D03*
X451500D02*
D03*
X461500D02*
D03*
X471501D02*
D03*
X481501D02*
D03*
X491500D02*
D03*
X501500D02*
D03*
X371501Y619998D02*
D03*
X381501D02*
D03*
X391500D02*
D03*
X401500D02*
D03*
X411500D02*
D03*
X421501D02*
D03*
X431501D02*
D03*
X441500D02*
D03*
X451500D02*
D03*
X461500D02*
D03*
X471501D02*
D03*
X481501D02*
D03*
X491500D02*
D03*
X501500D02*
D03*
X371501Y609998D02*
D03*
X381501D02*
D03*
X391500D02*
D03*
X401500D02*
D03*
X411500D02*
D03*
X421501D02*
D03*
X431501D02*
D03*
X441500D02*
D03*
X451500D02*
D03*
X461500D02*
D03*
X471501D02*
D03*
X481501D02*
D03*
X491500D02*
D03*
X371501Y599998D02*
D03*
X381501D02*
D03*
X391500D02*
D03*
X401500D02*
D03*
X411500D02*
D03*
X421501D02*
D03*
X431501D02*
D03*
X441500D02*
D03*
X451500D02*
D03*
X461500D02*
D03*
X471501D02*
D03*
X481501D02*
D03*
X491500D02*
D03*
X371501Y589998D02*
D03*
X381501D02*
D03*
X391500D02*
D03*
X401500D02*
D03*
X411500D02*
D03*
X421501D02*
D03*
X431501D02*
D03*
X441500D02*
D03*
X451500D02*
D03*
X461500D02*
D03*
X471501D02*
D03*
X481501D02*
D03*
X491500D02*
D03*
X501500D02*
D03*
X371501Y579998D02*
D03*
X381501D02*
D03*
X391500D02*
D03*
X401500D02*
D03*
X411500D02*
D03*
X421501D02*
D03*
X431501D02*
D03*
X441500D02*
D03*
X451500D02*
D03*
X461500D02*
D03*
X471501D02*
D03*
X481501D02*
D03*
X491500D02*
D03*
X371501Y569998D02*
D03*
X381501D02*
D03*
X391500D02*
D03*
X401500D02*
D03*
X411500D02*
D03*
X421501D02*
D03*
X431501D02*
D03*
X441500D02*
D03*
X451500D02*
D03*
X461500D02*
D03*
X471501D02*
D03*
X481501D02*
D03*
X491500D02*
D03*
X501500D02*
D03*
X371501Y559998D02*
D03*
X381501D02*
D03*
X391500D02*
D03*
X401500D02*
D03*
X411500D02*
D03*
X421501D02*
D03*
X431501D02*
D03*
X441500D02*
D03*
X451500D02*
D03*
X461500D02*
D03*
X471501D02*
D03*
X481501D02*
D03*
X491500D02*
D03*
X501500D02*
D03*
X371501Y549998D02*
D03*
X381501D02*
D03*
X391500D02*
D03*
X401500D02*
D03*
X411500D02*
D03*
X421501D02*
D03*
X431501D02*
D03*
X441500D02*
D03*
X451500D02*
D03*
X461500D02*
D03*
X471501D02*
D03*
X481501D02*
D03*
X491500D02*
D03*
X501500D02*
D03*
X371501Y539998D02*
D03*
X381501D02*
D03*
X391500D02*
D03*
X401500D02*
D03*
X411500D02*
D03*
X421501D02*
D03*
X431501D02*
D03*
X441500D02*
D03*
X451500D02*
D03*
X461500D02*
D03*
X471501D02*
D03*
X481501D02*
D03*
X491500D02*
D03*
X371501Y529998D02*
D03*
X381501D02*
D03*
X391500D02*
D03*
X401500D02*
D03*
X411500D02*
D03*
X421501D02*
D03*
X431501D02*
D03*
X441500D02*
D03*
X451500D02*
D03*
X461500D02*
D03*
X471501D02*
D03*
X481501D02*
D03*
X491500D02*
D03*
X501500D02*
D03*
D28*
X202360Y246828D02*
D03*
Y251828D02*
D03*
Y256828D02*
D03*
Y261828D02*
D03*
Y266828D02*
D03*
Y271828D02*
D03*
Y276828D02*
D03*
Y281828D02*
D03*
Y286828D02*
D03*
Y291828D02*
D03*
Y296828D02*
D03*
Y301828D02*
D03*
Y306828D02*
D03*
Y311828D02*
D03*
Y316828D02*
D03*
Y321828D02*
D03*
X110860D02*
D03*
Y316828D02*
D03*
Y311828D02*
D03*
Y306828D02*
D03*
Y301828D02*
D03*
Y296828D02*
D03*
Y291828D02*
D03*
Y286828D02*
D03*
Y281828D02*
D03*
Y276828D02*
D03*
Y271828D02*
D03*
Y266828D02*
D03*
Y261828D02*
D03*
Y256828D02*
D03*
Y251828D02*
D03*
Y246828D02*
D03*
D29*
X194110Y330078D02*
D03*
X189110D02*
D03*
X184110D02*
D03*
X179110D02*
D03*
X174110D02*
D03*
X169110D02*
D03*
X164110D02*
D03*
X159110D02*
D03*
X154110D02*
D03*
X149110D02*
D03*
X144110D02*
D03*
X139110D02*
D03*
X134110D02*
D03*
X129110D02*
D03*
X124110D02*
D03*
X119110D02*
D03*
Y238578D02*
D03*
X124110D02*
D03*
X129110D02*
D03*
X134110D02*
D03*
X139110D02*
D03*
X144110D02*
D03*
X149110D02*
D03*
X154110D02*
D03*
X159110D02*
D03*
X164110D02*
D03*
X169110D02*
D03*
X174110D02*
D03*
X179110D02*
D03*
X184110D02*
D03*
X189110D02*
D03*
X194110D02*
D03*
D30*
X156610Y284328D02*
D03*
D49*
X424250Y14998D02*
D03*
X446750D02*
D03*
D50*
X435500Y42998D02*
D03*
X429001D02*
D03*
X422500D02*
D03*
X442001D02*
D03*
X448501D02*
D03*
D51*
X412300Y37298D02*
D03*
X458700D02*
D03*
D52*
X422000Y90998D02*
D03*
X431500D02*
D03*
X441000D02*
D03*
Y113998D02*
D03*
X431500D02*
D03*
X422000D02*
D03*
D53*
X690590Y726648D02*
D03*
X677890D02*
D03*
X665190D02*
D03*
X652490D02*
D03*
X690590Y655648D02*
D03*
X677890D02*
D03*
X665190D02*
D03*
X652490D02*
D03*
D54*
X137560Y51111D02*
D03*
X150260D02*
D03*
X162960D02*
D03*
X175660D02*
D03*
X137560Y105111D02*
D03*
X150260D02*
D03*
X162960D02*
D03*
X175660D02*
D03*
D55*
X529821Y749568D02*
D03*
X544820D02*
D03*
X726030Y683528D02*
D03*
X711030D02*
D03*
X529821Y727978D02*
D03*
X544820D02*
D03*
X529821Y644158D02*
D03*
X544820D02*
D03*
X733906Y134253D02*
D03*
X718906D02*
D03*
X733906Y93190D02*
D03*
X718906D02*
D03*
X529821Y686068D02*
D03*
X544820D02*
D03*
X726030Y724168D02*
D03*
X711030D02*
D03*
X529821Y707023D02*
D03*
X544820D02*
D03*
X529821Y665113D02*
D03*
X544820D02*
D03*
X726030Y703848D02*
D03*
X711030D02*
D03*
X239000Y341998D02*
D03*
X224000D02*
D03*
X239000Y326998D02*
D03*
X224000D02*
D03*
X223000Y238998D02*
D03*
X238000D02*
D03*
X238000Y222998D02*
D03*
X223000D02*
D03*
X632001Y130998D02*
D03*
X647001D02*
D03*
X632001Y67998D02*
D03*
X647001D02*
D03*
X734050Y154785D02*
D03*
X719051D02*
D03*
X632000Y172998D02*
D03*
X647000D02*
D03*
X719050Y195848D02*
D03*
X734050D02*
D03*
X632000Y109998D02*
D03*
X647000D02*
D03*
X531000Y63998D02*
D03*
X516000D02*
D03*
Y84998D02*
D03*
X531000D02*
D03*
X733906Y113722D02*
D03*
X718906D02*
D03*
X733906Y72658D02*
D03*
X718906D02*
D03*
X544820Y769888D02*
D03*
X529820D02*
D03*
D56*
X635033Y224698D02*
D03*
Y220698D02*
D03*
Y216698D02*
D03*
Y212698D02*
D03*
Y208698D02*
D03*
X665033D02*
D03*
Y212698D02*
D03*
Y216698D02*
D03*
Y220698D02*
D03*
Y224698D02*
D03*
D57*
X642033Y201698D02*
D03*
X646033D02*
D03*
X650033D02*
D03*
X654033D02*
D03*
X658033D02*
D03*
Y231698D02*
D03*
X654033D02*
D03*
X650033D02*
D03*
X646033D02*
D03*
X642033D02*
D03*
D58*
X650033Y216698D02*
D03*
D59*
X211913Y972894D02*
D03*
X195723D02*
D03*
X123920D02*
D03*
X107730D02*
D03*
X387899D02*
D03*
X371709D02*
D03*
X563885D02*
D03*
X547695D02*
D03*
X651878D02*
D03*
X635687D02*
D03*
X475892D02*
D03*
X459702D02*
D03*
X299906D02*
D03*
X283716D02*
D03*
X739870D02*
D03*
X723680D02*
D03*
D60*
X575146Y275648D02*
D03*
Y310148D02*
D03*
X651303Y275648D02*
D03*
Y310148D02*
D03*
X730230Y276268D02*
D03*
Y310768D02*
D03*
D61*
X50000Y99998D02*
D03*
X785000Y899998D02*
D03*
X50000D02*
D03*
D62*
X571455Y403562D02*
D03*
Y430062D02*
D03*
X651500Y401748D02*
D03*
Y428248D02*
D03*
X736500Y401748D02*
D03*
Y428248D02*
D03*
D63*
X240500Y256998D02*
D03*
X222000D02*
D03*
X551770Y156478D02*
D03*
X533270D02*
D03*
X239750Y300998D02*
D03*
X221250D02*
D03*
D64*
X569050Y609868D02*
D03*
X553850D02*
D03*
X91600Y273498D02*
D03*
X76400D02*
D03*
X91600Y250998D02*
D03*
X76400D02*
D03*
X252861Y137108D02*
D03*
X268060D02*
D03*
X179160Y345708D02*
D03*
X163960D02*
D03*
X124591D02*
D03*
X139790D02*
D03*
X91550Y301258D02*
D03*
X76350D02*
D03*
X647100Y88998D02*
D03*
X631900D02*
D03*
X647100Y151998D02*
D03*
X631900D02*
D03*
X734150Y175817D02*
D03*
X718950D02*
D03*
X532220Y179338D02*
D03*
X517020D02*
D03*
X532460Y198388D02*
D03*
X517260D02*
D03*
X532460Y217438D02*
D03*
X517260D02*
D03*
D65*
X281630Y193068D02*
D03*
Y164968D02*
D03*
X241831D02*
D03*
X241831Y193068D02*
D03*
D66*
X548750Y593178D02*
D03*
X574150D02*
D03*
X548750Y570678D02*
D03*
X574150D02*
D03*
D67*
X630948Y712400D02*
D03*
Y727600D02*
D03*
X155050Y203488D02*
D03*
Y218688D02*
D03*
X134050Y203488D02*
D03*
Y218688D02*
D03*
X198230D02*
D03*
Y203488D02*
D03*
X113050D02*
D03*
Y218688D02*
D03*
D68*
X605900Y26558D02*
D03*
Y42748D02*
D03*
X358250Y42558D02*
D03*
Y26368D02*
D03*
X308720D02*
D03*
Y42558D02*
D03*
X527160Y42748D02*
D03*
Y26558D02*
D03*
D69*
X404000Y472498D02*
D03*
Y487498D02*
D03*
X90280Y112148D02*
D03*
Y127148D02*
D03*
X91550Y203588D02*
D03*
Y218588D02*
D03*
X524620Y487948D02*
D03*
Y472948D02*
D03*
X504300Y472828D02*
D03*
Y487828D02*
D03*
X483980Y472828D02*
D03*
Y487828D02*
D03*
X341340Y472748D02*
D03*
Y487748D02*
D03*
X287130Y27058D02*
D03*
Y42058D02*
D03*
X220700Y76961D02*
D03*
Y91961D02*
D03*
X341740Y27058D02*
D03*
Y42058D02*
D03*
X315000Y472498D02*
D03*
Y487498D02*
D03*
X110600Y127148D02*
D03*
Y112148D02*
D03*
X242290Y76961D02*
D03*
Y91961D02*
D03*
X361660Y472748D02*
D03*
Y487748D02*
D03*
X381980Y472748D02*
D03*
Y487748D02*
D03*
X199110Y76961D02*
D03*
Y91961D02*
D03*
X248383Y927418D02*
D03*
Y912418D02*
D03*
X336396Y825888D02*
D03*
Y840888D02*
D03*
X336396Y927418D02*
D03*
Y912418D02*
D03*
X82500Y912498D02*
D03*
Y897498D02*
D03*
X688450Y825888D02*
D03*
Y840888D02*
D03*
X424410Y927418D02*
D03*
Y912418D02*
D03*
X600437Y927418D02*
D03*
Y912418D02*
D03*
X512423Y825888D02*
D03*
Y840888D02*
D03*
X160369Y825888D02*
D03*
Y840888D02*
D03*
X600437Y825888D02*
D03*
Y840888D02*
D03*
X160369Y927418D02*
D03*
Y912418D02*
D03*
X688450Y927418D02*
D03*
Y912418D02*
D03*
X512423Y927418D02*
D03*
Y912418D02*
D03*
X424410Y825888D02*
D03*
Y840888D02*
D03*
X248383Y825888D02*
D03*
Y840888D02*
D03*
X82500Y827498D02*
D03*
Y842498D02*
D03*
X529700Y589428D02*
D03*
Y574428D02*
D03*
D70*
X574553Y216698D02*
D03*
X601053D02*
D03*
D71*
X178000Y739498D02*
D03*
Y729998D02*
D03*
Y720498D02*
D03*
X205000D02*
D03*
Y729998D02*
D03*
Y739498D02*
D03*
X178000Y496998D02*
D03*
Y487498D02*
D03*
Y477998D02*
D03*
X205000D02*
D03*
Y487498D02*
D03*
Y496998D02*
D03*
D72*
X471500Y667498D02*
X471501Y667498D01*
Y659998D02*
Y667498D01*
X323438Y42100D02*
X341698D01*
X341740Y42058D01*
X269440D02*
X287130D01*
X426500Y654998D02*
X431501Y649998D01*
X411500Y579998D02*
X416500Y584998D01*
X411500Y599998D02*
X416500Y604998D01*
Y604998D01*
Y624998D02*
X421501Y629998D01*
X431500Y619998D02*
X431501D01*
X426501Y624998D02*
X431500Y619998D01*
X421501Y629998D02*
X426500Y624998D01*
Y614998D02*
X431500Y619998D01*
X416500Y604998D02*
X421500Y609998D01*
X421501D01*
X416500Y584998D02*
X421501Y589998D01*
X436500Y644998D02*
X441500Y639998D01*
X426500Y644998D02*
X431500Y639998D01*
X451500Y649998D02*
X456500Y654998D01*
X451500Y659998D02*
Y667498D01*
X456500Y614998D02*
X461500Y609998D01*
X456500Y594998D02*
X461500Y589998D01*
X456500Y574998D02*
X461500Y569998D01*
X451500Y559998D02*
X456501Y564998D01*
Y584998D02*
X461500Y579998D01*
X441500Y539998D02*
Y539998D01*
X436500Y534998D02*
X441500Y539998D01*
X426500Y534998D02*
X431501Y539998D01*
X416500Y534998D02*
X421501Y539998D01*
X501500Y619998D02*
X506500Y614998D01*
X376500Y634998D02*
X381501Y639998D01*
X361500Y669998D02*
X371501Y659998D01*
X451500Y589998D02*
X461500Y579998D01*
X416501Y614998D02*
X421501Y619998D01*
X411500Y609998D02*
X416501Y614998D01*
X416500Y594998D02*
X421500Y599998D01*
X411500Y589998D02*
X416500Y594998D01*
X451500Y629998D02*
X456500Y634998D01*
X461500Y619998D02*
Y619998D01*
X456501Y624998D02*
X461500Y619998D01*
Y599998D02*
Y599998D01*
X456501Y604998D02*
X461500Y599998D01*
X446500Y574998D02*
X451500Y569998D01*
X451500D01*
X461500D02*
X461500D01*
X647100Y151998D02*
X654500D01*
X654500Y151998D01*
X647000Y172998D02*
X654500D01*
X734050Y195848D02*
X742350D01*
X742500Y195998D01*
X742319Y175817D02*
X742500Y175998D01*
X734150Y175817D02*
X742319D01*
X501500Y529998D02*
X506500Y524998D01*
X501500Y529998D02*
Y529998D01*
X173251Y345457D02*
X173503Y345708D01*
X179160D01*
X114710D02*
X124591D01*
X114000Y344998D02*
X114710Y345708D01*
X246000Y326998D02*
X246500Y327498D01*
X239000Y326998D02*
X246000D01*
X239000Y341998D02*
Y342248D01*
X239250Y342498D01*
X246500D01*
X431500Y639998D02*
X431501D01*
X361500Y529998D02*
X371501D01*
X416501Y634998D02*
X421501Y639998D01*
X436500Y574998D02*
X441500Y579998D01*
X436500Y574998D02*
Y574998D01*
X431500Y579998D02*
X431501D01*
X426500Y584998D02*
X431500Y579998D01*
Y569998D02*
X431501D01*
X426500Y574998D02*
X431500Y569998D01*
X416500Y574998D02*
X421501Y579998D01*
X406500Y574998D02*
X411500Y579998D01*
X411500Y569998D02*
X411500D01*
X406500Y564998D02*
X411500Y569998D01*
X421500Y674998D02*
X421501Y674998D01*
Y659998D02*
Y674998D01*
X732530Y683528D02*
X734000Y684998D01*
X726030Y683528D02*
X732530D01*
X732850Y703848D02*
X734000Y704998D01*
X726030Y703848D02*
X732850D01*
X726030Y724168D02*
Y724748D01*
X726280Y724998D01*
X734000D01*
X551390Y769888D02*
X551500Y769998D01*
X544820Y769888D02*
X551390D01*
X544820Y749568D02*
Y749748D01*
X545070Y749998D01*
X551500D01*
X538000Y74498D02*
X538251Y74248D01*
X531000Y74498D02*
X538000D01*
X654050Y99448D02*
X654500Y98998D01*
X647100Y99448D02*
X654050D01*
X718906Y123987D02*
Y134253D01*
Y113722D02*
Y123987D01*
X711500Y123998D02*
X711511Y123987D01*
X718906D01*
X647100Y99448D02*
Y109898D01*
Y88998D02*
Y99448D01*
X531000Y74498D02*
Y84998D01*
Y63998D02*
Y74498D01*
X221500Y192998D02*
X221570Y193068D01*
X241831D01*
X222500Y164998D02*
X222530Y164968D01*
X241831D01*
X406500Y534998D02*
X411500Y539998D01*
X647000Y109998D02*
X647100Y109898D01*
X501500Y659998D02*
X506500Y664998D01*
X491500Y599998D02*
X492000D01*
X496500Y595498D01*
X481501Y599998D02*
X482001D01*
X486500Y595498D01*
X451500Y539998D02*
X456500Y544998D01*
X491500Y639998D02*
X496500Y634998D01*
X491500Y639998D02*
Y639998D01*
X396501Y554998D02*
X401500Y559998D01*
Y649998D02*
X406500Y644998D01*
X386500Y614998D02*
X391500Y619998D01*
X361500D02*
X371501D01*
X376665Y535163D02*
X381501Y539998D01*
X376225Y535163D02*
X376665D01*
X446500Y644998D02*
X451500Y639998D01*
X451500D01*
X471501Y629998D02*
X476500Y624998D01*
X471501Y629998D02*
Y629998D01*
X507000Y102498D02*
X551500Y146998D01*
X434000Y102498D02*
X507000D01*
X551500Y146998D02*
Y156208D01*
X436500Y554998D02*
X441500Y559998D01*
X371501Y569998D02*
X376500Y564998D01*
X431500Y90998D02*
Y99998D01*
X434000Y102498D01*
X551500Y156208D02*
X551770Y156478D01*
X386500Y534998D02*
X391500Y539998D01*
X431501Y619998D02*
X436500Y624998D01*
X456500Y554998D02*
X461500Y559998D01*
X461500D01*
X406501Y634998D02*
X411500Y629998D01*
X406500Y634998D02*
X406501D01*
X481501Y539998D02*
X486500Y534998D01*
X481501Y539998D02*
Y539998D01*
X491500Y539998D02*
X496500Y534998D01*
X491500Y539998D02*
Y539998D01*
X496500Y564998D02*
X501500Y569998D01*
X501500D01*
X486500Y564998D02*
X491500Y569998D01*
X391500Y539998D02*
Y539998D01*
X381501Y569998D02*
X386500Y564998D01*
Y594998D02*
X391500Y599998D01*
X376500Y594998D02*
X376501D01*
X381501Y599998D01*
X441500Y629998D02*
X446500Y624998D01*
X436500D02*
X441500Y629998D01*
X446500Y624998D02*
X451500Y619998D01*
X416500Y554998D02*
X421500Y559998D01*
X421501D01*
X436500Y564998D02*
X441500Y569998D01*
X416500Y564998D02*
X421500Y569998D01*
X421501D01*
X471501Y559998D02*
X476500Y554998D01*
X461500Y589998D02*
X461500D01*
X436500Y614998D02*
X441500Y619998D01*
X446500Y604998D02*
X451500Y609998D01*
X451500D01*
X446500Y594998D02*
X451500Y599998D01*
X451500D01*
X446500Y584998D02*
X451500Y579998D01*
X451500D01*
X406500Y584998D02*
X411500Y589998D01*
X406500Y604998D02*
X411500Y609998D01*
X411500D01*
X406500Y624998D02*
X406501D01*
X411500Y619998D01*
X406500Y594998D02*
X411500Y599998D01*
X411500D01*
X441500Y629998D02*
Y629998D01*
X421500Y599998D02*
X421501D01*
X241831Y164968D02*
X241831Y164969D01*
Y193068D01*
X241831Y164968D02*
X252861Y153938D01*
Y137108D02*
Y153938D01*
X532220Y157528D02*
X533270Y156478D01*
X532220Y157528D02*
Y179338D01*
D73*
X654533Y234198D02*
X669286D01*
X650033Y231698D02*
Y241466D01*
X649000Y242498D02*
X650033Y241466D01*
X669286Y234198D02*
X669704Y234616D01*
X671118D01*
X671500Y234998D01*
X433750Y137233D02*
Y269935D01*
X309681Y277078D02*
X420243D01*
X422000Y113998D02*
Y129984D01*
X441000Y113998D02*
Y129984D01*
X422107Y281578D02*
X433750Y269935D01*
X420243Y277078D02*
X429250Y268071D01*
X433750Y137233D02*
X441000Y129984D01*
X429250Y137234D02*
Y268071D01*
X311544Y281578D02*
X422107D01*
X422000Y129984D02*
X429250Y137234D01*
X205110Y277078D02*
X205110Y277078D01*
X311544Y281578D02*
X311544Y281578D01*
X202610Y281578D02*
X311544D01*
X205110Y277078D02*
X309681D01*
X202610Y277078D02*
X205110D01*
X309681Y277078D02*
X309681Y277078D01*
X202360Y276828D02*
X202610Y277078D01*
X202360Y281828D02*
X202610Y281578D01*
X516000Y84998D02*
X516500Y85498D01*
Y92498D01*
X525000Y100998D02*
X611500D01*
X516500Y92498D02*
X525000Y100998D01*
X733906Y44506D02*
Y72658D01*
X605900Y42748D02*
X732149D01*
X733906Y44506D01*
X506500Y47218D02*
Y83241D01*
X508258Y84998D02*
X516000D01*
X506500Y83241D02*
X508258Y84998D01*
X526160Y26558D02*
X527160D01*
X524660Y28058D02*
X526160Y26558D01*
X524660Y28058D02*
Y29058D01*
X506500Y47218D02*
X524660Y29058D01*
X516000Y53908D02*
Y63998D01*
Y53908D02*
X524660Y45248D01*
Y44248D02*
Y45248D01*
Y44248D02*
X526160Y42748D01*
X527160D01*
X529700Y574428D02*
X545000D01*
X548750Y570678D01*
X491500Y589998D02*
X501500D01*
X481501D02*
X491500D01*
X529130D02*
X529700Y589428D01*
X501500Y589998D02*
X529130D01*
X64700Y156798D02*
X90280Y131218D01*
X53450Y156798D02*
X64700D01*
X90280Y127148D02*
Y131218D01*
X53450Y196798D02*
X63300D01*
X85090Y218588D02*
X91550D01*
X63300Y196798D02*
X85090Y218588D01*
X427051Y81498D02*
X429001D01*
X425000Y83549D02*
X427051Y81498D01*
X435950D02*
X438000Y83549D01*
Y87998D02*
X441000Y90998D01*
X435500Y46998D02*
Y81498D01*
X422000Y90998D02*
X425000Y87998D01*
X429001Y46998D02*
Y81498D01*
X435500D02*
X435950D01*
X438000Y83549D02*
Y87998D01*
X425000Y83549D02*
Y87998D01*
X733906Y72658D02*
Y93190D01*
Y108190D02*
Y113722D01*
X718906Y93190D02*
X733906Y108190D01*
X718906Y72658D02*
Y93190D01*
X733906Y113722D02*
Y134253D01*
D74*
X421501Y639998D02*
X431501Y629998D01*
X548750Y593178D02*
X552951Y597378D01*
Y606868D01*
X554565Y608483D01*
X554628D01*
X574553Y216698D02*
Y219998D01*
Y214998D02*
Y216698D01*
Y214998D02*
X579553Y209998D01*
X586500D01*
X574553Y219998D02*
X579553Y224998D01*
X586500D01*
X516500Y218198D02*
Y227498D01*
Y218198D02*
X517260Y217438D01*
X509000Y199998D02*
X510610Y198388D01*
X517260D01*
X509931Y179338D02*
X517020D01*
X509271Y179998D02*
X509931Y179338D01*
X509000Y179998D02*
X509271D01*
X524620Y472948D02*
X535780D01*
X536230Y472498D01*
X536501D01*
D75*
X157936Y496998D02*
X178000D01*
X128228Y526707D02*
X157936Y496998D01*
X157295Y739498D02*
X178000D01*
X128228Y768565D02*
X157295Y739498D01*
X141395Y729998D02*
X178000D01*
X128228Y743165D02*
X141395Y729998D01*
X177405Y719903D02*
X178000Y720498D01*
X130366Y719903D02*
X177405D01*
X128228Y717765D02*
X130366Y719903D01*
X128228Y692365D02*
X129595Y690998D01*
X195500D01*
X205000Y700498D01*
Y720498D01*
X128228Y450507D02*
X188009D01*
X201905Y464403D02*
Y477403D01*
X188009Y450507D02*
X201905Y464403D01*
Y477403D02*
X202500Y477998D01*
X205000D01*
X177405Y477403D02*
X178000Y477998D01*
X129725Y477403D02*
X177405D01*
X128228Y475907D02*
X129725Y477403D01*
X142036Y487498D02*
X178000D01*
X128228Y501307D02*
X142036Y487498D01*
D76*
X574150Y570678D02*
Y593178D01*
D77*
X357560Y27058D02*
X358250Y26368D01*
X341740Y27058D02*
X357560D01*
X308030D02*
X308720Y26368D01*
X287130Y27058D02*
X308030D01*
D78*
X399751Y14998D02*
D03*
X471250D02*
D03*
D79*
X115920Y906728D02*
D03*
Y886728D02*
D03*
Y866728D02*
D03*
X53450Y196798D02*
D03*
Y176798D02*
D03*
Y156798D02*
D03*
X731870Y906728D02*
D03*
Y886728D02*
D03*
Y866728D02*
D03*
X643877Y906728D02*
D03*
Y886728D02*
D03*
Y866728D02*
D03*
X555885Y906728D02*
D03*
Y886728D02*
D03*
Y866728D02*
D03*
X467892Y906728D02*
D03*
Y886728D02*
D03*
Y866728D02*
D03*
X379899Y906728D02*
D03*
Y886728D02*
D03*
Y866728D02*
D03*
X291906Y906728D02*
D03*
Y886728D02*
D03*
Y866728D02*
D03*
X203913Y906728D02*
D03*
Y886728D02*
D03*
Y866728D02*
D03*
D80*
X40000Y39998D02*
D03*
Y959998D02*
D03*
X795000Y39998D02*
D03*
Y959998D02*
D03*
D81*
X102828Y526707D02*
D03*
Y501307D02*
D03*
Y475907D02*
D03*
Y450507D02*
D03*
Y425107D02*
D03*
Y399707D02*
D03*
X128228Y526707D02*
D03*
Y501307D02*
D03*
Y475907D02*
D03*
Y450507D02*
D03*
Y425107D02*
D03*
X102828Y768565D02*
D03*
Y743165D02*
D03*
Y717765D02*
D03*
Y692365D02*
D03*
Y666965D02*
D03*
Y641565D02*
D03*
X128228Y768565D02*
D03*
Y743165D02*
D03*
Y717765D02*
D03*
Y692365D02*
D03*
Y666965D02*
D03*
D82*
Y399707D02*
D03*
Y641565D02*
D03*
D83*
X115920Y927728D02*
D03*
Y845728D02*
D03*
X53450Y217798D02*
D03*
Y135798D02*
D03*
X731870Y927728D02*
D03*
Y845728D02*
D03*
X643877Y927728D02*
D03*
Y845728D02*
D03*
X555885Y927728D02*
D03*
Y845728D02*
D03*
X467892Y927728D02*
D03*
Y845728D02*
D03*
X379899Y927728D02*
D03*
Y845728D02*
D03*
X291906Y927728D02*
D03*
Y845728D02*
D03*
X203913Y927728D02*
D03*
Y845728D02*
D03*
D84*
X650033Y216698D02*
D03*
X816501Y904999D02*
D03*
X826501Y884999D02*
D03*
X816501Y864999D02*
D03*
X826501Y844999D02*
D03*
X816501Y824999D02*
D03*
X826501Y804999D02*
D03*
X816501Y784999D02*
D03*
X826501Y764999D02*
D03*
X816501Y744999D02*
D03*
X826501Y724999D02*
D03*
Y644999D02*
D03*
X816501Y624999D02*
D03*
X826501Y604999D02*
D03*
X816501Y584999D02*
D03*
X826501Y564999D02*
D03*
X816501Y544999D02*
D03*
X826501Y524999D02*
D03*
X816501Y504999D02*
D03*
X826501Y484999D02*
D03*
X816501Y464999D02*
D03*
X826501Y444999D02*
D03*
X816501Y424999D02*
D03*
X826501Y404999D02*
D03*
X816501Y384999D02*
D03*
X826501Y364999D02*
D03*
X816501Y344999D02*
D03*
X826501Y324999D02*
D03*
X816501Y304999D02*
D03*
X826501Y284999D02*
D03*
X816501Y264999D02*
D03*
X826501Y244999D02*
D03*
X816501Y224999D02*
D03*
X826501Y204998D02*
D03*
X816501Y184998D02*
D03*
X826501Y164998D02*
D03*
X816501Y144999D02*
D03*
X826501Y124999D02*
D03*
X816501Y104999D02*
D03*
X826501Y84999D02*
D03*
X806501Y884999D02*
D03*
X796501Y864999D02*
D03*
X806501Y844999D02*
D03*
X796501Y824999D02*
D03*
X806501Y804999D02*
D03*
X796501Y784999D02*
D03*
X806501Y764999D02*
D03*
X796501Y744999D02*
D03*
X806501Y724999D02*
D03*
X796501Y704999D02*
D03*
Y664999D02*
D03*
Y624999D02*
D03*
X806501Y604999D02*
D03*
X796501Y584999D02*
D03*
X806501Y564999D02*
D03*
X796501Y544999D02*
D03*
X806501Y524999D02*
D03*
X796501Y504999D02*
D03*
X806501Y484999D02*
D03*
X796501Y464999D02*
D03*
X806501Y444999D02*
D03*
X796501Y424999D02*
D03*
X806501Y404999D02*
D03*
X796501Y384999D02*
D03*
X806501Y364999D02*
D03*
X796501Y344999D02*
D03*
X806501Y324999D02*
D03*
X796501Y304999D02*
D03*
X806501Y284999D02*
D03*
X796501Y264999D02*
D03*
X806501Y244999D02*
D03*
X796501Y224999D02*
D03*
X806501Y204998D02*
D03*
X796501Y184998D02*
D03*
X806501Y164998D02*
D03*
X796501Y144999D02*
D03*
X806501Y124999D02*
D03*
X796501Y104999D02*
D03*
X786501Y884999D02*
D03*
X776501Y864999D02*
D03*
X786501Y844999D02*
D03*
X776501Y824999D02*
D03*
X786501Y804999D02*
D03*
X776501Y784999D02*
D03*
X786501Y764999D02*
D03*
X776501Y744999D02*
D03*
X786501Y724999D02*
D03*
Y684999D02*
D03*
Y644999D02*
D03*
Y604999D02*
D03*
Y564999D02*
D03*
X776501Y544999D02*
D03*
X786501Y524999D02*
D03*
X776501Y504999D02*
D03*
X786501Y484999D02*
D03*
X776501Y464999D02*
D03*
Y424999D02*
D03*
Y264999D02*
D03*
Y224999D02*
D03*
Y184998D02*
D03*
Y144999D02*
D03*
X786501Y124999D02*
D03*
X776501Y104999D02*
D03*
X756501Y904999D02*
D03*
X766501Y884999D02*
D03*
X756501Y864999D02*
D03*
X766501Y844999D02*
D03*
X756501Y824999D02*
D03*
X766501Y804999D02*
D03*
X756501Y784999D02*
D03*
X766501Y764999D02*
D03*
X756501Y744999D02*
D03*
Y704999D02*
D03*
Y664999D02*
D03*
Y624999D02*
D03*
Y584999D02*
D03*
X766501Y524999D02*
D03*
X756501Y504999D02*
D03*
X766501Y484999D02*
D03*
X756501Y464999D02*
D03*
X766501Y444999D02*
D03*
X756501Y184998D02*
D03*
X766501Y164998D02*
D03*
X756501Y144999D02*
D03*
X766501Y124999D02*
D03*
X756501Y104999D02*
D03*
X766501Y84999D02*
D03*
X736501Y944999D02*
D03*
X746501Y884999D02*
D03*
X736501Y824999D02*
D03*
X746501Y804999D02*
D03*
X736501Y784999D02*
D03*
X746501Y764999D02*
D03*
Y724999D02*
D03*
Y684999D02*
D03*
X736501Y664999D02*
D03*
X746501Y644999D02*
D03*
X736501Y624999D02*
D03*
X746501Y604999D02*
D03*
X736501Y584999D02*
D03*
X746501Y564999D02*
D03*
Y524999D02*
D03*
X736501Y504999D02*
D03*
X746501Y484999D02*
D03*
X736501Y464999D02*
D03*
X746501Y204998D02*
D03*
Y124999D02*
D03*
Y84999D02*
D03*
X736501Y24999D02*
D03*
X716501Y944999D02*
D03*
Y864999D02*
D03*
Y824999D02*
D03*
X726501Y804999D02*
D03*
X716501Y784999D02*
D03*
Y744999D02*
D03*
Y664999D02*
D03*
X726501Y644999D02*
D03*
X716501Y624999D02*
D03*
X726501Y604999D02*
D03*
X716501Y584999D02*
D03*
X726501Y564999D02*
D03*
Y524999D02*
D03*
X716501Y504999D02*
D03*
X726501Y484999D02*
D03*
X716501Y464999D02*
D03*
Y24999D02*
D03*
X696501Y944999D02*
D03*
X706501Y924999D02*
D03*
X696501Y864999D02*
D03*
X706501Y844999D02*
D03*
Y804999D02*
D03*
Y764999D02*
D03*
Y644999D02*
D03*
X696501Y624999D02*
D03*
X706501Y604999D02*
D03*
X696501Y584999D02*
D03*
X706501Y564999D02*
D03*
Y524999D02*
D03*
X696501Y504999D02*
D03*
X706501Y484999D02*
D03*
X696501Y464999D02*
D03*
X706501Y444999D02*
D03*
X696501Y424999D02*
D03*
X706501Y204998D02*
D03*
X696501Y184998D02*
D03*
X706501Y164998D02*
D03*
X696501Y144999D02*
D03*
Y104999D02*
D03*
X706501Y84999D02*
D03*
X696501Y64998D02*
D03*
Y24999D02*
D03*
X686501Y964999D02*
D03*
X676501Y944999D02*
D03*
Y904999D02*
D03*
X686501Y884999D02*
D03*
X676501Y784999D02*
D03*
X686501Y764999D02*
D03*
X676501Y624999D02*
D03*
X686501Y604999D02*
D03*
X676501Y584999D02*
D03*
X686501Y564999D02*
D03*
Y524999D02*
D03*
X676501Y504999D02*
D03*
X686501Y484999D02*
D03*
X676501Y464999D02*
D03*
X686501Y444999D02*
D03*
Y284999D02*
D03*
Y244999D02*
D03*
Y204998D02*
D03*
X676501Y184998D02*
D03*
X686501Y164998D02*
D03*
X676501Y144999D02*
D03*
X686501Y124999D02*
D03*
X676501Y104999D02*
D03*
X686501Y84999D02*
D03*
X676501Y64998D02*
D03*
Y24999D02*
D03*
X656501Y944999D02*
D03*
X666501Y924999D02*
D03*
Y884999D02*
D03*
Y844999D02*
D03*
X656501Y824999D02*
D03*
X666501Y804999D02*
D03*
X656501Y784999D02*
D03*
X666501Y764999D02*
D03*
X656501Y704999D02*
D03*
X666501Y684999D02*
D03*
X656501Y624999D02*
D03*
X666501Y604999D02*
D03*
X656501Y584999D02*
D03*
X666501Y564999D02*
D03*
Y524999D02*
D03*
X656501Y504999D02*
D03*
X666501Y484999D02*
D03*
X656501Y464999D02*
D03*
X666501Y164998D02*
D03*
Y124999D02*
D03*
Y84999D02*
D03*
X656501Y24999D02*
D03*
X636501Y944999D02*
D03*
Y824999D02*
D03*
X646501Y804999D02*
D03*
X636501Y784999D02*
D03*
X646501Y764999D02*
D03*
X636501Y624999D02*
D03*
X646501Y604999D02*
D03*
X636501Y584999D02*
D03*
X646501Y564999D02*
D03*
Y524999D02*
D03*
X636501Y504999D02*
D03*
X646501Y484999D02*
D03*
X636501Y464999D02*
D03*
Y24999D02*
D03*
X626501Y964999D02*
D03*
X616501Y944999D02*
D03*
X626501Y924999D02*
D03*
X616501Y904999D02*
D03*
Y864999D02*
D03*
X626501Y844999D02*
D03*
X616501Y824999D02*
D03*
X626501Y804999D02*
D03*
X616501Y784999D02*
D03*
X626501Y764999D02*
D03*
X616501Y624999D02*
D03*
X626501Y604999D02*
D03*
X616501Y584999D02*
D03*
X626501Y564999D02*
D03*
Y524999D02*
D03*
X616501Y504999D02*
D03*
X626501Y484999D02*
D03*
X616501Y464999D02*
D03*
X626501Y444999D02*
D03*
X616501Y264999D02*
D03*
Y64998D02*
D03*
X606501Y884999D02*
D03*
Y604999D02*
D03*
X596501Y584999D02*
D03*
X606501Y564999D02*
D03*
Y524999D02*
D03*
X596501Y504999D02*
D03*
X606501Y484999D02*
D03*
X596501Y464999D02*
D03*
X606501Y444999D02*
D03*
Y124999D02*
D03*
Y84999D02*
D03*
X596501Y64998D02*
D03*
X586501Y964999D02*
D03*
X576501Y944999D02*
D03*
X586501Y924999D02*
D03*
X576501Y904999D02*
D03*
Y864999D02*
D03*
Y824999D02*
D03*
Y784999D02*
D03*
Y704999D02*
D03*
Y624999D02*
D03*
X586501Y564999D02*
D03*
Y524999D02*
D03*
X576501Y504999D02*
D03*
X586501Y484999D02*
D03*
X576501Y464999D02*
D03*
X586501Y124999D02*
D03*
Y84999D02*
D03*
X576501Y64998D02*
D03*
X586501Y44998D02*
D03*
X576501Y24999D02*
D03*
X556501Y944999D02*
D03*
Y824999D02*
D03*
X566501Y804999D02*
D03*
X556501Y784999D02*
D03*
X566501Y764999D02*
D03*
Y524999D02*
D03*
X556501Y504999D02*
D03*
X566501Y484999D02*
D03*
X556501Y464999D02*
D03*
X566501Y124999D02*
D03*
Y84999D02*
D03*
X556501Y64998D02*
D03*
X566501Y44998D02*
D03*
X556501Y24999D02*
D03*
X536501Y944999D02*
D03*
Y864999D02*
D03*
Y824999D02*
D03*
X546501Y804999D02*
D03*
X536501Y784999D02*
D03*
Y624999D02*
D03*
X546501Y524999D02*
D03*
X536501Y504999D02*
D03*
X546501Y484999D02*
D03*
Y444999D02*
D03*
X536501Y264999D02*
D03*
X546501Y124999D02*
D03*
Y84999D02*
D03*
Y44998D02*
D03*
X526501Y924999D02*
D03*
Y844999D02*
D03*
Y804999D02*
D03*
X516501Y784999D02*
D03*
X526501Y444999D02*
D03*
X516501Y424999D02*
D03*
X526501Y404999D02*
D03*
X516501Y384999D02*
D03*
X526501Y364999D02*
D03*
X516501Y344999D02*
D03*
X526501Y324999D02*
D03*
Y284999D02*
D03*
X516501Y264999D02*
D03*
X526501Y244999D02*
D03*
X516501Y24999D02*
D03*
X506501Y964999D02*
D03*
X496501Y944999D02*
D03*
Y904999D02*
D03*
X506501Y884999D02*
D03*
X496501Y784999D02*
D03*
X506501Y764999D02*
D03*
Y724999D02*
D03*
X496501Y424999D02*
D03*
X506501Y404999D02*
D03*
X496501Y384999D02*
D03*
X506501Y364999D02*
D03*
X496501Y344999D02*
D03*
X506501Y324999D02*
D03*
Y284999D02*
D03*
X496501Y264999D02*
D03*
X506501Y244999D02*
D03*
X496501Y224999D02*
D03*
Y184998D02*
D03*
Y64998D02*
D03*
Y24999D02*
D03*
X476501Y944999D02*
D03*
X486501Y924999D02*
D03*
Y884999D02*
D03*
Y844999D02*
D03*
X476501Y824999D02*
D03*
Y784999D02*
D03*
X486501Y764999D02*
D03*
X476501Y744999D02*
D03*
X486501Y724999D02*
D03*
Y684999D02*
D03*
X476501Y424999D02*
D03*
X486501Y404999D02*
D03*
X476501Y384999D02*
D03*
X486501Y364999D02*
D03*
X476501Y344999D02*
D03*
X486501Y324999D02*
D03*
Y284999D02*
D03*
X476501Y264999D02*
D03*
X486501Y244999D02*
D03*
X476501Y224999D02*
D03*
X486501Y204998D02*
D03*
X476501Y184998D02*
D03*
X486501Y84999D02*
D03*
X476501Y64998D02*
D03*
X486501Y44998D02*
D03*
X456501Y944999D02*
D03*
Y824999D02*
D03*
X466501Y764999D02*
D03*
X456501Y744999D02*
D03*
X466501Y724999D02*
D03*
Y684999D02*
D03*
X456501Y424999D02*
D03*
X466501Y404999D02*
D03*
X456501Y384999D02*
D03*
X466501Y364999D02*
D03*
X456501Y344999D02*
D03*
X466501Y324999D02*
D03*
Y284999D02*
D03*
X456501Y264999D02*
D03*
X466501Y244999D02*
D03*
X456501Y224999D02*
D03*
X466501Y204998D02*
D03*
X456501Y184998D02*
D03*
X466501Y84999D02*
D03*
X456501Y64998D02*
D03*
X446501Y964999D02*
D03*
X436501Y944999D02*
D03*
X446501Y924999D02*
D03*
X436501Y904999D02*
D03*
Y864999D02*
D03*
X446501Y844999D02*
D03*
X436501Y824999D02*
D03*
X446501Y804999D02*
D03*
X436501Y784999D02*
D03*
X446501Y764999D02*
D03*
X436501Y744999D02*
D03*
X446501Y724999D02*
D03*
X436501Y424999D02*
D03*
X446501Y404999D02*
D03*
X436501Y384999D02*
D03*
X446501Y364999D02*
D03*
X436501Y344999D02*
D03*
X446501Y324999D02*
D03*
Y284999D02*
D03*
Y244999D02*
D03*
Y204998D02*
D03*
X416501Y944999D02*
D03*
X426501Y884999D02*
D03*
X416501Y784999D02*
D03*
X426501Y364999D02*
D03*
X416501Y344999D02*
D03*
X426501Y324999D02*
D03*
X416501Y264999D02*
D03*
Y224999D02*
D03*
Y184998D02*
D03*
X406501Y964999D02*
D03*
X396501Y944999D02*
D03*
X406501Y924999D02*
D03*
X396501Y864999D02*
D03*
Y824999D02*
D03*
Y424999D02*
D03*
X406501Y404999D02*
D03*
Y364999D02*
D03*
X396501Y344999D02*
D03*
X406501Y324999D02*
D03*
X396501Y264999D02*
D03*
X406501Y244999D02*
D03*
X396501Y224999D02*
D03*
X406501Y204998D02*
D03*
X396501Y184998D02*
D03*
X376501Y944999D02*
D03*
Y824999D02*
D03*
X386501Y804999D02*
D03*
Y364999D02*
D03*
X376501Y344999D02*
D03*
X386501Y324999D02*
D03*
X376501Y264999D02*
D03*
X386501Y244999D02*
D03*
X376501Y224999D02*
D03*
X386501Y204998D02*
D03*
X376501Y184998D02*
D03*
X356501Y944999D02*
D03*
Y904999D02*
D03*
Y864999D02*
D03*
Y824999D02*
D03*
X366501Y804999D02*
D03*
X356501Y744999D02*
D03*
Y544999D02*
D03*
Y344999D02*
D03*
X366501Y324999D02*
D03*
X356501Y264999D02*
D03*
X366501Y244999D02*
D03*
X356501Y224999D02*
D03*
X366501Y204998D02*
D03*
X356501Y184998D02*
D03*
X366501Y164998D02*
D03*
X356501Y144999D02*
D03*
Y104999D02*
D03*
Y64998D02*
D03*
X346501Y924999D02*
D03*
Y844999D02*
D03*
Y804999D02*
D03*
X336501Y744999D02*
D03*
X346501Y644999D02*
D03*
X336501Y624999D02*
D03*
Y544999D02*
D03*
X346501Y524999D02*
D03*
X336501Y344999D02*
D03*
X346501Y324999D02*
D03*
X336501Y264999D02*
D03*
X346501Y244999D02*
D03*
X336501Y224999D02*
D03*
X346501Y204998D02*
D03*
X336501Y184998D02*
D03*
X346501Y164998D02*
D03*
X336501Y144999D02*
D03*
X346501Y124999D02*
D03*
X336501Y104999D02*
D03*
X346501Y84999D02*
D03*
X326501Y964999D02*
D03*
X316501Y944999D02*
D03*
Y904999D02*
D03*
Y864999D02*
D03*
Y824999D02*
D03*
Y784999D02*
D03*
X326501Y524999D02*
D03*
X316501Y344999D02*
D03*
X326501Y324999D02*
D03*
X316501Y264999D02*
D03*
X326501Y244999D02*
D03*
X316501Y224999D02*
D03*
X326501Y204998D02*
D03*
X316501Y184998D02*
D03*
X326501Y164998D02*
D03*
X316501Y144999D02*
D03*
X326501Y124999D02*
D03*
X316501Y104999D02*
D03*
X326501Y84999D02*
D03*
X296501Y944999D02*
D03*
X306501Y884999D02*
D03*
X296501Y824999D02*
D03*
X306501Y804999D02*
D03*
X296501Y784999D02*
D03*
X306501Y684999D02*
D03*
Y644999D02*
D03*
Y604999D02*
D03*
X296501Y584999D02*
D03*
X306501Y524999D02*
D03*
X296501Y344999D02*
D03*
X306501Y324999D02*
D03*
X296501Y264999D02*
D03*
X306501Y244999D02*
D03*
X296501Y224999D02*
D03*
X306501Y204998D02*
D03*
Y164998D02*
D03*
Y124999D02*
D03*
X296501Y104999D02*
D03*
X306501Y84999D02*
D03*
X276501Y944999D02*
D03*
Y864999D02*
D03*
Y824999D02*
D03*
X286501Y804999D02*
D03*
X276501Y704999D02*
D03*
Y664999D02*
D03*
X286501Y564999D02*
D03*
X276501Y504999D02*
D03*
Y464999D02*
D03*
Y424999D02*
D03*
Y344999D02*
D03*
X286501Y324999D02*
D03*
X276501Y264999D02*
D03*
X286501Y244999D02*
D03*
Y124999D02*
D03*
X276501Y104999D02*
D03*
X286501Y84999D02*
D03*
X276501Y24999D02*
D03*
X266501Y964999D02*
D03*
X256501Y944999D02*
D03*
X266501Y924999D02*
D03*
X256501Y864999D02*
D03*
X266501Y844999D02*
D03*
Y804999D02*
D03*
Y724999D02*
D03*
Y684999D02*
D03*
Y644999D02*
D03*
X256501Y624999D02*
D03*
Y584999D02*
D03*
X266501Y564999D02*
D03*
X256501Y504999D02*
D03*
Y464999D02*
D03*
Y344999D02*
D03*
X266501Y324999D02*
D03*
X256501Y264999D02*
D03*
X266501Y244999D02*
D03*
X256501Y104999D02*
D03*
X266501Y84999D02*
D03*
X256501Y24999D02*
D03*
X236501Y944999D02*
D03*
Y904999D02*
D03*
X246501Y884999D02*
D03*
X236501Y744999D02*
D03*
Y704999D02*
D03*
X246501Y604999D02*
D03*
X236501Y584999D02*
D03*
X246501Y564999D02*
D03*
X236501Y504999D02*
D03*
Y464999D02*
D03*
Y144999D02*
D03*
X246501Y124999D02*
D03*
X236501Y24999D02*
D03*
X216501Y944999D02*
D03*
X226501Y924999D02*
D03*
Y884999D02*
D03*
Y844999D02*
D03*
Y764999D02*
D03*
Y724999D02*
D03*
Y684999D02*
D03*
X216501Y664999D02*
D03*
Y624999D02*
D03*
X226501Y604999D02*
D03*
X216501Y584999D02*
D03*
X226501Y564999D02*
D03*
X216501Y464999D02*
D03*
Y184998D02*
D03*
Y144999D02*
D03*
X226501Y124999D02*
D03*
X216501Y24999D02*
D03*
X196501Y944999D02*
D03*
X206501Y604999D02*
D03*
X196501Y584999D02*
D03*
X206501Y564999D02*
D03*
X196501Y184998D02*
D03*
X206501Y164998D02*
D03*
X196501Y144999D02*
D03*
X206501Y124999D02*
D03*
X196501Y24999D02*
D03*
X186501Y964999D02*
D03*
X176501Y944999D02*
D03*
X186501Y924999D02*
D03*
X176501Y904999D02*
D03*
Y864999D02*
D03*
X186501Y844999D02*
D03*
Y604999D02*
D03*
X176501Y584999D02*
D03*
X186501Y564999D02*
D03*
X176501Y24999D02*
D03*
X166501Y884999D02*
D03*
X156501Y784999D02*
D03*
Y704999D02*
D03*
Y624999D02*
D03*
X166501Y604999D02*
D03*
X156501Y584999D02*
D03*
X166501Y564999D02*
D03*
X156501Y384999D02*
D03*
Y24999D02*
D03*
X146501Y964999D02*
D03*
X136501Y944999D02*
D03*
X146501Y924999D02*
D03*
X136501Y904999D02*
D03*
Y864999D02*
D03*
Y824999D02*
D03*
Y784999D02*
D03*
X146501Y764999D02*
D03*
Y604999D02*
D03*
X136501Y584999D02*
D03*
X146501Y564999D02*
D03*
X136501Y24999D02*
D03*
X116501Y944999D02*
D03*
Y824999D02*
D03*
Y784999D02*
D03*
X126501Y604999D02*
D03*
X116501Y584999D02*
D03*
X126501Y564999D02*
D03*
Y364999D02*
D03*
X116501Y184998D02*
D03*
X126501Y164998D02*
D03*
X116501Y144999D02*
D03*
X126501Y84999D02*
D03*
X116501Y64998D02*
D03*
Y24999D02*
D03*
X96501Y864999D02*
D03*
Y784999D02*
D03*
Y704999D02*
D03*
X106501Y604999D02*
D03*
X96501Y584999D02*
D03*
X106501Y564999D02*
D03*
X96501Y544999D02*
D03*
X106501Y364999D02*
D03*
X96501Y344999D02*
D03*
Y184998D02*
D03*
X106501Y164998D02*
D03*
X96501Y144999D02*
D03*
X106501Y84999D02*
D03*
X96501Y64998D02*
D03*
X106501Y44998D02*
D03*
X96501Y24999D02*
D03*
X86501Y924999D02*
D03*
X76501Y784999D02*
D03*
Y704999D02*
D03*
Y664999D02*
D03*
Y624999D02*
D03*
X86501Y604999D02*
D03*
X76501Y584999D02*
D03*
X86501Y564999D02*
D03*
X76501Y544999D02*
D03*
Y464999D02*
D03*
Y424999D02*
D03*
Y384999D02*
D03*
X86501Y364999D02*
D03*
X76501Y344999D02*
D03*
X86501Y324999D02*
D03*
X76501Y224999D02*
D03*
Y184998D02*
D03*
X86501Y164998D02*
D03*
Y84999D02*
D03*
X56501Y864999D02*
D03*
Y824999D02*
D03*
X66501Y804999D02*
D03*
X56501Y784999D02*
D03*
X66501Y764999D02*
D03*
Y684999D02*
D03*
X56501Y664999D02*
D03*
X66501Y644999D02*
D03*
X56501Y624999D02*
D03*
X66501Y604999D02*
D03*
X56501Y584999D02*
D03*
X66501Y564999D02*
D03*
X56501Y544999D02*
D03*
X66501Y524999D02*
D03*
Y444999D02*
D03*
X56501Y424999D02*
D03*
X66501Y404999D02*
D03*
X56501Y384999D02*
D03*
X66501Y364999D02*
D03*
X56501Y344999D02*
D03*
X66501Y324999D02*
D03*
X56501Y304999D02*
D03*
Y264999D02*
D03*
X66501Y164998D02*
D03*
Y124999D02*
D03*
X46501Y884999D02*
D03*
X36501Y864999D02*
D03*
X46501Y844999D02*
D03*
X36501Y824999D02*
D03*
X46501Y804999D02*
D03*
X36501Y784999D02*
D03*
X46501Y764999D02*
D03*
X36501Y704999D02*
D03*
X46501Y684999D02*
D03*
X36501Y664999D02*
D03*
X46501Y644999D02*
D03*
X36501Y624999D02*
D03*
X46501Y604999D02*
D03*
X36501Y584999D02*
D03*
X46501Y564999D02*
D03*
X36501Y544999D02*
D03*
X46501Y524999D02*
D03*
X36501Y464999D02*
D03*
X46501Y444999D02*
D03*
X36501Y424999D02*
D03*
X46501Y404999D02*
D03*
X36501Y384999D02*
D03*
X46501Y364999D02*
D03*
Y324999D02*
D03*
Y284999D02*
D03*
Y244999D02*
D03*
X36501Y144999D02*
D03*
X16501Y904999D02*
D03*
X26501Y884999D02*
D03*
X16501Y864999D02*
D03*
X26501Y844999D02*
D03*
X16501Y824999D02*
D03*
X26501Y804999D02*
D03*
X16501Y784999D02*
D03*
X26501Y764999D02*
D03*
X16501Y704999D02*
D03*
X26501Y684999D02*
D03*
X16501Y664999D02*
D03*
X26501Y644999D02*
D03*
X16501Y624999D02*
D03*
X26501Y604999D02*
D03*
X16501Y584999D02*
D03*
X26501Y564999D02*
D03*
X16501Y544999D02*
D03*
X26501Y524999D02*
D03*
X16501Y464999D02*
D03*
X26501Y444999D02*
D03*
X16501Y424999D02*
D03*
X26501Y404999D02*
D03*
X16501Y384999D02*
D03*
X26501Y364999D02*
D03*
X16501Y344999D02*
D03*
X26501Y324999D02*
D03*
X16501Y304999D02*
D03*
X26501Y284999D02*
D03*
X16501Y264999D02*
D03*
X26501Y244999D02*
D03*
X16501Y224999D02*
D03*
X26501Y204998D02*
D03*
X16501Y184998D02*
D03*
X26501Y164998D02*
D03*
X16501Y144999D02*
D03*
X26501Y124999D02*
D03*
X16501Y104999D02*
D03*
X517854Y640181D02*
D03*
X515000Y718411D02*
D03*
X471500Y667498D02*
D03*
X581500Y608998D02*
D03*
X72253Y897579D02*
D03*
X323438Y42100D02*
D03*
X269440Y42058D02*
D03*
X688140Y215948D02*
D03*
X675784Y217948D02*
D03*
X655533Y211198D02*
D03*
X644533D02*
D03*
Y222198D02*
D03*
X655533D02*
D03*
X624500Y214998D02*
D03*
X426500Y654998D02*
D03*
X466500Y634998D02*
D03*
X596500Y354998D02*
D03*
X386500Y644998D02*
D03*
X524001Y139998D02*
D03*
X449000Y159998D02*
D03*
Y139998D02*
D03*
X549001Y429998D02*
D03*
X594000D02*
D03*
X629000D02*
D03*
X674000D02*
D03*
X759000D02*
D03*
X714000D02*
D03*
X416500Y624998D02*
D03*
X426500Y614998D02*
D03*
X416500Y604998D02*
D03*
Y584998D02*
D03*
X436500Y644998D02*
D03*
X426500D02*
D03*
X456500Y654998D02*
D03*
X451500Y667498D02*
D03*
X105145Y826608D02*
D03*
X313750Y411248D02*
D03*
X456500Y614998D02*
D03*
Y594998D02*
D03*
Y574998D02*
D03*
X456501Y564998D02*
D03*
X459000Y499998D02*
D03*
X459001Y507499D02*
D03*
X444000Y499998D02*
D03*
X419000Y502498D02*
D03*
X467211Y524717D02*
D03*
X456500Y534998D02*
D03*
X466500D02*
D03*
X476500Y524998D02*
D03*
X486500Y504998D02*
D03*
X426500Y544998D02*
D03*
X436500D02*
D03*
X446500Y554998D02*
D03*
X491500Y514998D02*
D03*
X501500D02*
D03*
X436500Y534998D02*
D03*
X426500D02*
D03*
X586500Y814998D02*
D03*
X601500D02*
D03*
X174000Y824998D02*
D03*
X146500Y912498D02*
D03*
X396501Y644998D02*
D03*
X386500Y634998D02*
D03*
Y624998D02*
D03*
X516500Y609998D02*
D03*
X509000Y599998D02*
D03*
X431500Y729998D02*
D03*
X506500Y614998D02*
D03*
X376500Y634998D02*
D03*
X346500Y729998D02*
D03*
X788255Y134253D02*
D03*
X789000Y457498D02*
D03*
X456500Y634998D02*
D03*
X416500Y594998D02*
D03*
X446500Y574998D02*
D03*
X676500Y204998D02*
D03*
X660250Y192498D02*
D03*
X356500Y631748D02*
D03*
X399000Y389998D02*
D03*
X414000Y469821D02*
D03*
X536501Y472498D02*
D03*
X504000Y462998D02*
D03*
X484000D02*
D03*
X654500Y151998D02*
D03*
Y172998D02*
D03*
X742500Y195998D02*
D03*
Y175998D02*
D03*
X100500Y313998D02*
D03*
X208500Y203998D02*
D03*
X506500Y524998D02*
D03*
X356215Y572784D02*
D03*
X356500Y565998D02*
D03*
X173251Y345457D02*
D03*
X114000Y344998D02*
D03*
X246500Y342498D02*
D03*
X426501Y624998D02*
D03*
X416501Y634998D02*
D03*
X376500Y504998D02*
D03*
X416501Y544998D02*
D03*
X361500Y529998D02*
D03*
X416501Y614998D02*
D03*
X416500Y574998D02*
D03*
X426500Y584998D02*
D03*
Y574998D02*
D03*
X436500D02*
D03*
X406500D02*
D03*
Y564998D02*
D03*
X421500Y674998D02*
D03*
X734000Y684998D02*
D03*
Y704998D02*
D03*
Y724998D02*
D03*
X551500Y769998D02*
D03*
Y749998D02*
D03*
X191500Y259998D02*
D03*
Y282498D02*
D03*
X144000Y267498D02*
D03*
Y279998D02*
D03*
Y292498D02*
D03*
X156500Y267498D02*
D03*
Y279998D02*
D03*
Y292498D02*
D03*
Y302498D02*
D03*
X538251Y74248D02*
D03*
X654500Y98998D02*
D03*
X711500Y123998D02*
D03*
X356500Y638248D02*
D03*
Y601748D02*
D03*
Y608248D02*
D03*
Y583498D02*
D03*
Y589998D02*
D03*
X516501Y553248D02*
D03*
Y546748D02*
D03*
X29000Y499999D02*
D03*
Y484998D02*
D03*
X31500Y744998D02*
D03*
Y727498D02*
D03*
X221500Y192998D02*
D03*
X222500Y164998D02*
D03*
X198230Y230138D02*
D03*
X159500Y228998D02*
D03*
X127500Y224998D02*
D03*
X251500Y255616D02*
D03*
X240500Y313998D02*
D03*
X100500Y262998D02*
D03*
Y276828D02*
D03*
X102114Y301885D02*
D03*
X113500Y228998D02*
D03*
X150500Y370998D02*
D03*
X151500Y358998D02*
D03*
X122500Y316998D02*
D03*
X129500Y309498D02*
D03*
X406500Y534998D02*
D03*
X416500D02*
D03*
X76500Y112498D02*
D03*
X254000Y77498D02*
D03*
X231500D02*
D03*
X209000D02*
D03*
X176500Y34998D02*
D03*
X192500Y301578D02*
D03*
X626500Y304998D02*
D03*
X421500Y429998D02*
D03*
X546500Y354998D02*
D03*
X516500Y749998D02*
D03*
X506500Y664998D02*
D03*
X519000Y684998D02*
D03*
X486500Y595498D02*
D03*
X496500D02*
D03*
X456500Y544998D02*
D03*
X466500Y654998D02*
D03*
X476500D02*
D03*
X466500Y644998D02*
D03*
X496500Y634998D02*
D03*
X396501Y554998D02*
D03*
X406500Y644998D02*
D03*
X386500Y614998D02*
D03*
X361500Y619998D02*
D03*
X376225Y535163D02*
D03*
X446500Y644998D02*
D03*
X476500Y624998D02*
D03*
X206500Y49998D02*
D03*
Y64998D02*
D03*
X396501Y144998D02*
D03*
X376500Y64998D02*
D03*
X611500Y100998D02*
D03*
X436500Y554998D02*
D03*
X551500Y194998D02*
D03*
X626500Y404998D02*
D03*
X676500D02*
D03*
Y304998D02*
D03*
X376500Y564998D02*
D03*
X151500Y249998D02*
D03*
X141500D02*
D03*
X431500Y130998D02*
D03*
X671500Y234998D02*
D03*
X616500Y204998D02*
D03*
X551500Y214998D02*
D03*
Y174998D02*
D03*
X571500Y164998D02*
D03*
Y184998D02*
D03*
X591500Y164998D02*
D03*
Y184998D02*
D03*
X611500D02*
D03*
Y164998D02*
D03*
X466500Y159998D02*
D03*
X486500D02*
D03*
X506500D02*
D03*
Y139998D02*
D03*
X486500D02*
D03*
X466500D02*
D03*
X506500Y119998D02*
D03*
X486500D02*
D03*
X466500D02*
D03*
X396501Y44998D02*
D03*
X416500Y164998D02*
D03*
X376500Y44998D02*
D03*
X396501Y64998D02*
D03*
X376500Y104998D02*
D03*
X416500Y64998D02*
D03*
X396501Y84998D02*
D03*
Y124998D02*
D03*
Y104998D02*
D03*
X376500Y124998D02*
D03*
Y144998D02*
D03*
X416500D02*
D03*
X396501Y164998D02*
D03*
X376500Y84998D02*
D03*
X386500Y534998D02*
D03*
X456500Y554998D02*
D03*
X406500Y634998D02*
D03*
X386500Y564998D02*
D03*
Y594998D02*
D03*
X376500D02*
D03*
X486500Y564998D02*
D03*
X496500D02*
D03*
X486500Y534998D02*
D03*
X496500D02*
D03*
X436500Y624998D02*
D03*
X446500D02*
D03*
X476500Y554998D02*
D03*
X456501Y624998D02*
D03*
Y604998D02*
D03*
Y584998D02*
D03*
X436500Y614998D02*
D03*
X446500Y604998D02*
D03*
Y594998D02*
D03*
Y584998D02*
D03*
X416500Y554998D02*
D03*
X436500Y564998D02*
D03*
X416500D02*
D03*
X406500Y584998D02*
D03*
Y594998D02*
D03*
Y604998D02*
D03*
Y624998D02*
D03*
X761500Y379998D02*
D03*
Y354998D02*
D03*
X736500D02*
D03*
Y329998D02*
D03*
X761500Y404998D02*
D03*
Y329998D02*
D03*
Y304998D02*
D03*
X711500Y354998D02*
D03*
X736500Y379998D02*
D03*
X711500Y329998D02*
D03*
Y379998D02*
D03*
X626500D02*
D03*
X651500Y354998D02*
D03*
X676500Y329998D02*
D03*
Y379998D02*
D03*
X626500Y329998D02*
D03*
X651500D02*
D03*
X676500Y354998D02*
D03*
X626500D02*
D03*
X651500Y379998D02*
D03*
X571500Y354998D02*
D03*
X596500Y329998D02*
D03*
X571500D02*
D03*
X546500D02*
D03*
X571500Y379998D02*
D03*
X596500D02*
D03*
X546500D02*
D03*
D85*
X615000Y730000D02*
D03*
M02*
