G04*
G04 #@! TF.GenerationSoftware,Altium Limited,Altium Designer,20.2.4 (192)*
G04*
G04 Layer_Color=8388736*
%FSLAX44Y44*%
%MOMM*%
G71*
G04*
G04 #@! TF.SameCoordinates,1F703A16-312B-4BD4-8826-9FE52E5A98FB*
G04*
G04*
G04 #@! TF.FilePolarity,Negative*
G04*
G01*
G75*
%ADD15R,1.9532X2.1032*%
%ADD16R,0.6032X1.6032*%
%ADD17R,1.3532X1.6532*%
%ADD18R,0.8032X1.4032*%
%ADD19R,0.8532X1.9032*%
%ADD20O,0.8032X1.7032*%
%ADD21R,0.7532X1.1032*%
%ADD22O,1.0032X0.4032*%
%ADD23O,0.4032X1.0032*%
%ADD24R,1.8532X1.8532*%
%ADD25R,0.8032X1.0032*%
%ADD26R,2.3032X2.1032*%
%ADD27C,0.4000*%
G04:AMPARAMS|DCode=28|XSize=0.75mm|YSize=0.25mm|CornerRadius=0.125mm|HoleSize=0mm|Usage=FLASHONLY|Rotation=180.000|XOffset=0mm|YOffset=0mm|HoleType=Round|Shape=RoundedRectangle|*
%AMROUNDEDRECTD28*
21,1,0.7500,0.0000,0,0,180.0*
21,1,0.5000,0.2500,0,0,180.0*
1,1,0.2500,-0.2500,0.0000*
1,1,0.2500,0.2500,0.0000*
1,1,0.2500,0.2500,0.0000*
1,1,0.2500,-0.2500,0.0000*
%
%ADD28ROUNDEDRECTD28*%
G04:AMPARAMS|DCode=29|XSize=0.25mm|YSize=0.75mm|CornerRadius=0.125mm|HoleSize=0mm|Usage=FLASHONLY|Rotation=180.000|XOffset=0mm|YOffset=0mm|HoleType=Round|Shape=RoundedRectangle|*
%AMROUNDEDRECTD29*
21,1,0.2500,0.5000,0,0,180.0*
21,1,0.0000,0.7500,0,0,180.0*
1,1,0.2500,0.0000,0.2500*
1,1,0.2500,0.0000,0.2500*
1,1,0.2500,0.0000,-0.2500*
1,1,0.2500,0.0000,-0.2500*
%
%ADD29ROUNDEDRECTD29*%
%ADD30R,4.4500X4.4500*%
%ADD31C,2.0000*%
%ADD32R,2.8532X1.6032*%
%ADD33R,1.2532X1.6532*%
%ADD34R,0.8032X1.2032*%
%ADD35R,2.4032X2.2032*%
%ADD36R,1.4432X1.4932*%
%ADD37R,1.2032X0.8032*%
%ADD38R,1.0032X0.8032*%
%ADD39R,1.1032X0.7532*%
%ADD40R,1.6032X2.8532*%
%ADD41R,1.2032X0.7032*%
%ADD42O,1.2532X2.0532*%
%ADD43C,1.8032*%
%ADD44C,7.2000*%
%ADD45C,1.7032*%
%ADD46R,1.7032X1.7032*%
%ADD47C,2.2032*%
%ADD48C,0.7032*%
D15*
X424250Y14998D02*
D03*
X446750D02*
D03*
D16*
X435500Y42998D02*
D03*
X429001D02*
D03*
X422500D02*
D03*
X442001D02*
D03*
X448501D02*
D03*
D17*
X412300Y37298D02*
D03*
X458700D02*
D03*
D18*
X422000Y90998D02*
D03*
X431500D02*
D03*
X441000D02*
D03*
Y113998D02*
D03*
X431500D02*
D03*
X422000D02*
D03*
D19*
X690590Y726648D02*
D03*
X677890D02*
D03*
X665190D02*
D03*
X652490D02*
D03*
X690590Y655648D02*
D03*
X677890D02*
D03*
X665190D02*
D03*
X652490D02*
D03*
D20*
X137560Y51111D02*
D03*
X150260D02*
D03*
X162960D02*
D03*
X175660D02*
D03*
X137560Y105111D02*
D03*
X150260D02*
D03*
X162960D02*
D03*
X175660D02*
D03*
D21*
X529821Y749568D02*
D03*
X544820D02*
D03*
X726030Y683528D02*
D03*
X711030D02*
D03*
X529821Y727978D02*
D03*
X544820D02*
D03*
X529821Y644158D02*
D03*
X544820D02*
D03*
X733906Y134253D02*
D03*
X718906D02*
D03*
X733906Y93190D02*
D03*
X718906D02*
D03*
X529821Y686068D02*
D03*
X544820D02*
D03*
X726030Y724168D02*
D03*
X711030D02*
D03*
X529821Y707023D02*
D03*
X544820D02*
D03*
X529821Y665113D02*
D03*
X544820D02*
D03*
X726030Y703848D02*
D03*
X711030D02*
D03*
X239000Y341998D02*
D03*
X224000D02*
D03*
X239000Y326998D02*
D03*
X224000D02*
D03*
X223000Y238998D02*
D03*
X238000D02*
D03*
X238000Y222998D02*
D03*
X223000D02*
D03*
X632001Y130998D02*
D03*
X647001D02*
D03*
X632001Y67998D02*
D03*
X647001D02*
D03*
X734050Y154785D02*
D03*
X719051D02*
D03*
X632000Y172998D02*
D03*
X647000D02*
D03*
X719050Y195848D02*
D03*
X734050D02*
D03*
X632000Y109998D02*
D03*
X647000D02*
D03*
X531000Y63998D02*
D03*
X516000D02*
D03*
Y84998D02*
D03*
X531000D02*
D03*
X733906Y113722D02*
D03*
X718906D02*
D03*
X733906Y72658D02*
D03*
X718906D02*
D03*
X544820Y769888D02*
D03*
X529820D02*
D03*
D22*
X635033Y224698D02*
D03*
Y220698D02*
D03*
Y216698D02*
D03*
Y212698D02*
D03*
Y208698D02*
D03*
X665033D02*
D03*
Y212698D02*
D03*
Y216698D02*
D03*
Y220698D02*
D03*
Y224698D02*
D03*
D23*
X642033Y201698D02*
D03*
X646033D02*
D03*
X650033D02*
D03*
X654033D02*
D03*
X658033D02*
D03*
Y231698D02*
D03*
X654033D02*
D03*
X650033D02*
D03*
X646033D02*
D03*
X642033D02*
D03*
D24*
X650033Y216698D02*
D03*
D25*
X211913Y972894D02*
D03*
X195723D02*
D03*
X123920D02*
D03*
X107730D02*
D03*
X387899D02*
D03*
X371709D02*
D03*
X563885D02*
D03*
X547695D02*
D03*
X651878D02*
D03*
X635687D02*
D03*
X475892D02*
D03*
X459702D02*
D03*
X299906D02*
D03*
X283716D02*
D03*
X739870D02*
D03*
X723680D02*
D03*
D26*
X575146Y275648D02*
D03*
Y310148D02*
D03*
X651303Y275648D02*
D03*
Y310148D02*
D03*
X730230Y276268D02*
D03*
Y310768D02*
D03*
D27*
X381501Y659998D02*
D03*
X391500D02*
D03*
X401500D02*
D03*
X411500D02*
D03*
X381501Y649998D02*
D03*
X411500D02*
D03*
X421501D02*
D03*
X401500Y639998D02*
D03*
X391500Y629998D02*
D03*
X401500D02*
D03*
X501500Y609998D02*
D03*
Y599998D02*
D03*
Y539998D02*
D03*
X391500Y649998D02*
D03*
Y639998D02*
D03*
X501500Y579998D02*
D03*
X371501Y659998D02*
D03*
X421501D02*
D03*
X431501D02*
D03*
X441500D02*
D03*
X451500D02*
D03*
X461500D02*
D03*
X471501D02*
D03*
X481501D02*
D03*
X491500D02*
D03*
X501500D02*
D03*
X371501Y649998D02*
D03*
X401500D02*
D03*
X431501D02*
D03*
X441500D02*
D03*
X451500D02*
D03*
X461500D02*
D03*
X471501D02*
D03*
X481501D02*
D03*
X491500D02*
D03*
X501500D02*
D03*
X371501Y639998D02*
D03*
X381501D02*
D03*
X411500D02*
D03*
X421501D02*
D03*
X431501D02*
D03*
X441500D02*
D03*
X451500D02*
D03*
X461500D02*
D03*
X471501D02*
D03*
X481501D02*
D03*
X491500D02*
D03*
X501500D02*
D03*
X371501Y629998D02*
D03*
X381501D02*
D03*
X411500D02*
D03*
X421501D02*
D03*
X431501D02*
D03*
X441500D02*
D03*
X451500D02*
D03*
X461500D02*
D03*
X471501D02*
D03*
X481501D02*
D03*
X491500D02*
D03*
X501500D02*
D03*
X371501Y619998D02*
D03*
X381501D02*
D03*
X391500D02*
D03*
X401500D02*
D03*
X411500D02*
D03*
X421501D02*
D03*
X431501D02*
D03*
X441500D02*
D03*
X451500D02*
D03*
X461500D02*
D03*
X471501D02*
D03*
X481501D02*
D03*
X491500D02*
D03*
X501500D02*
D03*
X371501Y609998D02*
D03*
X381501D02*
D03*
X391500D02*
D03*
X401500D02*
D03*
X411500D02*
D03*
X421501D02*
D03*
X431501D02*
D03*
X441500D02*
D03*
X451500D02*
D03*
X461500D02*
D03*
X471501D02*
D03*
X481501D02*
D03*
X491500D02*
D03*
X371501Y599998D02*
D03*
X381501D02*
D03*
X391500D02*
D03*
X401500D02*
D03*
X411500D02*
D03*
X421501D02*
D03*
X431501D02*
D03*
X441500D02*
D03*
X451500D02*
D03*
X461500D02*
D03*
X471501D02*
D03*
X481501D02*
D03*
X491500D02*
D03*
X371501Y589998D02*
D03*
X381501D02*
D03*
X391500D02*
D03*
X401500D02*
D03*
X411500D02*
D03*
X421501D02*
D03*
X431501D02*
D03*
X441500D02*
D03*
X451500D02*
D03*
X461500D02*
D03*
X471501D02*
D03*
X481501D02*
D03*
X491500D02*
D03*
X501500D02*
D03*
X371501Y579998D02*
D03*
X381501D02*
D03*
X391500D02*
D03*
X401500D02*
D03*
X411500D02*
D03*
X421501D02*
D03*
X431501D02*
D03*
X441500D02*
D03*
X451500D02*
D03*
X461500D02*
D03*
X471501D02*
D03*
X481501D02*
D03*
X491500D02*
D03*
X371501Y569998D02*
D03*
X381501D02*
D03*
X391500D02*
D03*
X401500D02*
D03*
X411500D02*
D03*
X421501D02*
D03*
X431501D02*
D03*
X441500D02*
D03*
X451500D02*
D03*
X461500D02*
D03*
X471501D02*
D03*
X481501D02*
D03*
X491500D02*
D03*
X501500D02*
D03*
X371501Y559998D02*
D03*
X381501D02*
D03*
X391500D02*
D03*
X401500D02*
D03*
X411500D02*
D03*
X421501D02*
D03*
X431501D02*
D03*
X441500D02*
D03*
X451500D02*
D03*
X461500D02*
D03*
X471501D02*
D03*
X481501D02*
D03*
X491500D02*
D03*
X501500D02*
D03*
X371501Y549998D02*
D03*
X381501D02*
D03*
X391500D02*
D03*
X401500D02*
D03*
X411500D02*
D03*
X421501D02*
D03*
X431501D02*
D03*
X441500D02*
D03*
X451500D02*
D03*
X461500D02*
D03*
X471501D02*
D03*
X481501D02*
D03*
X491500D02*
D03*
X501500D02*
D03*
X371501Y539998D02*
D03*
X381501D02*
D03*
X391500D02*
D03*
X401500D02*
D03*
X411500D02*
D03*
X421501D02*
D03*
X431501D02*
D03*
X441500D02*
D03*
X451500D02*
D03*
X461500D02*
D03*
X471501D02*
D03*
X481501D02*
D03*
X491500D02*
D03*
X371501Y529998D02*
D03*
X381501D02*
D03*
X391500D02*
D03*
X401500D02*
D03*
X411500D02*
D03*
X421501D02*
D03*
X431501D02*
D03*
X441500D02*
D03*
X451500D02*
D03*
X461500D02*
D03*
X471501D02*
D03*
X481501D02*
D03*
X491500D02*
D03*
X501500D02*
D03*
D28*
X202360Y246828D02*
D03*
Y251828D02*
D03*
Y256828D02*
D03*
Y261828D02*
D03*
Y266828D02*
D03*
Y271828D02*
D03*
Y276828D02*
D03*
Y281828D02*
D03*
Y286828D02*
D03*
Y291828D02*
D03*
Y296828D02*
D03*
Y301828D02*
D03*
Y306828D02*
D03*
Y311828D02*
D03*
Y316828D02*
D03*
Y321828D02*
D03*
X110860D02*
D03*
Y316828D02*
D03*
Y311828D02*
D03*
Y306828D02*
D03*
Y301828D02*
D03*
Y296828D02*
D03*
Y291828D02*
D03*
Y286828D02*
D03*
Y281828D02*
D03*
Y276828D02*
D03*
Y271828D02*
D03*
Y266828D02*
D03*
Y261828D02*
D03*
Y256828D02*
D03*
Y251828D02*
D03*
Y246828D02*
D03*
D29*
X194110Y330078D02*
D03*
X189110D02*
D03*
X184110D02*
D03*
X179110D02*
D03*
X174110D02*
D03*
X169110D02*
D03*
X164110D02*
D03*
X159110D02*
D03*
X154110D02*
D03*
X149110D02*
D03*
X144110D02*
D03*
X139110D02*
D03*
X134110D02*
D03*
X129110D02*
D03*
X124110D02*
D03*
X119110D02*
D03*
Y238578D02*
D03*
X124110D02*
D03*
X129110D02*
D03*
X134110D02*
D03*
X139110D02*
D03*
X144110D02*
D03*
X149110D02*
D03*
X154110D02*
D03*
X159110D02*
D03*
X164110D02*
D03*
X169110D02*
D03*
X174110D02*
D03*
X179110D02*
D03*
X184110D02*
D03*
X189110D02*
D03*
X194110D02*
D03*
D30*
X156610Y284328D02*
D03*
D31*
X50000Y99998D02*
D03*
X785000Y899998D02*
D03*
X50000D02*
D03*
D32*
X571455Y403562D02*
D03*
Y430062D02*
D03*
X651500Y401748D02*
D03*
Y428248D02*
D03*
X736500Y401748D02*
D03*
Y428248D02*
D03*
D33*
X240500Y256998D02*
D03*
X222000D02*
D03*
X551770Y156478D02*
D03*
X533270D02*
D03*
X239750Y300998D02*
D03*
X221250D02*
D03*
D34*
X569050Y609868D02*
D03*
X553850D02*
D03*
X91600Y273498D02*
D03*
X76400D02*
D03*
X91600Y250998D02*
D03*
X76400D02*
D03*
X252861Y137108D02*
D03*
X268060D02*
D03*
X179160Y345708D02*
D03*
X163960D02*
D03*
X124591D02*
D03*
X139790D02*
D03*
X91550Y301258D02*
D03*
X76350D02*
D03*
X647100Y88998D02*
D03*
X631900D02*
D03*
X647100Y151998D02*
D03*
X631900D02*
D03*
X734150Y175817D02*
D03*
X718950D02*
D03*
X532220Y179338D02*
D03*
X517020D02*
D03*
X532460Y198388D02*
D03*
X517260D02*
D03*
X532460Y217438D02*
D03*
X517260D02*
D03*
D35*
X281630Y193068D02*
D03*
Y164968D02*
D03*
X241831D02*
D03*
X241831Y193068D02*
D03*
D36*
X548750Y593178D02*
D03*
X574150D02*
D03*
X548750Y570678D02*
D03*
X574150D02*
D03*
D37*
X630948Y712400D02*
D03*
Y727600D02*
D03*
X155050Y203488D02*
D03*
Y218688D02*
D03*
X134050Y203488D02*
D03*
Y218688D02*
D03*
X198230D02*
D03*
Y203488D02*
D03*
X113050D02*
D03*
Y218688D02*
D03*
D38*
X605900Y26558D02*
D03*
Y42748D02*
D03*
X358250Y42558D02*
D03*
Y26368D02*
D03*
X308720D02*
D03*
Y42558D02*
D03*
X527160Y42748D02*
D03*
Y26558D02*
D03*
D39*
X404000Y472498D02*
D03*
Y487498D02*
D03*
X90280Y112148D02*
D03*
Y127148D02*
D03*
X91550Y203588D02*
D03*
Y218588D02*
D03*
X524620Y487948D02*
D03*
Y472948D02*
D03*
X504300Y472828D02*
D03*
Y487828D02*
D03*
X483980Y472828D02*
D03*
Y487828D02*
D03*
X341340Y472748D02*
D03*
Y487748D02*
D03*
X287130Y27058D02*
D03*
Y42058D02*
D03*
X220700Y76961D02*
D03*
Y91961D02*
D03*
X341740Y27058D02*
D03*
Y42058D02*
D03*
X315000Y472498D02*
D03*
Y487498D02*
D03*
X110600Y127148D02*
D03*
Y112148D02*
D03*
X242290Y76961D02*
D03*
Y91961D02*
D03*
X361660Y472748D02*
D03*
Y487748D02*
D03*
X381980Y472748D02*
D03*
Y487748D02*
D03*
X199110Y76961D02*
D03*
Y91961D02*
D03*
X248383Y927418D02*
D03*
Y912418D02*
D03*
X336396Y825888D02*
D03*
Y840888D02*
D03*
X336396Y927418D02*
D03*
Y912418D02*
D03*
X82500Y912498D02*
D03*
Y897498D02*
D03*
X688450Y825888D02*
D03*
Y840888D02*
D03*
X424410Y927418D02*
D03*
Y912418D02*
D03*
X600437Y927418D02*
D03*
Y912418D02*
D03*
X512423Y825888D02*
D03*
Y840888D02*
D03*
X160369Y825888D02*
D03*
Y840888D02*
D03*
X600437Y825888D02*
D03*
Y840888D02*
D03*
X160369Y927418D02*
D03*
Y912418D02*
D03*
X688450Y927418D02*
D03*
Y912418D02*
D03*
X512423Y927418D02*
D03*
Y912418D02*
D03*
X424410Y825888D02*
D03*
Y840888D02*
D03*
X248383Y825888D02*
D03*
Y840888D02*
D03*
X82500Y827498D02*
D03*
Y842498D02*
D03*
X529700Y589428D02*
D03*
Y574428D02*
D03*
D40*
X574553Y216698D02*
D03*
X601053D02*
D03*
D41*
X178000Y739498D02*
D03*
Y729998D02*
D03*
Y720498D02*
D03*
X205000D02*
D03*
Y729998D02*
D03*
Y739498D02*
D03*
X178000Y496998D02*
D03*
Y487498D02*
D03*
Y477998D02*
D03*
X205000D02*
D03*
Y487498D02*
D03*
Y496998D02*
D03*
D42*
X399751Y14998D02*
D03*
X471250D02*
D03*
D43*
X115920Y906728D02*
D03*
Y886728D02*
D03*
Y866728D02*
D03*
X53450Y196798D02*
D03*
Y176798D02*
D03*
Y156798D02*
D03*
X731870Y906728D02*
D03*
Y886728D02*
D03*
Y866728D02*
D03*
X643877Y906728D02*
D03*
Y886728D02*
D03*
Y866728D02*
D03*
X555885Y906728D02*
D03*
Y886728D02*
D03*
Y866728D02*
D03*
X467892Y906728D02*
D03*
Y886728D02*
D03*
Y866728D02*
D03*
X379899Y906728D02*
D03*
Y886728D02*
D03*
Y866728D02*
D03*
X291906Y906728D02*
D03*
Y886728D02*
D03*
Y866728D02*
D03*
X203913Y906728D02*
D03*
Y886728D02*
D03*
Y866728D02*
D03*
D44*
X40000Y39998D02*
D03*
Y959998D02*
D03*
X795000Y39998D02*
D03*
Y959998D02*
D03*
D45*
X102828Y526707D02*
D03*
Y501307D02*
D03*
Y475907D02*
D03*
Y450507D02*
D03*
Y425107D02*
D03*
Y399707D02*
D03*
X128228Y526707D02*
D03*
Y501307D02*
D03*
Y475907D02*
D03*
Y450507D02*
D03*
Y425107D02*
D03*
X102828Y768565D02*
D03*
Y743165D02*
D03*
Y717765D02*
D03*
Y692365D02*
D03*
Y666965D02*
D03*
Y641565D02*
D03*
X128228Y768565D02*
D03*
Y743165D02*
D03*
Y717765D02*
D03*
Y692365D02*
D03*
Y666965D02*
D03*
D46*
Y399707D02*
D03*
Y641565D02*
D03*
D47*
X115920Y927728D02*
D03*
Y845728D02*
D03*
X53450Y217798D02*
D03*
Y135798D02*
D03*
X731870Y927728D02*
D03*
Y845728D02*
D03*
X643877Y927728D02*
D03*
Y845728D02*
D03*
X555885Y927728D02*
D03*
Y845728D02*
D03*
X467892Y927728D02*
D03*
Y845728D02*
D03*
X379899Y927728D02*
D03*
Y845728D02*
D03*
X291906Y927728D02*
D03*
Y845728D02*
D03*
X203913Y927728D02*
D03*
Y845728D02*
D03*
D48*
X650033Y216698D02*
D03*
X655533Y211198D02*
D03*
X644533D02*
D03*
Y222198D02*
D03*
X655533D02*
D03*
M02*
